<svg xmlns="http://www.w3.org/2000/svg" width="600" height="660" xmlns:xlink="http://www.w3.org/1999/xlink">
<defs>
  <radialGradient id="rg" gradientUnits="userSpaceOnUse" cx="220" cy="220" r="405">
    <stop style="stop-color:#ffffff;stop-opacity:.3" offset="0" />
    <stop style="stop-color:#ffffff;stop-opacity:.2" offset="0.2" />
    <stop style="stop-color:#666666;stop-opacity:.1" offset="0.6" />
    <stop style="stop-color:#000000;stop-opacity:.13" offset="1" />
  </radialGradient>
  <path id="shield" d="m 2 2 v 257 c 0 286 298 398 298 398 c 0 0 298 -112 298 -398 V 2 Z" />
</defs>
<use style="fill:#888888;" xlink:href="#shield" />
<path style="fill:#ffdd00;" d="m 25,25 c 12.118,19.186 29.145,31.686 51.08,37.5 21.935,5.814 38.96,18.314 51.08,37.5 -2.95,-15.587 -10.81,-28.087 -23.58,-37.5 -12.768,-9.413 -20.629,-21.913 -23.58,-37.5 9.353,18.1 23.61,30.6 42.79,37.5 19.17,6.9 33.43,19.4 42.78,37.5 -0.19,-14.501 -5.28,-27.001 -15.28,-37.5 -10.01,-10.499 -15.1,-22.999 -15.29,-37.5 6.59,17.015 18.08,29.515 34.49,37.5 16.4,7.985 27.9,20.485 34.49,37.5 2.58,-13.415 0.25,-25.915 -6.99,-37.5 -7.24,-11.585 -9.57,-24.085 -6.99,-37.5 3.82,15.929 12.55,28.429 26.19,37.5 13.64,9.071 22.37,21.571 26.2,37.5 5.34,-12.329 5.78,-24.829 1.3,-37.5 -4.47,-12.671 -4.03,-25.171 1.31,-37.5 1.06,14.843 7.02,27.343 17.9,37.5 10.87,10.157 16.84,22.657 17.89,37.5 8.11,-11.243 11.32,-23.743 9.61,-37.5 -1.71,-13.757 1.49,-26.257 9.6,-37.5 -1.71,13.757 1.49,26.257 9.6,37.5 8.11,11.243 11.31,23.743 9.61,37.5 10.87,-10.157 16.83,-22.657 17.89,-37.5 1.06,-14.843 7.03,-27.343 17.9,-37.5 -4.47,12.671 -4.04,25.171 1.31,37.5 5.34,12.329 5.78,24.829 1.3,37.5 13.64,-9.071 22.37,-21.571 26.2,-37.5 3.82,-15.929 12.55,-28.429 26.19,-37.5 -7.24,11.585 -9.57,24.085 -6.99,37.5 2.58,13.415 0.25,25.915 -6.99,37.5 16.41,-7.985 27.9,-20.485 34.49,-37.5 6.59,-17.015 18.09,-29.515 34.49,-37.5 -10,10.499 -15.1,22.999 -15.28,37.5 -0.19,14.501 -5.28,27.001 -15.29,37.5 19.17,-6.9 33.43,-19.4 42.79,-37.5 9.35,-18.1 23.61,-30.6 42.78,-37.5 -12.77,9.413 -20.63,21.913 -23.58,37.5 -2.95,15.587 -10.81,28.086 -23.58,37.5 21.93,-5.813 38.96,-18.314 51.08,-37.5 12.12,-19.186 29.14,-31.686 51.08,-37.5 -19.19,12.118 -31.69,29.145 -37.5,51.08 -5.81,21.935 -18.31,38.96 -37.5,51.08 15.59,-2.95 28.09,-10.81 37.5,-23.58 9.41,-12.769 21.91,-20.629 37.5,-23.58 -18.22,9.645 -30.72,24.2 -37.5,43.66 -6.78,19.46 -19.28,34.02 -37.5,43.66 14.56,-0.35 27.06,-5.6 37.5,-15.77 10.44,-10.16 22.94,-15.42 37.5,-15.77 -17.19,7.04 -29.69,19 -37.5,35.85 -7.81,16.86 -20.31,28.81 -37.5,35.85 13.54,2.26 26.04,-0.39 37.5,-7.95 11.46,-7.57 23.96,-10.22 37.5,-7.96 -16.17,4.43 -28.67,13.78 -37.5,28.04 -8.83,14.25 -21.33,23.6 -37.5,28.04 12.52,4.86 25.02,4.81 37.5,-0.15 12.48,-4.96 24.98,-5.01 37.49,-0.14 -15.38,1.73 -28.12,8.47 -38.2,20.2 -10.09,11.74 -22.82,18.47 -38.2,20.21 11.31,7.37 23.62,9.92 36.92,7.63 13.31,-2.29 25.62,0.25 36.92,7.63 -15.02,-1.23 -28.45,2.82 -40.29,12.15 -11.84,9.32 -25.28,13.37 -40.3,12.14 9.63,9.63 21.26,14.69 34.87,15.19 13.6,0.49 25.23,5.55 34.86,15.18 -14.19,-4.07 -27.88,-2.77 -41.05,3.9 -13.17,6.68 -26.85,7.97 -41.05,3.9 7.54,11.51 17.99,18.91 31.34,22.21 13.36,3.3 23.8,10.71 31.35,22.22 -12.84,-6.65 -26.23,-8.05 -40.17,-4.19 -13.94,3.86 -27.34,2.46 -40.18,-4.2 5.12,12.97 13.96,22.47 26.54,28.49 12.57,6.03 21.42,15.52 26.53,28.5 -11.01,-8.87 -23.58,-12.81 -37.68,-11.81 -14.11,0.99 -26.67,-2.94 -37.69,-11.81 2.46,14 9.35,25.3 20.68,33.89 11.33,8.59 18.23,19.88 20.68,33.89 -8.81,-10.65 -20.07,-16.87 -33.77,-18.68 -13.7,-1.8 -24.95,-8.03 -33.77,-18.67 -0.33,14.63 4.35,27.43 14.07,38.39 9.71,10.95 14.4,23.75 14.06,38.38 -6.34,-11.98 -15.91,-20.2 -28.71,-24.66 -12.8,-4.46 -22.37,-12.68 -28.71,-24.66 -3.2,14.9 -0.91,28.9 6.88,42 7.79,13.1 10.08,27.1 6.88,42 -3.7,-12.89 -11.29,-22.81 -22.78,-29.74 -11.48,-6.93 -19.08,-16.85 -22.77,-29.75 -6.1,14.82 -6.35,29.73 -0.74,44.74 5.62,15 5.37,29.91 -0.73,44.73 -0.95,-13.42 -6.34,-24.73 -16.17,-33.91 -9.83,-9.18 -15.22,-20.49 -16.18,-33.91 -9.17,14.32 -12.24,29.84 -9.21,46.57 3.02,16.73 -0.1,32.25 -9.22,46.57 3.02,-16.73 -0.1,-32.25 -9.22,-46.57 -9.16,-14.32 -12.24,-29.84 -9.21,-46.57 -9.83,9.19 -15.22,20.49 -16.18,33.91 -0.95,13.42 -6.34,24.72 -16.17,33.91 5.61,-15.01 5.37,-29.92 -0.73,-44.73 -6.1,-14.82 -6.35,-29.73 -0.74,-44.74 -11.48,6.94 -19.07,16.85 -22.77,29.75 -3.7,12.89 -11.29,22.81 -22.78,29.74 7.79,-13.1 10.09,-27.1 6.88,-42 -3.21,-14.9 -0.91,-28.9 6.88,-42 -12.8,4.46 -22.37,12.68 -28.71,24.66 -6.34,11.98 -15.91,20.2 -28.71,24.66 9.71,-10.95 14.4,-23.75 14.06,-38.38 -0.33,-14.64 4.35,-27.44 14.07,-38.39 -13.7,1.8 -24.96,8.03 -33.77,18.67 -8.82,10.65 -20.07,16.87 -33.77,18.68 11.33,-8.59 18.22,-19.89 20.68,-33.89 2.45,-14 9.35,-25.3 20.68,-33.89 -14.11,-1 -26.67,2.94 -37.69,11.81 -11.01,8.87 -23.573,12.8 -37.679,11.8 12.576,-6.02 21.419,-15.52 26.539,-28.49 5.11,-12.97 13.96,-22.47 26.53,-28.49 -13.94,-3.86 -27.33,-2.46 -40.178,4.19 -12.844,6.66 -26.237,8.06 -40.172,4.2 13.361,-3.31 23.808,-10.71 31.348,-22.22 7.539,-11.5 17.982,-18.91 31.342,-22.21 -13.17,-6.67 -26.858,-7.97 -41.051,-3.9 -14.194,4.07 -27.877,2.77 -41.049,-3.9 13.609,-0.5 25.231,-5.56 34.865,-15.19 9.634,-9.62 21.254,-14.68 34.865,-15.18 -11.844,-9.32 -25.275,-13.37 -40.297,-12.14 -15.021,1.22 -28.454,-2.83 -40.297,-12.15 13.306,2.29 25.612,-0.25 36.92,-7.63 11.308,-7.38 23.616,-9.92 36.924,-7.63 -10.091,-11.74 -22.827,-18.48 -38.207,-20.21 -15.38,-1.74 -28.114,-8.47 -38.203,-20.21 12.481,4.96 24.98,5.01 37.5,0.15 12.52,-4.86 25.02,-4.81 37.5,0.15 -8.829,-14.26 -21.329,-23.6 -37.5,-28.04 -16.171,-4.44 -28.671,-13.79 -37.5,-28.04 11.458,7.56 23.958,10.21 37.5,7.96 13.542,-2.26 26.042,0.39 37.5,7.95 -7.807,-16.85 -20.307,-28.81 -37.5,-35.85 -17.193,-7.04 -29.693,-18.99 -37.5,-35.85 10.436,10.17 22.936,15.42 37.5,15.77 14.564,0.35 27.064,5.61 37.5,15.77 -6.785,-19.46 -19.285,-34.01 -37.5,-43.66 -18.215,-9.64 -30.715,-24.197 -37.5,-43.66 9.413,12.768 21.913,20.63 37.5,23.58 15.587,2.95 28.087,10.81 37.5,23.58 -5.814,-21.94 -18.314,-38.962 -37.5,-51.08 -19.186,-12.118 -31.686,-29.144 -37.5,-51.08 z" />
<path style="fill:#ee9900;" d="m 394.5918,53.923828 c -1.42941,3.217027 -2.60425,6.63787 -3.48828,10.324219 v 0.0039 l -0.002,0.002 c -4.22711,17.580598 -14.28114,31.977055 -29.33789,41.990233 l -18.71679,12.44922 7.49218,-21.193359 c 3.9111,-11.061953 3.5531,-21.245512 -1.10937,-32.013672 -1.54411,-3.558366 -2.71371,-7.179159 -3.53321,-10.833984 -0.62061,2.681674 -1.10641,5.442344 -1.3164,8.382812 -1.18098,16.536999 -8.13639,31.126271 -20.25,42.445313 l -15.09766,14.10742 2.53516,-20.507811 c 1.49169,-12.071303 -1.1354,-22.330299 -8.25,-32.193359 -2.29431,-3.180637 -4.24584,-6.496535 -5.85742,-9.923828 0.0534,1.53332 -0.0164,3.018084 0.18164,4.611328 1.92032,15.449027 -1.86506,30.191932 -10.96875,42.8125 l -12.10352,16.78125 -1.46094,-20.63867 c -0.92964,-13.141649 -5.90065,-23.5508 -15.52734,-32.546877 -2.54808,-2.378757 -4.81443,-4.932396 -6.90039,-7.587891 4.9007,14.156753 4.35057,28.825611 -1.60938,42.585938 l -8.92382,20.60547 -5.25,-21.83203 c -3.43289,-14.277409 -10.8373,-24.880949 -23.06055,-33.009768 -1.8279,-1.21561 -3.57489,-2.501004 -5.25391,-3.84375 5.39306,11.388267 7.00111,23.835817 4.5625,36.515628 l -4.93164,25.63671 -9.42773,-24.34375 c -5.97549,-15.428357 -15.9084,-26.224342 -30.7793,-33.464838 -0.7962,-0.387446 -1.52976,-0.844982 -2.30664,-1.253907 5.86128,9.512668 9.0178,20.30195 9.16992,31.91211 l 0.41602,31.761715 -14.58008,-28.22265 c -8.25568,-15.981592 -20.22474,-26.705477 -36.79687,-33.126956 6.20364,8.192348 10.4172,17.709225 12.41992,28.291016 l 7.32422,38.69726 -21.03516,-33.29687 c -11.21186,-17.748405 -26.369561,-28.877718 -46.660157,-34.255859 -5.357675,-1.420083 -10.438831,-3.285622 -15.298828,-5.482422 2.412653,1.908196 4.925916,3.752375 7.646484,5.470703 20.623532,13.025954 34.494361,31.915518 40.744141,55.499998 l 10.09375,38.08984 -23.380859,-31.71874 c -8.40351,-11.4005 -18.942242,-18.02657 -32.857422,-20.66016 -2.41872,-0.45777 -4.766896,-1.05765 -7.072266,-1.74219 3.616536,2.88782 7.586647,5.50196 11.974609,7.82422 h 0.002 l 0.002,0.002 c 19.716525,10.44549 33.72516,26.75179 41.070308,47.81836 l 10.4668,30.02149 -22.781249,-22.17969 c -9.218248,-8.97445 -19.584484,-13.33737 -32.447266,-13.64648 -3.16238,-0.076 -6.241995,-0.43405 -9.271484,-0.94141 3.731183,2.52502 7.790584,4.7404 12.292969,6.58398 18.769889,7.68569 32.941239,21.24428 41.46289,39.63672 l 11.09765,23.95117 -22.033196,-14.53711 c -10.037553,-6.62278 -20.270846,-8.79244 -32.134766,-6.8125 h -0.002 -0.0039 c -3.716473,0.6175 -7.403412,0.88524 -11.044922,0.83204 3.630971,1.88258 7.529861,3.444 11.802734,4.61718 17.80903,4.88975 32.165362,15.61663 41.89062,31.32422 l 11.95117,19.30274 -21.097649,-8.38477 c -10.898746,-4.33155 -21.08171,-4.37127 -32.015625,-0.12695 -3.937783,1.52856 -7.934577,2.5781 -11.951172,3.24414 3.39241,1.09314 6.941538,1.93677 10.777344,2.37109 h 0.0059 c 17.07073,1.92158 31.852593,9.74533 43.050782,22.77344 l 13.5957,15.81836 -20.55469,-3.53711 c -11.632896,-2.00175 -21.671048,0.0704 -31.552729,6.51953 -3.719881,2.42773 -7.612907,4.34565 -11.611329,5.86133 3.300274,0.36096 6.704201,0.45263 10.28125,0.16211 16.71675,-1.36736 32.364887,3.35092 45.542968,13.7207 l 16.06055,12.63867 -20.42383,0.75 c -11.910982,0.43755 -21.407904,4.57383 -29.837891,12.99024 l -0.0039,0.002 c -3.264154,3.26237 -6.819326,6.02936 -10.574219,8.39648 3.071221,-0.30729 6.192141,-0.90456 9.392578,-1.82226 15.827998,-4.53885 31.817652,-3.02094 46.505862,4.41797 l 18.02344,9.12695 -19.61329,4.8457 c -11.70532,2.89129 -20.25948,8.9603 -26.867183,19.03907 v 0.002 c -2.566182,3.91713 -5.527477,7.39695 -8.769532,10.52148 2.621509,-0.8575 5.237475,-1.90789 7.867188,-3.27148 l 0.0039,-0.002 0.002,-0.002 c 14.355557,-7.43029 30.047097,-9.06993 45.626957,-4.75586 l 19.29687,5.3418 -18.05859,8.65039 c -11.03457,5.28466 -18.30574,13.09026 -22.79102,24.47461 l -0.002,0.002 v 0.002 c -1.714,4.3419 -3.89329,8.34493 -6.41406,12.06054 1.98186,-1.19086 3.95451,-2.41921 5.87304,-3.96484 l 0.002,-0.002 c 12.3433,-9.93513 27.11308,-14.56962 42.92187,-13.44922 l 19.89258,1.41015 -15.89063,12.04883 c -9.97484,7.56257 -15.66826,16.88534 -17.82421,29.20508 v 0.004 0.002 c -0.79098,4.50146 -2.07227,8.77737 -3.72657,12.85352 1.22868,-1.21038 2.4946,-2.32665 3.65235,-3.72461 9.89485,-11.9502 23.18046,-19.30025 38.57031,-21.32227 l 19.92969,-2.61914 -13.34375,15.0332 c -8.58576,9.67223 -12.47207,20.2947 -12.18164,33.23633 v 0.006 c 0.1004,4.33632 -0.24202,8.56892 -0.95899,12.6875 0.47621,-0.79491 1.03619,-1.46343 1.48242,-2.30664 7.13608,-13.48425 18.46409,-23.21443 32.8711,-28.23437 l 19.43164,-6.76954 -10.51758,17.68555 c -6.92166,11.63975 -8.8451,23.35446 -5.99414,36.58789 0.83152,3.85973 1.2904,7.70072 1.44727,11.51172 4.2019,-14.4117 13.15614,-26.0714 26.00976,-33.8418 l 18.45703,-11.15625 -7.55078,20.20118 c -5.01419,13.41585 -4.80314,26.01035 0.65039,39.25976 1.22721,2.9798 2.16579,5.99489 2.96484,9.02149 1.86454,-13.42223 8.00569,-25.33977 18.05665,-34.73633 l 16.53711,-15.45899 -4.03516,22.27539 c -2.72621,15.05264 -0.0973,28.3007 8.14844,41.19141 l 0.004,0.006 0.004,0.006 c 1.99163,3.12722 3.65382,6.35548 5.13281,9.63281 -0.16209,-1.43054 -0.13445,-2.80466 -0.39844,-4.26758 -3.33327,-18.40451 0.18627,-36.19889 10.27344,-51.95117 l 12.18555,-19.02734 1.61133,22.53711 c 0.83883,11.72626 5.23466,20.94874 13.81836,28.96484 2.88261,2.692 5.42979,5.60113 7.66601,8.68359 -0.5784,-3.75586 -1.46385,-7.53558 -2.9082,-11.39062 v -0.004 l -0.002,-0.002 c -6.20583,-16.60415 -5.91639,-33.83011 0.83007,-50.2207 l 8.21289,-19.95313 5.9336,20.74414 c 3.22033,11.25807 9.4111,19.34053 19.43164,25.39063 l 0.004,0.002 c 3.70278,2.23362 7.04227,4.82606 10.07813,7.67774 -1.15235,-3.25054 -2.59214,-6.47526 -4.5,-9.6836 -8.65979,-14.56267 -11.32434,-30.84703 -7.76758,-47.4082 l 4.32617,-20.14063 9.63672,18.20703 c 5.54393,10.47575 13.35389,17.18588 24.54688,21.08594 4.36575,1.52119 8.41036,3.52515 12.17968,5.88477 -1.57785,-2.58924 -3.43857,-5.09897 -5.60742,-7.54492 -10.85044,-12.23466 -16.3253,-27.21028 -15.95703,-43.53711 l 0.45313,-20.08008 12.81836,15.46289 c 7.73824,9.33502 16.96296,14.44357 28.97265,16.02148 h 0.004 0.002 c 4.63158,0.61191 9.04543,1.76292 13.26172,3.31836 -1.73977,-1.7768 -3.56606,-3.51026 -5.68555,-5.11719 -12.68685,-9.6187 -20.7811,-22.89487 -23.53515,-38.56835 l -3.45313,-19.65039 15.54297,12.50976 c 9.69455,7.80315 20.04529,11.04313 32.46289,10.17188 4.60616,-0.32627 9.11055,-0.10538 13.50781,0.53515 -1.6378,-1.02929 -3.22671,-2.09376 -5.07031,-2.97851 -14.11727,-6.75565 -24.53596,-17.95293 -30.2793,-32.50196 l -7.35742,-18.63672 17.78711,9.22657 c 11.32811,5.87579 22.42536,7.03458 34.72461,3.6289 4.33851,-1.20133 8.68337,-1.89248 13.00781,-2.17383 -1.3299,-0.44599 -2.56373,-0.99674 -3.98437,-1.34765 h -0.002 c -15.0005,-3.70799 -27.3413,-12.44637 -35.81446,-25.38086 l -11.05664,-16.87891 19.39844,5.56055 c 12.57007,3.60283 23.94106,2.52756 35.58984,-3.38086 h 0.002 l 0.002,-0.002 c 3.84148,-1.94553 7.77601,-3.46252 11.76953,-4.59571 -0.83692,-0.0701 -1.59943,-0.26587 -2.46094,-0.29687 h -0.002 -0.002 c -15.30853,-0.5624 -29.06239,-6.54677 -39.89844,-17.38281 l -14.44531,-14.44532 20.35937,1.66797 c 13.32102,1.09087 24.54565,-2.29169 35.04688,-10.55664 3.21256,-2.53152 6.57628,-4.71435 10.0625,-6.5664 -0.26663,0.0419 -0.51099,0.0222 -0.7793,0.0684 -14.97952,2.5787 -29.55314,-0.44165 -42.28516,-8.73829 l -17.48047,-11.39062 20.73047,-2.34375 c 13.6928,-1.54912 24.37446,-7.19683 33.35547,-17.64648 2.45339,-2.85499 5.10924,-5.41401 7.89453,-7.76172 -13.68199,5.09884 -28.02816,5.04378 -41.71093,-0.26758 l -21.16016,-8.21485 21.88867,-6.00976 c 14.52826,-3.98921 25.1751,-11.95255 33.10938,-24.75586 1.39184,-2.24775 2.90434,-4.36459 4.48242,-6.40625 -11.377,5.81073 -23.93956,7.77431 -36.83985,5.62109 l -26.01562,-4.34179 24.4082,-9.9961 c 15.61547,-6.39516 26.44186,-16.74352 33.53711,-32.06054 v -0.002 c 0.54908,-1.18464 1.18755,-2.29128 1.78321,-3.43554 -9.57278,6.13907 -20.49918,9.49369 -32.29883,9.77734 l -31.83399,0.76562 28.14649,-14.89257 c 16.53452,-8.74824 27.45028,-21.38935 33.70508,-38.94336 -8.30298,6.41312 -18.00428,10.73792 -28.80274,12.78125 l -38.70312,7.32422 33.30273,-21.03516 c 17.75219,-11.21191 28.88165,-26.368468 34.25586,-46.658203 1.41828,-5.354572 3.28203,-10.433516 5.47656,-15.291015 -1.90566,2.41017 -3.74821,4.919288 -5.46484,7.636718 -13.02858,20.624284 -31.92536,34.49519 -55.5,40.74414 l -38.0918,10.0957 31.71875,-23.382808 c 11.40098,-8.404759 18.02853,-18.9423 20.66211,-32.857422 0.35748,-1.888818 0.81451,-3.728654 1.31055,-5.548828 -2.36061,3.193954 -4.53643,6.625207 -6.47852,10.384765 v 0.002 0.002 c -10.1405,19.609306 -26.14146,33.635198 -46.91211,41.111323 l -29.88867,10.75781 21.91992,-22.990226 c 8.8337,-9.265235 13.05017,-19.616979 13.21875,-32.417969 0.0343,-2.765487 0.29825,-5.464982 0.66602,-8.132812 -2.0614,3.356893 -3.85513,6.99116 -5.38281,10.935546 -7.20359,18.599251 -20.26259,32.805408 -38.20313,41.535151 l -23.48047,11.42578 13.83985,-22.144524 c 6.3383,-10.142169 8.24302,-20.365272 5.98437,-32.109375 -0.64483,-3.352852 -0.96373,-6.685628 -1.05273,-9.992188 z" />
<path style="fill:#888888;" d="m 100,100 h 400 v 159 c 0,165.40588 -134.8926,256.01826 -200,290.1543 -65.1074,-34.13604 -200,-124.74842 -200,-290.1543 z" />
<path style="fill:#000000;" d="m 299.76758,112.64062 c -10.06423,-1e-5 -12.21552,0.20727 -18.16406,1.74219 -10.01816,2.58501 -16.91731,6.90503 -26.69336,16.71485 -5.78767,5.80765 -9.47825,10.29154 -13.625,16.54882 -3.6576,5.51914 -4.37581,6.94932 -7.39454,14.74414 -1.51381,3.90888 -12.65994,31.9111 -24.76953,62.22657 -12.10959,30.31549 -26.07638,65.35294 -31.03711,77.86133 -8.70875,21.95896 -13.50781,35.11098 -13.50781,37.01171 0,0.58017 0.70288,1.99798 1.93555,3.90235 1.06503,1.64539 4.35886,6.82888 7.31836,11.51953 2.9595,4.69064 6.54464,10.09291 7.9668,12.00391 1.42214,1.911 4.7521,6.6018 7.40234,10.42382 2.65024,3.822 5.10459,7.25906 5.45312,7.63868 0.34855,0.37956 3.99325,2.9294 8.09961,5.66601 9.43148,6.2855 9.96674,6.71728 11.06055,8.91406 1.30279,2.61644 2.69801,6.33913 2.46289,6.57422 -0.25873,0.25874 -1.61152,-0.63617 -13.95312,-9.23047 -5.55929,-3.87135 -10.47893,-7.44085 -10.93165,-7.93164 -1.40803,-1.52653 -9.90553,-13.41077 -11.25781,-15.74414 -2.80677,-4.84306 -5.99889,-9.67963 -6.63867,-10.0625 -0.23757,-0.14218 -3.84563,1.36514 -8.93359,3.73047 -8.43977,3.92349 -13.15403,6.6345 -21.96094,12.63477 -3.24246,2.20915 -9.69988,7.1835 -11.57617,8.85937 43.52374,84.87482 122.46791,136.25496 168.13281,160.31445 0.5524,0.14465 1.0371,0.20941 1.36719,0.15235 0.0185,-0.003 0.0541,-0.0174 0.0742,-0.0215 45.5943,-23.9881 124.66108,-75.34761 168.28125,-160.25976 -2.18612,-1.81711 -9.4761,-7.3617 -11.91797,-9.02539 -8.83361,-6.01862 -13.5417,-8.72762 -21.98828,-12.6543 -5.08797,-2.36533 -8.69603,-3.87265 -8.9336,-3.73047 -0.63976,0.38287 -3.82994,5.21944 -6.63672,10.0625 -1.35229,2.33337 -9.85172,14.21761 -11.25976,15.74414 -0.4527,0.49079 -5.37234,4.06029 -10.93164,7.93164 -12.34161,8.5943 -13.6944,9.48921 -13.95313,9.23047 -0.2351,-0.23509 1.16009,-3.95778 2.46289,-6.57422 1.09382,-2.19678 1.62906,-2.62856 11.06055,-8.91406 4.10635,-2.73661 7.75104,-5.28645 8.09961,-5.66601 0.34852,-0.37962 2.80286,-3.81668 5.45312,-7.63868 2.65024,-3.82202 5.98216,-8.51282 7.4043,-10.42382 1.42216,-1.911 5.0073,-7.31327 7.9668,-12.00391 2.9595,-4.69065 6.25136,-9.87414 7.3164,-11.51953 1.23265,-1.90437 1.9375,-3.32218 1.9375,-3.90235 0,-1.90073 -4.80102,-15.05275 -13.50976,-37.01171 -4.96075,-12.50839 -18.92753,-47.54584 -31.03711,-77.86133 -12.1096,-30.31547 -23.25573,-58.3177 -24.76953,-62.22657 -3.01876,-7.79481 -3.73501,-9.225 -7.39258,-14.74414 -4.14676,-6.25728 -7.83925,-10.74117 -13.62695,-16.54882 -9.77603,-9.80982 -16.67521,-14.12984 -26.69336,-16.71485 -5.94854,-1.53492 -8.09788,-1.74218 -18.16211,-1.74219 z m 0,95.41016 c 10.11357,0 12.28991,0.26225 22.74219,2.72461 7.61597,1.79419 11.0087,3.02912 17.73828,6.4668 5.41333,2.76531 10.026,5.72497 15.42383,9.90039 6.02843,4.66326 7.72132,6.14033 8.01953,6.98828 0.2134,0.60681 -0.78111,4.64145 -4.39063,17.82617 -2.56589,9.37254 -4.92804,18.02613 -5.25,19.23047 -0.71482,2.67394 -0.79324,9.91286 -0.1914,17.86719 0.21683,2.86651 0.39453,6.98855 0.39453,9.16015 0,3.9317 -0.006,3.96936 -1.6875,9.00196 -0.92913,2.77965 -3.40937,9.38881 -5.50977,14.6875 l -3.82031,9.63281 -7.25586,10.90039 c -3.99147,5.99361 -7.52492,11.50447 -7.85352,12.24609 -0.33211,0.74956 -3.04767,14.21356 -6.11523,30.32032 -3.03509,15.93623 -6.79147,35.58572 -8.3457,43.66406 -1.55426,8.07834 -3.19251,16.74853 -3.63868,19.26758 -0.44616,2.51906 -1.36843,7.35256 -2.05273,10.74023 -0.6843,3.3877 -2.16645,11.06303 -3.29297,17.05664 -1.12647,5.9936 -2.33952,12.24803 -2.69531,13.89844 -0.58461,2.71179 -0.69304,5.11421 -1.1211,24.95312 -0.2605,12.07407 -0.58566,22.66458 -0.72265,23.53321 -0.2336,1.48118 -0.26331,1.37218 -0.4707,-1.73828 -0.12163,-1.82414 -0.51161,-12.34134 -0.86915,-23.37305 l -0.65234,-20.05664 -1.23437,-6.31836 c -0.67987,-3.47456 -1.81646,-9.44557 -2.52344,-13.26758 -0.70699,-3.82201 -1.91174,-10.07643 -2.67774,-13.89844 -0.76599,-3.82201 -1.75712,-9.01023 -2.20507,-11.52929 -0.44795,-2.51905 -2.08834,-11.18924 -3.64258,-19.26758 -1.55423,-8.07834 -5.30673,-27.72783 -8.3418,-43.66406 -3.06756,-16.10676 -5.78508,-29.57076 -6.11719,-30.32032 -0.32859,-0.74162 -3.86202,-6.25248 -7.85351,-12.24609 l -7.25781,-10.90039 -3.82032,-9.63281 c -2.10038,-5.29869 -4.5787,-11.90785 -5.50781,-14.6875 -1.68254,-5.0326 -1.6875,-5.07026 -1.6875,-9.00196 0,-2.1716 0.17571,-6.29364 0.39258,-9.16015 0.6018,-7.95433 0.52537,-15.19325 -0.18945,-17.86719 -0.32196,-1.20434 -2.68412,-9.85793 -5.25,-19.23047 -3.60955,-13.18472 -4.60405,-17.21936 -4.39063,-17.82617 0.29821,-0.84795 1.99301,-2.32502 8.02148,-6.98828 5.39781,-4.17543 10.00856,-7.13508 15.42188,-9.90039 6.72958,-3.43769 10.12036,-4.67261 17.73633,-6.4668 10.45226,-2.46236 12.63055,-2.72461 22.74414,-2.72461 z m 0,2.03906 c -4.99837,0 -8.45506,0.15652 -10.58203,0.47657 -4.69322,0.70619 -15.0952,3.2295 -18.16211,4.40625 -6.10478,2.34235 -18.54288,9.30265 -25.53125,14.28711 -2.20134,1.57011 -5.92867,4.95286 -6.37305,5.7832 -0.19703,0.36814 1.0589,5.71485 4.12305,17.55664 2.42338,9.36549 4.40625,17.18433 4.40625,17.375 0,0.40506 2.58826,5.52137 6.29687,12.44727 8.60783,16.07528 15.16028,26.49308 18.35547,29.18164 1.67157,1.40654 13.50451,5.07417 20.39258,6.32226 3.28254,0.59481 6.33923,1.09679 6.79297,1.11133 0.45375,0.0145 3.64394,-0.47618 7.08789,-1.08789 5.00579,-0.88909 7.61263,-1.55785 12.99414,-3.33594 4.26432,-1.40896 7.0726,-2.51207 7.66406,-3.00976 3.1952,-2.68856 9.74764,-13.10636 18.35547,-29.18164 3.70861,-6.92591 6.29688,-12.04221 6.29688,-12.44727 0,-0.19067 1.98285,-8.00951 4.40625,-17.375 3.06415,-11.84179 4.32005,-17.1885 4.12304,-17.55664 -0.44439,-0.83034 -4.17173,-4.21309 -6.37304,-5.7832 -6.98838,-4.98446 -19.42457,-11.94476 -25.5293,-14.28711 -3.06694,-1.17675 -13.47082,-3.70006 -18.16406,-4.40625 -2.12697,-0.32005 -5.58172,-0.47657 -10.58008,-0.47657 z m -17.85352,28.88086 c 0.027,0.002 0.0462,0.016 0.0547,0.0391 0.0679,0.18474 -0.37453,1.41282 -0.98242,2.72851 -1.852,4.00837 -1.75138,6.9518 0.33984,10.0293 0.41429,0.6097 0.75196,1.2895 0.75195,1.50976 0,0.23269 -0.38952,0.40039 -0.92968,0.40039 -1.15947,0 -1.72602,-0.76333 -2.55274,-3.42968 -1.25336,-4.0424 -0.6116,-7.60436 1.82813,-10.11524 0.68312,-0.70306 1.30119,-1.17799 1.49023,-1.16211 z m 35.70508,0 c 0.18902,-0.0159 0.80709,0.45905 1.49024,1.16211 1.66829,1.71697 2.45117,3.73314 2.45117,6.30078 1e-5,1.9239 -0.91576,5.35818 -1.74414,6.53321 -0.32608,0.46257 -0.82657,0.71093 -1.43164,0.71093 -1.13369,0 -1.17378,-0.44149 -0.17579,-1.91015 2.09121,-3.07749 2.19185,-6.02093 0.33985,-10.0293 -0.60789,-1.31569 -1.05031,-2.54377 -0.98242,-2.72851 0.009,-0.0231 0.0256,-0.0367 0.0527,-0.0391 z m -27.57812,8.08985 c 0.91706,0.007 1.83474,0.14079 2.56054,0.41797 1.43322,0.54735 4.11201,2.92961 3.82227,3.39843 -0.38986,0.63079 -9.64582,-0.44074 -10.41016,-1.20507 -0.62436,-0.62436 -0.58753,-0.82013 0.30664,-1.66016 0.66096,-0.62093 2.19228,-0.96248 3.72071,-0.95117 z m 19.45117,0 c 1.52843,-0.0113 3.05975,0.33024 3.7207,0.95117 0.42235,0.39679 0.76953,0.82794 0.76953,0.95898 0,0.6735 -1.16513,1.18829 -3.38086,1.49414 -4.29618,0.59302 -7.27144,0.76888 -7.47265,0.44336 -0.30634,-0.49568 2.31897,-2.86303 3.80273,-3.42968 0.72579,-0.27718 1.64349,-0.41118 2.56055,-0.41797 z m -9.72461,25.0957 c 10.90217,0 11.42334,0.0959 15.54492,2.88867 3.13114,2.12171 4.45247,3.29947 4.09766,3.6543 -0.33991,0.33989 -3.7582,-0.72225 -6.83204,-2.12305 -2.72124,-1.24011 -3.58575,-1.32536 -6.0957,-0.5957 -1.25217,0.36397 -2.25507,0.44605 -3.52148,0.28515 -0.97436,-0.12378 -2.41159,-0.22656 -3.19336,-0.22656 -0.78177,0 -2.21901,0.10278 -3.19336,0.22656 -1.2664,0.16089 -2.27128,0.0788 -3.52344,-0.28515 -2.50995,-0.72966 -3.37249,-0.64441 -6.09375,0.5957 -1.33235,0.60717 -3.34686,1.38996 -4.47461,1.73828 -2.37567,0.73378 -2.21524,0.7071 -2.42773,0.36328 -0.43898,-0.71029 5.95491,-5.14788 8.58984,-5.96289 1.55449,-0.48081 3.1028,-0.55859 11.12305,-0.55859 z m 6.22656,14.6875 c 1.06582,0 -0.30074,0.86311 -3.20898,2.02734 -1.55389,0.62204 -2.97481,1.11903 -3.15821,1.10352 -0.68313,-0.0576 -5.72068,-2.24859 -6.16601,-2.68164 -0.61457,-0.59765 -0.20714,-0.5927 3.46484,0.041 2.57037,0.44358 3.11521,0.44358 5.68555,0 1.56366,-0.26984 3.08506,-0.49023 3.38281,-0.49023 z" />
<use id="shine" style="fill:url(#rg);stroke:#000000;stroke-width:3;" xlink:href="#shield" />
</svg>
