<?xml version="1.0" encoding="UTF-8"?>
<svg xmlns="http://www.w3.org/2000/svg" xmlns:xlink="http://www.w3.org/1999/xlink" width="600" height="660">
<defs>
  <radialGradient id="rg" gradientUnits="userSpaceOnUse" cx="220" cy="220" r="405">
    <stop style="stop-color:#ffffff;stop-opacity:.3" offset="0"/>
    <stop style="stop-color:#ffffff;stop-opacity:.2" offset=".2"/>
    <stop style="stop-color:#666666;stop-opacity:.1" offset=".6"/>
    <stop style="stop-color:#000000;stop-opacity:.13" offset="1"/>
  </radialGradient>
  <path id="shield" d="m2,2v257c0,286 298,398 298,398c0,0 298-112 298-398V2z"/>
  <clipPath id="clip-chief">
	<path d="M 0,0 H 600 V 200 H 0 z" />
  </clipPath>
</defs>
<use id="field" xlink:href="#shield" style="fill:#ffffff;"/>
<path style="fill:#0000cc;" d="m 85.714844,2 v 495.69141 c 26.614126,33.78474 56.688736,61.69019 85.712886,84.1875 V 2 Z M 257.14258,2 V 636.99219 C 282.99676,650.59934 300,657 300,657 c 0,0 17.00324,-6.40066 42.85742,-20.00781 V 2 Z m 171.42969,0 v 579.87891 c 29.02415,-22.49731 59.09876,-50.40276 85.71289,-84.1875 V 2 Z"/>
<g id="chief" clip-path="url(#clip-chief)">
  <rect style="fill:#ffdd00;" x="0" y="0" width="600" height="220"/>
  <g transform="translate(0,15)">
    <path style="fill:#000000;" d="M 300,32 A 628,628 0 0 0 0,109.00781 V 220 H 600 V 108.35742 A 628,628 0 0 0 300,32 Z"/>
    <path style="fill:none;stroke:#ffdd00;stroke-width:2;" d="M 0,40 H 600 M 0,55 H 600 M 0,70 H 600 M 0,85 H 600 M 0,100 H 600 M 0,115 H 600 M 0,130 H 600 M 0,145 H 600 M 0,160 H 600 M 0,175 H 600 M 0,190 H 600 M 0,205 h 600"/>
    <path style="fill:none;stroke:#ffdd00;stroke-width:2;" d="m 565,205 v 15 M 385,205 v 15 M 205,205 v 15 M 25,205 v 15 m 550,-30 v 15 M 395,190 v 15 M 215,190 v 15 M 35,190 v 15 m 530,-30 v 15 M 385,175 v 15 M 205,175 v 15 M 25,175 v 15 m 550,-30 v 15 M 395,160 v 15 M 215,160 v 15 M 35,160 v 15 m 530,-30 v 15 M 385,145 v 15 M 205,145 v 15 M 25,145 v 15 m 550,-30 v 15 M 395,130 v 15 M 215,130 v 15 M 35,130 v 15 m 35,-30 v 15 m 495,-15 v 15 M 385,115 v 15 M 205,115 v 15 M 25,115 v 15 m 505,-30 v 15 M 80,100 v 15 m 495,-15 v 15 M 395,100 v 15 M 215,100 v 15 m -45,-15 v 15 M 35,100 v 15 m 80,-30 v 15 m 45,-15 v 15 m 45,-15 v 15 M 475,85 v 15 M 430,85 v 15 M 385,85 v 15 M 565,85 v 15 M 70,85 v 15 M 520,85 v 15 M 530,70 V 85 M 80,70 V 85 M 350,70 V 85 M 260,70 V 85 M 395,70 V 85 M 440,70 V 85 M 485,70 V 85 M 215,70 V 85 M 170,70 V 85 M 125,70 V 85 M 170,40 V 55 M 215,40 V 55 M 440,40 V 55 M 395,40 V 55 M 260,40 V 55 M 350,40 V 55 M 305,40 V 55 M 115,55 V 70 M 160,55 V 70 M 205,55 V 70 M 475,55 V 70 M 430,55 V 70 M 385,55 V 70 M 250,55 V 70 M 340,55 V 70 M 295,55 V 70 M 250,25 V 40 M 340,25 V 40 M 295,25 v 15"/>
    <g id="left">
        <path style="fill:#ffdd00;stroke:#ffdd00;stroke-width:24;" d="m 75.714286,220 v -60 a 52.857147,52.857147 0 0 1 105.714294,0 v 60"/>
        <path style="fill:#000000;" d="M 128.57227 97.146484 L 125.34766 97.228516 L 122.15625 97.470703 L 119.01367 97.871094 L 115.91602 98.423828 L 114.39648 98.767578 L 118.89453 118.25391 L 119.93359 118.01562 L 122.02539 117.64062 L 124.17773 117.36719 L 126.35938 117.20312 L 128.57031 117.14648 L 128.57227 117.14648 L 128.57422 117.14648 L 130.78516 117.20312 L 132.9668 117.36719 L 135.11914 117.64062 L 137.21094 118.01562 L 138.25 118.25391 L 142.74805 98.767578 L 141.22852 98.423828 L 138.13086 97.871094 L 134.98828 97.470703 L 131.79688 97.228516 L 128.57227 97.146484 z M 111.97266 99.373047 L 109.88477 99.974609 L 106.96094 100.96094 L 104.10352 102.08984 L 101.31836 103.34766 L 98.605469 104.73633 L 95.970703 106.25195 L 93.421875 107.88477 L 90.958984 109.63672 L 88.585938 111.50195 L 86.306641 113.47656 L 86.09375 113.67188 L 99.578125 128.43359 L 101.29883 126.94336 L 102.92773 125.66211 L 104.64062 124.44336 L 106.33594 123.35742 L 108.13477 122.32227 L 110.01172 121.35938 L 111.88477 120.51367 L 113.82812 119.74609 L 115.83203 119.06836 L 117.43555 118.61328 L 111.97266 99.373047 z M 145.17188 99.373047 L 139.70898 118.61328 L 141.3125 119.06836 L 143.31641 119.74609 L 145.25977 120.51367 L 147.13281 121.35938 L 149.00977 122.32227 L 150.80859 123.35742 L 152.50391 124.44336 L 154.2168 125.66211 L 155.8457 126.94336 L 157.56641 128.43359 L 171.05078 113.67188 L 170.83789 113.47656 L 168.55859 111.50195 L 166.18555 109.63672 L 163.72266 107.88477 L 161.17383 106.25195 L 158.53906 104.73633 L 155.82617 103.34766 L 153.04102 102.08984 L 150.18359 100.96094 L 147.25977 99.974609 L 145.17188 99.373047 z M 84.646484 115.05273 L 84.126953 115.55469 L 82.046875 117.73633 L 80.074219 120.01562 L 78.208984 122.38672 L 76.457031 124.85156 L 74.822266 127.40039 L 73.308594 130.0332 L 71.919922 132.74414 L 70.660156 135.53125 L 69.533203 138.38867 L 68.953125 140.08789 L 87.898438 146.49805 L 88.318359 145.25781 L 89.085938 143.3125 L 89.947266 141.40625 L 90.876953 139.5918 L 91.912109 137.78906 L 93.033203 136.04297 L 94.234375 134.35352 L 95.480469 132.76758 L 96.839844 131.19727 L 98.283203 129.68359 L 98.447266 129.52734 L 84.646484 115.05273 z M 172.49805 115.05273 L 158.69727 129.52734 L 158.86133 129.68359 L 160.30469 131.19727 L 161.66406 132.76758 L 162.91016 134.35352 L 164.11133 136.04297 L 165.23242 137.78906 L 166.26758 139.5918 L 167.19727 141.40625 L 168.05859 143.3125 L 168.82617 145.25781 L 169.24609 146.49805 L 188.19141 140.08789 L 187.61133 138.38867 L 186.48438 135.53125 L 185.22461 132.74414 L 183.83594 130.0332 L 182.32227 127.40039 L 180.6875 124.85156 L 178.93555 122.38672 L 177.07031 120.01562 L 175.09766 117.73633 L 173.01758 115.55469 L 172.49805 115.05273 z M 68.208984 142.46875 L 67.695312 144.29883 L 66.994141 147.34375 L 66.441406 150.44141 L 66.041016 153.58594 L 65.798828 156.77344 L 65.714844 159.87305 L 65.714844 170 L 85.714844 170 L 85.714844 160.0957 L 85.773438 157.79102 L 85.939453 155.60938 L 86.212891 153.45898 L 86.591797 151.33008 L 87.070312 149.26758 L 87.449219 147.93359 L 68.208984 142.46875 z M 188.93555 142.46875 L 169.69531 147.93359 L 170.07422 149.26758 L 170.55273 151.33008 L 170.93164 153.45898 L 171.20508 155.60938 L 171.37109 157.79102 L 171.42969 160.0957 L 171.42969 170 L 191.42969 170 L 191.42969 159.87305 L 191.3457 156.77344 L 191.10352 153.58594 L 190.70312 150.44141 L 190.15039 147.34375 L 189.44922 144.29883 L 188.93555 142.46875 z M 65.714844 172 L 65.714844 197 L 85.714844 197 L 85.714844 172 L 65.714844 172 z M 171.42969 172 L 171.42969 197 L 191.42969 197 L 191.42969 172 L 171.42969 172 z M 65.714844 199 L 65.714844 220 L 85.714844 220 L 85.714844 199 L 65.714844 199 z M 171.42969 199 L 171.42969 220 L 191.42969 220 L 191.42969 199 L 171.42969 199 z "/>
    </g>
    <g>
        <path style="fill:#ffdd00;stroke:#ffdd00;stroke-width:24;" d="m 247.14286,220 v -90 a 52.85715,52.85715 0 0 1 105.7143,0 v 90"/>
        <path style="fill:#000000;" d="M 300 67.146484 L 296.77344 67.226562 L 293.58594 67.470703 L 290.44141 67.869141 L 287.34375 68.421875 L 284.84961 68.992188 L 289.34766 88.480469 L 291.36523 88.013672 L 293.45898 87.640625 L 295.60547 87.367188 L 297.78906 87.203125 L 300 87.146484 L 302.21094 87.203125 L 304.39453 87.367188 L 306.54102 87.640625 L 308.63477 88.013672 L 310.65234 88.480469 L 315.15039 68.992188 L 312.65625 68.421875 L 309.55859 67.869141 L 306.41211 67.470703 L 303.22461 67.226562 L 300 67.146484 z M 282.43945 69.646484 L 281.3125 69.974609 L 278.38867 70.960938 L 275.5332 72.087891 L 272.74414 73.349609 L 270.0332 74.738281 L 267.40039 76.251953 L 264.85156 77.884766 L 262.38672 79.638672 L 260.01562 81.501953 L 257.73633 83.476562 L 256.79883 84.363281 L 270.59961 98.837891 L 271.17969 98.285156 L 272.74609 96.925781 L 274.35547 95.662109 L 276.06836 94.443359 L 277.76367 93.357422 L 279.5625 92.322266 L 281.43945 91.359375 L 283.3125 90.513672 L 285.25586 89.746094 L 287.25781 89.070312 L 287.90234 88.886719 L 282.43945 69.646484 z M 317.56055 69.646484 L 312.09766 88.886719 L 312.74219 89.070312 L 314.74414 89.746094 L 316.6875 90.513672 L 318.56055 91.359375 L 320.4375 92.322266 L 322.23633 93.357422 L 323.93164 94.443359 L 325.64453 95.662109 L 327.25391 96.925781 L 328.82031 98.285156 L 329.40039 98.837891 L 343.20117 84.363281 L 342.26367 83.476562 L 339.98438 81.501953 L 337.61133 79.638672 L 335.14844 77.884766 L 332.59766 76.251953 L 329.9668 74.738281 L 327.25391 73.349609 L 324.4668 72.087891 L 321.60938 70.960938 L 318.68555 69.974609 L 317.56055 69.646484 z M 255.03125 86.097656 L 253.47656 87.736328 L 251.50195 90.015625 L 249.63672 92.386719 L 247.88477 94.851562 L 246.25195 97.400391 L 244.73633 100.0332 L 243.34766 102.74414 L 242.08789 105.5332 L 240.96094 108.38867 L 240.06055 111.03516 L 259.00586 117.44531 L 259.74609 115.25781 L 260.51367 113.3125 L 261.35938 111.43945 L 262.32227 109.5625 L 263.35742 107.76367 L 264.44336 106.06836 L 265.66211 104.35547 L 266.92578 102.74609 L 268.28711 101.17773 L 269.50586 99.898438 L 255.03125 86.097656 z M 344.96875 86.097656 L 330.49414 99.898438 L 331.71289 101.17773 L 333.07422 102.74609 L 334.33789 104.35547 L 335.55664 106.06836 L 336.64258 107.76367 L 337.67773 109.5625 L 338.64062 111.43945 L 339.48633 113.3125 L 340.25391 115.25781 L 340.99414 117.44531 L 359.93945 111.03516 L 359.03711 108.38867 L 357.91016 105.5332 L 356.65039 102.74414 L 355.26172 100.0332 L 353.74805 97.400391 L 352.11328 94.851562 L 350.36133 92.386719 L 348.49805 90.015625 L 346.52344 87.736328 L 344.96875 86.097656 z M 239.36523 113.43164 L 239.125 114.29883 L 238.42188 117.34375 L 237.87109 120.44141 L 237.4707 123.58789 L 237.22656 126.77344 L 237.14453 129.875 L 237.14258 141 L 257.14258 141 L 257.14258 130.17383 L 257.20312 127.78906 L 257.36719 125.60547 L 257.64062 123.45898 L 258.01367 121.36328 L 258.49609 119.27734 L 258.60547 118.89453 L 239.36523 113.43164 z M 360.63477 113.43164 L 341.39453 118.89453 L 341.50391 119.27734 L 341.98633 121.36328 L 342.35938 123.45898 L 342.63281 125.60547 L 342.79688 127.78906 L 342.85742 130.17383 L 342.85742 141 L 362.85742 141 L 362.85547 129.875 L 362.77148 126.77344 L 362.5293 123.58789 L 362.12891 120.44141 L 361.57617 117.34375 L 360.875 114.29883 L 360.63477 113.43164 z M 237.14258 143 L 237.14258 168 L 257.14258 168 L 257.14258 143 L 237.14258 143 z M 342.85742 143 L 342.85742 168 L 362.85742 168 L 362.85742 143 L 342.85742 143 z M 237.14258 170 L 237.14258 195 L 257.14258 195 L 257.14258 170 L 237.14258 170 z M 342.85742 170 L 342.85742 195 L 362.85742 195 L 362.85742 170 L 342.85742 170 z M 237.14258 197 L 237.14258 220 L 257.14258 220 L 257.14258 197 L 237.14258 197 z M 342.85742 197 L 342.85742 220 L 362.85742 220 L 362.85742 197 L 342.85742 197 z"/>
    </g>
    <use xlink:href="#left" x="342.857142857"/>
    <path style="fill:#000000;" d="m 299.9375,10 -7.95117,0.04883 -0.12305,0.002 -7.9414,0.148438 -0.12305,0.002 -2.02344,0.0625 0.62109,19.992187 1.89844,-0.06055 h 0.002 l 7.81445,-0.146484 h 0.0273 L 299.9375,30 H 300 h 0.0625 l 7.79883,0.04883 h 0.0273 l 7.81641,0.146484 4.06445,0.126954 0.62109,-19.990235 -4.18945,-0.130859 -0.12305,-0.002 -7.9414,-0.148438 -0.12305,-0.002 L 300.0625,10 Z m -20.16016,0.326172 -3.9082,0.121094 -0.12305,0.0059 -7.91601,0.34375 -0.12305,0.0059 -7.90234,0.439454 -0.12305,0.0078 -7.88867,0.539062 -0.12305,0.0098 -7.87304,0.634766 -0.12305,0.0098 -2.4375,0.226563 1.85351,19.914062 2.4375,-0.226562 7.62696,-0.615234 h 0.0117 l 7.7539,-0.529297 0.0469,-0.002 0.0762,-0.0059 7.74414,-0.43164 0.0352,-0.002 7.7832,-0.33789 h 0.008 l 3.7832,-0.117188 z m 42.61133,0.06836 -0.61914,19.990235 1.61719,0.04883 h 0.0137 l 7.77734,0.33789 0.0352,0.002 7.74414,0.43164 0.0762,0.0059 0.0469,0.002 7.7539,0.529297 h 0.0117 l 7.62696,0.615234 4.5957,0.427734 1.85352,-19.914062 -4.59571,-0.427735 -0.12305,-0.0098 -7.87304,-0.634766 -0.12305,-0.0098 -7.88867,-0.539062 -0.12305,-0.0078 -7.90234,-0.439454 -0.12305,-0.0059 -7.91601,-0.34375 -0.12305,-0.0059 z m -83.14453,2.460938 -3.42773,0.318359 -0.1211,0.01367 -7.84179,0.826172 -0.1211,0.01367 -7.82422,0.923828 -0.12109,0.01563 -7.80469,1.017578 -0.12109,0.01758 -7.78516,1.113281 -0.12305,0.01758 -3.02539,0.470704 3.07618,19.761718 3.02539,-0.470703 7.54101,-1.078125 7.80469,-1.017578 7.57812,-0.894531 0.0684,-0.0078 0.0547,-0.0059 7.69336,-0.8125 0.0234,-0.002 3.30469,-0.306641 z m 123.66797,0.201172 -1.85352,19.914062 1.14844,0.105469 0.0274,0.0039 7.68945,0.810547 0.0547,0.0059 0.0684,0.0078 7.57812,0.894531 7.80469,1.017578 7.54101,1.078125 5.16797,0.804688 3.07422,-19.763672 -5.16601,-0.802735 -0.12305,-0.01758 -7.78516,-1.113281 -0.12109,-0.01758 -7.80469,-1.017578 -0.12109,-0.01563 -7.82422,-0.923828 -0.1211,-0.01367 -7.84179,-0.826172 -0.1211,-0.01367 z m -163.95899,4.853515 -2.76367,0.429688 -0.12109,0.02148 -7.74414,1.300781 -0.1211,0.02148 -7.72265,1.396484 -0.12109,0.02344 -7.70118,1.490234 -0.11914,0.02344 -7.67773,1.583984 -0.11914,0.02539 -3.73242,0.816407 4.27929,19.537109 3.61328,-0.791016 0.0547,-0.01172 0.0644,-0.01367 7.5586,-1.558594 7.45898,-1.443359 7.60156,-1.375 0.0332,-0.0059 0.0879,-0.01563 7.50195,-1.261718 0.0664,-0.0098 0.0547,-0.0098 2.64257,-0.410156 z m 204.23633,0.333985 -3.07617,19.761718 0.50195,0.07813 0.0488,0.0078 0.0723,0.01172 7.50195,1.261718 0.0879,0.01563 0.0332,0.0059 7.60156,1.375 7.45898,1.443359 7.5586,1.558594 0.0625,0.01367 0.0566,0.01172 5.72851,1.25586 4.28125,-19.53711 -5.84961,-1.28125 -0.11914,-0.02539 -7.67773,-1.583984 -0.11914,-0.02344 -7.70118,-1.490234 -0.12109,-0.02344 -7.72265,-1.396484 -0.1211,-0.02148 -7.74414,-1.300781 -0.12109,-0.02148 z m -244.13281,7.228515 -1.9668,0.429688 -0.11914,0.02734 -7.6289,1.769531 -0.11914,0.02734 -7.60157,1.861329 -0.11914,0.03125 -7.57422,1.953125 -0.11914,0.03125 -7.54687,2.044922 -0.11914,0.0332 -4.50781,1.279297 5.46679,19.240234 4.39063,-1.248047 0.008,-0.002 7.42188,-2.013672 0.0391,-0.0098 0.0781,-0.02148 7.33985,-1.890625 7.48242,-1.833984 7.50781,-1.742188 0.0234,-0.0059 1.94336,-0.425782 z m 284.12305,0.492188 -4.51953,19.482422 7.47851,1.734375 7.48242,1.833984 7.33985,1.890625 0.0781,0.02148 0.0391,0.0098 7.42188,2.013672 0.008,0.002 6.47461,1.839844 5.4668,-19.238281 -6.5918,-1.873047 -0.11914,-0.0332 -7.54687,-2.044922 -0.11914,-0.03125 -7.57422,-1.953125 -0.11914,-0.03125 -7.60157,-1.861329 -0.11914,-0.02734 z m -323.46875,9.542968 -1.08789,0.310547 -0.11719,0.0332 -7.49024,2.226563 -0.11718,0.03711 -7.46094,2.316407 -0.11719,0.03711 -7.429685,2.408203 -0.115234,0.03906 -7.398438,2.498046 -0.115234,0.03906 -5.304688,1.863281 6.628907,18.869141 5.292968,-1.857422 0.01172,-0.0039 7.283204,-2.458985 7.19726,-2.333984 0.0645,-0.01953 0.0527,-0.01758 7.22656,-2.244141 7.375,-2.193359 1.08789,-0.310547 z m 362.77539,0.638672 -5.69922,19.169922 6.49805,1.933594 7.22656,2.244141 0.0527,0.01758 0.0645,0.01953 7.19726,2.333984 7.28321,2.458985 0.0117,0.0039 7.33594,2.576172 6.62891,-18.869141 -7.34766,-2.582031 -0.11523,-0.03906 -7.39844,-2.498046 -0.11523,-0.03906 -7.42969,-2.408203 -0.11719,-0.03711 -7.46094,-2.316407 -0.11718,-0.03711 z M 81.070312,47.98047 l -0.175781,0.06055 -0.115234,0.04102 -7.332031,2.677735 -0.115235,0.04297 -7.298828,2.765625 -0.113281,0.04492 -7.265625,2.853516 -0.113281,0.04492 -7.228516,2.943359 -0.113281,0.04687 -6.072266,2.558594 7.765625,18.431641 5.960938,-2.513672 0.0039,-0.002 7.111328,-2.894531 0.08398,-0.0332 0.0293,-0.01172 7.03711,-2.765625 0.02539,-0.0098 0.08984,-0.03516 7.070313,-2.679687 0.05078,-0.01953 0.06445,-0.02344 7.103516,-2.591797 0.175781,-0.0625 z m 440.009768,0.78125 -6.85742,18.787109 5.35742,1.955078 0.0645,0.02344 0.0508,0.01953 7.07031,2.679687 0.0898,0.03516 0.0254,0.0098 7.03711,2.765625 0.0293,0.01172 0.084,0.0332 7.11133,2.894531 0.004,0.002 6.96875,2.9375 0.87305,0.378906 7.99024,-18.333984 -0.87305,-0.38086 -0.11328,-0.04687 -7.19141,-3.03125 -0.11328,-0.04687 -7.22852,-2.943359 -0.11328,-0.04492 -7.26562,-2.853516 -0.11328,-0.04492 -7.29883,-2.765625 -0.11524,-0.04297 z m -477.904299,14.132812 -6.435547,2.804688 -0.111328,0.04883 -7.11914,3.205078 -0.109375,0.05078 -7.078125,3.292969 -0.111328,0.05273 -7.039063,3.378907 -0.109375,0.05273 -6.7734375,3.355469 8.8730465,17.921875 6.666016,-3.300782 0.09375,-0.04492 0.01563,-0.0078 6.818359,-3.273437 0.04687,-0.02148 0.06445,-0.03125 6.857421,-3.189453 0.0078,-0.0039 6.998047,-3.152344 0.08984,-0.03906 0.02148,-0.0098 6.324219,-2.755859 z m 515.634769,0.865235 -7.99024,18.333984 4.33789,1.890625 0.0215,0.0098 0.0898,0.03906 6.99805,3.152344 0.008,0.0039 6.85742,3.189453 0.0645,0.03125 0.0469,0.02148 6.81836,3.273437 0.0156,0.0078 0.0938,0.04492 6.77929,3.357422 0.0371,0.01953 0.0723,0.03516 1.59961,0.816406 9.09179,-17.8125 -1.70703,-0.873047 -0.10937,-0.05469 -6.99805,-3.464844 -0.10938,-0.05273 -7.03906,-3.378907 -0.11133,-0.05273 -7.07812,-3.292969 -0.10938,-0.05078 -7.11914,-3.205078 -0.11132,-0.04883 z M 6.3964844,80.097656 0.99804688,82.853516 0.890625,82.908203 0,83.376953 v 22.648437 l 3.3828125,-1.83203 0.00977,-0.004 6.6992185,-3.52343 5.398437,-2.755864 z m 589.1367156,0.984375 -9.09179,17.814453 3.46679,1.769536 6.69922,3.52343 0.01,0.004 L 600,106.02539 V 83.376953 l -0.89062,-0.46875 -0.10743,-0.05469 z"/>
  </g>
</g>
<use id="shine" xlink:href="#shield" style="fill:url(#rg);stroke:#000000;stroke-width:3;"/>
</svg>
