<?xml version="1.0" encoding="UTF-8" standalone="no"?>
<!-- Created with Inkscape (http://www.inkscape.org/) -->

<svg
   xmlns:dc="http://purl.org/dc/elements/1.1/"
   xmlns:cc="http://creativecommons.org/ns#"
   xmlns:rdf="http://www.w3.org/1999/02/22-rdf-syntax-ns#"
   xmlns:svg="http://www.w3.org/2000/svg"
   xmlns="http://www.w3.org/2000/svg"
   xmlns:xlink="http://www.w3.org/1999/xlink"
   xmlns:sodipodi="http://sodipodi.sourceforge.net/DTD/sodipodi-0.dtd"
   xmlns:inkscape="http://www.inkscape.org/namespaces/inkscape"
   width="158.48541mm"
   height="174.12294mm"
   viewBox="0 0 158.48541 174.12294"
   version="1.1"
   id="svg8"
   inkscape:version="0.92.5 (2060ec1f9f, 2020-04-08)"
   sodipodi:docname="House Codd.svg">
  <defs
     id="defs2">
    <linearGradient
       id="linearGradient1243"
       y2="423.60001"
       gradientUnits="userSpaceOnUse"
       x2="306.98001"
       gradientTransform="matrix(0.3546475,0,0,0.3546475,-324.3896,-60.505802)"
       y1="452.06"
       x1="278.89999"
       inkscape:collect="always"
       spreadMethod="pad">
      <stop
         id="stop1239"
         style="stop-color:#999999;stop-opacity:1"
         offset="0" />
      <stop
         id="stop1241"
         style="stop-color:#d8d8d8"
         offset="1" />
    </linearGradient>
    <linearGradient
       id="linearGradient1199"
       y2="423.60001"
       gradientUnits="userSpaceOnUse"
       x2="306.98001"
       gradientTransform="matrix(0.3546475,0,0,0.3546475,-324.3896,-60.505802)"
       y1="452.06"
       x1="278.89999"
       inkscape:collect="always"
       spreadMethod="pad">
      <stop
         id="stop1195"
         style="stop-color:#000000;stop-opacity:1"
         offset="0" />
      <stop
         id="stop1197"
         style="stop-color:#d8d8d8"
         offset="1" />
    </linearGradient>
    <linearGradient
       id="linearGradient1181"
       inkscape:collect="always">
      <stop
         id="stop1177"
         style="stop-color:#999999;stop-opacity:1"
         offset="0" />
      <stop
         id="stop1179"
         style="stop-color:#cdcdcf"
         offset="1" />
    </linearGradient>
    <linearGradient
       id="linearGradient1175"
       inkscape:collect="always">
      <stop
         id="stop1171"
         style="stop-color:#999999;stop-opacity:1"
         offset="0" />
      <stop
         id="stop1173"
         style="stop-color:#cdcdcf"
         offset="1" />
    </linearGradient>
    <linearGradient
       id="linearGradient1115"
       inkscape:collect="always">
      <stop
         id="stop1111"
         style="stop-color:#999999;stop-opacity:1"
         offset="0" />
      <stop
         id="stop1113"
         style="stop-color:#d6d6d6"
         offset="1" />
    </linearGradient>
    <linearGradient
       id="linearGradient1091"
       inkscape:collect="always">
      <stop
         id="stop1087"
         style="stop-color:#999999;stop-opacity:1"
         offset="0" />
      <stop
         id="stop1089"
         style="stop-color:#d7d7d7"
         offset="1" />
    </linearGradient>
    <linearGradient
       inkscape:collect="always"
       id="linearGradient3693">
      <stop
         offset="0"
         style="stop-color:#969aa4"
         id="stop3695" />
      <stop
         offset="1"
         style="stop-color:#cdcdcf"
         id="stop3697" />
    </linearGradient>
    <linearGradient
       inkscape:collect="always"
       id="linearGradient3667">
      <stop
         offset="0"
         style="stop-color:#000000"
         id="stop3669" />
      <stop
         offset="1"
         style="stop-color:#000000;stop-opacity:0"
         id="stop3671" />
    </linearGradient>
    <linearGradient
       inkscape:collect="always"
       id="linearGradient3368">
      <stop
         offset="0"
         style="stop-color:#999999;stop-opacity:1"
         id="stop3370" />
      <stop
         offset="1"
         style="stop-color:#d6d6d6"
         id="stop3372" />
    </linearGradient>
    <linearGradient
       inkscape:collect="always"
       id="linearGradient3354">
      <stop
         offset="0"
         style="stop-color:#999999;stop-opacity:1"
         id="stop3356" />
      <stop
         offset="1"
         style="stop-color:#d7d7d7"
         id="stop3358" />
    </linearGradient>
    <linearGradient
       inkscape:collect="always"
       x1="613.58002"
       y1="516.10999"
       gradientTransform="matrix(0.3546475,0,0,0.3546475,-324.3896,-60.505802)"
       x2="563.87"
       gradientUnits="userSpaceOnUse"
       y2="516.10999"
       id="linearGradient2375">
      <stop
         offset="0"
         style="stop-color:#000000;stop-opacity:0"
         id="stop3516" />
      <stop
         offset="1"
         style="stop-color:#000000"
         id="stop3518" />
    </linearGradient>
    <linearGradient
       inkscape:collect="always"
       x1="621.02002"
       y1="516.33002"
       gradientTransform="matrix(0.3546475,0,0,0.3546475,-324.3896,-60.505802)"
       x2="567.40002"
       gradientUnits="userSpaceOnUse"
       y2="516.33002"
       id="linearGradient2378"
       xlink:href="#linearGradient2413">
      <stop
         offset="0"
         style="stop-color:#999999;stop-opacity:1"
         id="stop3447" />
      <stop
         offset="1"
         style="stop-color:#d5d5d5"
         id="stop3449" />
    </linearGradient>
    <linearGradient
       inkscape:collect="always"
       x1="472.70001"
       y1="494.56"
       gradientTransform="matrix(0.3546475,0,0,0.3546475,-324.3896,-60.505802)"
       x2="495.19"
       gradientUnits="userSpaceOnUse"
       xlink:href="#linearGradient3667"
       y2="473.42001"
       id="linearGradient2381" />
    <linearGradient
       inkscape:collect="always"
       x1="379.73001"
       y1="473.69"
       gradientTransform="matrix(0.3546475,0,0,0.3546475,-324.3896,-60.505802)"
       x2="399.23999"
       gradientUnits="userSpaceOnUse"
       xlink:href="#linearGradient3667"
       y2="444.69"
       id="linearGradient2384" />
    <linearGradient
       inkscape:collect="always"
       x1="272.82999"
       y1="445.98999"
       gradientTransform="matrix(0.3546475,0,0,0.3546475,-324.3896,-60.505802)"
       x2="316.87"
       gradientUnits="userSpaceOnUse"
       y2="438.13"
       id="linearGradient2387">
      <stop
         offset="0"
         style="stop-color:#000000"
         id="stop3569" />
      <stop
         offset="1"
         style="stop-color:#000000;stop-opacity:0"
         id="stop3571" />
    </linearGradient>
    <linearGradient
       inkscape:collect="always"
       x1="253.14999"
       y1="508.92001"
       gradientTransform="matrix(0.38560823,0,0,0.3546475,-331.86947,-60.505802)"
       x2="280.28"
       gradientUnits="userSpaceOnUse"
       y2="529.81"
       id="linearGradient2402">
      <stop
         offset="0"
         style="stop-color:#000000"
         id="stop3726" />
      <stop
         offset="1"
         style="stop-color:#000000;stop-opacity:0"
         id="stop3728" />
    </linearGradient>
    <linearGradient
       inkscape:collect="always"
       x1="246.27"
       y1="518.84003"
       gradientTransform="matrix(0.3546475,0,0,0.3546475,-324.3896,-60.505802)"
       x2="316.09"
       gradientUnits="userSpaceOnUse"
       y2="508.98001"
       id="linearGradient2405">
      <stop
         offset="0"
         style="stop-color:#999999;stop-opacity:1"
         id="stop2250" />
      <stop
         offset="1"
         style="stop-color:#e1e1e1"
         id="stop2252" />
    </linearGradient>
    <linearGradient
       inkscape:collect="always"
       x1="278.89999"
       y1="452.06"
       gradientTransform="matrix(0.3546475,0,0,0.3546475,-324.3896,-60.505802)"
       x2="306.98001"
       gradientUnits="userSpaceOnUse"
       y2="423.60001"
       id="linearGradient2413"
       xlink:href="#linearGradient1199">
      <stop
         offset="0"
         style="stop-color:#969aa4"
         id="stop2308" />
      <stop
         offset="1"
         style="stop-color:#d8d8d8"
         id="stop2310" />
    </linearGradient>
    <linearGradient
       inkscape:collect="always"
       x1="379.73001"
       y1="477.20999"
       gradientTransform="matrix(0.3546475,0,0,0.3546475,-324.3896,-60.505802)"
       x2="410.63"
       gradientUnits="userSpaceOnUse"
       xlink:href="#linearGradient1091"
       y2="446.57999"
       id="linearGradient2416" />
    <linearGradient
       inkscape:collect="always"
       x1="471.60999"
       y1="495.37"
       gradientTransform="matrix(0.3546475,0,0,0.3546475,-324.3896,-60.505802)"
       x2="503.04999"
       gradientUnits="userSpaceOnUse"
       xlink:href="#linearGradient1115"
       y2="474.76999"
       id="linearGradient2419" />
    <linearGradient
       inkscape:collect="always"
       x1="353.5"
       y1="577.46997"
       gradientTransform="matrix(0.3546475,0,0,0.3546475,-324.3896,-60.505802)"
       x2="350.82001"
       gradientUnits="userSpaceOnUse"
       y2="519.71002"
       id="linearGradient2422">
      <stop
         offset="0"
         style="stop-color:#ffffff"
         id="stop3761" />
      <stop
         offset="1"
         style="stop-color:#ffffff;stop-opacity:0"
         id="stop3763" />
    </linearGradient>
    <linearGradient
       inkscape:collect="always"
       x1="379.73001"
       y1="473.69"
       gradientTransform="matrix(0.37855074,-7.9852431e-4,-0.05813736,-0.34565009,-308.39642,302.5777)"
       x2="399.23999"
       gradientUnits="userSpaceOnUse"
       xlink:href="#linearGradient3667"
       y2="444.69"
       id="linearGradient2428" />
    <linearGradient
       inkscape:collect="always"
       x1="379.73001"
       y1="477.20999"
       gradientTransform="matrix(0.37855074,-7.9852431e-4,-0.05813736,-0.34565009,-308.39606,302.5777)"
       x2="410.63"
       gradientUnits="userSpaceOnUse"
       xlink:href="#linearGradient3354"
       y2="446.57999"
       id="linearGradient2431" />
    <linearGradient
       inkscape:collect="always"
       x1="472.70001"
       y1="494.56"
       gradientTransform="matrix(0.35430704,0.02275135,-0.01332872,-0.30601469,-316.83419,270.29414)"
       x2="495.19"
       gradientUnits="userSpaceOnUse"
       xlink:href="#linearGradient3667"
       y2="473.42001"
       id="linearGradient2434" />
    <linearGradient
       inkscape:collect="always"
       x1="471.60999"
       y1="495.37"
       gradientTransform="matrix(0.35430704,0.02275135,-0.01332872,-0.30601469,-316.83419,270.29414)"
       x2="503.04999"
       gradientUnits="userSpaceOnUse"
       xlink:href="#linearGradient3368"
       y2="474.76999"
       id="linearGradient2437" />
    <linearGradient
       inkscape:collect="always"
       x1="251.96001"
       y1="562.47998"
       gradientTransform="matrix(0.3546475,0,0,0.3546475,-324.3896,-60.505802)"
       x2="277.76001"
       gradientUnits="userSpaceOnUse"
       xlink:href="#linearGradient1175"
       y2="590.94"
       id="linearGradient2440" />
    <linearGradient
       inkscape:collect="always"
       x1="251.96001"
       y1="562.47998"
       gradientTransform="matrix(0.3546475,0,0,0.3546475,-326.00449,-60.236979)"
       x2="277.76001"
       gradientUnits="userSpaceOnUse"
       xlink:href="#linearGradient1181"
       y2="590.94"
       id="linearGradient2443" />
    <linearGradient
       inkscape:collect="always"
       x1="251.96001"
       y1="562.47998"
       gradientTransform="matrix(0.09806003,0,-0.1839131,0.18967258,-197.71661,22.512568)"
       x2="277.76001"
       gradientUnits="userSpaceOnUse"
       xlink:href="#linearGradient3693"
       y2="590.94"
       id="linearGradient2446" />
    <linearGradient
       inkscape:collect="always"
       xlink:href="#linearGradient1243"
       id="linearGradient1237"
       gradientUnits="userSpaceOnUse"
       gradientTransform="matrix(0.3546475,0,0,0.3546475,-324.32278,-61.374428)"
       x1="278.89999"
       y1="452.06"
       x2="306.98001"
       y2="423.60001" />
    <radialGradient
       r="405"
       cy="220"
       cx="220"
       gradientUnits="userSpaceOnUse"
       id="rg">
      <stop
         id="stop3024"
         offset="0"
         style="stop-color:#fff;stop-opacity:.3" />
      <stop
         id="stop3026"
         offset=".2"
         style="stop-color:#fff;stop-opacity:.2" />
      <stop
         id="stop3028"
         offset=".6"
         style="stop-color:#666;stop-opacity:.1" />
      <stop
         id="stop3030"
         offset="1"
         style="stop-color:#000;stop-opacity:.13" />
    </radialGradient>
    <clipPath
       id="clip-shield">
      <path
         inkscape:connector-curvature="0"
         d="m 2,2 v 257 c 0,286 298,398 298,398 0,0 298,-112 298,-398 V 2 Z"
         id="shield" />
    </clipPath>
    <radialGradient
       r="405"
       cy="220"
       cx="220"
       gradientUnits="userSpaceOnUse"
       id="rg-9">
      <stop
         id="stop2609"
         offset="0"
         style="stop-color:#fff;stop-opacity:.3" />
      <stop
         id="stop2611"
         offset=".2"
         style="stop-color:#fff;stop-opacity:.2" />
      <stop
         id="stop2613"
         offset=".6"
         style="stop-color:#666;stop-opacity:.1" />
      <stop
         id="stop2615"
         offset="1"
         style="stop-color:#000;stop-opacity:.13" />
    </radialGradient>
    <circle
       r="298"
       cy="300"
       cx="300"
       id="shield-2" />
    <path
       d="m 110,300 a 400,400 0 0 1 390,0"
       id="tail2"
       inkscape:connector-curvature="0"
       style="fill:none;stroke:#ffffff;stroke-width:5;stroke-linecap:round" />
    <path
       d="m 120,300 a 400,400 0 0 1 380,0"
       id="tail3"
       inkscape:connector-curvature="0"
       style="fill:none;stroke:#ffffff;stroke-width:5;stroke-linecap:round" />
    <path
       d="m 130,300 a 400,400 0 0 1 370,0"
       id="tail4"
       inkscape:connector-curvature="0"
       style="fill:none;stroke:#ffffff;stroke-width:5;stroke-linecap:round" />
  </defs>
  <sodipodi:namedview
     id="base"
     pagecolor="#ffffff"
     bordercolor="#666666"
     borderopacity="1.0"
     inkscape:pageopacity="0.0"
     inkscape:pageshadow="2"
     inkscape:zoom="0.98994949"
     inkscape:cx="606.14581"
     inkscape:cy="147.36996"
     inkscape:document-units="mm"
     inkscape:current-layer="layer1"
     showgrid="false"
     inkscape:window-width="1920"
     inkscape:window-height="1001"
     inkscape:window-x="-9"
     inkscape:window-y="-9"
     inkscape:window-maximized="1" />
  <metadata
     id="metadata5">
    <rdf:RDF>
      <cc:Work
         rdf:about="">
        <dc:format>image/svg+xml</dc:format>
        <dc:type
           rdf:resource="http://purl.org/dc/dcmitype/StillImage" />
        <dc:title></dc:title>
      </cc:Work>
    </rdf:RDF>
  </metadata>
  <g
     inkscape:label="Layer 1"
     inkscape:groupmode="layer"
     id="layer1"
     transform="translate(413.41353,-37.171322)">
    <use
       id="background"
       xlink:href="#shield"
       style="fill:#000000;fill-opacity:1"
       x="0"
       y="0"
       width="100%"
       height="100%"
       transform="matrix(0.26458333,0,0,0.26458333,-413.54582,37.03903)" />
    <g
       id="g1282"
       transform="matrix(0.71622283,0.13099345,0,0.87560099,-195.75659,36.068867)">
      <path
         inkscape:connector-curvature="0"
         id="path3732"
         sodipodi:nodetypes="cccc"
         style="fill:url(#linearGradient2446);fill-rule:evenodd;stroke:#000000;stroke-width:0.44330937"
         d="m -273.8807,128.88909 c -2.96486,1.86189 -4.23095,4.14228 -4.92251,5.92616 -0.57808,-1.17389 -0.13831,-3.38689 1.9151,-6.1886 z" />
      <path
         inkscape:connector-curvature="0"
         id="path3701"
         sodipodi:nodetypes="cccc"
         style="fill:url(#linearGradient2443);fill-rule:evenodd;stroke:#000000;stroke-width:0.44330937"
         d="m -234.62832,138.30498 c 1.27319,5.09983 4.72745,8.37322 6.9972,12.9198 -6.46877,-4.07844 -9.8592,-7.45469 -15.34205,-13.59363 z" />
      <path
         inkscape:connector-curvature="0"
         id="path3691"
         sodipodi:nodetypes="cccc"
         style="fill:url(#linearGradient2440);fill-rule:evenodd;stroke:#000000;stroke-width:0.44330937"
         d="m -232.34084,138.03544 c 1.27318,5.09984 4.72745,8.64276 8.47962,11.97645 -6.20278,-2.19172 -12.01546,-6.51133 -17.49476,-12.65028 z" />
      <path
         inkscape:connector-curvature="0"
         id="path3683"
         sodipodi:nodetypes="ccccc"
         style="fill:url(#linearGradient2437);fill-rule:evenodd;stroke:#000000;stroke-width:0.44330937"
         d="m -167.55029,129.28984 c 4.97216,4.2203 10.33798,8.26683 18.76795,10.9657 3.5642,-2.76271 7.92991,-4.91896 9.07543,-9.25985 -2.13498,-1.43277 -5.98291,-2.97549 -5.35518,-4.23094 -9.14636,0.20924 -15.20019,1.603 -22.4882,2.52509 z" />
      <path
         inkscape:connector-curvature="0"
         id="path3685"
         style="fill:url(#linearGradient2434);fill-rule:evenodd;stroke-width:0.35464749"
         d="m -148.92066,138.72701 c -5.68145,-2.59957 -10.74582,-5.60343 -15.186,-9.0116 l 0.21988,-0.22697 c 4.41536,3.39043 9.44426,6.38011 15.09734,8.97258 z m 1.84772,-1.45406 c -5.17786,-2.46125 -10.00461,-5.05727 -13.70358,-8.0966 l 0.22343,-0.2057 c 3.65286,3.00032 8.45834,5.58925 13.62201,8.04696 z m 1.94701,-1.43987 c -4.64588,-2.12788 -8.96549,-4.37989 -12.13604,-7.0894 l 0.23407,-0.21634 c 3.11735,2.66341 7.41213,4.91897 12.04383,7.03976 z m 1.55336,-1.5569 c -3.76991,-1.88672 -7.5008,-3.79118 -10.06844,-6.05383 l 0.23761,-0.19506 c 2.50381,2.20946 6.21697,4.10682 9.98687,5.99 z m 1.47179,-1.72713 c -3.11736,-1.41505 -5.61762,-2.94358 -6.98656,-4.72036 l 0.28372,-0.14541 c 1.29801,1.68813 3.74507,3.19538 6.83405,4.59624 z" />
      <path
         inkscape:connector-curvature="0"
         id="path3675"
         sodipodi:nodetypes="ccccc"
         style="fill:url(#linearGradient2431);fill-rule:evenodd;stroke:#000000;stroke-width:0.44330937"
         d="m -211.2535,140.291 c 5.89069,5.71692 12.21406,11.14303 21.16536,14.78171 8.73852,-5.23105 18.56225,-9.6074 24.42458,-17.1082 -3.40462,-2.21654 -5.51123,-4.14937 -7.33766,-6.02191 z" />
      <path
         inkscape:connector-curvature="0"
         id="path3677"
         style="fill:url(#linearGradient2428);fill-rule:evenodd;stroke-width:0.35464749"
         d="m -190.12715,153.29947 c -5.91907,-3.62804 -11.60761,-7.6391 -16.88122,-12.2708 l 0.24825,-0.22698 c 5.24524,4.61042 10.90896,8.60021 16.81029,12.21761 z m 2.33358,-1.32283 c -5.87651,-3.68124 -11.58279,-7.41923 -15.9414,-11.61471 l 0.25889,-0.21633 c 4.31606,4.15292 10.0046,7.88381 15.87402,11.56151 z m 2.31585,-1.49661 c -5.95808,-3.61741 -10.94088,-7.24191 -14.9874,-10.86995 l 0.2447,-0.22698 c 4.02171,3.60322 8.99386,7.20999 14.93066,10.81675 z m 2.03922,-1.32284 c -5.76302,-3.43299 -9.99396,-6.87307 -13.56881,-10.3096 l 0.25889,-0.21988 c 3.55357,3.42234 7.75614,6.83405 13.48725,10.24931 z m 2.26975,-1.12778 c -4.54304,-3.06061 -9.12863,-6.12121 -12.48714,-9.94786 l 0.28372,-0.19506 c 3.30886,3.76636 7.84835,6.80923 12.39493,9.87339 z m 2.31584,-1.50725 c -4.49338,-2.92584 -8.69595,-5.90488 -11.62534,-9.1038 l 0.27308,-0.19506 c 2.87974,3.14572 7.05748,6.11058 11.54377,9.02933 z m 2.26975,-1.12778 c -4.1813,-2.68114 -7.94056,-5.5325 -10.85221,-8.73142 l 0.28726,-0.19506 c 2.87264,3.15637 6.59644,5.98645 10.75646,8.65695 z m 2.02504,-1.40795 c -3.96851,-2.57829 -7.40859,-5.2346 -9.52584,-8.0966 l 0.31564,-0.16314 c 2.06405,2.78753 5.45448,5.42256 9.40171,7.98666 z m 1.93282,-1.3122 c -3.95077,-2.46834 -6.88725,-4.94733 -8.39096,-7.46178 l 0.32273,-0.12767 c 1.44342,2.41515 4.33734,4.85867 8.2562,7.30928 z m 2.09952,-1.51789 c -2.98968,-2.0073 -6.07511,-3.99687 -7.35894,-6.81278 l 0.34046,-0.0887 c 1.21644,2.66695 4.2274,4.6317 7.22417,6.64255 z m 1.91509,-2.05695 c -2.72014,-1.71295 -5.04308,-3.48619 -5.92261,-5.51832 l 0.35465,-0.078 c 0.81214,1.88318 3.06415,3.62804 5.75947,5.3268 z" />
      <path
         inkscape:connector-curvature="0"
         id="path1318"
         sodipodi:nodetypes="csssccccssccsc"
         style="fill:#b3b3b3;fill-rule:evenodd;stroke-width:0.35464749"
         d="m -231.00737,101.91105 c -2.37614,0.0284 -4.56431,0.20215 -6.52551,0.54261 -23.74365,4.14938 -33.38652,9.19956 -44.27774,16.01588 -1.12778,0.70575 -1.76615,3.56776 0.95755,5.69919 1.48242,1.16324 5.3339,1.64556 6.9369,2.68823 -2.12788,-0.37948 -4.50047,-0.45041 -4.90832,0.0638 -0.21279,0.50005 0.17023,0.93272 0.78377,1.53563 0,0 17.82459,9.63931 63.11662,13.37375 7.55754,0.63128 29.7762,-4.44728 46.81347,-9.81664 14.97321,-4.72036 28.16965,-5.81977 28.16965,-5.81977 13.44114,3.95787 27.07024,10.54013 40.319873,12.43395 -4.883493,-9.3627 -10.015243,-16.0549 -0.187964,-32.02822 -9.281129,-0.20215 -23.257779,5.89424 -39.943949,11.68209 -9.13926,3.17055 -63.18754,-16.68617 -91.25435,-16.37053 z" />
      <path
         inkscape:connector-curvature="0"
         id="path3745"
         sodipodi:nodetypes="csccccccs"
         style="fill:url(#linearGradient2422);fill-rule:evenodd;stroke-width:0.35464749"
         d="m -137.04351,123.3885 c -11.73174,0.55325 -123.37123,-4.98989 -129.97122,3.11735 -3.87984,4.76647 7.3483,7.67812 4.74873,7.3483 3.60322,1.59946 14.33485,3.37624 20.97031,4.75937 10.99407,1.45051 22.10872,3.87275 33.22692,2.8691 18.17569,-2.23428 35.4222,-8.63567 53.1262,-12.91272 6.85179,-1.01074 14.12206,-3.96496 20.73269,-0.55679 4.05008,1.56045 14.40224,6.54679 11.37709,-2.18818 -4.11745,-3.24857 -9.22083,-2.67049 -14.21072,-2.43643 z" />
      <path
         inkscape:connector-curvature="0"
         id="path3366"
         sodipodi:nodetypes="ccccc"
         style="fill:url(#linearGradient2419);fill-rule:evenodd;stroke:#000000;stroke-width:0.44330937"
         d="m -168.38016,114.50458 c 4.80902,-4.53239 10.01524,-8.83427 18.3601,-11.34517 3.69897,3.47909 8.17462,6.30918 9.51519,11.44093 -2.07824,1.5037 -5.87651,3.01095 -5.18849,4.51821 -9.19247,-0.92918 -15.33142,-3.00032 -22.6868,-4.61397 z" />
      <path
         inkscape:connector-curvature="0"
         id="path3352"
         sodipodi:nodetypes="ccccc"
         style="fill:url(#linearGradient2416);fill-rule:evenodd;stroke:#000000;stroke-width:0.44330937"
         d="m -207.84889,105.7377 c 4.61752,-5.876512 9.68543,-11.455118 17.49477,-15.207288 9.00804,5.344538 18.89916,9.809548 25.57008,17.494758 -2.83718,2.28039 -4.50757,4.26641 -5.92261,6.1886 z" />
      <path
         inkscape:connector-curvature="0"
         id="path2292"
         sodipodi:nodetypes="cccc"
         style="fill:url(#linearGradient1237);fill-rule:evenodd;stroke:#000000;stroke-width:0.44330937"
         d="m -237.04048,102.19502 c 5.72755,-8.415777 13.50852,-16.409531 25.37502,-23.548586 -0.43267,8.852002 0.81924,17.420286 3.46136,25.761586 -12.12894,-2.48253 -21.09088,-3.05351 -28.83638,-2.213 z" />
      <path
         inkscape:connector-curvature="0"
         id="path2234"
         sodipodi:nodetypes="csssss"
         style="fill:url(#linearGradient2405);fill-rule:evenodd;stroke:#000000;stroke-width:0.44330937"
         d="m -239.60402,123.55519 c 2.73788,0.14186 19.45241,-8.91229 25.24026,-7.91219 1.72004,0.29436 5.43675,6.05383 -10.35216,14.12561 -1.12778,0.57453 -9.45845,-1.06749 -12.63254,-1.12778 -1.47534,-0.0284 0.60999,-1.74841 0.18796,-2.63858 -0.6029,-1.27318 -3.59258,-2.50735 -2.44352,-2.44706 z" />
      <path
         inkscape:connector-curvature="0"
         id="path2236"
         style="fill:url(#linearGradient2402);fill-rule:evenodd;stroke-width:0.35464749"
         d="m -215.29648,116.63956 -23.41383,7.89091 0.13477,0.33337 23.41382,-7.89091 z m -0.31209,1.54272 -21.94204,7.30219 0.12058,0.33337 21.95268,-7.30574 z m -1.75905,2.78043 -19.76451,5.09983 0.10994,0.34047 19.75032,-5.09629 z m -2.29103,2.59248 -17.66499,3.45781 0.0851,0.35465 17.65435,-3.46845 z m -2.69886,2.59602 -15.36333,1.53917 0.0355,0.35464 15.36333,-1.53917 z m -2.18109,1.82643 -13.278,0.39011 0.0106,0.34047 13.28155,-0.37593 z" />
      <path
         inkscape:connector-curvature="0"
         id="path3310"
         style="fill:#000000;stroke-width:0.35464749"
         d="m -246.77854,116.60764 c -1.09941,7.58237 -7.63202,13.40213 -15.51583,13.40213 -0.58871,0 -1.17034,-0.039 -1.74132,-0.10285 v 0.41139 c 0.57098,0.0603 1.15261,0.0993 1.74132,0.0993 8.1037,0 14.83136,-6.00419 15.93431,-13.80998 z" />
      <path
         inkscape:connector-curvature="0"
         id="path3330"
         sodipodi:nodetypes="ccccsccccccsccccccc"
         style="fill:#000000;fill-rule:evenodd;stroke-width:0.35464749"
         d="m -248.09783,111.7206 -0.2979,0.31918 c 5.13175,1.54627 9.86629,3.94014 8.16753,7.59301 -1.18098,2.02149 -2.04632,3.81955 -2.56056,5.35163 -4.33734,4.95088 -10.03297,6.26662 -15.55838,8.31293 -1.93283,0.71639 -5.04309,0.26599 -5.04309,0.26599 l -0.25535,-0.0319 v 0.25535 0.0638 h 0.21279 l -0.0248,0.15605 c 0,0 3.13863,0.50005 5.26651,-0.28727 5.4864,-2.03213 11.30971,-3.37979 15.74635,-8.44415 l 0.0213,-0.0355 0.0248,-0.0426 c 0.51069,-1.5498 1.40085,-3.39397 2.64921,-5.50767 l 0.10994,-0.18796 -0.17732,-0.11349 c 1.11005,-2.67759 -1.78742,-5.95099 -8.28102,-7.66748 z" />
      <path
         inkscape:connector-curvature="0"
         id="path3332"
         style="fill:#000000;fill-rule:evenodd;stroke-width:0.35464749"
         d="m -241.59005,122.04794 -1.49661,4.96506 c -2.73788,3.61031 -5.72046,4.69199 -9.17473,6.64964 -2.10306,1.09232 -3.58549,0.95046 -5.44384,1.41859 l 0.10994,0.43267 c 1.78388,-0.44686 3.35142,-0.32628 5.54314,-1.46115 v -0.0106 c 3.42944,-1.94701 6.52906,-3.06415 9.34142,-6.7844 l 0.0248,-0.0319 0.0106,-0.0355 1.50725,-5.01826 z" />
      <path
         inkscape:connector-curvature="0"
         id="path3334"
         style="fill:#000000;fill-rule:evenodd;stroke-width:0.35464749"
         d="m -249.44904,129.87501 c -1.29801,1.69876 -2.88683,3.26985 -5.08564,4.61041 l 0.21988,0.37593 c 2.25201,-1.36894 3.88694,-2.98613 5.20977,-4.72036 z" />
      <path
         inkscape:connector-curvature="0"
         id="path3336"
         style="fill:#808080;stroke-width:0.35464749"
         d="m -247.20057,124.88512 c 0,0.42557 -0.34756,0.76958 -0.76959,0.76958 -0.42557,0 -0.76958,-0.34401 -0.76958,-0.76958 0,-0.42558 0.34401,-0.76959 0.76958,-0.76959 0.42203,0 0.76959,0.34401 0.76959,0.76959 z" />
      <path
         inkscape:connector-curvature="0"
         id="path3338"
         style="fill:#808080;stroke-width:0.35464749"
         d="m -250.18316,127.7684 c 0,0.42558 -0.34401,0.76958 -0.76604,0.76958 -0.42557,0 -0.76958,-0.344 -0.76958,-0.76958 0,-0.42558 0.34401,-0.76959 0.76958,-0.76959 0.42203,0 0.76604,0.34401 0.76604,0.76959 z" />
      <path
         inkscape:connector-curvature="0"
         id="path3340"
         style="fill:#808080;stroke-width:0.35464749"
         d="m -253.73673,129.8821 c 0,0.42558 -0.34755,0.76958 -0.76958,0.76958 -0.42558,0 -0.76959,-0.344 -0.76959,-0.76958 0,-0.42203 0.34401,-0.76604 0.76959,-0.76604 0.42203,0 0.76958,0.34401 0.76958,0.76604 z" />
      <path
         inkscape:connector-curvature="0"
         id="path3342"
         style="fill:#808080;stroke-width:0.35464749"
         d="m -257.29384,131.03825 c 0,0.42203 -0.34401,0.76604 -0.76958,0.76604 -0.42558,0 -0.76959,-0.34401 -0.76959,-0.76604 0,-0.42558 0.34401,-0.76959 0.76959,-0.76959 0.42557,0 0.76958,0.34401 0.76958,0.76959 z" />
      <path
         inkscape:connector-curvature="0"
         id="path3344"
         style="fill:#808080;stroke-width:0.35464749"
         d="m -260.7552,131.42127 c 0,0.42558 -0.34401,0.76958 -0.76958,0.76958 -0.42558,0 -0.76959,-0.344 -0.76959,-0.76958 0,-0.42558 0.34401,-0.76959 0.76959,-0.76959 0.42557,0 0.76958,0.34401 0.76958,0.76959 z" />
      <path
         inkscape:connector-curvature="0"
         id="path3346"
         sodipodi:nodetypes="cccsccsc"
         style="fill:#808080;fill-rule:evenodd;stroke-width:0.35464749"
         d="m -233.34449,110.78788 c -4.10328,0.13831 -5.39065,0.13122 -8.83782,0.76958 -0.79086,0.26599 -0.6561,1.61365 0.28726,1.53917 13.46242,-2.49317 28.70163,-0.89726 59.85386,5.91552 31.31183,6.84825 44.61466,4.84449 60.11275,4.64588 1.03203,-0.16313 0.70221,-1.5037 -0.0106,-1.56399 -15.65769,0.20215 -28.64134,2.20945 -59.77229,-4.59978 -23.42447,-5.12466 -39.32687,-7.11423 -51.63313,-6.70638 z" />
      <path
         inkscape:connector-curvature="0"
         id="path3526"
         style="fill:url(#linearGradient2387);fill-rule:evenodd;stroke-width:0.35464749"
         d="m -213.12959,81.596841 c -7.60364,5.62471 -15.0335,11.589881 -20.84618,20.303569 l 0.29791,0.18796 c 5.77721,-8.660488 13.16451,-14.583101 20.75752,-20.204264 z m 0,2.815901 c -6.56098,4.965065 -12.65382,10.529485 -17.75365,17.331628 l 0.28726,0.22342 c 5.07501,-6.770217 11.13594,-12.313358 17.67564,-17.267783 z m 0.19861,3.156363 c -5.3339,4.124551 -10.50112,8.483168 -14.58311,14.253285 l 0.28727,0.1986 c 4.05007,-5.72401 9.18891,-10.057802 14.51926,-14.171713 z m 0.28726,3.159909 c -4.56786,3.117352 -8.63567,6.816325 -11.92325,11.228136 l 0.28727,0.20925 c 3.26275,-4.372807 7.29155,-8.050502 11.83813,-11.150121 z m 0.47877,2.947121 c -3.43298,2.486079 -6.80568,5.316166 -9.51164,8.547005 l 0.28017,0.23052 c 2.67759,-3.195373 6.02546,-6.014821 9.44072,-8.486714 z m 0.48587,2.815901 c -2.8159,1.868993 -5.19913,4.011064 -7.10359,6.060924 l 0.25535,0.24471 c 1.88672,-2.03213 4.25932,-4.15647 7.05039,-6.00773 z m 0.69866,3.081887 c -2.1137,1.088767 -3.26631,2.390327 -4.48984,3.457817 l 0.23407,0.26598 c 1.24481,-1.08522 2.36195,-2.35131 4.42245,-3.415254 z m 0.82987,2.535727 c -0.88662,0.4504 -1.5108,1.03557 -2.02503,1.4647 l 0.23052,0.27662 c 0.52842,-0.43976 1.11359,-1.0072 1.95056,-1.42923 z" />
      <path
         inkscape:connector-curvature="0"
         id="path3575"
         style="fill:url(#linearGradient2384);fill-rule:evenodd;stroke-width:0.35464749"
         d="m -190.11296,92.346207 c -4.97216,3.734438 -9.66769,7.862533 -13.87381,12.625453 l 0.26598,0.23052 c 4.18839,-4.74164 8.86264,-8.84491 13.82061,-12.565162 z m 2.39741,1.354753 c -4.92605,3.784089 -9.67833,7.63201 -13.10068,11.94453 l 0.27663,0.22343 c 3.38688,-4.26996 8.12497,-8.107246 13.04394,-11.891335 z m 2.40451,1.528531 c -5.01471,3.723799 -9.10734,7.451149 -12.324,11.182039 l 0.26599,0.23406 c 3.19892,-3.70606 7.28446,-7.419222 12.2779,-11.128834 z m 2.1137,1.351207 c -4.85158,3.535832 -8.27392,7.071672 -11.07919,10.607502 l 0.27663,0.21989 c 2.78753,-3.51456 6.1886,-7.02557 11.01535,-10.540127 z m 2.30521,1.152604 c -3.77345,3.149268 -7.58236,6.298538 -10.12873,10.228038 l 0.30145,0.20215 c 2.50381,-3.86921 6.27726,-7.00075 10.05071,-10.153562 z m 2.40806,1.539171 c -3.74863,3.010957 -7.21708,6.075107 -9.4549,9.366237 l 0.28726,0.19861 c 2.20236,-3.23084 5.64953,-6.28081 9.38752,-9.284676 z m 2.30521,1.152607 c -3.49683,2.75915 -6.56807,5.69209 -8.79171,8.97967 l 0.30145,0.1986 c 2.19172,-3.24147 5.23459,-6.15313 8.71014,-8.8981 z m 2.11724,1.44341 c -3.31241,2.64922 -6.11412,5.38355 -7.64974,8.32358 l 0.32272,0.16314 c 1.49307,-2.86201 4.25223,-5.57152 7.5469,-8.21009 z m 2.0144,1.34057 c -3.30886,2.53928 -5.67081,5.08565 -6.68156,7.66748 l 0.31918,0.13476 c 0.97174,-2.48253 3.30177,-4.99343 6.58581,-7.51498 z m 2.20591,1.54981 c -2.48253,2.06405 -5.05728,4.11391 -5.81622,7.00429 l 0.32982,0.0887 c 0.71994,-2.73788 3.23084,-4.75937 5.72046,-6.82696 z m 2.11724,2.10661 c -2.27683,1.76259 -4.1742,3.58903 -4.6778,5.67436 l 0.34401,0.078 c 0.46459,-1.93283 2.29812,-3.72735 4.55722,-5.47576 z" />
      <path
         inkscape:connector-curvature="0"
         id="path3639"
         style="fill:url(#linearGradient2381);fill-rule:evenodd;stroke-width:0.35464749"
         d="m -150.09099,104.92555 c -5.58925,2.59957 -10.54367,5.71338 -14.85264,9.34497 l 0.23407,0.27662 c 4.28059,-3.61031 9.19955,-6.70993 14.76397,-9.29886 z m 1.91864,1.82998 c -5.09274,2.47544 -9.82374,5.13175 -13.40213,8.38742 l 0.23407,0.25534 c 3.53583,-3.21665 8.24201,-5.86232 13.32056,-8.33421 z m 2.0144,1.8158 c -4.56786,2.12789 -8.8059,4.426 -11.87005,7.33766 l 0.2447,0.26598 c 3.01096,-2.862 7.22417,-5.16012 11.78139,-7.28091 z m 1.63138,1.92928 c -3.70252,1.90801 -7.36603,3.84438 -9.84147,6.28436 l 0.24116,0.2447 c 2.41869,-2.38323 6.06447,-4.30896 9.76344,-6.21697 z m 1.54981,2.11725 c -3.06416,1.40795 -5.51123,3.00032 -6.80569,4.96506 l 0.29081,0.18797 c 1.22708,-1.86545 3.62095,-3.43654 6.66028,-4.8303 z" />
      <path
         inkscape:connector-curvature="0"
         id="path3439"
         sodipodi:nodetypes="ccssscccc"
         style="fill:url(#linearGradient2378);fill-opacity:1;fill-rule:evenodd;stroke-width:0.35464749"
         d="m -100.36232,106.58885 c -7.56818,0.0319 -18.1083,4.01106 -30.60963,8.5541 0.7625,0.10285 1.74487,0.41494 3.05707,1.0001 3.29112,1.4647 7.08231,4.32316 7.88026,5.66372 0.46814,0.78023 0.33692,1.58528 -0.57807,2.69178 -1.82289,2.20591 -4.23449,4.31961 -7.41214,5.685 9.52229,3.43299 19.05876,7.10713 28.403723,8.44416 -3.131533,-6.73121 -4.259313,-23.56278 -0.187964,-32.02822 -0.18087,-0.004 -0.368829,-0.0106 -0.553249,-0.0106 z" />
      <path
         inkscape:connector-curvature="0"
         id="path3455"
         sodipodi:nodetypes="cccccccccccccccccccccccccccccccccccccccccccccccccc"
         style="fill:url(#linearGradient2375);fill-rule:evenodd;stroke-width:0.35464749"
         d="m -102.30224,108.08546 -26.00276,7.88736 0.54261,0.23407 25.57009,-7.77742 z m -1.6172,3.45782 -21.78954,5.67436 0.44331,0.344 21.4349,-5.67436 z m -1.53207,3.74507 -18.79277,2.88329 0.4965,0.35465 18.35301,-2.88329 z m -0.75186,2.88329 -16.15419,1.1526 0.32628,0.35465 15.85983,-1.1526 z m -0.37592,2.69177 -14.0405,0.18797 0.4043,0.5036 13.64684,-0.33692 z m -13.29219,1.53208 0.11349,0.4504 13.1787,0.96464 0.0213,-0.35464 z m -0.41139,1.68812 -0.26244,0.4043 14.32067,2.68113 0.0638,-0.344 z m -1.23772,1.50016 -0.39366,0.28372 16.83157,5.14593 0.0993,-0.34046 z m -1.8158,1.63138 -0.35819,0.39011 20.05177,6.57871 0.10994,-0.33337 z m -2.21654,1.53917 -0.40785,0.33337 24.13377,7.8909 0.11348,-0.344 z" />
      <path
         inkscape:connector-curvature="0"
         id="path3829"
         sodipodi:nodetypes="ccsssssccccsssssscc"
         style="fill:#000000;fill-rule:evenodd;stroke-width:0.35464749"
         d="m -129.85835,114.72801 -1.65621,0.63482 c 0.68093,0.0887 2.10306,0.67028 3.39043,1.24481 1.59946,0.71284 3.35497,1.78033 4.78774,2.82654 1.43278,1.04621 2.5712,2.13498 2.8691,2.63858 0.18442,0.305 0.23052,0.53552 0.16669,0.85115 -0.0638,0.31564 -0.27308,0.73767 -0.69866,1.25191 -1.78388,2.1598 -4.13519,4.21676 -7.22771,5.54314 l -0.37948,0.2518 1.19871,0.48232 0.90081,-0.48941 c 2.6102,-1.37958 4.68844,-3.21311 6.28435,-5.14239 0.48587,-0.59226 0.80505,-1.12778 0.91854,-1.68458 0.11348,-0.56034 -0.0142,-1.12068 -0.29791,-1.59591 -0.50005,-0.83697 -1.65265,-1.84417 -3.13863,-2.92584 -1.48242,-1.08522 -3.26985,-2.18463 -4.96506,-2.94003 -0.57453,-0.25535 -1.07104,-0.44686 -1.53917,-0.60645 0.004,-0.004 -0.004,-0.0106 0,-0.0142 z" />
      <path
         inkscape:connector-curvature="0"
         id="path2216"
         sodipodi:nodetypes="csscccccssscsc"
         style="fill:#808080;fill-rule:evenodd;stroke-width:0.35464749"
         d="m -231.00737,101.91105 c -2.37614,0.0284 -4.56431,0.20215 -6.52551,0.54261 -23.74365,4.14938 -33.38652,9.19956 -44.27774,16.01588 -0.46814,0.29436 -0.86889,0.84406 -0.97528,1.65266 1.78742,-0.30145 3.57839,-0.90081 5.36581,-0.52133 3.04643,0.79441 6.36947,2.68823 9.55421,4.03234 2.44707,0.69511 8.85909,0.46813 9.55066,-5.65308 0.344,-2.30166 -0.68802,-3.88339 -1.20581,-5.64954 -0.26953,-0.74476 10.55786,-6.16022 23.14075,-7.27027 15.27467,-1.35121 14.77107,0.6029 38.22391,4.70972 23.38546,4.09263 33.1028,8.42642 55.58036,10.09681 6.73475,0.5036 12.60062,-5.08919 12.60062,-5.08919 -3.13863,1.14197 -6.39784,2.33358 -9.77763,3.50392 -9.13926,3.17055 -63.18754,-16.68617 -91.25435,-16.37053 z" />
      <circle
         r="4.7283502"
         cy="117.03701"
         cx="-265.23233"
         id="path1320"
         style="fill:#ffffff;stroke-width:0.41398004" />
      <path
         inkscape:connector-curvature="0"
         id="path2195"
         style="fill:#000000;stroke-width:0.35464749"
         d="m -265.84794,114.13575 c -1.07458,0.0709 -1.97538,0.76604 -2.34776,1.73068 l 1.6101,0.80505 -1.7094,0.85115 c 0.30499,1.16325 1.36893,2.01795 2.62439,2.01795 1.49306,0 2.70241,-1.20935 2.70241,-2.70242 0,-1.48952 -1.20935,-2.70241 -2.70241,-2.70241 -0.0567,0 -0.12058,-0.004 -0.17733,0 z" />
      <path
         inkscape:connector-curvature="0"
         id="path3813"
         style="fill:#000000;stroke-width:0.35464749"
         d="m -265.23794,112.09298 c -2.72724,0 -4.94024,2.213 -4.94024,4.94379 0,2.73078 2.213,4.95442 4.94024,4.95442 2.73078,0 4.95797,-2.22364 4.95797,-4.95442 0,-2.73079 -2.22719,-4.94379 -4.95797,-4.94379 z m 0,0.43976 c 2.49317,0 4.51821,2.0144 4.51821,4.50403 0,2.48962 -2.02504,4.51466 -4.51821,4.51466 -2.48963,0 -4.50048,-2.02504 -4.50048,-4.51466 0,-2.48963 2.01085,-4.50403 4.50048,-4.50403 z" />
      <path
         inkscape:connector-curvature="0"
         id="path3783"
         sodipodi:nodetypes="cssssscsscccscccscsscccccccssssccsssscccccsscsssscssccssssssc"
         style="fill:#000000;fill-rule:evenodd;stroke-width:0.35464749"
         d="m -231.00737,101.73373 c -2.38323,0.0284 -4.58559,0.1986 -6.56098,0.54261 -23.75783,4.15292 -33.43262,9.21729 -44.33093,16.03716 -0.64191,0.4043 -1.09232,1.3512 -1.05331,2.47189 0.0426,1.12069 0.58872,2.42934 1.98603,3.5252 0.79086,0.62063 2.13852,1.02138 3.48973,1.41859 0.92208,0.26953 1.76969,0.54261 2.50381,0.84051 -0.70575,-0.0851 -1.43277,-0.1986 -2.03922,-0.1986 -0.46104,0 -0.87598,0.0355 -1.2058,0.0993 -0.33337,0.0638 -0.58872,0.14895 -0.74476,0.34401 l -0.0213,0.0106 -0.0106,0.0213 c -0.12767,0.30145 -0.0638,0.62418 0.0993,0.9008 0.16314,0.27308 0.42558,0.52843 0.73058,0.82988 l 0.0142,0.0213 0.0213,0.0106 c 0,0 4.48629,2.4187 14.61857,5.29844 10.12873,2.87974 25.91764,6.23115 48.57252,8.10015 3.83374,0.31918 11.2707,-0.79441 19.90637,-2.65986 8.63566,-1.8619 18.45231,-4.48274 26.97448,-7.16743 14.91648,-4.70262 28.04553,-5.80558 28.10582,-5.80912 13.40567,3.95077 27.03123,10.53658 40.309234,12.43394 l 0.344008,0.0461 -0.166685,-0.30145 c -2.447067,-4.68844 -5.089187,-23.89615 -0.187963,-31.86153 l 0.152499,-0.25534 -0.308544,-0.0106 c -9.362689,-0.2057 -23.321619,5.90842 -39.997149,11.69272 -1.08876,0.37593 -2.92229,0.42558 -5.31971,0.18797 -2.39742,-0.23762 -5.36227,-0.75895 -8.75624,-1.46115 -6.78441,-1.4115 -15.27822,-3.57839 -24.36074,-5.84104 -18.1615,-4.52885 -38.6885,-9.42654 -52.76446,-9.26694 z m 0,0.35464 c 13.99085,-0.15604 34.5143,4.72745 52.6758,9.2563 9.08252,2.26265 17.57278,4.43664 24.37137,5.85169 3.40107,0.70575 6.38366,1.20935 8.80235,1.45051 2.41515,0.24116 4.26641,0.21633 5.46158,-0.19861 16.50884,-5.72755 30.36137,-11.714 39.56447,-11.65017 -4.77356,7.8519 -2.19527,27.05251 0.19151,31.58846 -13.10423,-1.95411 -26.60211,-8.42998 -39.94395,-12.35947 l -0.0319,-0.0106 h -0.0355 c 0,0 -13.22126,1.10295 -28.21576,5.83041 -8.51154,2.68113 -18.32109,5.28779 -26.94257,7.14614 -8.62148,1.8619 -16.07617,2.97195 -19.80351,2.65986 -22.63715,-1.86545 -38.40478,-5.20268 -48.50869,-8.07887 -10.09327,-2.8691 -14.50863,-5.26652 -14.51927,-5.27361 -0.004,-0.004 -0.0106,0 -0.0106,0 -0.28371,-0.28017 -0.51069,-0.53552 -0.63127,-0.74476 -0.12413,-0.20215 -0.1454,-0.3511 -0.078,-0.53197 0.0567,-0.0603 0.22697,-0.15605 0.51069,-0.20924 0.29436,-0.0568 0.69156,-0.0887 1.13842,-0.0887 0.89726,0 2.0073,0.12412 3.06061,0.31209 l 0.13122,-0.33337 c -0.0142,-0.0106 -0.0461,-0.0106 -0.0638,-0.0213 -0.85115,-0.53197 -2.17399,-0.91145 -3.49328,-1.29801 -1.34766,-0.39721 -2.67404,-0.8086 -3.36915,-1.35121 -1.32283,-1.03912 -1.81225,-2.24137 -1.85126,-3.25921 -0.0355,-1.01784 0.39011,-1.84771 0.87598,-2.14916 10.88413,-6.81278 20.49508,-11.84878 44.221,-15.99461 1.95056,-0.34046 4.12455,-0.51423 6.49359,-0.54261 z" />
      <path
         inkscape:connector-curvature="0"
         id="path2462"
         sodipodi:nodetypes="csssscccscsssccssc"
         style="fill:none;stroke:#000000;stroke-width:0.35464749px"
         d="m -282.44189,122.01602 c 0.0355,0.1525 0.15959,0.4504 0.36528,0.8547 0.004,0.004 0.007,0.0142 0.0106,0.0213 0.007,0.007 0.007,0.0142 0.0142,0.0213 0.29081,0.43267 0.68447,0.85116 1.19516,1.25191 1.28382,1.0072 4.34443,1.51435 6.18505,2.30521 v 0.26599 c -1.90091,-0.26599 -3.79473,-0.26599 -4.15647,0.18796 -0.0461,0.10994 -0.0638,0.21633 -0.0567,0.32273 0,0.007 0.24825,0.61708 0.24825,0.62418 0.68447,0.69865 1.19162,0.74121 2.0144,1.259 0.004,0.004 0.007,0.0106 0.0106,0.0106 0,0.004 0.007,0 0.0106,0 0.007,0.004 0.0142,0.0177 0.0213,0.0213 1.43632,-0.84051 4.60332,-0.34755 7.71358,0.10285 2.68468,0.56744 2.42579,-3.44717 0.64546,-3.59258 -0.48232,-0.039 -13.583,-3.27339 -14.21072,-3.65641 0,-0.004 -0.007,0 -0.0106,0 z" />
      <path
         inkscape:connector-curvature="0"
         id="path2464"
         sodipodi:nodetypes="csc"
         style="fill:none;stroke:#000000;stroke-width:0.3403765px"
         d="m -276.23202,123.71832 c 0,0 4.24513,1.58173 6.4475,2.54637 2.20236,0.96465 2.74851,2.11725 2.74851,2.11725" />
    </g>
    <use
       id="shine"
       xlink:href="#shield"
       style="fill:url(#rg);stroke:#000000;stroke-width:3"
       x="0"
       y="0"
       width="100%"
       height="100%"
       transform="matrix(0.26458333,0,0,0.26458333,-413.54582,37.03903)" />
  </g>
</svg>
