<?xml version="1.0" encoding="UTF-8" standalone="no"?>
<svg
   xmlns:dc="http://purl.org/dc/elements/1.1/"
   xmlns:cc="http://creativecommons.org/ns#"
   xmlns:rdf="http://www.w3.org/1999/02/22-rdf-syntax-ns#"
   xmlns:svg="http://www.w3.org/2000/svg"
   xmlns="http://www.w3.org/2000/svg"
   xmlns:xlink="http://www.w3.org/1999/xlink"
   id="svg262"
   version="1.1"
   height="660"
   width="600">
  <metadata
     id="metadata266">
    <rdf:RDF>
      <cc:Work
         rdf:about="">
        <dc:format>image/svg+xml</dc:format>
        <dc:type
           rdf:resource="http://purl.org/dc/dcmitype/StillImage" />
        <dc:title></dc:title>
      </cc:Work>
    </rdf:RDF>
  </metadata>
  <style
     type="text/css"
     id="style_css_sheet">
.griffin1 {
  fill:#ffffff;stroke:#cc0000;stroke-width:1;
}
.griffin1-detail {
  fill:#cc0000;stroke:none;
}
.griffin1-tongue {
  fill:#ff6666;
}
.griffin2 {
  fill:#cc0000;stroke:#ffffff;stroke-width:1;
}
.griffin2-detail {
  fill:#ffffff;stroke:none;
}
.griffin2-tongue {
  fill:#cc0000;
}
</style>
  <defs
     id="defs23">
    <radialGradient
       r="405"
       cy="220"
       cx="220"
       gradientUnits="userSpaceOnUse"
       id="rg">
      <stop
         id="stop3"
         offset="0"
         style="stop-color:#fff;stop-opacity:.3" />
      <stop
         id="stop5"
         offset=".2"
         style="stop-color:#fff;stop-opacity:.2" />
      <stop
         id="stop7"
         offset=".6"
         style="stop-color:#666;stop-opacity:.1" />
      <stop
         id="stop9"
         offset="1"
         style="stop-color:#000;stop-opacity:.13" />
    </radialGradient>
    <linearGradient
       x2="600"
       x1="0"
       gradientUnits="userSpaceOnUse"
       id="border">
      <stop
         id="stop12"
         offset="0"
         style="stop-color:#008000;" />
      <stop
         id="stop14"
         offset=".5"
         style="stop-color:#008000;" />
      <stop
         id="stop16"
         offset=".5"
         style="stop-color:#8b4513;" />
      <stop
         id="stop18"
         offset="1"
         style="stop-color:#8b4513;" />
    </linearGradient>
    <circle
       r="50"
       cy="300"
       cx="150"
       id="c" />
    <path
       d="m2,2v257c0,286 298,398 298,398c0,0 298-112 298-398V2z"
       id="shield" />
  </defs>
  <use
     fill="#ffffff"
     xlink:href="#shield"
     id="shine" />
  <path
     id="path26"
     d="M 2,2 V 259 C 2,545 300,657 300,657 V 2 Z"
     style="fill:#cc0000" />
  <g
     id="g32"
     style="fill:#ffffff;stroke:#cc0000;stroke-width:1">
    <path
       d="m 147.7,219.3 c -6.1,10.1 -17.5,22.5 -32.8,12.5 -3.3,-2 -5.9,-6.3 -6.8,-10.3 -1,-3.7 -0.3,-11.9 1.8,-16.1 2.6,-5.5 9.3,-8.1 9.2,-16.9 0.2,-6.7 -3.6,-12.9 -5.1,-19.9 -2.6,-14.3 -5.1,-29 -7.1,-45.2 -2.5,-20.4 0.2,-36.77 0.1,-50.23 l -0.1,-3.65 C 90.95,80.42 88.88,93.96 87.25,112.4 86.61,110.1 86.07,106.9 85.52,103 84.93,95.04 86.85,83.03 84.49,76.28 72.46,90.97 71.62,100.2 70.49,117.8 67.68,111.1 66.94,104.7 62.4,97.86 c -8.58,9.84 -10.25,28.74 -5.32,45.84 -3.55,-3.8 -6.51,-8.8 -11.14,-9.8 -2.22,15 -0.74,22.7 8.03,35.1 -3.3,-1.5 -6.56,-3.5 -10.45,-3 -3.8,18.6 10.5,31.5 20.56,39 -10.01,1.2 -12.38,8.8 -8.58,14.5 2.61,4.2 7.89,7.9 13.71,9.7 -3.7,3 -4.39,5.9 -3.75,8.5 1.03,7.6 10.55,11.8 18.68,11.9 -9.17,11.4 0.99,17.8 13.07,17 -5.18,9.7 6.59,12.2 14.99,9.3 -1.9,2.8 -1.3,5.8 -0.5,6.8 6.3,5.2 17.1,-0.1 21.1,-5.8 -0.4,13.5 10.7,13.3 18,4.3 7,12 20,-1.2 13.4,-11.4 3.2,1.6 5.6,1 6.6,-0.8 1.5,-3.8 -1.5,-12.9 -6.7,-17.4 9.2,-8.9 2.7,-16.1 -3.8,-19.6 2.3,-6.9 -6.1,-18.4 -12.6,-12.7 z"
       id="path28" />
    <path
       class="griffin1-detail"
       d="m 87.79,111.4 c 0,0 -0.25,3 -0.39,4.4 0.49,8.9 3.2,17 5.42,25.6 2.86,11.5 10.78,33.7 10.78,33.7 l 0.4,0.8 -0.9,-0.2 c -2.1,-0.7 -3.82,-0.4 -4.76,0.3 -1.33,0.8 -1.87,2.1 -2.46,3.7 -0.3,3.3 0.59,7.7 3.35,10.5 l 0.39,0.5 -0.88,0.2 c -5.23,1 -8.04,3.7 -8.73,6.9 -0.74,3.2 0.64,7.1 4.19,10.5 l 0.39,0.3 -0.44,0.3 c -3.25,2.7 -4.78,5.8 -4.63,8.8 0.19,2.8 2.07,5.6 6.21,7.5 v 0.2 0.3 c -1.82,6 -1.38,10.8 0.94,13.7 2.31,2.9 6.53,4 12.53,2.5 h 0.5 v 0.2 c 3.8,6.5 6.5,8.8 9.5,9.2 3,0.3 5.7,-1.5 9.8,-3.4 v -0.2 l 0.4,0.2 c 4.3,4.2 8.9,5.5 12,4.4 3.6,-1.1 5.6,-4.6 5.7,-10.7 l 0.1,-0.4 h 0.3 c 4.8,-0.3 7.5,-1.4 9.3,-2.8 1.4,-1.5 3,-4.6 3.6,-6.4 l 1.2,0.6 c -1,1.9 -2.6,4.8 -4.4,6.5 -1.9,1.5 -4.5,2.6 -9.3,2.9 -0.1,6.1 -2.6,9.9 -6.1,11.2 -3.5,1.1 -8.1,-0.3 -12.9,-4.4 -3.7,1.9 -6.9,3.7 -9.9,3.3 -3.4,-0.3 -6.5,-3 -9.9,-9.3 -6.1,1.5 -10.61,0.2 -12.93,-2.9 -2.71,-3.1 -3.15,-8.1 -1.33,-14.1 -3.65,-2 -5.96,-5 -6.11,-8.1 -0.15,-3.2 1.43,-6.5 4.63,-9.2 -3.55,-3.4 -4.88,-7.4 -4.14,-10.9 0.74,-3.4 3.95,-6.2 8.78,-7.4 -2.32,-3 -3.21,-7.2 -2.91,-10.6 0.59,-1.8 1.58,-3.4 2.96,-4.2 0.93,-0.9 2.65,-1.1 4.75,-0.7 -0.4,-1.2 -7.91,-21.8 -10.77,-33.1 -1.82,-8.6 -4.98,-16.8 -5.47,-25.8 0.15,-1.5 0.44,-4.4 0.44,-4.4 z"
       id="path30"
       style="fill:#cc0000;stroke:none" />
  </g>
  <g
     id="g116"
     style="fill:#ffffff;stroke:#cc0000;stroke-width:1">
    <path
       d="m 189.3,246.1 c -0.7,-2.4 -2,-4.2 -3.8,-5.9 -1.7,-1.7 -5.6,-3.4 -8,-4.8 -18.4,-12.8 2.5,-49.7 17.3,-27.1 v 0 c 7.8,10.9 10.9,23.4 15,36.3 0,0 3.2,2 4.1,3 4.6,3.2 10.7,6.9 14.8,10.5 12.6,11 16.7,10.1 27.3,12.6 1.5,0.4 4.3,1.7 4.3,1.7 1.4,-2.9 1.5,-5.1 1.2,-6.9 -0.3,-1.2 -1.2,-2.5 -2,-3.4 -1,-0.5 -1.9,-0.8 -2.8,-1.6 -1.9,-1.6 -1.6,-3.4 0.1,-5.3 4,-4.1 7.5,-5.8 12.2,-3.7 1.4,0.4 2.8,1.9 3.2,3.1 0.3,1.3 0.6,3 0,4.4 -0.2,1.8 -3,4.8 -3,4.8 0.8,1.9 0.6,3.6 0.4,5.4 0,0 2.2,-1.8 3.4,-3.3 1,-1 1.7,-2.4 1.8,-3.9 0.7,-2.4 -0.3,-5.7 0.3,-8 0.8,-1.4 2.3,-2.2 3.8,-1.7 7.2,2.4 12.2,10.8 9.6,15.9 -0.8,2 -3.3,3.5 -7.8,3.6 -3,4.4 -7.2,6.2 -11.3,8.1 3.4,0.9 7.5,0.1 12.7,-2.7 0,0 0.7,-2.1 1.9,-2.9 0.4,-0.4 1,-0.8 2,-0.7 1.4,0.2 1.3,0.6 1.7,1.8 2.9,6.1 2.9,14.7 -3.3,18 -3.7,1 -6.4,-1.6 -8.6,-4.3 0,0 -3.1,1.3 -5.1,1.2 -3.9,-0.2 -8.4,-3.8 -12.5,-3.3 -1.4,0.1 -2.5,1 -3.6,2 -1.1,0.9 -2.4,3.4 -2.4,3.4 3.2,3.1 3.8,5.8 3.5,7.9 -0.4,3.6 -5.7,7.2 -13.6,2.5 -2.7,-1.5 -6.5,-3.8 -5.2,-6.8 1.3,-3.1 5.3,-4.2 7.1,-6.1 1.7,-1.9 2.9,-3.4 3.1,-5.7 0.2,-1.4 -0.1,-2.9 -1,-4.2 -0.9,-0.9 -2.8,-1.6 -2.8,-1.6 0,0 -5.8,2.4 -7.6,1.9 -5.5,-1 -4.3,-6.9 -37.4,-17.3 -1.9,-0.4 -2.4,-4.2 -2.4,-4.2 z"
       id="path104" />
    <path
       d="m 196,266.5 c 0.8,1.6 0.2,2.9 0,4.1 2.9,-3.6 5.5,-4.2 4.9,-13.1 2.7,3 5.1,3.3 8.5,4 2.5,0.3 3.8,2.4 4.2,2.7 0.5,-4.2 1.4,-8.5 -2.1,-13.1 5.5,1.1 10.2,3.2 15,-0.8 -1.9,-0.7 -6.9,-0.7 -13,-8.1 3.3,1.7 7.4,0 9.1,-1.9 0,0 -3.9,-0.1 -5.5,-2.8 -1.9,-2.4 -4.2,-7 -5.6,-8.4 -2.3,-1.9 -4.7,-2.8 -4.7,-2.8 4.6,-0.6 5.4,-3.4 5.9,-3.7 l -3.5,-0.5 c -3.3,-0.7 -7.6,-11.6 -10.3,-14.4 -2.7,-3.2 -5.2,-6.3 -10.1,-7.4 -8.1,-2.3 -14,1.5 -17.4,6.9 -2.9,5.5 -3.8,13.1 -2,19.1 2.3,8.8 13.1,10.2 10.6,18.7 l -1.5,4.4 c 1,-0.3 1.4,0.8 5.1,-2 -0.7,3.9 3,9.1 4.4,11.5 0.7,2.1 0.1,3.7 0.1,3.7 1.4,-0.8 3.1,-2.9 4.9,-5 -0.6,5.6 2.7,6.9 3,8.9 z"
       id="path106" />
    <path
       d="m 259.9,253.5 c -0.1,1.7 2.2,2.5 4.2,2.2 1.6,-0.2 4.7,-2.4 3.8,-3.8 -2,-3.4 -1.5,-7.6 -0.1,-11.1 -5.3,2.2 -7.7,7.1 -7.9,12.7 z"
       id="path108" />
    <path
       d="m 279.5,255.2 c -1.5,0.9 -0.8,3.2 0.6,4.6 0.8,1.5 4.6,2.9 5.2,1.2 1.5,-3.7 5.1,-5.5 9.2,-6.4 -5.2,-3.3 -10.7,-2.7 -15,0.6 z"
       id="path110" />
    <path
       d="m 287.1,281 c -1.3,-0.5 -2.6,1.6 -2.8,3.4 -0.2,1.9 0.8,5.5 2.5,4.8 4.1,-1.3 7.9,0.2 11.2,2.2 -0.9,-5.7 -5.4,-9.3 -10.9,-10.4 z"
       id="path112" />
    <path
       d="m 240.6,298.9 c 0.2,-1.7 2.6,-2 4.6,-1.4 1.4,0.6 4,3.3 3,4.5 -2.8,3 -2.8,7.2 -2.2,11.1 -5.2,-3.3 -6.5,-8.7 -5.4,-14.2 z"
       id="path114" />
  </g>
  <path
     d="m 187.6,130.4 c 0,0 -6.4,5.4 -7.4,8.9 -0.5,2.1 -0.5,3.5 1,5.2 0.5,1.4 2.9,2 3.9,3.3 0,1 0,3 -0.5,4.4 0,1.1 0,2.5 0,3.4 0.5,3.3 4.9,4.7 4.9,4.7 0,0 -1.9,-1.7 -1.4,-3.8 0.5,-1 2.4,-1.8 2.9,-2.9 1,-1.1 1,-3.5 1,-3.5 2,1.6 3,3.4 3,5.8 4.4,-2.6 6.4,-7.8 4.9,-12.9 -0.5,-4.8 -5.9,-11.7 -5.9,-11.7 z"
     id="path34"
     style="fill:#ffffff;stroke:#cc0000;stroke-width:1" />
  <path
     class="griffin1-tongue"
     d="m 207.8,117.5 c 0,0 4.4,2.8 4.4,5.3 0,3.2 -1,6.4 -4.4,8.6 -5.9,3.4 -18.3,3.6 -24.7,6.2 -9.3,3.8 -20.8,15.3 -20.8,15.3 l -5,-10.3 c 0,0 12,-9.2 19.9,-12.3 7.4,-2.8 18.8,-1.2 26.6,-3.8 2,-0.6 2.5,-1.7 3.5,-3.2 1.5,-1.8 0.5,-5.8 0.5,-5.8 z"
     id="path36"
     style="fill:#ff6666;stroke:none;stroke-width:1" />
  <path
     d="m 152.5,106.9 c 0,0 0,-7.02 -1.4,-10.08 -3.3,-6.64 -9.5,-10.58 -12.8,-17.34 -0.9,-2.51 -2.3,-5.96 -2.3,-5.96 0,0 -2.9,4.04 -3.8,7.09 -1,3.8 -1.5,7.94 -1,11.89 1,3.97 2.3,8.4 5.2,11.4 1.9,2.1 8.1,3.8 8.1,3.8 z"
     id="path38"
     style="fill:#ffffff;stroke:#cc0000;stroke-width:1" />
  <path
     d="m 175.7,291.9 -8.3,14.3 c 0,0 2.9,8.2 7.4,10.5 0.4,-5.7 3.9,-12.9 6.9,-18.9 0.9,-2.1 -4.5,-4.2 -6,-5.9 z"
     id="path54"
     style="fill:#ffffff;stroke:#cc0000;stroke-width:1" />
  <g
     id="g60"
     style="fill:#ffffff;stroke:#cc0000;stroke-width:1">
    <path
       d="m 93.12,382.4 c -5.62,-0.6 -12.08,-4.6 -14.84,-9.5 -10.9,-19.7 4.29,-47.3 -5.33,-67.6 -1.82,-3.7 -6.21,-8.7 -10.4,-8.4 -10.55,0.7 -13.61,10.6 -14,14.4 -0.64,5.5 0.59,8.4 2.71,9.3 2.56,1.1 6.46,-0.5 10.11,-3.8 0,0 -1.48,6.3 -4.64,8.9 -2.07,1.7 -6.31,2.3 -8.87,1.4 -3.4,-1.1 -6.31,-5.8 -6.31,-5.8 -1.19,0.9 -3.35,2.6 -3.11,6.4 0.25,4.7 2.91,9.7 0.64,14 -1.82,3.7 -4.4,4.3 -6.32,5.6 0,0 2.76,-4.5 2.46,-8 -0.29,-2.4 -1.97,-4.6 -3.3,-6.7 -3.35,-5.6 -4.73,-12 -4.49,-17.2 0.5,-11.2 4.93,-15.4 8.84,-18.3 -4.45,-2.7 -6.08,-6 -5.98,-9.3 0.3,-8.6 4.19,-9.9 9.73,-11.7 -13.28,18.7 16.61,10.3 23.61,11.3 6.46,1 12.77,5.7 16.17,11.3 10.26,16.7 -0.98,47.8 3.85,64.4 2.12,7 6.26,9.7 9.66,10.3 5.67,1.1 10.39,-3.2 14.69,-8.6 5.7,-7.9 6.2,-23.8 11.4,-32.2 4.3,-7 9.5,-10.6 16.6,-14.2 3.3,-1.6 10.5,-2 10.5,-2 l -2,12.9 c 0,0 -7.6,0.2 -11.4,1.9 -4.7,2.6 -7.5,5.1 -9.4,10.3 -5.7,16 -5.2,40.4 -30.58,40.9 z"
       id="path56" />
    <path
       class="griffin1-detail"
       d="m 39.03,276.3 0.35,0.7 c -5.73,2.9 -6.47,7.3 -5.49,10.9 0.4,1.7 1.48,3.1 3.27,3.9 1.78,0.7 4.24,1 7.44,0.5 -3.59,2 -7.98,0.8 -8.47,0.5 -1.79,-1 -2.88,-2.6 -3.42,-4.4 -1.04,-4 0.29,-9 6.32,-12.1 z m -2.56,27.2 c -3.27,4.3 -5.14,8.9 -6.32,14 -0.65,2.5 -0.79,5.7 -0.89,8.2 l -0.69,0.1 c -0.94,-13.4 5.32,-24 16.63,-30.6 -3.36,2.3 -6.17,5.2 -8.73,8.3 z m 10.21,-5.2 c -3.26,3.7 -7.65,8.4 -10.41,14.1 -1.44,3.4 -2.08,7.5 -1.64,11.4 0.45,3.9 1.04,7.6 3.17,13.1 0.45,1.3 0.35,3.7 -0.44,5.2 -0.84,1.6 -2.14,3.3 -3.71,5.1 l -0.55,-0.4 c 1.58,-1.9 2.52,-3.6 3.32,-5 0.74,-1.4 0.64,-3.7 0.25,-4.7 -2.09,-5.6 -2.73,-9.2 -3.22,-13.2 -0.45,-4 0,-7.7 1.48,-11.3 1.93,-4.8 5.73,-9.4 11.75,-14.3 z m 2.46,2.8 c 0.1,0.8 -1.82,4.2 -2.32,5.1 -1.48,3 -2.71,6.4 -2.71,9.3 0,1.9 0.4,3.7 1.58,5 1.18,1.4 2.12,2.5 5.08,2.9 1.48,0.2 4.04,-0.2 5.67,-1.3 1.57,-1.1 3.1,-2.8 4.53,-4.9 l 0.59,0.4 c -1.43,2.2 -3.45,4.6 -5.07,5.7 -1.68,1.2 -4.19,2 -5.92,1.7 -3.06,-0.5 -3.99,-1.3 -5.32,-2.8 -1.34,-1.6 -2.27,-4.3 -2.27,-6.4 0.1,-4.1 3.84,-11.1 6.16,-14.7 z"
       id="path58"
       style="fill:#cc0000;stroke:none" />
  </g>
  <g
     id="g102"
     style="fill:#ffffff;stroke:#cc0000;stroke-width:1">
    <path
       id="path1224"
       style="fill:#ffffff"
       d="M 133.8 316.4 C 133.8 316.4 133.8 316.4 133.8 316.4 L 133.8 316.4 C 133.8 316.4 130.4 324.8 130.4 329.2 C 129.5 334.9 129.5 339.8 129.5 345.5 C 129.5 351.5 131.4 358.4 130.4 364.2 C 129 370.8 126.6 377.3 123.3 383.2 C 121 387.3 117.6 390.8 114.3 394.2 C 111.9 396.5 107.2 400.3 107.2 400.3 C 105.8 401.5 103.4 402.2 101.5 403.2 C 96.27 406.8 94.84 411.1 95.33 416 C 97.21 412.5 100.1 413 103.9 414 C 96.27 419.1 93.9 423.3 95.83 432.2 C 97.7 426.4 103.9 427.8 108.2 425.1 C 104.4 433.2 98.19 434.9 96.76 439.8 C 96.27 442.6 95.33 445.6 98.64 451.8 C 99.13 449.2 99.62 447.1 101 446.1 C 102.9 443.9 106.7 444.1 109.6 440.2 C 109.6 440.2 109.6 443.3 108.6 445.1 C 107.7 447.4 107.2 447.5 105.3 449.7 C 103.9 451.6 102.4 454.7 102 457.1 C 101.5 462 104.8 469.7 104.8 469.7 C 104.8 469.7 106.2 466.5 107.7 465.5 C 109.1 464.2 111.9 464.8 113.8 463.7 C 115.7 462.7 117.6 459.6 117.6 459.6 C 117.6 459.6 117.2 462.1 117.6 463.3 C 117.6 464.2 120 466.6 120 466.6 C 120 466.6 114.8 467 112.9 469.6 C 110.5 472.5 110.5 475.8 111.9 478.3 C 113.8 481.8 118.1 483.2 122.8 481.3 C 124.8 480.5 127.1 479.1 127.1 479.1 C 127.1 479.1 127.1 481.7 127.6 482.8 C 128.1 484.4 128.6 485.8 130 487 C 131.9 489.2 134.7 489.8 137.6 489.6 C 140.4 489.5 142.8 488.3 144.7 485.8 C 145.2 484.6 146.1 481.6 146.1 481.6 C 146.1 481.6 149.4 485.1 150.8 485.3 C 155.1 485.6 158.4 483.9 160.4 481.2 C 161.3 479.2 162.2 476.9 161.8 474.5 C 161.8 473.1 160.8 471.3 159.9 469.9 C 159.9 469.9 162.2 469.1 163.2 468.5 C 164.6 467.7 165.5 466.5 166 464.9 C 166.5 462.6 166.5 459.9 165.5 457.7 C 164.2 454.8 161.8 454 158.4 454.2 C 156.1 454.3 153.2 457.1 152.3 458.2 C 149.4 460.7 146.1 460.3 143.3 459.9 C 140.9 459.6 138.5 457.1 136.6 454.1 C 131.9 447.3 131.4 436.9 131.4 428.8 C 131.4 420.1 130.9 409.8 130.9 409.8 C 130.9 409.8 138.5 404.2 141.8 400.7 C 146.6 395.5 156.6 383.3 156.6 383.3 C 154.1 387.7 153.7 390.2 153.2 392.7 C 152.8 397.4 156.1 400 157 403.4 C 157.5 405.4 157.5 406.4 157 407.8 C 160.4 405.8 160.4 404.6 160.8 402.8 C 161.3 399.6 160.4 396.9 162.2 394.1 C 162.7 398.1 164.6 400.5 167.4 402.8 C 167.4 402.8 166.5 398.4 167.9 396.8 C 170.3 394.4 172.8 393.1 174.8 390.8 C 176.7 388.2 177.7 384.7 175.2 380.8 C 175.2 380.8 178.7 378.4 179.2 375.5 C 180.2 372.7 179.7 369.4 178.2 366.8 C 176.2 363.2 171.8 358.8 171.8 358.8 C 171.8 358.8 180.7 346 183.1 337.7 C 184.6 332.9 184.6 327.6 183.6 322.7 C 183.1 318.8 181.7 315 179.2 311.5 C 177.2 308 172.8 303.1 172.8 303.1 " />
    <path
       id="path78"
       d="m 115.30078,76.619141 c 2.8,14.69 -2.4,32.080079 8,48.580079 0,0 -3.30078,3.00156 -4.30078,5.10156 -1.4,2.3 -1.40078,6.7 -1.80078,10 -1,4.8 -2.89844,9.29883 -2.89844,9.29883 2.4,-0.1 5.19961,-1.19922 7.59961,-4.19922 0,0 -2.40078,4.59922 -3.30078,7.19922 -0.5,2.2 0.90039,5.70117 0.90039,8.70117 0.5,2.9 -0.5,5.19922 -0.5,5.19922 4.8,-0.8 5.79922,-3.3 7.19922,-5.5 0,0 -1.39844,6.49922 -1.39844,9.69922 0.4,3.2 2.79922,5.90039 4.69922,9.40039 1.4,2.8 1.90039,6.70117 1.90039,6.70117 1.4,-0.5 1.90039,-3.50078 2.40039,-6.80078 0,0 -0.50117,6.30078 2.79883,9.30078 1.9,1.6 7.59961,9.79961 7.09961,13.59961 0.5,-0.1 2.90039,-1.5 3.40039,-7.5 2.8,3.6 0.40039,5.7 0.40039,9.5 0,5.3 3.30078,12.2 3.80078,17.5 0.5,4.9 -0.5,10.5 -0.5,10.5 2.4,-1 4.29922,-0.70039 6.69922,-6.40039 0,3.7 -1.9,6.50039 0,11.40039 0.4,1 0,2.1 -0.5,3 -2.4,10.8 -3.29922,16.2 -5.69922,24 -3.3,10 -8.00117,20.10039 -13.70117,28.90039 -6.7,12.4 -4.29883,19.59961 -3.79883,22.59961 -20.34728,48.17547 21.07875,50.53084 28.68164,48.88281 7.75458,-1.68091 9.01869,0.66832 22.41563,-7.53493 0,0 5.10195,12.75095 6.60195,16.95095 2,3.8 4.9,8.00117 4,12.70117 -1,1.9 -3,3.79922 -5,5.69922 -1.4,1.8 -2.40039,5.1 -2.90039,8 0,1.9 0,4.69961 1.5,5.59961 6.4,3.3 12.80078,5.60039 14.30078,10.40039 1.9,8 1.39883,14.10039 8.79883,17.90039 -1,-3.8 -0.5,-6.10039 1,-9.40039 1,7 2.50039,9.79961 7.40039,14.09961 -0.5,-4.3 -0.5,-7.59883 0.5,-11.29883 2,7.5 3.90039,11.69961 10.40039,14.59961 -1.5,-3.8 -2,-7.10039 -0.5,-10.90039 1.9,2.9 1.40039,7.09961 5.90039,7.59961 0,0 0,1.80078 0.5,2.80078 1,1.9 2.40039,3.79922 4.90039,4.69922 2,0.9 4.39844,0.4 6.39844,0 2,-0.9 4.40039,-3.79883 4.40039,-3.79883 0,0 3,4.19922 5.5,5.19922 2.4,1.4 4.90039,1.4 7.90039,0.5 2.9,-1 5.40039,-3.29961 6.40039,-6.09961 0.5,-1.9 0,-5.19922 0,-5.19922 0,0 3.40039,0.89844 4.90039,0.89844 2,0 4.39844,-0.49844 5.39844,-2.39844 2,-2.3 2.5,-4.60039 2,-7.90039 -0.5,-1.5 -2.5,-3.30078 -2.5,-3.30078 0,0 1,-2.39883 1.5,-3.29883 0.5,-1.9 -0.5,-4.30078 -0.5,-4.30078 0,-1.9 -2.89844,-3.69922 -4.89844,-3.69922 -6.4,0 -8.90078,4.19961 -14.80078,5.59961 -11.8,2.4 -23.7,-2.30078 -33,-10.30078 -3.5,-2.9 -5.00039,-6.10039 -6.90039,-10.40039 -2,-3.3 -3,-7.99922 -2.5,-11.69922 0.5,-6.7 3.90039,-11.80039 5.40039,-18.40039 0.5,-2.8 1,-10.79883 1,-10.79883 0,0 3.90039,2.29922 4.40039,4.19922 1,1.9 0.5,5.7 1.5,8 0.5,1.9 1.5,2.90078 3.5,3.30078 2.4,0.9 4.40039,-0.002 6.40039,0.89844 1.5,1 2.89844,3.80078 2.89844,3.80078 0,0 0.5,-3.29922 0,-4.69922 -1,-2.8 -4.89844,-4.20156 -5.89844,-7.10156 -0.5,-2.8 1.5,-4.19961 2,-6.59961 0.5,-1.8 0.5,-3.29961 0,-4.59961 -0.5,-3.3 -5.40039,-6.69922 -5.40039,-6.69922 0,0 1.00039,-0.90078 1.40039,-1.30078 1,-0.5 4,0 4,0 -6.4,-9 -9.90117,-10.9 -20.20117,-8.5 0,0 -0.5,-3.09922 -1,-5.69922 -1,-2.4 -2,-5.40117 -4,-6.70117 -0.9,-0.8 -3.90039,-2.5 -3.90039,-2.5 0,0 -2,-2.70039 -2.5,-3.90039 -0.9,-3 -3.39844,-5 -5.89844,-6.5 -3.4,-1.5 -5.90078,-2.1 -9.30078,-1.5 -10.92068,1.65187 -14.74522,-3.27997 -23.04883,-9.04688 0.3996,-1.21989 3.41208,-10.32753 5.74805,-14.25195 2,-3.2 6.90039,-6.49961 10.40039,-8.09961 3.4,-1.7 16.20117,-3.30156 20.20117,-10.10156 -1,5.1 0.49844,7.70039 1.89844,9.90039 1,-1.4 1,-2.8 2,-4 4,-8.1 9.90039,-15.09961 7.90039,-22.09961 2,2.7 2.00039,4.70039 6.40039,7.40039 0,0 -0.5,-1.5 -0.5,-6 0.5,-3.2 4.5,-13.49961 4,-16.59961 -0.5,-2.3 -2.5,-6.40039 -2.5,-6.40039 3,2.1 5.40039,3.19922 8.40039,1.69922 0,0 -1,-0.80039 -2,-4.40039 -1,-3.6 -2.50039,-10.1 -3.90039,-12.5 -2,-2.5 -6,-5.5 -6,-5.5 4,0.6 7.40039,0.40117 9.40039,-0.79883 0,0 -3.40039,-1.80039 -6.40039,-4.40039 -3.5,-3.5 -6.90039,-8.29922 -10.40039,-10.19922 -3.9,-2.6 -10.79883,-4.20117 -10.79883,-4.20117 6.9,-0.6 7.39844,-1.39883 8.89844,-2.79883 0,0 -2,-0.50117 -5,-2.70117 -2.9,-2.1 -5.39844,-6.00039 -6.89844,-6.90039 -7.4,-4.9 -13.30117,-5.59844 -18.70117,-7.89844 -9.9,-4 -19.99883,-8.30078 -16.79883,-19.30078 1,-2 3.5,-3.50039 5,-5.90039 l 1.89844,-3.90039 -27.19922,0.60156 6.09961,-7.5 24.09961,-13 6.90039,-6.40039 c 16.8,-14.1 2.00117,-25.530468 -12.29883,-22.980468 -5.8,1.13 -9.60078,3.549531 -15.30078,5.519531 -5.2,1.859997 -17.09961,2.660157 -17.09961,2.660157 -6.2,-10.430001 -15.19961,-17.830469 -25.09961,-24.980469 z"
       style="fill:#ffffff" />
    <g
       class="griffin1-detail"
       id="g92"
       style="fill:#cc0000;stroke:none">
      <path
         d="m 169.3,370.7 c 0,0 -0.5,1.2 0,2.2 0,1.1 0.5,2.1 1.5,2.9 0.5,0.6 2.5,2.1 3,2.9 l 1.4,2.6 c 0.5,0 0.5,-0.1 0.5,-0.3 0,-0.1 0,-0.3 0,-0.4 0,-0.3 0,-0.2 0,-0.5 -0.5,-0.6 -0.9,-1.8 -1.9,-2.7 -1,-0.9 -2.5,-1.9 -3,-2.5 0,0 -0.5,-0.4 -0.5,-1.1 -0.5,-0.4 -0.5,-0.9 -0.5,-1.2 -0.5,-0.7 -0.5,-1.9 -0.5,-1.9 z m 3.5,0.3 c 0,0 0.5,0.1 1,0.3 0.5,0.2 1,0.5 1,0.6 1.4,0.8 1.9,1.9 2.4,3.1 0,0.6 0,1.4 0.5,2 0,0.8 -1,2.5 -1,2.5 l 1.5,-1.8 c 0,0 0,0.2 0,-0.6 0,-0.7 0,-1.6 -0.5,-2.4 -0.5,-1.3 -1.5,-2.9 -2.9,-3.6 z m -5.8,9.5 c 0,0 0.4,2 0.4,3.7 0,1.1 -0.9,2.1 -1.4,2.9 -0.5,1.1 -1.4,1.8 -2.3,3.1 -0.5,1 -1,2.2 -1.5,3.1 0,0.5 0,0.8 0,1.2 0,0.2 0,0.3 0,0.5 0,0.1 0.5,0.2 0.5,0.2 v -0.6 c 0,0 0.5,0.1 0.5,0.1 0,0 -0.5,-0.1 -0.5,-0.2 0,-0.3 0.5,-0.6 0.5,-1 0,-0.9 0.5,-2 1.4,-2.9 0.5,-1.2 1.9,-2.5 2.4,-3.7 0.4,-0.8 1.3,-2.4 0.9,-3.6 0,-2.1 -0.5,-2.2 -0.9,-2.8 z m 3.3,4 c 0,0 0,0.7 0.5,1.4 0,0.8 0,1.7 -0.5,2.3 -0.5,1 -2,2.1 -2.9,3 -0.9,0.8 -1.9,1.8 -2.3,3 -0.5,1.4 -0.5,3 0,4.3 0.4,0.8 0.9,1.9 1.4,2.7 0.5,0.9 0.9,1.5 0.9,1.5 l 0.5,-0.3 c 0,0 -0.5,-0.7 -0.9,-1.5 -0.5,-0.8 -1,-1.9 -1,-2.5 -0.5,-1.3 -0.5,-2.8 0,-3.9 0,-1.1 1,-1.9 1.9,-2.9 0.9,-0.8 2.4,-1.9 2.9,-3.1 0.5,-2.4 0,-2.9 -0.5,-4 z"
         id="path80" />
      <path
         d="m 157,226.4 0.9,-1.6 v 1.8 c 0,0 -0.4,1.7 -0.9,3.7 0,2 -0.4,4.4 0,5.7 0,1.1 0.9,1.8 1.4,2.7 0.5,0.8 1.5,1.8 1.5,3 0,1.2 -0.5,3 -1,4.5 0,1 0,1.4 -0.5,1.9 0.5,-0.3 1.5,-0.8 2.9,-1.6 1.9,-1.2 3.8,-2.7 4.7,-3.6 1.4,-1.8 2.3,-3 2.3,-3.7 0.5,-1.1 1,-2.1 2,-3.2 -0.5,1.2 -0.5,2.4 -1,3.4 0,0.8 -0.5,2.2 -0.5,4.5 0,2.2 0,6.1 0.5,8 1.5,3.5 3.5,7.4 4,8.3 0.5,-0.7 1.5,-3.4 1.9,-4.7 0.5,-1.1 1,-1.7 2,-2.3 1,-0.6 2,-1.1 2.5,-1.8 1,-1.4 2.5,-3.7 3.4,-5.6 1,-2 1.5,-3.6 1.5,-3.6 l 1,-2.3 v 2.5 c 0,0 -0.5,1.5 -0.5,3.6 0,1.9 0,4.3 0.5,5.8 0,1.2 1,2.2 2,3.4 1,1.1 1.5,2.4 1.5,3.8 0,1.3 -0.5,3.2 -1,4.8 -0.5,1.3 -1,1.7 -1.5,2.2 1,-0.2 2,-0.7 3.9,-1.6 2.5,-1.1 5.5,-2.6 6.4,-3.9 1.5,-1 2.5,-3.3 3,-5.3 1,-1.9 1.5,-3.5 1.5,-3.5 l 0.5,-2.8 v 2.9 c 0,0 0,3.7 0.5,6.4 0.5,2.4 2.9,5.1 4.9,7 2,2 2.5,5 2.5,5 0,0.1 -0.5,0.7 -0.5,1.2 l -0.5,-1.1 c 0,0 0,-2.9 -2,-4.6 -2,-1.9 -4.4,-4.6 -4.9,-7.3 0,-1.8 -0.5,-3.6 -0.5,-4.9 0,0.6 -0.5,0.9 -0.5,2 -1,2 -2,4.2 -3,5.5 -1.5,1.6 -4.4,3 -7.4,4.1 -1.9,1.1 -4.4,1.9 -4.4,1.9 l -1,0.2 0.5,-0.7 c 0,0 1,-1.3 1.5,-2.9 1,-1.6 1.5,-3.5 1.5,-4.5 0,-1.3 -1,-2.4 -1.5,-3.4 -1,-1.2 -2,-2.4 -2.5,-3.7 -0.5,-1.7 -0.5,-4.1 0,-6.1 0,-0.9 0,-1.1 0,-1.7 -0.5,0.7 -0.5,0.9 -1,1.9 -1,2 -2.4,4.3 -3.4,5.7 -0.5,0.9 -2,1.4 -2.5,2 -1,0.5 -1.5,1.1 -1.5,1.9 -1,1.6 -2.4,5.6 -2.4,5.6 l -0.5,0.7 v -0.7 c 0,0 -3,-5.1 -4.5,-9.1 -0.9,-2.3 -0.9,-6.1 -0.5,-8.3 0,-1.8 0,-2.6 0,-3.4 -0.4,0.7 -0.9,1.6 -1.8,2.8 -1,1.2 -2.8,2.6 -4.7,3.7 -1.9,1.3 -3.9,2.2 -3.9,2.2 l -0.4,0.4 v -0.9 c 0,0 0.4,-1.2 0.9,-2.7 0.5,-1.5 1,-3.3 0.5,-4.2 0,-1 -0.5,-1.8 -1,-2.7 -0.9,-0.8 -1.3,-1.7 -1.8,-2.9 0,-1.6 0,-4 0.5,-6 0,-1.3 0.4,-2.5 0.4,-3.8 z"
         id="path82" />
      <path
         d="m 121.4,89.44 c 0,0 2.9,2.46 5.7,5.7 3.3,3.26 6.7,7.26 8.1,10.66 1.4,3.6 3.3,8.1 1.9,12.2 -0.5,1.4 -1.4,2.8 -3.3,3.4 -1.9,0.8 -4.3,0.3 -6.2,-0.9 -1,-0.6 -1.9,-1.7 -2.4,-2.7 -0.4,-1.1 -0.9,-1.9 -0.9,-1.9 1.9,-1 1.4,2.3 3.8,3.4 1.9,0.9 3.8,1.3 5.2,0.7 1.4,-0.3 1.9,-1.4 2.4,-2.5 0.9,-3.4 0,-7.6 -1.9,-11.1 C 130.9,99.97 121.4,92 121.4,89.44 Z"
         id="path84" />
      <path
         d="m 141.6,101.5 c 2.4,3.9 2.4,7.9 2.4,11.9 0,3.9 -1.4,7.2 -3.8,9.3 0.9,-2 2.9,-4.5 2.9,-9.5 0,-3.8 -1,-8.1 -3.3,-11.9 z m -19.4,21 c 3.7,4.7 10,2.8 9.5,3.4 0,0.1 -1,0.3 -1.5,0.4 -0.9,0.1 -1.8,0.1 -2.8,0.1 -1.9,-0.2 -4.3,-1 -5.2,-2.9 z"
         id="path86" />
      <path
         d="m 147.5,466.2 c 0,0 0,0.1 0.5,0.3 0,0.1 0,0.3 0,0.4 1.4,1 2.4,1.5 4.3,1.9 1.4,0.4 3.8,0.2 5.2,0.4 0.4,0.1 1.4,0.4 1.9,0.7 0.5,0.1 0.5,0.2 0.5,0.3 0,0 0,0.1 0,0.1 0,0 0,-0.1 0,-0.1 0,-0.1 0,-0.2 0,-0.3 0.9,0.8 1.4,-0.3 0.5,-1 -1,-0.3 -2,-0.6 -2.9,-0.7 -1.4,-0.2 -3.4,0.3 -4.7,-0.1 0,0 -1.5,-0.3 -2.4,-0.7 -1,-0.3 -2.9,-1.2 -2.9,-1.2 z m -19.9,4.3 c 0,1 1,3.2 0.5,4.5 0,1.4 -0.5,2.9 -1.9,4.4 l 0.9,1.2 c 1,-1.6 1.5,-3.4 1.9,-5 0,-1.6 -0.4,-3.3 -1.4,-5.1 z m 9.5,0.3 c 0,0 0.5,2 1.9,2.8 1.9,1.3 4.3,2.3 5.7,4 0.5,0.7 0.5,1.7 0.9,2.6 0,0.8 0,1.6 0,1.6 l 1.5,0.3 c 0,0 0,-1.2 -0.5,-2.1 0,-1 -1,-2.3 -1.4,-3.1 -1.5,-2 -4.8,-2.7 -6.2,-4.2 z"
         id="path88" />
      <path
         d="m 166.5,289.3 c -0.5,3.7 -0.5,5.5 0.5,7.3 0.9,1.9 3.3,3.7 6.3,6.1 l -0.5,0.8 c -4.5,-2.8 -7.3,-6.5 -7.3,-9.4 0,-2.3 0.5,-4.1 1,-4.8 z"
         id="path90" />
    </g>
    <path
       d="m 164,455.1 c -1.6,-0.1 -2.4,2.2 -2.1,4.1 0.1,1.8 2.3,5.1 3.7,4 3.4,-2.2 7.3,-1.5 11.3,-0.2 -2.5,-5.4 -7.4,-8.1 -12.9,-7.9 z"
       id="path94" />
    <path
       d="m 159.3,475.5 c -1.3,-1.1 -3.2,0.3 -4.1,2 -1,1.5 -1.2,5.3 0.5,5.4 4.1,0.4 7,3.4 9.1,6.6 1.4,-5.6 -0.9,-10.8 -5.5,-14 z"
       id="path96" />
    <path
       d="m 142.2,485.2 c 0.3,-1.7 -1.9,-2.6 -3.8,-2.5 -1.9,0 -5.2,1.9 -4.3,3.4 1.9,3.6 0.9,7.7 -0.6,11.3 5.5,-1.8 8.5,-6.6 8.7,-12.2 z"
       id="path98" />
    <path
       d="m 110.9,474.4 c 1,-1.4 3.2,-0.3 4.4,1.1 1.2,1.4 2.1,5.1 0.4,5.5 -3.9,1.1 -6.2,4.6 -7.7,8.1 -2.5,-5.2 -1,-10.7 2.9,-14.7 z"
       id="path100" />
  </g>
  <path
     d="m 188.6,104.8 c 0.9,-4.97 0.5,-7.19 -4,-10.25 17.8,-7.08 30.1,12.85 17.3,23.45 0,0 0,-1.8 0,-2.9 -0.5,-1.5 -1.5,-2.9 -3,-3.5 -2,-0.9 -3.9,-1 -5.9,0 -2.5,1.1 -3.9,3.5 -4.4,5.9 -0.5,1.9 -0.5,6.1 -0.5,6.1 0,0 -5.5,-0.3 -8.4,0.8 -9.4,3.7 -22.7,14 -22.7,14 0,0 7.2,-0.3 11.8,-0.6 5,-0.3 8.4,0 13.4,-0.5 2.4,-0.3 9.3,-0.9 11.8,-1.9 3.9,-1.6 7.4,-5.6 7.4,-5.6 2,5.1 0,11.4 -7.9,13 -8.9,1.9 -17.8,1.3 -27.5,1 -6.1,-0.2 -12.8,-0.2 -19.4,0.8 0,0 -1.4,-4.1 0.5,-5.9 8.5,-7.6 19.4,-14 27.2,-19.4 0,0 1.9,-5.1 3.4,-7.1 1,-1.2 3,-2.6 4.5,-3.5 1.9,-1.4 3.9,-2.7 6.4,-3.9 z"
     id="path118"
     style="fill:#ffffff;stroke:#cc0000;stroke-width:1" />
  <path
     class="griffin1-detail"
     d="m 195.5,97.21 c 0.1,0.34 0.1,0.34 0.2,0.7 0.8,1.46 2,2.99 2.5,3.39 0.1,0.1 1.3,0.1 2.5,0 0,0 0,0 0.4,-0.1 0,-0.2 0,-0.1 -0.1,-0.3 -0.6,-0.7 -1.2,-1.58 -1.7,-1.85 -0.5,-0.49 -2,-1.26 -3.3,-1.75 -0.5,0 -0.5,0 -0.5,-0.1 z"
     id="path120"
     style="fill:#cc0000;stroke:none;stroke-width:1" />
  <g
     id="g126"
     style="fill:#ffffff;stroke:#cc0000;stroke-width:1">
    <path
       d="m 146.2,219.1 c -5.7,11.8 -17.6,26.6 -35.6,17 -3.3,-1.9 -6.6,-6.3 -8.1,-10.7 -1.4,-4 -1.4,-13.2 0,-18 2.4,-6.4 9.5,-9.9 8.6,-19.6 -0.5,-7.5 -5.3,-14 -7.1,-21.6 C 99.67,150.7 94.94,134.6 91.14,116.9 86.41,94.6 88.28,76.23 86.41,61.34 L 85.92,57.3 C 69.8,70.95 68.37,86.14 68.37,106.7 67.43,104.3 66.44,100.7 66,96.47 64.57,87.76 65.51,74.26 61.71,67.01 50.32,84.46 49.83,94.75 50.32,114.3 47.02,107.2 45.1,100.1 39.87,93.07 c -8.55,11.73 -8.55,32.83 -1.43,51.23 -4.26,-3.9 -8.55,-9.1 -13.78,-9.7 -0.93,16.7 1.93,25.2 12.4,38 -3.82,-1.3 -7.62,-3.2 -11.41,-2.2 -2.86,20.9 14.71,33.7 26.6,41.1 -10.95,2.3 -12.82,10.9 -8.58,16.9 3.35,4.3 9.51,7.9 16.17,9.4 -3.35,3.7 -4.29,6.9 -3.35,9.8 2.36,8.2 12.81,11.9 21.84,11.3 -8.53,13.5 3.3,19.6 16.12,17.5 -4.74,11.3 8.55,12.9 17.55,8.8 -1.4,3.3 -0.9,6.7 0.5,7.6 7.6,5.2 18.5,-1.7 22.3,-8.5 1,15 13.7,13.7 20.4,3 9.5,12.6 22.2,-3.3 13.8,-14 4.4,1.5 6.4,0.7 6.9,-1.4 2,-4.5 -2.5,-14.2 -8.4,-18.7 8.4,-10.6 1.5,-18 -6.2,-21.2 2,-7.9 -9,-19.8 -15.1,-12.9 z"
       id="path122" />
    <path
       class="griffin1-detail"
       d="m 68.81,105.5 c 0,0 0,3.3 0.49,5 0.94,9.7 5.23,18.5 8.09,27.8 4.24,12.5 15.63,36.2 15.63,36.2 l 0.49,0.9 -0.94,-0.2 c -2.36,-0.5 -4.29,-0.1 -5.72,0.9 -0.93,0.9 -1.87,2.5 -1.87,4.3 -0.49,3.6 0.94,8.4 4.24,11.2 l 0.49,0.6 -0.49,0.3 c -5.67,1.6 -8.53,4.9 -8.97,8.5 -0.99,3.6 0.94,7.7 5.67,11.1 l 0.49,0.4 -0.49,0.4 c -3.8,3.2 -5.23,6.8 -4.73,10 0.44,3.2 2.81,6.1 7.59,7.9 l 0.44,0.1 v 0.5 c -1.43,6.7 -0.44,11.9 2.37,14.9 2.86,3 7.64,3.9 14.21,1.6 v -0.1 l 0.5,0.3 c 4.3,6.8 7.6,9.1 10.9,9.2 3.4,0 6.7,-2.1 10.5,-4.7 l 0.5,-0.2 v 0.2 c 5.6,4.1 10.4,5.2 14.2,3.7 3.3,-1.6 5.7,-5.7 4.7,-12.5 v -0.5 h 0.5 c 5.2,-0.7 8.1,-2.2 10,-4 1.9,-1.7 2.8,-5.3 3.3,-7.4 l 1.4,0.6 c -1,2.1 -1.9,5.6 -3.8,7.5 -1.9,1.9 -5.2,3.4 -10,4.2 0.5,6.7 -1.8,11.3 -5.6,12.9 -4.3,1.7 -9.6,0.5 -14.7,-3.6 -3.8,2.6 -7.2,4.8 -11,4.7 -3.3,-0.1 -7.1,-2.6 -11.8,-9.2 -6.66,2.1 -11.4,1.2 -14.75,-2 -2.86,-3.2 -3.8,-8.7 -2.37,-15.5 -4.73,-1.9 -7.59,-5 -8.03,-8.4 -0.49,-3.5 0.94,-7.3 4.73,-10.6 -4.29,-3.4 -6.65,-7.7 -5.72,-11.7 0.5,-3.9 3.35,-7.2 9.02,-9 -3.3,-3.1 -4.73,-7.7 -4.28,-11.5 0,-2 0.98,-3.9 2.41,-5 1.38,-1 3.3,-1.5 5.18,-1.2 -0.45,-1.3 -10.9,-23.3 -14.69,-35.5 -3.31,-9.3 -7.6,-18.2 -8.53,-28 -0.5,-1.7 -0.5,-5 -0.5,-5 z"
       id="path124"
       style="fill:#cc0000;stroke:none" />
  </g>
  <g
     id="g140"
     style="fill:#ffffff;stroke:#cc0000;stroke-width:1">
    <path
       class="griffin1-detail"
       d="m 175.2,106.5 c 0.5,-1.2 0.5,-1.6 0.5,-1.6 V 104 l -1.4,0.7 v 0 0 c 0,0 0.5,0.1 -4.5,2.5 -2.7,1.1 -7.7,1.9 -10.3,2.9 -1.5,0.5 -3,1.2 -3.3,2.6 -0.7,1.3 -1,3 0.1,5.2 1.1,-0.7 0,-2.6 1.3,-4.6 0.1,-0.8 1.1,-1.2 2.2,-1.7 2.5,-0.8 5.9,-1 9,-2.3 5.5,-2.2 5,-1.7 6.4,-2.8 z"
       id="path128"
       style="fill:#cc0000;stroke:none" />
    <path
       style="fill:#ffffff"
       d="m 175.2,109.6 c 0,2.3 -1.9,6.7 -5.9,7.5 -3.8,0.8 -7.5,-2.5 -7.8,-4.8 -0.4,-2.4 2.7,-2.5 6.4,-3.3 3.9,-0.6 6.9,-1.8 7.3,0.6 z"
       id="path130" />
    <g
       style="stroke:none"
       id="g138">
      <path
         style="fill:#333333"
         d="m 171.9,111.9 a 3.258,2.994 87.7 0 1 -2,4 3.258,2.994 87.7 0 1 -3.7,-2.1 3.258,2.994 87.7 0 1 2,-4 3.258,2.994 87.7 0 1 3.7,2.1 z"
         id="path132" />
      <path
         style="fill:#000000"
         d="m 168.6,111.3 c -0.7,0.2 -1.3,1 -1,1.9 0.2,0.9 1.1,1.3 1.8,1.1 0.8,-0.3 1.4,-1.1 1.1,-2 -0.2,-0.9 -1.1,-1.3 -1.9,-1 z"
         id="path134" />
      <path
         style="fill:#ffffff"
         d="m 169.4,110.8 c -0.5,0.1 -0.8,0.7 -0.6,1.3 0.1,0.7 0.7,1 1.2,0.8 0.6,-0.2 0.9,-0.8 0.8,-1.4 -0.2,-0.6 -0.8,-0.9 -1.4,-0.7 z"
         id="path136" />
    </g>
  </g>
  <!-- griffin 2 -->
  <g
     id="g258"
     transform="translate(600,0)scale(-1,1)"
     class="griffin2">
    <g
       id="g148">
      <path
         id="path144"
         d="m 147.7,219.3 c -6.1,10.1 -17.5,22.5 -32.8,12.5 -3.3,-2 -5.9,-6.3 -6.8,-10.3 -1,-3.7 -0.3,-11.9 1.8,-16.1 2.6,-5.5 9.3,-8.1 9.2,-16.9 0.2,-6.7 -3.6,-12.9 -5.1,-19.9 -2.6,-14.3 -5.1,-29 -7.1,-45.2 -2.5,-20.4 0.2,-36.77 0.1,-50.23 l -0.1,-3.65 C 90.95,80.42 88.88,93.96 87.25,112.4 86.61,110.1 86.07,106.9 85.52,103 84.93,95.04 86.85,83.03 84.49,76.28 72.46,90.97 71.62,100.2 70.49,117.8 67.68,111.1 66.94,104.7 62.4,97.86 c -8.58,9.84 -10.25,28.74 -5.32,45.84 -3.55,-3.8 -6.51,-8.8 -11.14,-9.8 -2.22,15 -0.74,22.7 8.03,35.1 -3.3,-1.5 -6.56,-3.5 -10.45,-3 -3.8,18.6 10.5,31.5 20.56,39 -10.01,1.2 -12.38,8.8 -8.58,14.5 2.61,4.2 7.89,7.9 13.71,9.7 -3.7,3 -4.39,5.9 -3.75,8.5 1.03,7.6 10.55,11.8 18.68,11.9 -9.17,11.4 0.99,17.8 13.07,17 -5.18,9.7 6.59,12.2 14.99,9.3 -1.9,2.8 -1.3,5.8 -0.5,6.8 6.3,5.2 17.1,-0.1 21.1,-5.8 -0.4,13.5 10.7,13.3 18,4.3 7,12 20,-1.2 13.4,-11.4 3.2,1.6 5.6,1 6.6,-0.8 1.5,-3.8 -1.5,-12.9 -6.7,-17.4 9.2,-8.9 2.7,-16.1 -3.8,-19.6 2.3,-6.9 -6.1,-18.4 -12.6,-12.7 z" />
      <path
         id="path146"
         d="m 87.79,111.4 c 0,0 -0.25,3 -0.39,4.4 0.49,8.9 3.2,17 5.42,25.6 2.86,11.5 10.78,33.7 10.78,33.7 l 0.4,0.8 -0.9,-0.2 c -2.1,-0.7 -3.82,-0.4 -4.76,0.3 -1.33,0.8 -1.87,2.1 -2.46,3.7 -0.3,3.3 0.59,7.7 3.35,10.5 l 0.39,0.5 -0.88,0.2 c -5.23,1 -8.04,3.7 -8.73,6.9 -0.74,3.2 0.64,7.1 4.19,10.5 l 0.39,0.3 -0.44,0.3 c -3.25,2.7 -4.78,5.8 -4.63,8.8 0.19,2.8 2.07,5.6 6.21,7.5 v 0.2 0.3 c -1.82,6 -1.38,10.8 0.94,13.7 2.31,2.9 6.53,4 12.53,2.5 h 0.5 v 0.2 c 3.8,6.5 6.5,8.8 9.5,9.2 3,0.3 5.7,-1.5 9.8,-3.4 v -0.2 l 0.4,0.2 c 4.3,4.2 8.9,5.5 12,4.4 3.6,-1.1 5.6,-4.6 5.7,-10.7 l 0.1,-0.4 h 0.3 c 4.8,-0.3 7.5,-1.4 9.3,-2.8 1.4,-1.5 3,-4.6 3.6,-6.4 l 1.2,0.6 c -1,1.9 -2.6,4.8 -4.4,6.5 -1.9,1.5 -4.5,2.6 -9.3,2.9 -0.1,6.1 -2.6,9.9 -6.1,11.2 -3.5,1.1 -8.1,-0.3 -12.9,-4.4 -3.7,1.9 -6.9,3.7 -9.9,3.3 -3.4,-0.3 -6.5,-3 -9.9,-9.3 -6.1,1.5 -10.61,0.2 -12.93,-2.9 -2.71,-3.1 -3.15,-8.1 -1.33,-14.1 -3.65,-2 -5.96,-5 -6.11,-8.1 -0.15,-3.2 1.43,-6.5 4.63,-9.2 -3.55,-3.4 -4.88,-7.4 -4.14,-10.9 0.74,-3.4 3.95,-6.2 8.78,-7.4 -2.32,-3 -3.21,-7.2 -2.91,-10.6 0.59,-1.8 1.58,-3.4 2.96,-4.2 0.93,-0.9 2.65,-1.1 4.75,-0.7 -0.4,-1.2 -7.91,-21.8 -10.77,-33.1 -1.82,-8.6 -4.98,-16.8 -5.47,-25.8 0.15,-1.5 0.44,-4.4 0.44,-4.4 z"
         class="griffin2-detail" />
    </g>
    <path
       id="path150"
       d="m 187.6,130.4 c 0,0 -6.4,5.4 -7.4,8.9 -0.5,2.1 -0.5,3.5 1,5.2 0.5,1.4 2.9,2 3.9,3.3 0,1 0,3 -0.5,4.4 0,1.1 0,2.5 0,3.4 0.5,3.3 4.9,4.7 4.9,4.7 0,0 -1.9,-1.7 -1.4,-3.8 0.5,-1 2.4,-1.8 2.9,-2.9 1,-1.1 1,-3.5 1,-3.5 2,1.6 3,3.4 3,5.8 4.4,-2.6 6.4,-7.8 4.9,-12.9 -0.5,-4.8 -5.9,-11.7 -5.9,-11.7 z" />
    <path
       style="fill:#ff6666;fill-opacity:1"
       id="path152"
       d="m 207.8,117.5 c 0,0 4.4,2.8 4.4,5.3 0,3.2 -1,6.4 -4.4,8.6 -5.9,3.4 -18.3,3.6 -24.7,6.2 -9.3,3.8 -20.8,15.3 -20.8,15.3 l -5,-10.3 c 0,0 12,-9.2 19.9,-12.3 7.4,-2.8 18.8,-1.2 26.6,-3.8 2,-0.6 2.5,-1.7 3.5,-3.2 1.5,-1.8 0.5,-5.8 0.5,-5.8 z"
       class="griffin2-tongue" />
    <path
       id="path154"
       d="m 152.5,106.9 c 0,0 0,-7.02 -1.4,-10.08 -3.3,-6.64 -9.5,-10.58 -12.8,-17.34 -0.9,-2.51 -2.3,-5.96 -2.3,-5.96 0,0 -2.9,4.04 -3.8,7.09 -1,3.8 -1.5,7.94 -1,11.89 1,3.97 2.3,8.4 5.2,11.4 1.9,2.1 8.1,3.8 8.1,3.8 z" />
    <g
       id="g168">
      <path
         id="path156"
         d="m 234.4,208.9 c -2.2,0.7 -3.8,2.5 -5.4,4.4 -1.6,1.8 -3.2,5.7 -4.4,8 -11.3,19.5 -49.1,1.3 -27.9,-15.4 v 0 c 10.4,-8.1 22.6,-12.4 34.9,-17.2 0,0 1.8,-3.1 2.6,-4.4 2.9,-4.6 6.3,-10.9 9.4,-15.3 10.2,-13.5 8.9,-17.1 10.7,-28.1 0.5,-1.6 1.3,-4.2 1.3,-4.2 -2.8,-1.1 -5.1,-1.1 -6.9,-0.7 -1.1,0.3 -2.3,1.3 -2.9,2 -0.5,0.9 -0.8,1.9 -1.8,3.1 -1.2,1.6 -3.2,1.6 -5,0 -4.2,-3.7 -6.3,-6.7 -4.6,-11.9 0.5,-1.5 1.8,-2.9 3,-3.3 1.5,-0.6 2.8,-0.8 4.1,-0.3 2.1,0 5.1,2.7 5.1,2.7 1.9,-1.1 3.6,-0.9 5.2,-0.8 0,0 -1.7,-2.1 -3.3,-2.9 -1.2,-1.1 -2.6,-1.7 -4.1,-1.6 -2.3,-0.7 -5.3,0.5 -8,0.1 -1.2,-0.4 -2.1,-2.6 -1.6,-4.1 1.8,-7 9.9,-12.8 14.8,-10.5 2,1.1 3.8,3.4 4.2,7.7 4.4,2.6 6.5,6.9 8.6,10.8 0.7,-3.3 -0.4,-7.5 -3.2,-12.7 0,0 -2.5,-0.2 -3.1,-1.4 -0.5,-0.5 -1,-0.9 -0.7,-2 -0.1,-1.4 0.1,-1.2 1.3,-2 6,-3.4 14.4,-3.8 18.3,2.3 1.1,3.6 -1.2,6.1 -3.8,8.5 0,0 1.2,3.1 1.5,5.2 0,4 -3.2,8.4 -2.6,12.9 0.2,1.5 1.2,2.4 2.3,3.4 1,0.9 3.6,1.9 3.6,1.9 2.7,-3 5.3,-3.9 7.5,-4 3.5,0.5 7.4,5.2 3.3,13.5 -1.2,2.8 -3.1,6.4 -6.4,5.6 -2.9,-1.4 -4.3,-5.2 -6.5,-6.4 -1.8,-1.7 -3.6,-2.6 -5.8,-2.7 -1.1,-0.3 -2.8,0.2 -4,1.2 -0.6,0.8 -1.3,2.7 -1.3,2.7 0,0 2.9,5.2 2.2,8 -0.5,4.7 -6.4,4.2 -14.6,38.3 -0.3,1.7 -4,2.5 -4,2.5 z" />
      <path
         id="path158"
         d="m 254,201.2 c 1.7,-1.1 3,-0.6 4,-0.4 -3.6,-2.5 -4.2,-5.1 -13.2,-3.8 2.8,-2.7 3.2,-5.7 3.3,-8.9 0.2,-2.4 2.3,-3.9 2.6,-4.3 -4.1,-0.3 -8.4,-0.9 -12.6,2.7 0.5,-4.9 2.5,-10.3 -1.9,-14.9 -0.7,2.1 -0.4,6.9 -7,13.6 1.2,-2.9 -0.8,-7.3 -2.6,-8.9 0,0 0.1,4.1 -2.4,5.9 -2.3,1.8 -6.7,4.5 -8,5.9 -1.8,2.4 -2.6,5.1 -2.6,5.1 -0.7,-4.7 -3.6,-5.2 -3.7,-5.9 l -0.5,3.4 c -0.3,3.7 -11,8.7 -13.4,11.2 -3,3.2 -5.8,6.1 -6.5,10.6 -1.7,8.4 2.2,13.9 7.9,16.9 5.4,2.8 13,3 18.8,0.9 8.6,-2.9 9.1,-13.7 17.7,-11.3 l 4.7,0.8 c -0.7,-1.3 0.4,-1.6 -2.3,-5.4 3.7,0.8 8.7,-3.3 10.9,-4.7 2.1,-0.8 3.6,-0.2 3.6,-0.2 -0.8,-1.4 -3.1,-3.4 -5.1,-5.1 5.5,0.3 6.4,-2.9 8.3,-3.2 z" />
      <path
         id="path160"
         d="m 236.9,138.1 c 2,-0.3 2.5,-2.5 2,-4.2 -0.1,-2.2 -2.6,-5 -3.7,-4 -3.3,2.4 -7.7,2.4 -11.3,1.3 2.6,4.9 7.6,7.4 13,6.9 z" />
      <path
         id="path162"
         d="m 237.6,118.3 c 0.9,1.4 3,0.6 4.4,-0.8 1.4,-1.3 2.7,-4.8 0.8,-5.1 -3.8,-1.4 -5.8,-5.2 -6.9,-8.8 -2.7,4.8 -2.1,10.7 1.7,14.7 z" />
      <path
         id="path164"
         d="m 262.3,109.1 c -0.4,1.7 1.9,2.4 3.7,2.6 1.7,0.3 5.1,-1.3 4.6,-3.1 -1.8,-3.6 -0.5,-7.6 1.2,-10.76 -5.4,1.16 -8.7,5.46 -9.5,11.26 z" />
      <path
         id="path166"
         d="m 283.3,154 c -2,0.3 -2.3,-2 -1.8,-4.1 0.4,-1.7 3,-4.7 4.3,-3.5 3,2.6 7.2,2.5 10.9,1.7 -2.7,4.8 -8,6.9 -13.4,5.9 z" />
    </g>
    <path
       id="path170"
       d="m 175.7,291.9 -8.3,14.3 c 0,0 2.9,8.2 7.4,10.5 0.4,-5.7 3.9,-12.9 6.9,-18.9 0.9,-2.1 -4.5,-4.2 -6,-5.9 z" />
    <g
       id="g176">
      <path
         id="path172"
         d="m 93.12,382.4 c -5.62,-0.6 -12.08,-4.6 -14.84,-9.5 -10.9,-19.7 4.29,-47.3 -5.33,-67.6 -1.82,-3.7 -6.21,-8.7 -10.4,-8.4 -10.55,0.7 -13.61,10.6 -14,14.4 -0.64,5.5 0.59,8.4 2.71,9.3 2.56,1.1 6.46,-0.5 10.11,-3.8 0,0 -1.48,6.3 -4.64,8.9 -2.07,1.7 -6.31,2.3 -8.87,1.4 -3.4,-1.1 -6.31,-5.8 -6.31,-5.8 -1.19,0.9 -3.35,2.6 -3.11,6.4 0.25,4.7 2.91,9.7 0.64,14 -1.82,3.7 -4.4,4.3 -6.32,5.6 0,0 2.76,-4.5 2.46,-8 -0.29,-2.4 -1.97,-4.6 -3.3,-6.7 -3.35,-5.6 -4.73,-12 -4.49,-17.2 0.5,-11.2 4.93,-15.4 8.84,-18.3 -4.45,-2.7 -6.08,-6 -5.98,-9.3 0.3,-8.6 4.19,-9.9 9.73,-11.7 -13.28,18.7 16.61,10.3 23.61,11.3 6.46,1 12.77,5.7 16.17,11.3 10.26,16.7 -0.98,47.8 3.85,64.4 2.12,7 6.26,9.7 9.66,10.3 5.67,1.1 10.39,-3.2 14.69,-8.6 5.7,-7.9 6.2,-23.8 11.4,-32.2 4.3,-7 9.5,-10.6 16.6,-14.2 3.3,-1.6 10.5,-2 10.5,-2 l -2,12.9 c 0,0 -7.6,0.2 -11.4,1.9 -4.7,2.6 -7.5,5.1 -9.4,10.3 -5.7,16 -5.2,40.4 -30.58,40.9 z" />
      <path
         id="path174"
         d="m 39.03,276.3 0.35,0.7 c -5.73,2.9 -6.47,7.3 -5.49,10.9 0.4,1.7 1.48,3.1 3.27,3.9 1.78,0.7 4.24,1 7.44,0.5 -3.59,2 -7.98,0.8 -8.47,0.5 -1.79,-1 -2.88,-2.6 -3.42,-4.4 -1.04,-4 0.29,-9 6.32,-12.1 z m -2.56,27.2 c -3.27,4.3 -5.14,8.9 -6.32,14 -0.65,2.5 -0.79,5.7 -0.89,8.2 l -0.69,0.1 c -0.94,-13.4 5.32,-24 16.63,-30.6 -3.36,2.3 -6.17,5.2 -8.73,8.3 z m 10.21,-5.2 c -3.26,3.7 -7.65,8.4 -10.41,14.1 -1.44,3.4 -2.08,7.5 -1.64,11.4 0.45,3.9 1.04,7.6 3.17,13.1 0.45,1.3 0.35,3.7 -0.44,5.2 -0.84,1.6 -2.14,3.3 -3.71,5.1 l -0.55,-0.4 c 1.58,-1.9 2.52,-3.6 3.32,-5 0.74,-1.4 0.64,-3.7 0.25,-4.7 -2.09,-5.6 -2.73,-9.2 -3.22,-13.2 -0.45,-4 0,-7.7 1.48,-11.3 1.93,-4.8 5.73,-9.4 11.75,-14.3 z m 2.46,2.8 c 0.1,0.8 -1.82,4.2 -2.32,5.1 -1.48,3 -2.71,6.4 -2.71,9.3 0,1.9 0.4,3.7 1.58,5 1.18,1.4 2.12,2.5 5.08,2.9 1.48,0.2 4.04,-0.2 5.67,-1.3 1.57,-1.1 3.1,-2.8 4.53,-4.9 l 0.59,0.4 c -1.43,2.2 -3.45,4.6 -5.07,5.7 -1.68,1.2 -4.19,2 -5.92,1.7 -3.06,-0.5 -3.99,-1.3 -5.32,-2.8 -1.34,-1.6 -2.27,-4.3 -2.27,-6.4 0.1,-4.1 3.84,-11.1 6.16,-14.7 z"
         class="griffin2-detail" />
    </g>
    <g
       id="g192">
      <path
         id="path178"
         d="m 236.9,439.7 c 0,0 0,1.8 0.5,2.8 1,1.9 2.4,3.8 4.9,4.7 2,0.9 4.4,0.4 6.4,0 2,-0.9 4.4,-3.8 4.4,-3.8 0,0 3,4.2 5.5,5.2 2.4,1.4 4.9,1.4 7.9,0.5 2.9,-1 5.4,-3.3 6.4,-6.1 0.5,-1.9 0,-5.2 0,-5.2 0,0 3.4,0.9 4.9,0.9 2,0 4.4,-0.5 5.4,-2.4 2,-2.3 2.5,-4.6 2,-7.9 -0.5,-1.5 -2.5,-3.3 -2.5,-3.3 0,0 1,-2.4 1.5,-3.3 0.5,-1.9 -0.5,-4.3 -0.5,-4.3 0,-1.9 -2.9,-3.7 -4.9,-3.7 -6.4,0 -8.9,4.2 -14.8,5.6 -11.8,2.4 -23.7,-2.3 -33,-10.3 -3.5,-2.9 -5,-6.1 -6.9,-10.4 -2,-3.3 -3,-8 -2.5,-11.7 0.5,-6.7 3.9,-11.8 5.4,-18.4 0.5,-2.8 1,-10.8 1,-10.8 0,0 3.9,2.3 4.4,4.2 1,1.9 0.5,5.7 1.5,8 0.5,1.9 1.5,2.9 3.5,3.3 2.4,0.9 4.4,0 6.4,0.9 1.5,1 2.9,3.8 2.9,3.8 0,0 0.5,-3.3 0,-4.7 -1,-2.8 -4.9,-4.2 -5.9,-7.1 -0.5,-2.8 1.5,-4.2 2,-6.6 0.5,-1.8 0.5,-3.3 0,-4.6 -0.5,-3.3 -5.4,-6.7 -5.4,-6.7 0,0 1,-0.9 1.4,-1.3 1,-0.5 4,0 4,0 -6.4,-9 -9.9,-10.9 -20.2,-8.5 0,0 -0.5,-3.1 -1,-5.7 -1,-2.4 -2,-5.4 -4,-6.7 -0.9,-0.8 -3.9,-2.5 -3.9,-2.5 0,0 -2,-2.7 -2.5,-3.9 -0.9,-3 -3.4,-5 -5.9,-6.5 -3.4,-1.5 -5.9,-2.1 -9.3,-1.5 -11.9,1.8 -22.7,4.7 -35,0.4 l -5.5,63.1 c 7.8,-1.9 16.8,-1.4 24.2,-3.8 2.9,-0.9 8.4,-5.2 10.3,-7 0,0 0,6.1 1.5,10.3 2,3.8 4.9,8 4,12.7 -1,1.9 -3,3.8 -5,5.7 -1.4,1.8 -2.4,5.1 -2.9,8 0,1.9 0,4.7 1.5,5.6 6.4,3.3 12.8,5.6 14.3,10.4 1.9,8 1.4,14.1 8.8,17.9 -1,-3.8 -0.5,-6.1 1,-9.4 1,7 2.5,9.8 7.4,14.1 -0.5,-4.3 -0.5,-7.6 0.5,-11.3 2,7.5 3.9,11.7 10.4,14.6 -1.5,-3.8 -2,-7.1 -0.5,-10.9 1.9,2.9 1.4,7.1 5.9,7.6 z" />
      <path
         id="path180"
         d="m 279.3,423.7 c -1,0 -2.5,0.4 -4,0.4 -1.5,0.5 -2.9,1 -4.4,1 -2,0 -5.4,-1 -5.4,-1 1.4,1.9 4.4,1.9 5.4,1.9 1.5,0 2.9,-0.4 4.4,-0.9 1.5,-0.5 3,-1 4,-1 0.5,0 1.5,0.3 1.9,0.5 0.6,0.3 1.3,0.6 1.3,0.6 l 1.2,-2.5 c 0,0 -1,1.4 -2,1 z m -18,6 c 0,0 0.5,0.9 1,1.4 0.5,0.5 1.5,0.9 2,1.4 1.5,0.4 3.4,0.4 4.4,0.4 1,0.5 2,1.5 2.5,2 0.5,0.4 1,1.4 1,1.8 0.5,1 0.5,1.4 0.5,1.4 l 3.9,0.5 c 0,0 -2.5,-0.9 -2.9,-1.9 0,-0.4 -1.5,-1.4 -2,-2.3 -0.5,-0.5 -1.5,-1.5 -3,-1.9 -1,-0.5 -2.9,-0.5 -3.9,-0.9 -0.5,0 -1.5,-0.5 -2,-1 z m -15.1,2.4 c 3,0 5.5,1.9 6.5,3.8 0.9,2.3 0.9,4.7 0,7.5 l 0.9,1 c 1.5,-2.9 1,-6.6 -0.5,-8.5 -3.4,-5.2 -6.4,-4.2 -6.9,-3.8 z m -8.8,4.2 c -0.5,0.5 -1,1.5 -1,1.9 v 1.5 l 0.5,0.4 v -1.4 c 0.5,-0.9 0.5,-1.9 1,-2.4 0.5,-0.9 2.9,-2.8 2.9,-2.8 -1.5,0 -3.4,2.4 -3.4,2.8 z"
         class="griffin2-detail" />
      <path
         id="path182"
         d="m 228,352.1 c 0,0 1.5,1 2.5,1.9 1,0.5 2.4,1.4 2.9,1.9 1,1.4 2,2.8 2.5,4.2 0,1 0,2.4 0,3.3 0,1.4 0,2.4 0,3.8 0.5,1.4 1,2.8 2.5,3.7 0.4,0.5 1.4,0.5 1.9,0.5 1,0 1.5,0 2,0.5 1,0.5 2,0.5 2.5,1.4 0.5,0.5 0.9,1.4 1.4,2.8 0,1 0.5,1.4 0.5,1.4 h 0.5 c 0,0 0,-0.9 -0.5,-1.8 -0.5,-1 -1,-2.4 -1.4,-2.8 -0.5,-1 -2,-1.5 -3,-2 -0.5,0 -1,0 -2,0 -0.5,0 -1.5,0 -1.5,-0.4 -1.4,-1 -1.9,-1.9 -2.4,-3.8 0,-0.9 0,-1.9 0,-3.3 0,-0.9 0,-2.3 0,-3.3 -0.5,-1.4 -1.5,-3.3 -2.5,-4.7 -0.5,-0.9 -2,-1.4 -2.9,-2.3 z"
         class="griffin2-detail" />
      <path
         id="path184"
         d="m 281.7,414.8 c -1.4,-0.2 -2.4,2 -1.9,3.9 0,1.9 1.9,5 3.4,4 3.5,-2 7.4,-1.3 11.4,-0.1 -2.5,-5.3 -7.4,-8 -12.9,-7.8 z" />
      <path
         id="path186"
         d="m 284.2,428.1 c -2,-0.6 -3,1.4 -3.4,3.3 0,1.8 0.9,5.3 2.4,4.8 4,-1.2 7.9,0.4 11.4,2.6 -1,-5.7 -5,-9.5 -10.4,-10.7 z" />
      <path
         id="path188"
         d="m 271.9,440.3 c -0.5,-1.4 -3,-0.7 -4.5,0.5 -1.4,1.2 -2.9,4.7 -0.9,5.3 3.4,1.6 5.4,5.4 6.4,9.1 2.9,-4.8 2.4,-10.4 -1,-14.9 z" />
      <path
         id="path190"
         d="m 240.3,442.3 c 0,-1.7 2.5,-2.1 4,-1.5 1.9,0.5 4.9,3 3.4,4.3 -2.4,3 -2.4,7.2 -2,11 -4.9,-3.1 -6.9,-8.4 -5.4,-13.8 z" />
    </g>
    <g
       id="g218">
      <path
         id="path194"
         d="m 133.8,316.4 c 0,0 -3.4,8.4 -3.4,12.8 -0.9,5.7 -0.9,10.6 -0.9,16.3 0,6 1.9,12.9 0.9,18.7 -1.4,6.6 -3.8,13.1 -7.1,19 -2.3,4.1 -5.7,7.6 -9,11 -2.4,2.3 -7.1,6.1 -7.1,6.1 -1.4,1.2 -3.8,1.9 -5.7,2.9 -5.23,3.6 -6.66,7.9 -6.17,12.8 1.88,-3.5 4.77,-3 8.57,-2 -7.63,5.1 -10,9.3 -8.07,18.2 1.87,-5.8 8.07,-4.4 12.37,-7.1 -3.8,8.1 -10.01,9.8 -11.44,14.7 -0.49,2.8 -1.43,5.8 1.88,12 0.49,-2.6 0.98,-4.7 2.36,-5.7 1.9,-2.2 5.7,-2 8.6,-5.9 0,0 0,3.1 -1,4.9 -0.9,2.3 -1.4,2.4 -3.3,4.6 -1.4,1.9 -2.9,5 -3.3,7.4 -0.5,4.9 2.8,12.6 2.8,12.6 0,0 1.4,-3.2 2.9,-4.2 1.4,-1.3 4.2,-0.7 6.1,-1.8 1.9,-1 3.8,-4.1 3.8,-4.1 0,0 -0.4,2.5 0,3.7 0,0.9 2.4,3.3 2.4,3.3 0,0 -5.2,0.4 -7.1,3 -2.4,2.9 -2.4,6.2 -1,8.7 1.9,3.5 6.2,4.9 10.9,3 2,-0.8 4.3,-2.2 4.3,-2.2 0,0 0,2.6 0.5,3.7 0.5,1.6 1,3 2.4,4.2 1.9,2.2 4.7,2.8 7.6,2.6 2.8,-0.1 5.2,-1.3 7.1,-3.8 0.5,-1.2 1.4,-4.2 1.4,-4.2 0,0 3.3,3.5 4.7,3.7 4.3,0.3 7.6,-1.4 9.6,-4.1 0.9,-2 1.8,-4.3 1.4,-6.7 0,-1.4 -1,-3.2 -1.9,-4.6 0,0 2.3,-0.8 3.3,-1.4 1.4,-0.8 2.3,-2 2.8,-3.6 0.5,-2.3 0.5,-5 -0.5,-7.2 -1.3,-2.9 -3.7,-3.7 -7.1,-3.5 -2.3,0.1 -5.2,2.9 -6.1,4 -2.9,2.5 -6.2,2.1 -9,1.7 -2.4,-0.3 -4.8,-2.8 -6.7,-5.8 -4.7,-6.8 -5.2,-17.2 -5.2,-25.3 0,-8.7 -0.5,-19 -0.5,-19 0,0 7.6,-5.6 10.9,-9.1 4.8,-5.2 14.8,-17.4 14.8,-17.4 -2.5,4.4 -2.9,6.9 -3.4,9.4 -0.4,4.7 2.9,7.3 3.8,10.7 0.5,2 0.5,3 0,4.4 3.4,-2 3.4,-3.2 3.8,-5 0.5,-3.2 -0.4,-5.9 1.4,-8.7 0.5,4 2.4,6.4 5.2,8.7 0,0 -0.9,-4.4 0.5,-6 2.4,-2.4 4.9,-3.7 6.9,-6 1.9,-2.6 2.9,-6.1 0.4,-10 0,0 3.5,-2.4 4,-5.3 1,-2.8 0.5,-6.1 -1,-8.7 -2,-3.6 -6.4,-8 -6.4,-8 0,0 8.9,-12.8 11.3,-21.1 1.5,-4.8 1.5,-10.1 0.5,-15 -0.5,-3.9 -1.9,-7.7 -4.4,-11.2 -2,-3.5 -6.4,-8.4 -6.4,-8.4 0,0 3.4,-10.5 5.9,-14.7 2,-3.2 6.9,-6.5 10.4,-8.1 3.4,-1.7 16.2,-3.3 20.2,-10.1 -1,5.1 0.5,7.7 1.9,9.9 1,-1.4 1,-2.8 2,-4 4,-8.1 9.9,-15.1 7.9,-22.1 2,2.7 2,4.7 6.4,7.4 0,0 -0.5,-1.5 -0.5,-6 0.5,-3.2 4.5,-13.5 4,-16.6 -0.5,-2.3 -2.5,-6.4 -2.5,-6.4 3,2.1 5.4,3.2 8.4,1.7 0,0 -1,-0.8 -2,-4.4 -1,-3.6 -2.5,-10.1 -3.9,-12.5 -2,-2.5 -6,-5.5 -6,-5.5 4,0.6 7.4,0.4 9.4,-0.8 0,0 -3.4,-1.8 -6.4,-4.4 -3.5,-3.5 -6.9,-8.3 -10.4,-10.2 -3.9,-2.6 -10.8,-4.2 -10.8,-4.2 6.9,-0.6 7.4,-1.4 8.9,-2.8 0,0 -2,-0.5 -5,-2.7 -2.9,-2.1 -5.4,-6 -6.9,-6.9 -7.4,-4.9 -13.3,-5.6 -18.7,-7.9 -9.9,-4 -20,-8.3 -16.8,-19.3 1,-2 3.5,-3.5 5,-5.9 l 1.9,-3.9 -27.2,0.6 6.1,-7.5 24.1,-13 6.9,-6.4 c 16.8,-14.1 2,-25.53 -12.3,-22.98 -5.8,1.13 -9.6,3.55 -15.3,5.52 -5.2,1.86 -17.1,2.66 -17.1,2.66 -6.2,-10.43 -15.2,-17.83 -25.1,-24.98 2.8,14.69 -2.4,32.08 8,48.58 0,0 -3.3,3 -4.3,5.1 -1.4,2.3 -1.4,6.7 -1.8,10 -1,4.8 -2.9,9.3 -2.9,9.3 2.4,-0.1 5.2,-1.2 7.6,-4.2 0,0 -2.4,4.6 -3.3,7.2 -0.5,2.2 0.9,5.7 0.9,8.7 0.5,2.9 -0.5,5.2 -0.5,5.2 4.8,-0.8 5.8,-3.3 7.2,-5.5 0,0 -1.4,6.5 -1.4,9.7 0.4,3.2 2.8,5.9 4.7,9.4 1.4,2.8 1.9,6.7 1.9,6.7 1.4,-0.5 1.9,-3.5 2.4,-6.8 0,0 -0.5,6.3 2.8,9.3 1.9,1.6 7.6,9.8 7.1,13.6 0.5,-0.1 2.9,-1.5 3.4,-7.5 2.8,3.6 0.4,5.7 0.4,9.5 0,5.3 3.3,12.2 3.8,17.5 0.5,4.9 -0.5,10.5 -0.5,10.5 2.4,-1 4.3,-0.7 6.7,-6.4 0,3.7 -1.9,6.5 0,11.4 0.4,1 0,2.1 -0.5,3 -2.4,10.8 -3.3,16.2 -5.7,24 -3.3,10 -8,20.1 -13.7,28.9 -6.7,12.4 -4.3,19.6 -3.8,22.6 z" />
      <g
         id="g208"
         class="griffin2-detail">
        <path
           id="path196"
           d="m 169.3,370.7 c 0,0 -0.5,1.2 0,2.2 0,1.1 0.5,2.1 1.5,2.9 0.5,0.6 2.5,2.1 3,2.9 l 1.4,2.6 c 0.5,0 0.5,-0.1 0.5,-0.3 0,-0.1 0,-0.3 0,-0.4 0,-0.3 0,-0.2 0,-0.5 -0.5,-0.6 -0.9,-1.8 -1.9,-2.7 -1,-0.9 -2.5,-1.9 -3,-2.5 0,0 -0.5,-0.4 -0.5,-1.1 -0.5,-0.4 -0.5,-0.9 -0.5,-1.2 -0.5,-0.7 -0.5,-1.9 -0.5,-1.9 z m 3.5,0.3 c 0,0 0.5,0.1 1,0.3 0.5,0.2 1,0.5 1,0.6 1.4,0.8 1.9,1.9 2.4,3.1 0,0.6 0,1.4 0.5,2 0,0.8 -1,2.5 -1,2.5 l 1.5,-1.8 c 0,0 0,0.2 0,-0.6 0,-0.7 0,-1.6 -0.5,-2.4 -0.5,-1.3 -1.5,-2.9 -2.9,-3.6 z m -5.8,9.5 c 0,0 0.4,2 0.4,3.7 0,1.1 -0.9,2.1 -1.4,2.9 -0.5,1.1 -1.4,1.8 -2.3,3.1 -0.5,1 -1,2.2 -1.5,3.1 0,0.5 0,0.8 0,1.2 0,0.2 0,0.3 0,0.5 0,0.1 0.5,0.2 0.5,0.2 v -0.6 c 0,0 0.5,0.1 0.5,0.1 0,0 -0.5,-0.1 -0.5,-0.2 0,-0.3 0.5,-0.6 0.5,-1 0,-0.9 0.5,-2 1.4,-2.9 0.5,-1.2 1.9,-2.5 2.4,-3.7 0.4,-0.8 1.3,-2.4 0.9,-3.6 0,-2.1 -0.5,-2.2 -0.9,-2.8 z m 3.3,4 c 0,0 0,0.7 0.5,1.4 0,0.8 0,1.7 -0.5,2.3 -0.5,1 -2,2.1 -2.9,3 -0.9,0.8 -1.9,1.8 -2.3,3 -0.5,1.4 -0.5,3 0,4.3 0.4,0.8 0.9,1.9 1.4,2.7 0.5,0.9 0.9,1.5 0.9,1.5 l 0.5,-0.3 c 0,0 -0.5,-0.7 -0.9,-1.5 -0.5,-0.8 -1,-1.9 -1,-2.5 -0.5,-1.3 -0.5,-2.8 0,-3.9 0,-1.1 1,-1.9 1.9,-2.9 0.9,-0.8 2.4,-1.9 2.9,-3.1 0.5,-2.4 0,-2.9 -0.5,-4 z" />
        <path
           id="path198"
           d="m 157,226.4 0.9,-1.6 v 1.8 c 0,0 -0.4,1.7 -0.9,3.7 0,2 -0.4,4.4 0,5.7 0,1.1 0.9,1.8 1.4,2.7 0.5,0.8 1.5,1.8 1.5,3 0,1.2 -0.5,3 -1,4.5 0,1 0,1.4 -0.5,1.9 0.5,-0.3 1.5,-0.8 2.9,-1.6 1.9,-1.2 3.8,-2.7 4.7,-3.6 1.4,-1.8 2.3,-3 2.3,-3.7 0.5,-1.1 1,-2.1 2,-3.2 -0.5,1.2 -0.5,2.4 -1,3.4 0,0.8 -0.5,2.2 -0.5,4.5 0,2.2 0,6.1 0.5,8 1.5,3.5 3.5,7.4 4,8.3 0.5,-0.7 1.5,-3.4 1.9,-4.7 0.5,-1.1 1,-1.7 2,-2.3 1,-0.6 2,-1.1 2.5,-1.8 1,-1.4 2.5,-3.7 3.4,-5.6 1,-2 1.5,-3.6 1.5,-3.6 l 1,-2.3 v 2.5 c 0,0 -0.5,1.5 -0.5,3.6 0,1.9 0,4.3 0.5,5.8 0,1.2 1,2.2 2,3.4 1,1.1 1.5,2.4 1.5,3.8 0,1.3 -0.5,3.2 -1,4.8 -0.5,1.3 -1,1.7 -1.5,2.2 1,-0.2 2,-0.7 3.9,-1.6 2.5,-1.1 5.5,-2.6 6.4,-3.9 1.5,-1 2.5,-3.3 3,-5.3 1,-1.9 1.5,-3.5 1.5,-3.5 l 0.5,-2.8 v 2.9 c 0,0 0,3.7 0.5,6.4 0.5,2.4 2.9,5.1 4.9,7 2,2 2.5,5 2.5,5 0,0.1 -0.5,0.7 -0.5,1.2 l -0.5,-1.1 c 0,0 0,-2.9 -2,-4.6 -2,-1.9 -4.4,-4.6 -4.9,-7.3 0,-1.8 -0.5,-3.6 -0.5,-4.9 0,0.6 -0.5,0.9 -0.5,2 -1,2 -2,4.2 -3,5.5 -1.5,1.6 -4.4,3 -7.4,4.1 -1.9,1.1 -4.4,1.9 -4.4,1.9 l -1,0.2 0.5,-0.7 c 0,0 1,-1.3 1.5,-2.9 1,-1.6 1.5,-3.5 1.5,-4.5 0,-1.3 -1,-2.4 -1.5,-3.4 -1,-1.2 -2,-2.4 -2.5,-3.7 -0.5,-1.7 -0.5,-4.1 0,-6.1 0,-0.9 0,-1.1 0,-1.7 -0.5,0.7 -0.5,0.9 -1,1.9 -1,2 -2.4,4.3 -3.4,5.7 -0.5,0.9 -2,1.4 -2.5,2 -1,0.5 -1.5,1.1 -1.5,1.9 -1,1.6 -2.4,5.6 -2.4,5.6 l -0.5,0.7 v -0.7 c 0,0 -3,-5.1 -4.5,-9.1 -0.9,-2.3 -0.9,-6.1 -0.5,-8.3 0,-1.8 0,-2.6 0,-3.4 -0.4,0.7 -0.9,1.6 -1.8,2.8 -1,1.2 -2.8,2.6 -4.7,3.7 -1.9,1.3 -3.9,2.2 -3.9,2.2 l -0.4,0.4 v -0.9 c 0,0 0.4,-1.2 0.9,-2.7 0.5,-1.5 1,-3.3 0.5,-4.2 0,-1 -0.5,-1.8 -1,-2.7 -0.9,-0.8 -1.3,-1.7 -1.8,-2.9 0,-1.6 0,-4 0.5,-6 0,-1.3 0.4,-2.5 0.4,-3.8 z" />
        <path
           id="path200"
           d="m 121.4,89.44 c 0,0 2.9,2.46 5.7,5.7 3.3,3.26 6.7,7.26 8.1,10.66 1.4,3.6 3.3,8.1 1.9,12.2 -0.5,1.4 -1.4,2.8 -3.3,3.4 -1.9,0.8 -4.3,0.3 -6.2,-0.9 -1,-0.6 -1.9,-1.7 -2.4,-2.7 -0.4,-1.1 -0.9,-1.9 -0.9,-1.9 1.9,-1 1.4,2.3 3.8,3.4 1.9,0.9 3.8,1.3 5.2,0.7 1.4,-0.3 1.9,-1.4 2.4,-2.5 0.9,-3.4 0,-7.6 -1.9,-11.1 C 130.9,99.97 121.4,92 121.4,89.44 Z" />
        <path
           id="path202"
           d="m 141.6,101.5 c 2.4,3.9 2.4,7.9 2.4,11.9 0,3.9 -1.4,7.2 -3.8,9.3 0.9,-2 2.9,-4.5 2.9,-9.5 0,-3.8 -1,-8.1 -3.3,-11.9 z m -19.4,21 c 3.7,4.7 10,2.8 9.5,3.4 0,0.1 -1,0.3 -1.5,0.4 -0.9,0.1 -1.8,0.1 -2.8,0.1 -1.9,-0.2 -4.3,-1 -5.2,-2.9 z" />
        <path
           id="path204"
           d="m 147.5,466.2 c 0,0 0,0.1 0.5,0.3 0,0.1 0,0.3 0,0.4 1.4,1 2.4,1.5 4.3,1.9 1.4,0.4 3.8,0.2 5.2,0.4 0.4,0.1 1.4,0.4 1.9,0.7 0.5,0.1 0.5,0.2 0.5,0.3 0,0 0,0.1 0,0.1 0,0 0,-0.1 0,-0.1 0,-0.1 0,-0.2 0,-0.3 0.9,0.8 1.4,-0.3 0.5,-1 -1,-0.3 -2,-0.6 -2.9,-0.7 -1.4,-0.2 -3.4,0.3 -4.7,-0.1 0,0 -1.5,-0.3 -2.4,-0.7 -1,-0.3 -2.9,-1.2 -2.9,-1.2 z m -19.9,4.3 c 0,1 1,3.2 0.5,4.5 0,1.4 -0.5,2.9 -1.9,4.4 l 0.9,1.2 c 1,-1.6 1.5,-3.4 1.9,-5 0,-1.6 -0.4,-3.3 -1.4,-5.1 z m 9.5,0.3 c 0,0 0.5,2 1.9,2.8 1.9,1.3 4.3,2.3 5.7,4 0.5,0.7 0.5,1.7 0.9,2.6 0,0.8 0,1.6 0,1.6 l 1.5,0.3 c 0,0 0,-1.2 -0.5,-2.1 0,-1 -1,-2.3 -1.4,-3.1 -1.5,-2 -4.8,-2.7 -6.2,-4.2 z" />
        <path
           id="path206"
           d="m 166.5,289.3 c -0.5,3.7 -0.5,5.5 0.5,7.3 0.9,1.9 3.3,3.7 6.3,6.1 l -0.5,0.8 c -4.5,-2.8 -7.3,-6.5 -7.3,-9.4 0,-2.3 0.5,-4.1 1,-4.8 z" />
      </g>
      <path
         id="path210"
         d="m 164,455.1 c -1.6,-0.1 -2.4,2.2 -2.1,4.1 0.1,1.8 2.3,5.1 3.7,4 3.4,-2.2 7.3,-1.5 11.3,-0.2 -2.5,-5.4 -7.4,-8.1 -12.9,-7.9 z" />
      <path
         id="path212"
         d="m 159.3,475.5 c -1.3,-1.1 -3.2,0.3 -4.1,2 -1,1.5 -1.2,5.3 0.5,5.4 4.1,0.4 7,3.4 9.1,6.6 1.4,-5.6 -0.9,-10.8 -5.5,-14 z" />
      <path
         id="path214"
         d="m 142.2,485.2 c 0.3,-1.7 -1.9,-2.6 -3.8,-2.5 -1.9,0 -5.2,1.9 -4.3,3.4 1.9,3.6 0.9,7.7 -0.6,11.3 5.5,-1.8 8.5,-6.6 8.7,-12.2 z" />
      <path
         id="path216"
         d="m 110.9,474.4 c 1,-1.4 3.2,-0.3 4.4,1.1 1.2,1.4 2.1,5.1 0.4,5.5 -3.9,1.1 -6.2,4.6 -7.7,8.1 -2.5,-5.2 -1,-10.7 2.9,-14.7 z" />
    </g>
    <g
       id="g232">
      <path
         id="path220"
         d="m 189.3,246.1 c -0.7,-2.4 -2,-4.2 -3.8,-5.9 -1.7,-1.7 -5.6,-3.4 -8,-4.8 -18.4,-12.8 2.5,-49.7 17.3,-27.1 v 0 c 7.8,10.9 10.9,23.4 15,36.3 0,0 3.2,2 4.1,3 4.6,3.2 10.7,6.9 14.8,10.5 12.6,11 16.7,10.1 27.3,12.6 1.5,0.4 4.3,1.7 4.3,1.7 1.4,-2.9 1.5,-5.1 1.2,-6.9 -0.3,-1.2 -1.2,-2.5 -2,-3.4 -1,-0.5 -1.9,-0.8 -2.8,-1.6 -1.9,-1.6 -1.6,-3.4 0.1,-5.3 4,-4.1 7.5,-5.8 12.2,-3.7 1.4,0.4 2.8,1.9 3.2,3.1 0.3,1.3 0.6,3 0,4.4 -0.2,1.8 -3,4.8 -3,4.8 0.8,1.9 0.6,3.6 0.4,5.4 0,0 2.2,-1.8 3.4,-3.3 1,-1 1.7,-2.4 1.8,-3.9 0.7,-2.4 -0.3,-5.7 0.3,-8 0.8,-1.4 2.3,-2.2 3.8,-1.7 7.2,2.4 12.2,10.8 9.6,15.9 -0.8,2 -3.3,3.5 -7.8,3.6 -3,4.4 -7.2,6.2 -11.3,8.1 3.4,0.9 7.5,0.1 12.7,-2.7 0,0 0.7,-2.1 1.9,-2.9 0.4,-0.4 1,-0.8 2,-0.7 1.4,0.2 1.3,0.6 1.7,1.8 2.9,6.1 2.9,14.7 -3.3,18 -3.7,1 -6.4,-1.6 -8.6,-4.3 0,0 -3.1,1.3 -5.1,1.2 -3.9,-0.2 -8.4,-3.8 -12.5,-3.3 -1.4,0.1 -2.5,1 -3.6,2 -1.1,0.9 -2.4,3.4 -2.4,3.4 3.2,3.1 3.8,5.8 3.5,7.9 -0.4,3.6 -5.7,7.2 -13.6,2.5 -2.7,-1.5 -6.5,-3.8 -5.2,-6.8 1.3,-3.1 5.3,-4.2 7.1,-6.1 1.7,-1.9 2.9,-3.4 3.1,-5.7 0.2,-1.4 -0.1,-2.9 -1,-4.2 -0.9,-0.9 -2.8,-1.6 -2.8,-1.6 0,0 -5.8,2.4 -7.6,1.9 -5.5,-1 -4.3,-6.9 -37.4,-17.3 -1.9,-0.4 -2.4,-4.2 -2.4,-4.2 z" />
      <path
         id="path222"
         d="m 196,266.5 c 0.8,1.6 0.2,2.9 0,4.1 2.9,-3.6 5.5,-4.2 4.9,-13.1 2.7,3 5.1,3.3 8.5,4 2.5,0.3 3.8,2.4 4.2,2.7 0.5,-4.2 1.4,-8.5 -2.1,-13.1 5.5,1.1 10.2,3.2 15,-0.8 -1.9,-0.7 -6.9,-0.7 -13,-8.1 3.3,1.7 7.4,0 9.1,-1.9 0,0 -3.9,-0.1 -5.5,-2.8 -1.9,-2.4 -4.2,-7 -5.6,-8.4 -2.3,-1.9 -4.7,-2.8 -4.7,-2.8 4.6,-0.6 5.4,-3.4 5.9,-3.7 l -3.5,-0.5 c -3.3,-0.7 -7.6,-11.6 -10.3,-14.4 -2.7,-3.2 -5.2,-6.3 -10.1,-7.4 -8.1,-2.3 -14,1.5 -17.4,6.9 -2.9,5.5 -3.8,13.1 -2,19.1 2.3,8.8 13.1,10.2 10.6,18.7 l -1.5,4.4 c 1,-0.3 1.4,0.8 5.1,-2 -0.7,3.9 3,9.1 4.4,11.5 0.7,2.1 0.1,3.7 0.1,3.7 1.4,-0.8 3.1,-2.9 4.9,-5 -0.6,5.6 2.7,6.9 3,8.9 z" />
      <path
         id="path224"
         d="m 259.9,253.5 c -0.1,1.7 2.2,2.5 4.2,2.2 1.6,-0.2 4.7,-2.4 3.8,-3.8 -2,-3.4 -1.5,-7.6 -0.1,-11.1 -5.3,2.2 -7.7,7.1 -7.9,12.7 z" />
      <path
         id="path226"
         d="m 279.5,255.2 c -1.5,0.9 -0.8,3.2 0.6,4.6 0.8,1.5 4.6,2.9 5.2,1.2 1.5,-3.7 5.1,-5.5 9.2,-6.4 -5.2,-3.3 -10.7,-2.7 -15,0.6 z" />
      <path
         id="path228"
         d="m 287.1,281 c -1.3,-0.5 -2.6,1.6 -2.8,3.4 -0.2,1.9 0.8,5.5 2.5,4.8 4.1,-1.3 7.9,0.2 11.2,2.2 -0.9,-5.7 -5.4,-9.3 -10.9,-10.4 z" />
      <path
         id="path230"
         d="m 240.6,298.9 c 0.2,-1.7 2.6,-2 4.6,-1.4 1.4,0.6 4,3.3 3,4.5 -2.8,3 -2.8,7.2 -2.2,11.1 -5.2,-3.3 -6.5,-8.7 -5.4,-14.2 z" />
    </g>
    <path
       id="path234"
       d="m 188.6,104.8 c 0.9,-4.97 0.5,-7.19 -4,-10.25 17.8,-7.08 30.1,12.85 17.3,23.45 0,0 0,-1.8 0,-2.9 -0.5,-1.5 -1.5,-2.9 -3,-3.5 -2,-0.9 -3.9,-1 -5.9,0 -2.5,1.1 -3.9,3.5 -4.4,5.9 -0.5,1.9 -0.5,6.1 -0.5,6.1 0,0 -5.5,-0.3 -8.4,0.8 -9.4,3.7 -22.7,14 -22.7,14 0,0 7.2,-0.3 11.8,-0.6 5,-0.3 8.4,0 13.4,-0.5 2.4,-0.3 9.3,-0.9 11.8,-1.9 3.9,-1.6 7.4,-5.6 7.4,-5.6 2,5.1 0,11.4 -7.9,13 -8.9,1.9 -17.8,1.3 -27.5,1 -6.1,-0.2 -12.8,-0.2 -19.4,0.8 0,0 -1.4,-4.1 0.5,-5.9 8.5,-7.6 19.4,-14 27.2,-19.4 0,0 1.9,-5.1 3.4,-7.1 1,-1.2 3,-2.6 4.5,-3.5 1.9,-1.4 3.9,-2.7 6.4,-3.9 z" />
    <path
       id="path236"
       d="m 195.5,97.21 c 0.1,0.34 0.1,0.34 0.2,0.7 0.8,1.46 2,2.99 2.5,3.39 0.1,0.1 1.3,0.1 2.5,0 0,0 0,0 0.4,-0.1 0,-0.2 0,-0.1 -0.1,-0.3 -0.6,-0.7 -1.2,-1.58 -1.7,-1.85 -0.5,-0.49 -2,-1.26 -3.3,-1.75 -0.5,0 -0.5,0 -0.5,-0.1 z"
       class="griffin2-detail" />
    <g
       id="g242">
      <path
         id="path238"
         d="m 146.2,219.1 c -5.7,11.8 -17.6,26.6 -35.6,17 -3.3,-1.9 -6.6,-6.3 -8.1,-10.7 -1.4,-4 -1.4,-13.2 0,-18 2.4,-6.4 9.5,-9.9 8.6,-19.6 -0.5,-7.5 -5.3,-14 -7.1,-21.6 C 99.67,150.7 94.94,134.6 91.14,116.9 86.41,94.6 88.28,76.23 86.41,61.34 L 85.92,57.3 C 69.8,70.95 68.37,86.14 68.37,106.7 67.43,104.3 66.44,100.7 66,96.47 64.57,87.76 65.51,74.26 61.71,67.01 50.32,84.46 49.83,94.75 50.32,114.3 47.02,107.2 45.1,100.1 39.87,93.07 c -8.55,11.73 -8.55,32.83 -1.43,51.23 -4.26,-3.9 -8.55,-9.1 -13.78,-9.7 -0.93,16.7 1.93,25.2 12.4,38 -3.82,-1.3 -7.62,-3.2 -11.41,-2.2 -2.86,20.9 14.71,33.7 26.6,41.1 -10.95,2.3 -12.82,10.9 -8.58,16.9 3.35,4.3 9.51,7.9 16.17,9.4 -3.35,3.7 -4.29,6.9 -3.35,9.8 2.36,8.2 12.81,11.9 21.84,11.3 -8.53,13.5 3.3,19.6 16.12,17.5 -4.74,11.3 8.55,12.9 17.55,8.8 -1.4,3.3 -0.9,6.7 0.5,7.6 7.6,5.2 18.5,-1.7 22.3,-8.5 1,15 13.7,13.7 20.4,3 9.5,12.6 22.2,-3.3 13.8,-14 4.4,1.5 6.4,0.7 6.9,-1.4 2,-4.5 -2.5,-14.2 -8.4,-18.7 8.4,-10.6 1.5,-18 -6.2,-21.2 2,-7.9 -9,-19.8 -15.1,-12.9 z" />
      <path
         id="path240"
         d="m 68.81,105.5 c 0,0 0,3.3 0.49,5 0.94,9.7 5.23,18.5 8.09,27.8 4.24,12.5 15.63,36.2 15.63,36.2 l 0.49,0.9 -0.94,-0.2 c -2.36,-0.5 -4.29,-0.1 -5.72,0.9 -0.93,0.9 -1.87,2.5 -1.87,4.3 -0.49,3.6 0.94,8.4 4.24,11.2 l 0.49,0.6 -0.49,0.3 c -5.67,1.6 -8.53,4.9 -8.97,8.5 -0.99,3.6 0.94,7.7 5.67,11.1 l 0.49,0.4 -0.49,0.4 c -3.8,3.2 -5.23,6.8 -4.73,10 0.44,3.2 2.81,6.1 7.59,7.9 l 0.44,0.1 v 0.5 c -1.43,6.7 -0.44,11.9 2.37,14.9 2.86,3 7.64,3.9 14.21,1.6 v -0.1 l 0.5,0.3 c 4.3,6.8 7.6,9.1 10.9,9.2 3.4,0 6.7,-2.1 10.5,-4.7 l 0.5,-0.2 v 0.2 c 5.6,4.1 10.4,5.2 14.2,3.7 3.3,-1.6 5.7,-5.7 4.7,-12.5 v -0.5 h 0.5 c 5.2,-0.7 8.1,-2.2 10,-4 1.9,-1.7 2.8,-5.3 3.3,-7.4 l 1.4,0.6 c -1,2.1 -1.9,5.6 -3.8,7.5 -1.9,1.9 -5.2,3.4 -10,4.2 0.5,6.7 -1.8,11.3 -5.6,12.9 -4.3,1.7 -9.6,0.5 -14.7,-3.6 -3.8,2.6 -7.2,4.8 -11,4.7 -3.3,-0.1 -7.1,-2.6 -11.8,-9.2 -6.66,2.1 -11.4,1.2 -14.75,-2 -2.86,-3.2 -3.8,-8.7 -2.37,-15.5 -4.73,-1.9 -7.59,-5 -8.03,-8.4 -0.49,-3.5 0.94,-7.3 4.73,-10.6 -4.29,-3.4 -6.65,-7.7 -5.72,-11.7 0.5,-3.9 3.35,-7.2 9.02,-9 -3.3,-3.1 -4.73,-7.7 -4.28,-11.5 0,-2 0.98,-3.9 2.41,-5 1.38,-1 3.3,-1.5 5.18,-1.2 -0.45,-1.3 -10.9,-23.3 -14.69,-35.5 -3.31,-9.3 -7.6,-18.2 -8.53,-28 -0.5,-1.7 -0.5,-5 -0.5,-5 z"
         class="griffin2-detail" />
    </g>
    <g
       id="g256">
      <path
         id="path244"
         d="m 175.2,106.5 c 0.5,-1.2 0.5,-1.6 0.5,-1.6 V 104 l -1.4,0.7 v 0 0 c 0,0 0.5,0.1 -4.5,2.5 -2.7,1.1 -7.7,1.9 -10.3,2.9 -1.5,0.5 -3,1.2 -3.3,2.6 -0.7,1.3 -1,3 0.1,5.2 1.1,-0.7 0,-2.6 1.3,-4.6 0.1,-0.8 1.1,-1.2 2.2,-1.7 2.5,-0.8 5.9,-1 9,-2.3 5.5,-2.2 5,-1.7 6.4,-2.8 z"
         class="griffin2-detail" />
      <path
         id="path246"
         d="m 175.2,109.6 c 0,2.3 -1.9,6.7 -5.9,7.5 -3.8,0.8 -7.5,-2.5 -7.8,-4.8 -0.4,-2.4 2.7,-2.5 6.4,-3.3 3.9,-0.6 6.9,-1.8 7.3,0.6 z"
         style="fill:#ffffff;stroke:#cc0000;stroke-opacity:1" />
      <g
         id="g254"
         style="stroke:none;">
        <path
           id="path248"
           d="m 171.9,111.9 a 3.258,2.994 87.7 0 1 -2,4 3.258,2.994 87.7 0 1 -3.7,-2.1 3.258,2.994 87.7 0 1 2,-4 3.258,2.994 87.7 0 1 3.7,2.1 z"
           style="fill:#333333;" />
        <path
           id="path250"
           d="m 168.6,111.3 c -0.7,0.2 -1.3,1 -1,1.9 0.2,0.9 1.1,1.3 1.8,1.1 0.8,-0.3 1.4,-1.1 1.1,-2 -0.2,-0.9 -1.1,-1.3 -1.9,-1 z"
           style="fill:#000000;" />
        <path
           id="path252"
           d="m 169.4,110.8 c -0.5,0.1 -0.8,0.7 -0.6,1.3 0.1,0.7 0.7,1 1.2,0.8 0.6,-0.2 0.9,-0.8 0.8,-1.4 -0.2,-0.6 -0.8,-0.9 -1.4,-0.7 z"
           style="fill:#ffffff;" />
      </g>
    </g>
  </g>
  <g
     id="g52"
     style="fill:#ffffff;stroke:#cc0000;stroke-width:1">
    <path
       d="m 234.4,208.9 c -2.2,0.7 -3.8,2.5 -5.4,4.4 -1.6,1.8 -3.2,5.7 -4.4,8 -11.3,19.5 -49.1,1.3 -27.9,-15.4 v 0 c 10.4,-8.1 22.6,-12.4 34.9,-17.2 0,0 1.8,-3.1 2.6,-4.4 2.9,-4.6 6.3,-10.9 9.4,-15.3 10.2,-13.5 8.9,-17.1 10.7,-28.1 0.5,-1.6 1.3,-4.2 1.3,-4.2 -2.8,-1.1 -5.1,-1.1 -6.9,-0.7 -1.1,0.3 -2.3,1.3 -2.9,2 -0.5,0.9 -0.8,1.9 -1.8,3.1 -1.2,1.6 -3.2,1.6 -5,0 -4.2,-3.7 -6.3,-6.7 -4.6,-11.9 0.5,-1.5 1.8,-2.9 3,-3.3 1.5,-0.6 2.8,-0.8 4.1,-0.3 2.1,0 5.1,2.7 5.1,2.7 1.9,-1.1 3.6,-0.9 5.2,-0.8 0,0 -1.7,-2.1 -3.3,-2.9 -1.2,-1.1 -2.6,-1.7 -4.1,-1.6 -2.3,-0.7 -5.3,0.5 -8,0.1 -1.2,-0.4 -2.1,-2.6 -1.6,-4.1 1.8,-7 9.9,-12.8 14.8,-10.5 2,1.1 3.8,3.4 4.2,7.7 4.4,2.6 6.5,6.9 8.6,10.8 0.7,-3.3 -0.4,-7.5 -3.2,-12.7 0,0 -2.5,-0.2 -3.1,-1.4 -0.5,-0.5 -1,-0.9 -0.7,-2 -0.1,-1.4 0.1,-1.2 1.3,-2 6,-3.4 14.4,-3.8 18.3,2.3 1.1,3.6 -1.2,6.1 -3.8,8.5 0,0 1.2,3.1 1.5,5.2 0,4 -3.2,8.4 -2.6,12.9 0.2,1.5 1.2,2.4 2.3,3.4 1,0.9 3.6,1.9 3.6,1.9 2.7,-3 5.3,-3.9 7.5,-4 3.5,0.5 7.4,5.2 3.3,13.5 -1.2,2.8 -3.1,6.4 -6.4,5.6 -2.9,-1.4 -4.3,-5.2 -6.5,-6.4 -1.8,-1.7 -3.6,-2.6 -5.8,-2.7 -1.1,-0.3 -2.8,0.2 -4,1.2 -0.6,0.8 -1.3,2.7 -1.3,2.7 0,0 2.9,5.2 2.2,8 -0.5,4.7 -6.4,4.2 -14.6,38.3 -0.3,1.7 -4,2.5 -4,2.5 z"
       id="path40" />
    <path
       d="m 254,201.2 c 1.7,-1.1 3,-0.6 4,-0.4 -3.6,-2.5 -4.2,-5.1 -13.2,-3.8 2.8,-2.7 3.2,-5.7 3.3,-8.9 0.2,-2.4 2.3,-3.9 2.6,-4.3 -4.1,-0.3 -8.4,-0.9 -12.6,2.7 0.5,-4.9 2.5,-10.3 -1.9,-14.9 -0.7,2.1 -0.4,6.9 -7,13.6 1.2,-2.9 -0.8,-7.3 -2.6,-8.9 0,0 0.1,4.1 -2.4,5.9 -2.3,1.8 -6.7,4.5 -8,5.9 -1.8,2.4 -2.6,5.1 -2.6,5.1 -0.7,-4.7 -3.6,-5.2 -3.7,-5.9 l -0.5,3.4 c -0.3,3.7 -11,8.7 -13.4,11.2 -3,3.2 -5.8,6.1 -6.5,10.6 -1.7,8.4 2.2,13.9 7.9,16.9 5.4,2.8 13,3 18.8,0.9 8.6,-2.9 9.1,-13.7 17.7,-11.3 l 4.7,0.8 c -0.7,-1.3 0.4,-1.6 -2.3,-5.4 3.7,0.8 8.7,-3.3 10.9,-4.7 2.1,-0.8 3.6,-0.2 3.6,-0.2 -0.8,-1.4 -3.1,-3.4 -5.1,-5.1 5.5,0.3 6.4,-2.9 8.3,-3.2 z"
       id="path42" />
    <path
       d="m 236.9,138.1 c 2,-0.3 2.5,-2.5 2,-4.2 -0.1,-2.2 -2.6,-5 -3.7,-4 -3.3,2.4 -7.7,2.4 -11.3,1.3 2.6,4.9 7.6,7.4 13,6.9 z"
       id="path44" />
    <path
       d="m 237.6,118.3 c 0.9,1.4 3,0.6 4.4,-0.8 1.4,-1.3 2.7,-4.8 0.8,-5.1 -3.8,-1.4 -5.8,-5.2 -6.9,-8.8 -2.7,4.8 -2.1,10.7 1.7,14.7 z"
       id="path46" />
    <path
       d="m 262.3,109.1 c -0.4,1.7 1.9,2.4 3.7,2.6 1.7,0.3 5.1,-1.3 4.6,-3.1 -1.8,-3.6 -0.5,-7.6 1.2,-10.76 -5.4,1.16 -8.7,5.46 -9.5,11.26 z"
       id="path48" />
    <path
       d="m 283.3,154 c -2,0.3 -2.3,-2 -1.8,-4.1 0.4,-1.7 3,-4.7 4.3,-3.5 3,2.6 7.2,2.5 10.9,1.7 -2.7,4.8 -8,6.9 -13.4,5.9 z"
       id="path50" />
  </g>
  <g
     id="g76"
     style="fill:#ffffff;stroke:#cc0000;stroke-width:1">
    <path
       class="griffin1-detail"
       d="m 279.3,423.7 c -1,0 -2.5,0.4 -4,0.4 -1.5,0.5 -2.9,1 -4.4,1 -2,0 -5.4,-1 -5.4,-1 1.4,1.9 4.4,1.9 5.4,1.9 1.5,0 2.9,-0.4 4.4,-0.9 1.5,-0.5 3,-1 4,-1 0.5,0 1.5,0.3 1.9,0.5 0.6,0.3 1.3,0.6 1.3,0.6 l 1.2,-2.5 c 0,0 -1,1.4 -2,1 z m -18,6 c 0,0 0.5,0.9 1,1.4 0.5,0.5 1.5,0.9 2,1.4 1.5,0.4 3.4,0.4 4.4,0.4 1,0.5 2,1.5 2.5,2 0.5,0.4 1,1.4 1,1.8 0.5,1 0.5,1.4 0.5,1.4 l 3.9,0.5 c 0,0 -2.5,-0.9 -2.9,-1.9 0,-0.4 -1.5,-1.4 -2,-2.3 -0.5,-0.5 -1.5,-1.5 -3,-1.9 -1,-0.5 -2.9,-0.5 -3.9,-0.9 -0.5,0 -1.5,-0.5 -2,-1 z m -15.1,2.4 c 3,0 5.5,1.9 6.5,3.8 0.9,2.3 0.9,4.7 0,7.5 l 0.9,1 c 1.5,-2.9 1,-6.6 -0.5,-8.5 -3.4,-5.2 -6.4,-4.2 -6.9,-3.8 z m -8.8,4.2 c -0.5,0.5 -1,1.5 -1,1.9 v 1.5 l 0.5,0.4 v -1.4 c 0.5,-0.9 0.5,-1.9 1,-2.4 0.5,-0.9 2.9,-2.8 2.9,-2.8 -1.5,0 -3.4,2.4 -3.4,2.8 z"
       id="path64"
       style="fill:#cc0000;stroke:none" />
    <path
       class="griffin1-detail"
       d="m 228,352.1 c 0,0 1.5,1 2.5,1.9 1,0.5 2.4,1.4 2.9,1.9 1,1.4 2,2.8 2.5,4.2 0,1 0,2.4 0,3.3 0,1.4 0,2.4 0,3.8 0.5,1.4 1,2.8 2.5,3.7 0.4,0.5 1.4,0.5 1.9,0.5 1,0 1.5,0 2,0.5 1,0.5 2,0.5 2.5,1.4 0.5,0.5 0.9,1.4 1.4,2.8 0,1 0.5,1.4 0.5,1.4 h 0.5 c 0,0 0,-0.9 -0.5,-1.8 -0.5,-1 -1,-2.4 -1.4,-2.8 -0.5,-1 -2,-1.5 -3,-2 -0.5,0 -1,0 -2,0 -0.5,0 -1.5,0 -1.5,-0.4 -1.4,-1 -1.9,-1.9 -2.4,-3.8 0,-0.9 0,-1.9 0,-3.3 0,-0.9 0,-2.3 0,-3.3 -0.5,-1.4 -1.5,-3.3 -2.5,-4.7 -0.5,-0.9 -2,-1.4 -2.9,-2.3 z"
       id="path66"
       style="fill:#cc0000;stroke:none" />
    <path
       d="m 281.7,414.8 c -1.4,-0.2 -2.4,2 -1.9,3.9 0,1.9 1.9,5 3.4,4 3.5,-2 7.4,-1.3 11.4,-0.1 -2.5,-5.3 -7.4,-8 -12.9,-7.8 z"
       id="path68" />
    <path
       d="m 284.2,428.1 c -2,-0.6 -3,1.4 -3.4,3.3 0,1.8 0.9,5.3 2.4,4.8 4,-1.2 7.9,0.4 11.4,2.6 -1,-5.7 -5,-9.5 -10.4,-10.7 z"
       id="path70" />
    <path
       d="m 271.9,440.3 c -0.5,-1.4 -3,-0.7 -4.5,0.5 -1.4,1.2 -2.9,4.7 -0.9,5.3 3.4,1.6 5.4,5.4 6.4,9.1 2.9,-4.8 2.4,-10.4 -1,-14.9 z"
       id="path72" />
    <path
       d="m 240.3,442.3 c 0,-1.7 2.5,-2.1 4,-1.5 1.9,0.5 4.9,3 3.4,4.3 -2.4,3 -2.4,7.2 -2,11 -4.9,-3.1 -6.9,-8.4 -5.4,-13.8 z"
       id="path74" />
  </g>
  <use
     stroke-width="3"
     stroke="#000"
     fill="url(#rg)"
     xlink:href="#shield"
     id="use260" />
</svg>
