<?xml version="1.0" encoding="UTF-8"?>
<svg xmlns="http://www.w3.org/2000/svg" xmlns:xlink="http://www.w3.org/1999/xlink" width="600" height="660">
<defs>
  <radialGradient id="rg" gradientUnits="userSpaceOnUse" cx="220" cy="220" r="405">
    <stop style="stop-color:#fff;stop-opacity:.3" offset="0"/>
    <stop style="stop-color:#fff;stop-opacity:.2" offset=".2"/>
    <stop style="stop-color:#666;stop-opacity:.1" offset=".6"/>
    <stop style="stop-color:#000;stop-opacity:.13" offset="1"/>
  </radialGradient>
  <path id="shield" d="m2,2v257c0,286 298,398 298,398c0,0 298-112 298-398V2z"/>
</defs>
<use id="background" xlink:href="#shield" style="fill:#ffff00;"/>
<g id="dustin" transform="scale(2)">
    <path style="fill:#000000;" d="m 104.94,32.941 13.82,32.236 c 23.02,-6.906 41.44,-6.906 64.47,0 l 13.82,-32.236 -16.12,6.909 c 6.9,11.512 -6.91,18.421 -13.82,6.906 -6.91,6.908 -13.82,0 -11.51,-4.604 l 4.6,-4.607 -9.21,-9.211 -9.21,9.211 4.61,4.607 c 2.3,4.604 -4.61,11.512 -11.52,4.604 -6.9,11.515 -20.72,4.606 -13.81,-6.906 z"/>
    <use xlink:href="#axe" transform="translate(300)scale(-1,1)"/>
    <g id="axe" style="stroke:#ffff00;stroke-width:0.5;">
        <path style="fill:#000000;" d="m 207.84,260.78 c 0.95,1.64 -10.52,8.29 -11.48,6.63 l 2.34,4.05 c 2.4,4.16 13.88,-2.47 11.48,-6.63 l -2.35,-4.08 z"/>
        <path style="fill:#b7410e;" d="m 208.5,254.34 c 0.39,0.67 2.39,4.12 3.57,6.17 1.18,2.05 -2.74,5.69 -7.25,8.3 -4.51,2.6 -9.62,4.19 -10.8,2.14 -1.18,-2.04 -3.23,-5.59 -3.59,-6.22 1.19,2.06 6.3,0.48 10.8,-2.12 4.52,-2.61 8.46,-6.22 7.27,-8.27 z"/>
        <path style="fill:#b7410e;" d="m 208.52,254.37 c 2.37,4.11 -15.67,14.54 -18.04,10.42 -2.36,-4.08 15.68,-14.51 18.04,-10.42 z"/>
        <path style="fill:#000000;" d="m 120.69,109.85 c 0.94,1.63 -10.54,8.26 -11.48,6.63 l 84.54,146.42 c 0.95,1.63 12.43,-5 11.49,-6.63 z"/>
        <path style="fill:#b7410e;" d="m 114.99,92.385 c 0.39,0.668 8.06,13.965 9.24,16.015 1.19,2.05 -2.73,5.69 -7.24,8.29 -4.51,2.61 -9.62,4.2 -10.8,2.14 -1.17,-2.04 -8.904,-15.43 -9.263,-16.05 1.185,2.05 6.283,0.47 10.803,-2.13 4.51,-2.604 8.44,-6.218 7.26,-8.265 z"/>
        <path style="fill:#b7410e;" d="m 98.073,99.234 c -11.352,1.976 -17.79,-7.289 -25.206,-15.381 -8.643,4.989 28.043,44.017 34.803,32.077 l -9.631,-16.677 z"/>
        <path style="fill:#b7410e;" d="m 114.97,92.353 c 2.37,4.102 -15.681,14.537 -18.045,10.417 -2.357,-4.081 15.685,-14.508 18.045,-10.417 z"/>
        <path style="fill:#000000;" d="m 109.31,90.139 c 0.95,1.641 -10.526,8.287 -11.47,6.652 l 2.35,4.069 c 0.95,1.64 12.43,-4.989 11.48,-6.626 l -2.36,-4.089 z"/>
        <path style="fill:#000000;" d="m 109.32,90.154 c 0.95,1.64 -10.531,8.28 -11.485,6.629 -0.951,-1.648 10.535,-8.274 11.485,-6.629 z"/>
        <path style="fill:#b7410e;" d="m 142.28,87.63 c -6.61,2.716 -9.37,2.668 -15.84,0.934 -1.74,6.472 -5.85,8.83 -11.45,3.855 2.37,4.099 3.57,6.178 2.71,9.401 3.26,0.94 4.4,2.9 6.77,7.01 -1.51,-7.33 2.6,-9.691 9.08,-7.96 1.73,-6.469 3.07,-8.88 8.73,-13.24 z"/>
        <path style="fill:none;" d="m 117.75,101.79 c 3.27,-2.392 11.45,-7.742 14.75,-6.736 2.53,-3.12 5.14,-4.878 9.78,-7.424"/>
        <path style="fill:none;" d="m 126.51,88.669 c 1.6,2.761 3.83,4.531 5.99,6.385 -0.32,1.974 0.44,3.831 1.02,5.716"/>
        <path style="fill:#b7410e;" d="m 101.48,94.679 c -6.068,-5.862 -9.907,-9.258 -14.216,-12.048 -3.004,-14.522 -9.193,-26.867 -14.203,-42.05 8.66,10.582 18.312,24.097 29.919,32.974 -0.22,4.267 1.19,11.346 2.73,18.684 -0.98,1.333 -2.61,2.306 -4.23,2.44 z"/>
        <path style="fill:none;" d="m 103.82,93.921 c -2.78,-5.066 -5.118,-9.424 -10.326,-12.764 -2.025,-11.846 -12.946,-28.565 -20.433,-40.576"/>
        <path style="fill:#b7410e;" d="m 74.082,85.982 c -41.867,24.078 18.469,82.768 40.188,69.608 l 0.98,-0.4 c -11.21,-19.41 -11.85,-19.95 -5.38,-35.43 l -9.31,-16.11 c -10.51,1.83 -18.95,-9.768 -26.04,-17.915 l -0.447,0.258 z"/>
        <path style="fill:#b7410e;" d="m 72.868,83.854 c -46.48,26.836 19.616,88.996 44.232,74.546 -0.7,-1.22 -1.22,-2.13 -1.85,-3.21 l -0.98,0.4 c -21.719,13.16 -82.058,-45.53 -40.188,-69.608 l 0.447,-0.258 c -0.566,-0.645 -1.113,-1.282 -1.664,-1.875 z"/>
    </g>
</g>
<use id="shine" xlink:href="#shield" style="fill:url(#rg);stroke:#000000;stroke-width:3;"/>
</svg>
