<?xml version="1.0" encoding="UTF-8"?>
<svg xmlns="http://www.w3.org/2000/svg" xmlns:xlink="http://www.w3.org/1999/xlink" width="600" height="660">
<defs>
  <radialGradient id="rg" gradientUnits="userSpaceOnUse" cx="220" cy="220" r="405">
    <stop style="stop-color:#fff;stop-opacity:.3" offset="0"/>
    <stop style="stop-color:#fff;stop-opacity:.2" offset=".2"/>
    <stop style="stop-color:#666;stop-opacity:.1" offset=".6"/>
    <stop style="stop-color:#000;stop-opacity:.13" offset="1"/>
  </radialGradient>
  <path id="shield" d="m2,2v257c0,286 298,398 298,398c0,0 298-112 298-398V2z"/>
</defs>
<use id="background" xlink:href="#shield" fill="#fff"/>
<path id="chief" fill="#00c" d="m 2,2 v 198 h 596 v -198 z"/>
<path fill="#fd0" d="m 113.5,26 c -4.55,6.063 -4.92,12.453 -3.79,19.085 1.13,6.577 0.62,12.962 -3.42,18.584 -2,-7.448 -5.77,-12.443 -10.7,-15.777 -5.89,-3.98 -9.022,-9.195 -10.79,-16.177 -1.876,7.338 0.211,13.378 3.798,19.071 3.556,5.643 5.539,11.736 3.96,18.472 -4.703,-6.111 -10.094,-9.284 -15.927,-10.477 -6.965,-1.423 -11.859,-5.039 -16.165,-10.813 1.075,7.498 5.322,12.277 10.813,16.165 5.448,3.854 9.612,8.729 10.728,15.563 -6.686,-3.848 -12.874,-4.728 -18.722,-3.597 -6.98,1.351 -12.884,-0.107 -19.072,-3.797 3.863,6.517 9.616,9.301 16.177,10.79 6.505,1.476 12.207,4.392 15.852,10.274 -7.644,-0.993 -13.692,0.567 -18.658,3.848 -5.932,3.926 -11.957,4.826 -19.085,3.786 6.062,4.55 12.453,4.92 19.085,3.79 6.577,-1.13 12.962,-0.63 18.583,3.41 -7.448,2.01 -12.442,5.77 -15.777,10.71 -3.98,5.9 -9.194,9.03 -16.177,10.79 7.339,1.88 13.379,-0.21 19.072,-3.8 5.642,-3.55 11.736,-5.53 18.471,-3.96 -6.11,4.71 -9.283,10.11 -10.477,15.93 -1.422,6.96 -5.038,11.87 -10.813,16.16 7.499,-1.06 12.277,-5.32 16.165,-10.81 3.855,-5.44 8.729,-9.61 15.564,-10.72 -3.848,6.68 -4.728,12.87 -3.597,18.72 1.35,6.97 -0.107,12.88 -3.798,19.06 6.518,-3.85 9.301,-9.61 10.79,-16.17 1.48,-6.5 4.4,-12.21 10.29,-15.86 -1,7.65 0.55,13.72 3.83,18.69 3.92,5.92 4.83,11.93 3.79,19.06 4.54,-6.06 4.92,-12.44 3.78,-19.06 -1.13,-6.59 -0.61,-12.99 3.43,-18.6 2.01,7.44 5.76,12.45 10.69,15.78 5.9,3.99 9.03,9.19 10.79,16.16 1.88,-7.33 -0.21,-13.36 -3.8,-19.05 -3.55,-5.65 -5.52,-11.76 -3.95,-18.49 4.71,6.11 10.1,9.29 15.92,10.48 6.96,1.43 11.87,5.04 16.16,10.81 -1.06,-7.49 -5.32,-12.26 -10.81,-16.16 -5.44,-3.85 -9.6,-8.74 -10.71,-15.57 6.68,3.84 12.87,4.73 18.71,3.6 6.97,-1.35 12.88,0.13 19.07,3.8 -3.86,-6.52 -9.62,-9.29 -16.18,-10.79 -6.5,-1.48 -12.18,-4.4 -15.84,-10.3 7.64,1 13.7,-0.54 18.67,-3.82 5.92,-3.92 11.93,-4.832 19.07,-3.79 -6.07,-4.544 -12.44,-4.922 -19.07,-3.786 -6.59,1.126 -12.99,0.611 -18.6,-3.434 7.44,-2.007 12.45,-5.756 15.79,-10.688 3.98,-5.89 9.18,-9.022 16.16,-10.79 -7.34,-1.876 -13.36,0.21 -19.06,3.797 -5.65,3.557 -11.76,5.533 -18.49,3.948 6.11,-4.704 9.29,-10.081 10.48,-15.914 1.43,-6.966 5.04,-11.86 10.81,-16.165 -7.49,1.074 -12.26,5.321 -16.16,10.813 -3.85,5.448 -8.74,9.599 -15.57,10.714 3.84,-6.681 4.73,-12.864 3.6,-18.709 -1.35,-6.98 0.13,-12.883 3.8,-19.071 -6.52,3.862 -9.29,9.615 -10.79,16.177 -1.48,6.502 -4.4,12.194 -10.28,15.839 1,-7.638 -0.56,-13.682 -3.84,-18.646 -3.92,-5.932 -4.82,-11.957 -3.78,-19.085 z"/>
<path fill="#fff" d="m 287.71,33.25 a 67.752,67.752 0 0 0 -43.1,15.548 55.434,55.434 0 0 1 18.47,-3.229 55.434,55.434 0 0 1 55.43,55.431 55.434,55.434 0 0 1 -55.43,55.44 55.434,55.434 0 0 1 -18.56,-3.26 67.752,67.752 0 0 0 43.19,15.57 67.752,67.752 0 0 0 67.76,-67.75 67.752,67.752 0 0 0 -67.76,-67.75 z"/>
<path fill="#bbb" d="m 488.44,35.887 42.31,130.223 -110.78,-80.48 h 136.94 l -110.77,80.48 z"/>
<use id="shine" xlink:href="#shield" fill="url(#rg)" stroke="#000" stroke-width="3"/>
</svg>
