<?xml version="1.0" encoding="UTF-8"?>
<svg xmlns="http://www.w3.org/2000/svg" xmlns:xlink="http://www.w3.org/1999/xlink" width="600" height="660">
<defs>
  <radialGradient id="rg" gradientUnits="userSpaceOnUse" cx="220" cy="220" r="405">
    <stop style="stop-color:#ffffff;stop-opacity:.3" offset="0"/>
    <stop style="stop-color:#ffffff;stop-opacity:.2" offset=".2"/>
    <stop style="stop-color:#666666;stop-opacity:.1" offset=".6"/>
    <stop style="stop-color:#000000;stop-opacity:.13" offset="1"/>
  </radialGradient>
  <clipPath id="clip-shield">
    <path id="shield" d="m2,2v257c0,286 298,398 298,398c0,0 298-112 298-398V2z"/>
  </clipPath>
</defs>
<use id="bg" xlink:href="#shield" style="fill:#bbbbbb;"/>
<g clip-path="url(#clip-shield)" style="stroke:#000066;stroke-width:2;stroke-linecap:round;stroke-linejoin:round;">
<g transform="translate(300,280)scale(0.8)translate(-300,-300)">
  <g id="tower">
	<path style="fill:#000088;" d="m 4.8,95.8 9.2,8 v 47.4 l -22.4,-12.4 z m 42.4,-10.4 6,9 v 47.4 l -19,-13.8 z m 108,10.4 -9.2,8 v 47.4 l 22.4,-12.4 z m -42.4,-10.4 -6,9 v 47.4 l 19,-13.8 z"/>
	<path style="fill:#1111dd;" d="m 69.4,82.8 v 26 l -22.2,2.2 v -25.6 c -6.8,1 -13.4,2.6 -22,4.4 v 27 l -20.4,5.4 v -26.4 c -6.8,2.6 -14.6,5.4 -21.4,8.2 v 56.4 l 14.2,11.2 c 8.8,85.6 -4.2,169.2 -23,243.8 l -23.4,23.4 v 52.6 c 40.8,15.4 75.8,24 109.4,26.6 h 19.4 19.4 c 33.6,-2.6 68.6,-11.2 109.4,-26.6 v -52.6 l -23.4,-23.4 c -18.8,-74.6 -31.8,-158.2 -23,-243.8 l 14.2,-11.2 v -56.4 c -6.8,-2.8 -14.6,-5.6 -21.4,-8.2 v 26.4 l -20.4,-5.4 v -27 c -8.6,-1.8 -15.2,-3.4 -22,-4.4 v 25.6 l -22.2,-2.2 v -26 c -3.4,-0.4 -6.8,-1 -10.6,-1 -3.8,0 -7.2,0.6 -10.6,1 z"/>
	<path style="fill:none;" d="m 208.8,466.2 c -32.2,13 -88.8,27.8 -128.8,27.8 -40,0 -96.6,-14.8 -128.8,-27.8 m 44.2,-159.8 c 27.8,4.4 57.6,7 84.6,7 27,0 56.8,-2.6 84.6,-7 m -166.4,-27 c 27,2.2 56.4,3.2 81.8,3.2 25.4,0 54.8,-1 81.8,-3.2 m -162,-27 c 26.8,-0.2 53.6,-0.2 80.2,-0.2 26.6,0 53.4,0 80.2,0.2 m -159.8,-27 c 26.6,-2.8 53.2,-4.2 79.6,-4.2 26.4,0 53,1.4 79.6,4.2 m -160,-27 c 27.2,-5.4 53.8,-8 80.4,-7.8 v 0 c 26.6,-0.2 53.2,2.4 80.4,7.8 m -168.8,135.2 c 29.8,6.8 59.4,10.4 88.4,10.6 29,-0.2 58.6,-3.8 88.4,-10.6 m -181.6,27.2 c 31.4,9.4 62.4,14.2 93.2,14.4 30.8,-0.2 61.8,-5 93.2,-14.4 m -192,26.8 c 33,11.8 66.2,18.2 98.8,18.2 32.6,0 65.8,-6.4 98.8,-18.2 m -204.2,27.8 c 31.8,12 71.8,21.6 105.4,21.6 33.6,0 73.6,-9.6 105.4,-21.6 m -202,-255 c 0,0 19.4,-11.6 47.8,-16.6 20.4,-3 28.8,-4 48.8,-4.2 v 0 c 20,0.2 28.4,1.2 48.8,4.2 28.4,5 47.8,16.6 47.8,16.6 m -179,11.2 c 27.2,-8.6 56.6,-13.6 82.4,-13.6 v 0 c 25.8,0 55.2,5 82.4,13.6 m -211.2,267.2 c 32.2,13 88.8,28.6 128.8,28.6 40,0 96.6,-15.6 128.8,-28.6"/>
	<path style="fill:none;" d="m 80,190.6 v 30.6 m 0,92.2 v 30.8 m 0,31 v 30.6 m 54.8,-211.8 0.4,29 m 1.8,29.2 1.6,28.8 m 1.6,29 2.2,28.6 m 2.4,29.6 3.2,28.8 m 7.6,28.4 15.8,26.2 v 27.2 m 21,-6.6 v 25.2 m -48.2,-11.6 v 25.4 m -32,-107.4 2.4,30.4 9,28.8 m -15.2,-120.2 1.6,30.8 m -5.2,-152 v 30.6 m 2.8,-92.4 -1.4,31.6 m -81,2.6 -0.4,29 m -1.8,29.2 -1.6,28.8 m -1.6,29 -2.2,28.6 m -2.4,29.6 -3.2,28.8 m -7.6,28.4 -15.8,26.2 v 27.2 m -21,-6.6 v 25.2 m 48.2,-11.6 v 25.4 m 32,-107.4 -2.4,30.4 -9,28.8 m 15.2,-120.2 -1.6,30.8 m 5.2,-152 v 30.6 m -2.8,-92.4 1.4,31.6 m 0.84,90.9 -1.52,30.3 m 26.88,-60.4 v 30.4 m 25.8,-0.3 1.6,30.3"/>
	<path style="fill:none;" d="m 162,168.2 c 0,0 7.4,-7.2 1.8,-10.2 -5.8,-3.2 -13,6.6 -13,6.6 m -3.2,-0.8 c 0,0 4.2,-10.6 -3.2,-12.2 -7.2,-1.6 -12.4,9 -12.4,9 m -2.4,-0.4 c 0,0 0.8,-11.2 -7.4,-12.8 -8.4,-1.4 -10,10 -10,10 m -2.6,-0.2 c 0,0 0.4,-11.4 -7.8,-12.4 -8.4,-0.8 -9.6,10.6 -9.6,10.6 m -2.4,0 c 0,0 -0.4,-11.4 -9.8,-11.4 -9.4,0 -9.8,11.4 -9.8,11.4 m -72.2,12.8 c 0,0 -7.4,-7.2 -1.8,-10.2 5.8,-3.2 13,6.6 13,6.6 m 3.2,-0.8 c 0,0 -4.2,-10.6 3.2,-12.2 7.2,-1.6 12.4,9 12.4,9 m 2.4,-0.4 c 0,0 -0.8,-11.2 7.4,-12.8 8.4,-1.4 10,10 10,10 m 2.6,-0.2 c 0,0 -0.4,-11.4 7.8,-12.4 8.4,-0.8 9.6,10.6 9.6,10.6"/>
	<path style="fill:#1111dd;" d="m 80,518 h 19.4 l 12.4,-0.8 c 0,0 1,-32.2 0.6,-58.6 -0.4,-26.4 -16,-34.4 -32.4,-34.4 -16.4,0 -32,8 -32.4,34.4 -0.4,26.4 0.6,58.6 0.6,58.6 l 12.4,0.8 h 19.4"/>
	<path style="fill:none;" d="m 80,424.2 v 11.8 m 17.2,12.8 12.2,-6.6 m -18.8,-2.8 6.8,-11 m 15,54.8 h -12.4 m 12.4,-12 h -12.4 m 12.4,-12 h -12.8 m 12.6,36 h -12.2 m 12,12.2 h -12.2 m -37,-58.6 -12.2,-6.6 m 18.8,-2.8 -6.8,-11 m -15,54.8 h 12.4 m -12.4,-12 h 12.4 m -12.4,-12 h 12.8 m -12.6,36 h 12.2 m -12,12.2 h 12.2"/>
	<path style="fill:#000044;" d="m 80,436 c -10.6,0 -19.6,7 -20,29.6 -0.2,22.8 0.4,52.4 0.4,52.4 h 39.2 c 0,0 0.6,-29.6 0.4,-52.4 -0.4,-22.6 -9.4,-29.6 -20,-29.6 z"/>
  </g>
  <use xlink:href="#tower" transform="translate(600,0)scale(-1,1)"/>
  <g id="bridge">
	<path style="fill:#1111dd;" d="m 163,343 -10.7,-18.9 c 2.9,-17.1 3.1,-41.9 3.2,-61.7 h 144.5 144.5 c 0.1,19.8 0.3,44.6 3.2,61.7 l -10.7,18.9 c -44.1,-15.3 -82.3,-28.4 -137,-28.4 -54.7,0 -92.9,13.1 -137,28.4 z"/>
	<path style="fill:none;" d="m 207.7,304.7 h -53.2 m 0.7,-19.2 h 144.8 144.8 m -52.5,19.2 h 53.2"/>
	<path style="fill:none;" d="m 173.3,285.5 v 19.2 m 36.2,-19.2 v 18.7 m 36.2,-18.7 v 11.2 m 36.2,-11.2 v 7 m -90.5,-26.7 v 19.7 m 36.2,-19.7 v 19.7 m 36.2,-19.7 v 19.7 m 162.9,0 v 19.2 m -36.2,-19.2 v 18.7 m -36.2,-18.7 v 11.2 m -36.2,-11.2 v 7 m 90.5,-26.7 v 19.7 m -36.2,-19.7 v 19.7 m -36.2,-19.7 v 19.7 m -36.2,-19.7 v 19.7"/>
	<path style="fill:none;" d="m 152.5,323.2 c 31.4,-14 92.8,-31.3 147.5,-31.3 54.7,0 116.1,17.3 147.5,31.3"/>
	<path style="fill:none;" d="m 284.6,311.8 c 0,0 0.8,-16.6 15.4,-16.6 14.6,0 15.4,16.6 15.4,16.6 m -150.1,26.9 c 0,0 -4.2,-14.7 5.2,-18 9.7,-3.4 18.4,9.5 18.4,9.5 m 5,-1.7 c 0,0 -4.3,-15.9 7.2,-18.5 11.2,-2.5 16.8,11.8 16.8,11.8 m 4.6,-1.5 c 0,0 -3.5,-15.4 9.3,-17.8 13,-2.4 17,13.1 17,13.1 m 5,-0.7 c 0,0 -1.2,-15.4 11.6,-16.8 13,-1.5 14.8,14 14.8,14 m 154.5,26.6 c 0,0 4.2,-14.7 -5.2,-18 -9.7,-3.4 -18.4,9.5 -18.4,9.5 m -5,-1.7 c 0,0 4.3,-15.9 -7.2,-18.5 -11.2,-2.5 -16.8,11.8 -16.8,11.8 m -4.6,-1.5 c 0,0 3.5,-15.4 -9.3,-17.8 -13,-2.4 -17,13.1 -17,13.1 m -5,-0.7 c 0,0 1.2,-15.4 -11.6,-16.8 -13,-1.5 -14.8,14 -14.8,14"/>
	<path style="fill:#1111dd;" d="m 452.7,265.8 v -31.1 h -34 v 14.7 h -33.9 v -14.7 h -33.9 v 14.7 h -33.9 v -14.7 l -34,0 v 14.7 h -33.9 v -14.7 h -33.9 v 14.7 h -33.9 v -14.7 h -34 v 31.1 z"/>
  </g>
</g>
</g>
<use id="shine" xlink:href="#shield" style="fill:url(#rg);stroke:#000000;stroke-width:3;"/>
</svg>
