<?xml version="1.0" encoding="UTF-8"?>
<svg xmlns="http://www.w3.org/2000/svg" xmlns:xlink="http://www.w3.org/1999/xlink" width="600" height="660">
<defs>
  <radialGradient id="rg" gradientUnits="userSpaceOnUse" cx="220" cy="220" r="405">
    <stop style="stop-color:#ffffff;stop-opacity:.3" offset="0"/>
    <stop style="stop-color:#ffffff;stop-opacity:.2" offset=".2"/>
    <stop style="stop-color:#666666;stop-opacity:.1" offset=".6"/>
    <stop style="stop-color:#000000;stop-opacity:.13" offset="1"/>
  </radialGradient>
  <path id="shield" d="m2,2v257c0,286 298,398 298,398c0,0 298-112 298-398V2z"/>
</defs>
<use id="bg" xlink:href="#shield" style="fill:#08e;"/>
<path id="pile" style="fill:#fc0;" d="m 300,140.38477 -209.638672,363.10546 c 87.861002,107.73625 209.638672,153.50977 209.638672,153.50977 0,0 121.77767,-45.77352 209.63867,-153.50977 z" />
<path id="sun" style="fill:#ff0;" d="m 135,37.5 c -6.81382,9.093995 -7.37935,18.67926 -5.67669,28.627815 1.68858,9.866145 0.93349,19.444865 -5.13157,27.87594 -3.01001,-11.171045 -8.65144,-18.663485 -16.05264,-23.66541 -8.835265,-5.97111 -13.5327,-13.792105 -16.184215,-24.26692 -2.81503,11.00929 0.31528,20.06933 5.6955,28.60902 5.332835,8.4645 8.309935,17.6028 5.939845,27.706765 -7.05523,-9.165385 -15.140685,-13.92575 -23.89098,-15.714275 -10.44775,-2.135495 -17.789895,-7.55903 -24.248115,-16.221805 1.612325,11.248525 7.98314,18.417385 16.221805,24.248105 8.170885,5.782745 14.41728,13.094405 16.09022,23.345875 -10.028465,-5.77143 -19.31188,-7.09137 -28.082705,-5.39474 -10.469685,2.02525 -19.32729,-0.16358 -28.609024,-5.69549 5.794229,9.77527 14.424064,13.95013 24.266929,16.18421 9.758015,2.21481 18.30924,6.58962 23.778185,15.41353 -11.465585,-1.49015 -20.53842,0.84913 -27.988715,5.7707 -8.897705,5.87767 -17.935671,7.23555 -28.627824,5.67668 9.093984,6.81383 18.679264,7.37937 28.627824,5.6767 9.866135,-1.68857 19.444865,-0.9335 27.87593,5.13156 -11.171035,3.01001 -18.663475,8.65143 -23.6654,16.05263 -5.971125,8.83528 -13.79211,13.5327 -24.266928,16.18423 11.009288,2.81504 20.069333,-0.3153 28.609023,-5.6955 8.46449,-5.33284 17.602795,-8.30995 27.70676,-5.93985 -9.16538,7.05523 -13.92576,15.14069 -15.714275,23.89098 -2.135485,10.44774 -7.55902,17.78994 -16.221805,24.24806 11.248525,-1.61224 18.417395,-7.98303 24.248115,-16.22175 5.78275,-8.17089 13.0944,-14.41729 23.34586,-16.09021 -5.771435,10.02846 -7.09137,19.31192 -5.394725,28.08268 2.02525,10.4697 -0.16357,19.32728 -5.6955,28.60899 9.775275,-5.79418 13.950125,-14.42402 16.184215,-24.26684 2.21663,-9.76603 6.59383,-18.32867 15.43235,-23.79702 -1.49575,11.47501 0.82765,20.57202 5.75186,28.0263 5.87766,8.8977 7.23554,17.91689 5.67669,28.609 6.81382,-9.09396 7.37939,-18.66042 5.67668,-28.609 -1.68857,-9.86618 -0.91569,-19.46261 5.15039,-27.89473 3.01049,11.16495 8.63543,18.68411 16.03383,23.68423 8.83526,5.97115 13.53271,13.77329 16.18421,24.24806 2.81505,-11.00923 -0.31525,-20.0505 -5.69548,-28.59021 -5.33595,-8.46937 -8.29928,-17.63205 -5.92105,-27.74433 7.05458,9.16604 15.12187,13.94457 23.87219,15.73309 10.44774,2.13541 17.78991,7.55903 24.24811,16.22175 -1.61233,-11.24854 -7.98312,-18.41736 -16.22181,-24.24806 -8.17087,-5.78272 -14.3995,-13.11219 -16.07142,-23.36468 10.0233,5.76615 19.29674,7.10948 28.0639,5.41355 10.46968,-2.02528 19.32733,0.16359 28.60902,5.69549 -5.79423,-9.7753 -14.42404,-13.95015 -24.26692,-16.18422 -9.75801,-2.21481 -18.29099,-6.60708 -23.75939,-15.43234 11.45746,1.48587 20.54245,-0.83299 27.98873,-5.75186 8.89768,-5.87767 17.91689,-7.23555 28.60901,-5.67669 -9.09399,-6.81384 -18.66045,-7.37939 -28.60901,-5.67669 -9.86614,1.68859 -19.46266,0.9157 -27.89475,-5.15039 11.16488,-3.01051 18.68417,-8.63544 23.68421,-16.03384 5.97112,-8.83525 13.77333,-13.5327 24.24812,-16.18421 -11.00927,-2.81503 -20.05053,0.31526 -28.59021,5.69549 -8.46942,5.33594 -17.63208,8.29929 -27.74437,5.92105 9.16602,-7.05457 13.94457,-15.12189 15.73308,-23.872185 2.13548,-10.447755 7.55905,-17.7899 16.22181,-24.248105 -11.24853,1.61232 -18.4174,7.98312 -24.24811,16.221805 -5.78276,8.17087 -13.11221,14.399495 -23.36468,16.071435 5.76612,-10.02332 7.10947,-19.29677 5.41354,-28.063925 -2.02526,-10.4697 0.16359,-19.32732 5.69548,-28.60902 -9.77526,5.79422 -13.95013,14.424045 -16.18421,24.26692 -2.21369,9.75304 -6.59731,18.290645 -15.41352,23.7594 1.48519,-11.456805 -0.85181,-20.52366 -5.7707,-27.96993 -5.87766,-8.89769 -7.23556,-17.93566 -5.67668,-28.627815 z" />
<use id="shine" xlink:href="#shield" style="fill:url(#rg);stroke:#000000;stroke-width:3;"/>
</svg>
