<?xml version="1.0" encoding="UTF-8" standalone="no"?>
<svg
   xmlns:dc="http://purl.org/dc/elements/1.1/"
   xmlns:cc="http://creativecommons.org/ns#"
   xmlns:rdf="http://www.w3.org/1999/02/22-rdf-syntax-ns#"
   xmlns:svg="http://www.w3.org/2000/svg"
   xmlns="http://www.w3.org/2000/svg"
   xmlns:xlink="http://www.w3.org/1999/xlink"
   xmlns:sodipodi="http://sodipodi.sourceforge.net/DTD/sodipodi-0.dtd"
   xmlns:inkscape="http://www.inkscape.org/namespaces/inkscape"
   width="600"
   height="660"
   id="svg2"
   version="1.1"
   inkscape:version="0.48.2 r9819"
   sodipodi:docname="House_Manderly.svg">
  <metadata
     id="metadata23">
    <rdf:RDF>
      <cc:Work
         rdf:about="">
        <dc:format>image/svg+xml</dc:format>
        <dc:type
           rdf:resource="http://purl.org/dc/dcmitype/StillImage" />
        <dc:title />
      </cc:Work>
    </rdf:RDF>
  </metadata>
  <sodipodi:namedview
     pagecolor="#ffffff"
     bordercolor="#666666"
     borderopacity="1"
     objecttolerance="10"
     gridtolerance="10"
     guidetolerance="10"
     inkscape:pageopacity="0"
     inkscape:pageshadow="2"
     inkscape:window-width="1366"
     inkscape:window-height="715"
     id="namedview21"
     showgrid="false"
     inkscape:zoom="0.71515152"
     inkscape:cx="-79.976137"
     inkscape:cy="460.24333"
     inkscape:window-x="-8"
     inkscape:window-y="-8"
     inkscape:window-maximized="1"
     inkscape:current-layer="svg2" />
  <defs
     id="defs4">
    <radialGradient
       id="rg"
       gradientUnits="userSpaceOnUse"
       cx="220"
       cy="220"
       r="405">
      <stop
         style="stop-color:#fff;stop-opacity:.3"
         offset="0"
         id="stop7" />
      <stop
         style="stop-color:#fff;stop-opacity:.2"
         offset=".2"
         id="stop9" />
      <stop
         style="stop-color:#666;stop-opacity:.1"
         offset=".6"
         id="stop11" />
      <stop
         style="stop-color:#000;stop-opacity:.13"
         offset="1"
         id="stop13" />
    </radialGradient>
    <clipPath
       id="clip-shield">
      <path
         id="shield"
         d="m2,2v257c0,286 298,398 298,398c0,0 298-112 298-398V2z" />
    </clipPath>
    <radialGradient
       id="rg-1"
       gradientUnits="userSpaceOnUse"
       cx="220"
       cy="220"
       r="405">
      <stop
         style="stop-color:#fff;stop-opacity:.3"
         offset="0"
         id="stop7-7" />
      <stop
         style="stop-color:#fff;stop-opacity:.2"
         offset=".2"
         id="stop9-4" />
      <stop
         style="stop-color:#666;stop-opacity:.1"
         offset=".6"
         id="stop11-0" />
      <stop
         style="stop-color:#000;stop-opacity:.13"
         offset="1"
         id="stop13-9" />
    </radialGradient>
    <radialGradient
       id="radialGradient3124"
       gradientUnits="userSpaceOnUse"
       cx="220"
       cy="220"
       r="405">
      <stop
         style="stop-color:#fff;stop-opacity:.3"
         offset="0"
         id="stop3126" />
      <stop
         style="stop-color:#fff;stop-opacity:.2"
         offset=".2"
         id="stop3128" />
      <stop
         style="stop-color:#666;stop-opacity:.1"
         offset=".6"
         id="stop3130" />
      <stop
         style="stop-color:#000;stop-opacity:.13"
         offset="1"
         id="stop3132" />
    </radialGradient>
  </defs>
  <use
     height="1052.3622"
     width="744.09448"
     y="0"
     x="0"
     id="background"
     xlink:href="#shield"
     style="fill:#00aaaa" />
  <path
     inkscape:connector-curvature="0"
     style="fill:#008800;stroke:#00cc00;stroke-width:0.62705636;stroke-miterlimit:4;stroke-opacity:1;stroke-dasharray:none"
     id="path5241-9"
     d="m 290.36657,310.09086 c 33.73898,33.28891 31.10362,1.69935 30.76493,47.7647 -5.85707,24.86222 -5.02222,37.85162 -14.87106,62.59855 -29.03173,71.7868 4.69212,132.94777 72.04091,117.91327 51.04734,-19.56787 43.71522,-84.88225 39.07951,-102.09492 -10.86254,-41.5661 -10.48999,-63.83197 -8.37055,-76.40577 1.05064,-10.95726 6.70153,-20.09492 10.65149,-27.3086 11.62994,-21.29506 34.51123,-67.49934 40.80924,-111.6993 -0.6837,0.55653 0.98702,10.05968 5.28766,34.66301 0,0 2.08535,19.57582 9.39294,29.18982 15.43465,32.78132 5.56335,47.50952 6.7767,52.17983 13.03761,4.82641 40.17369,16.79591 35.08365,66.40394 5.66965,26.06657 4.49094,42.67834 15.29769,53.73381 0,0 -15.35815,-8.93905 -26.58279,-31.99027 0,0 -11.22343,-34.05562 -49.86375,-29.12651 -10.6357,1.35351 -23.12906,18.91036 -18.35976,36.88365 5.70698,21.5281 7.95138,45.29348 5.90363,68.71285 -10.58461,42.59294 -6.80348,27.3517 -24.99763,56.92081 -36.05912,43.90854 -99.40839,34.52593 -114.98625,28.37239 -28.09369,-8.1185 -113.19066,-55.38598 -98.92919,-208.23452 4.74897,-36.11345 17.17809,-58.15576 17.17809,-58.15576 0.32012,-0.32177 68.35892,-9.85478 68.68567,-10.35536" />
  <path
     inkscape:connector-curvature="0"
     style="fill:#f6f6f6;stroke:#7f7f7f;stroke-width:0.52254701;stroke-miterlimit:4;stroke-opacity:1;stroke-dasharray:none"
     d="m 137.03084,202.89694 6.2e-4,0.0388"
     id="path6194" />
  <path
     inkscape:connector-curvature="0"
     style="fill:#f6f6f6;stroke:#7f7f7f;stroke-width:0.52254701;stroke-miterlimit:4;stroke-opacity:1;stroke-dasharray:none"
     d="m 112.86794,204.21722 19.87401,24.43562 c 8.14625,9.4238 14.80339,17.31777 23.00868,26.68869 2.97702,3.39346 5.09635,14.78101 26.60815,9.84311 17.14443,-3.94053 28.21708,-15.29474 43.77919,-34.99785 -8.4671,24.14309 11.92892,51.37161 -2.9602,89.58504 1.88235,23.39079 29.18689,46.76293 60.59256,40.52404 0.67074,-0.19318 15.58471,3.57404 37.58046,-6.90427 -3.08357,-80.51511 22.14323,-85.24805 19.47612,-109.24211 1.43236,0.65466 6.93848,13.88007 24.8431,21.73647 -17.60058,15.92754 -17.51118,38.8715 -33.82849,52.93463 l 11.56088,15.22178 c 2.93293,-2.13851 5.96697,-4.32746 9.3415,-6.95483 6.06905,-4.72665 16.20765,-13.06501 19.28004,-16.58251 23.20558,-26.60058 16.55376,-20.51737 23.16994,-27.8585 6.98436,-7.74553 2.82987,-17.42969 -4.8012,-29.87357 -2.99871,-6.0614 -11.93551,-25.09052 -15.09213,-30.38136 -12.99056,-21.7858 -14.62562,-27.64567 -29.11963,-37.58868 -22.80326,-15.64403 -30.50235,-11.46395 -34.49441,-23.33544 -2.3774,-7.08536 -1.12897,-18.27782 -0.93338,-25.78041 l -2.3e-4,-1.1e-4 c -1.16992,0.26218 -4.38409,3.21029 -6.50319,4.08242 -3.53451,1.46959 -9.02264,3.02114 -9.32388,5.13528 -0.37082,2.57962 -18.82101,3.88454 -19.66155,11.7831 -0.8469,7.89859 -3.81131,9.64391 -10.45728,12.53616 -4.21169,1.83815 -20.11979,6.63311 -30.83374,8.4361 -30.60889,9.3191 -37.0823,41.26549 -58.40311,49.48352 -5.68778,0.71443 -19.19832,-8.96917 -38.53931,-24.2466 l -16.67033,-18.40486 z"
     id="path5349-0" />
  <path
     inkscape:connector-curvature="0"
     style="fill:#000000;fill-opacity:1;fill-rule:evenodd;stroke:none"
     id="path5245-2"
     d="m 437.02248,439.87996 c -0.68778,-0.43594 -1.30614,-0.74828 -1.7893,-0.95326 0.14037,-2.4346 0.25878,-4.52991 0.3371,-5.78388 0.35674,2.14672 0.83596,4.40315 1.44378,6.74634" />
  <path
     inkscape:connector-curvature="0"
     style="fill:#00cc00;stroke:#00cc00;stroke-width:0.24987258;stroke-miterlimit:4;stroke-opacity:1;stroke-dasharray:none"
     id="path5247-4"
     d="m 437.02248,439.87996 c -0.68778,-0.43594 -1.30614,-0.74828 -1.7893,-0.95326 0.14037,-2.4346 0.25878,-4.52991 0.3371,-5.78388 0.35674,2.14672 0.83596,4.40315 1.44378,6.74634 l 0.008,-0.009 z" />
  <path
     inkscape:connector-curvature="0"
     style="fill:#00cc00;fill-opacity:1;fill-rule:evenodd;stroke:#00cc00;stroke-width:0.24987258;stroke-opacity:1"
     id="path5249-5"
     d="m 417.06122,424.10454 c 3.69929,-8.66039 11.02004,-10.53216 11.02004,-10.53216 0,0 4.08089,1.30466 6.89688,5.97985 -0.16539,1.67595 -0.22983,3.43875 -0.19338,5.28381 -2.03635,-6.22675 -6.94643,-7.65524 -6.94643,-7.65524 0,0 -7.62546,1.43481 -9.76988,11.82841 -0.32381,-1.64714 -0.66667,-3.28507 -1.00723,-4.90467" />
  <path
     inkscape:connector-curvature="0"
     style="fill:#00cc00;fill-opacity:1;fill-rule:evenodd;stroke:#00cc00;stroke-width:0.24987258;stroke-opacity:1"
     id="path5251-2"
     d="m 421.16988,449.47623 c 0.61033,1.97644 0.99278,4.34087 0.97989,7.16019 1.24309,-14.7416 12.08123,-18.0921 12.08123,-18.0921 0,0 1.20157,0.31999 2.78286,1.32649 0.11322,0.4398 0.2243,0.88645 0.35466,1.34223 0.26051,1.09264 0.47169,2.14873 0.70655,3.22997 -2.00495,-1.82829 -3.94017,-2.29066 -3.94017,-2.29066 0,0 -8.99698,2.15593 -9.54702,15.40807 0,0 -0.19529,2.67771 -0.46597,6.27933 -0.84849,-0.74264 -1.65203,-1.25849 -2.27076,-1.60521 -0.042,-3.43116 -0.19684,-6.96518 -0.49303,-10.64551 -0.05,-0.70811 -0.11449,-1.41394 -0.18013,-2.12197" />
  <path
     inkscape:connector-curvature="0"
     style="fill:#00cc00;fill-opacity:1;fill-rule:evenodd;stroke:#00cc00;stroke-width:0.24987258;stroke-opacity:1"
     id="path5253-9"
     d="m 421.85984,462.25056 c 2.627,1.48048 8.5946,6.11965 7.81553,17.431 1.777,-11.33237 8.70103,-15.30723 11.70621,-16.51639 0.11933,1.02196 0.23001,2.03246 0.33213,3.04301 -2.19261,0.96401 -8.34224,4.50816 -9.93213,14.40746 -0.032,0.19721 -0.28095,1.81841 -0.62261,4.13662 -1.33557,-1.32121 -2.43143,-1.90732 -2.43143,-1.90732 0,0 -0.47219,0.0265 -1.2684,0.20741 0.14775,-1.73553 0.24458,-2.84746 0.24458,-2.84746 0.62197,-8.8469 -3.49432,-12.70488 -5.84452,-14.17466 0.0124,-1.24463 0.0141,-2.50758 6e-4,-3.78885" />
  <path
     inkscape:connector-curvature="0"
     style="fill:#00cc00;fill-opacity:1;fill-rule:evenodd;stroke:#00cc00;stroke-width:0.24987258;stroke-opacity:1"
     id="path5255-9-6"
     d="m 419.89157,486.95099 c 4.34242,-3.77304 8.83623,-4.08085 8.83623,-4.08085 0,0 9.48093,4.99873 6.66089,19.14402 1.63728,-5.60173 4.36935,-9.09995 7.06419,-11.28244 -0.0607,1.31582 -0.1618,2.6226 -0.26517,3.92251 -1.85908,1.91893 -3.64977,4.67427 -4.81507,8.60837 -0.097,0.29365 -1.18631,4.16566 -2.46022,8.70061 -0.81054,-1.18055 -1.49799,-1.78839 -1.49799,-1.78839 0,0 -0.6422,-0.14955 -1.71539,-0.20167 0.93607,-4.28188 1.68103,-7.71287 1.68103,-7.71287 2.41044,-12.01256 -5.42826,-15.87654 -5.42826,-15.87654 0,0 -5.13109,0.02 -9.04015,5.33289 0.36685,-1.54127 0.70762,-3.1352 1.00555,-4.75652" />
  <path
     inkscape:connector-curvature="0"
     style="fill:#00cc00;fill-opacity:1;fill-rule:evenodd;stroke:#00cc00;stroke-width:0.24987258;stroke-opacity:1"
     id="path5257-8"
     d="m 415.59241,502.51454 c 1.74624,3.33489 3.38215,9.32891 -0.64106,17.34379 7.62003,-12.2581 18.44607,-9.68347 18.44607,-9.68347 0,0 3.78517,3.33856 4.16621,9.61332 -1.82341,6.11337 -4.08268,11.86577 -6.76951,17.23655 -0.32463,-0.10685 -0.72379,-0.2204 -1.19099,-0.327 1.94109,-3.63135 3.46462,-6.49142 3.46462,-6.49142 5.42028,-11.16342 -1.1199,-17.22444 -1.1199,-17.22444 0,0 -9.02896,-1.48843 -15.40687,8.67363 -0.0817,0.12397 -0.62162,0.99415 -1.42917,2.32117 -0.39213,-0.85848 -0.7122,-1.34125 -0.7122,-1.34125 0,0 -0.99471,-0.48096 -2.65425,-0.83405 0.74276,-1.41623 1.20802,-2.30453 1.20802,-2.30453 2.99576,-5.94463 2.34172,-10.45375 1.15604,-13.3065 0.51961,-1.18413 1.01322,-2.41173 1.49173,-3.65764" />
  <path
     inkscape:connector-curvature="0"
     style="fill:#00cc00;fill-opacity:1;fill-rule:evenodd;stroke:#00cc00;stroke-width:0.24987258;stroke-opacity:1"
     id="path5259-3"
     d="m 404.65352,521.76793 c 5.55122,-1.15185 9.72041,0.85853 9.72041,0.85853 0,0 6.21565,9.19751 -2.44782,20.1886 7.90228,-8.29354 16.01693,-6.72242 18.86154,-5.79948 -0.44814,0.89741 -0.91349,1.77654 -1.37895,2.64652 -1.92568,-0.56782 -9.2331,-2.07926 -16.26456,5.23548 -0.15597,0.1448 -1.55338,1.64304 -3.46856,3.69048 -0.11767,-0.8684 -0.28057,-1.37909 -0.28057,-1.37909 0,0 -0.7662,-0.81163 -2.19571,-1.7567 1.67255,-2.0468 2.83893,-3.45499 2.83893,-3.45499 7.3848,-9.33275 2.10992,-16.70368 2.10992,-16.70368 0,0 -4.90933,-2.77166 -11.00933,0.4308 1.217,-1.2479 2.39912,-2.57591 3.53154,-3.97485" />
  <path
     inkscape:connector-curvature="0"
     style="fill:#00cc00;fill-opacity:1;fill-rule:evenodd;stroke:#00cc00;stroke-width:0.24987258;stroke-opacity:1"
     id="path5261-8"
     d="m 390.63,543.98188 c 11.55942,-4.38161 18.74828,3.25464 18.74828,3.25464 0,0 3.3572,10.79823 -8.72066,18.09218 4.34856,-2.18005 8.1112,-2.60049 11.18218,-2.20766 -0.9206,0.89871 -1.87554,1.76998 -2.83047,2.64126 -2.24567,-0.0306 -4.84366,0.43297 -7.72151,1.81098 -0.14756,0.13569 -2.03392,1.08046 -4.61493,2.35037 0.63464,-2.18608 0.60091,-3.77212 0.60091,-3.77212 0,0 -0.21233,-0.357 -0.65021,-0.91049 1.52977,-0.85452 2.51372,-1.39582 2.51372,-1.39582 10.15857,-6.2413 7.61345,-15.10716 7.61345,-15.10716 0,0 -6.48262,-6.05201 -16.39013,-2.04162 0.34733,-1.5756 0.32984,-2.63222 0.32984,-2.63222 0,0 -0.0173,-0.0275 -0.0433,-0.0732" />
  <path
     inkscape:connector-curvature="0"
     style="fill:#00cc00;fill-opacity:1;fill-rule:evenodd;stroke:#00cc00;stroke-width:0.24987258;stroke-opacity:1"
     id="path5263-6"
     d="m 398.0604,528.6712 c 0.22315,3.20376 -0.31269,9.92107 -7.60762,15.05214 -0.24407,-0.33858 -0.69076,-0.91956 -1.34712,-1.60771 5.04125,-3.7016 5.98365,-8.1898 6.00319,-10.98391 0.99854,-0.77285 1.98808,-1.5915 2.95165,-2.45136" />
  <path
     inkscape:connector-curvature="0"
     style="fill:#00cc00;fill-opacity:1;fill-rule:evenodd;stroke:#00cc00;stroke-width:0.24987258;stroke-opacity:1"
     id="path5265-9"
     d="m 379.16831,559.26217 c 12.73888,-2.12018 18.09717,6.90771 18.09717,6.90771 0,0 0.28609,11.40703 -13.1127,15.5346 0.46283,-0.10897 0.92786,-0.20881 1.38459,-0.29025 -2.35704,1.11573 -4.766,2.15138 -7.20788,3.09086 1.4838,-1.98439 2.12017,-3.80373 2.3299,-4.50109 1.42534,-0.46228 2.32044,-0.7512 2.32044,-0.7512 11.42868,-3.25354 11.41001,-12.30501 11.41001,-12.30501 0,0 -5.40437,-7.94589 -16.61177,-5.50668 0.60676,-0.79012 1.05641,-1.54313 1.38172,-2.17893" />
  <path
     inkscape:connector-curvature="0"
     style="fill:#00cc00;fill-opacity:1;fill-rule:evenodd;stroke:#00cc00;stroke-width:0.24987258;stroke-opacity:1"
     id="path5267-8"
     d="m 383.31946,538.12922 c 5.02605,2.13415 7.35398,5.93505 7.35398,5.93505 0,0 0.23862,10.12588 -11.32588,14.83984 0.44787,-0.92492 0.60747,-1.53276 0.60747,-1.53276 0,0 -0.14552,-0.47409 -0.51112,-1.24325 8.31196,-4.15049 8.17563,-11.43902 8.17563,-11.43902 0,0 -2.49895,-3.67209 -7.72691,-5.17077 1.1513,-0.41568 2.30202,-0.88408 3.43544,-1.37994" />
  <path
     inkscape:connector-curvature="0"
     style="fill:#000000;fill-opacity:1;fill-rule:evenodd;stroke:none"
     id="path5269-6"
     d="m 357.77818,590.10972 c -0.034,-0.18788 -0.0959,-0.41003 -0.16456,-0.67115 1.93603,-0.0671 3.60604,-0.13347 4.71222,-0.18234 -1.50134,0.31808 -3.02011,0.59951 -4.54766,0.85349" />
  <path
     inkscape:connector-curvature="0"
     style="fill:#00cc00;stroke:#00cc00;stroke-width:0.24987258;stroke-miterlimit:4;stroke-opacity:1;stroke-dasharray:none"
     id="path5271-6"
     d="m 357.77818,590.10972 c -0.034,-0.18788 -0.0959,-0.41003 -0.16456,-0.67115 1.93603,-0.0671 3.60604,-0.13347 4.71222,-0.18234 -1.50134,0.31808 -3.02011,0.59951 -4.54766,0.85349 z" />
  <path
     inkscape:connector-curvature="0"
     style="fill:#00cc00;fill-opacity:1;fill-rule:evenodd;stroke:#00cc00;stroke-width:0.24987258;stroke-opacity:1"
     id="path5273-2"
     d="m 364.27648,545.4947 c 12.38546,1.50687 15.66993,11.86751 15.66993,11.86751 0,0 -2.66778,10.21393 -16.96883,10.91493 14.50123,0.31843 17.7614,11.40344 17.7614,11.40344 0,0 -0.5082,2.26596 -2.40958,4.81533 -1.92268,0.72952 -3.86052,1.43382 -5.82264,2.0557 4.2278,-2.73215 5.13433,-6.58532 5.13433,-6.58532 0,0 -3.37242,-9.21205 -14.9491,-9.50401 -0.18341,-0.0362 -1.38003,-0.0857 -3.15129,-0.13587 1.03287,-1.35282 1.47107,-2.38546 1.47107,-2.38546 0,0 -0.0734,-0.70577 -0.42554,-1.80733 1.12113,-0.0465 1.80187,-0.076 1.80187,-0.076 12.23003,-0.72291 14.42051,-8.35696 14.42051,-8.35696 0,0 -3.13077,-9.10495 -13.78255,-10.08934 0.81184,-1.12073 1.19246,-1.96297 1.25061,-2.09835" />
  <path
     inkscape:connector-curvature="0"
     style="fill:#00cc00;fill-opacity:1;fill-rule:evenodd;stroke:none"
     id="path5275-3-5"
     d="m 373.48519,541.41512 c -2.16788,1.69741 -5.16172,3.17473 -9.25512,3.71296 -0.0702,-0.40322 -0.24416,-1.15457 -0.58848,-2.12091 0.43982,-0.0723 0.87312,-0.1537 1.28709,-0.25331 2.87286,-0.23238 5.73719,-0.66872 8.548,-1.33871" />
  <path
     inkscape:connector-curvature="0"
     style="fill:#00cc00;fill-opacity:1;fill-rule:evenodd;stroke:#00cc00;stroke-width:0.24987258;stroke-opacity:1"
     id="path5277-8"
     d="m 349.11352,555.09827 c 10.94958,3.99997 11.88992,12.86101 11.88992,12.86101 0,0 -4.47788,10.51449 -18.4582,8.52829 11.93962,2.42263 14.68319,11.1344 15.23294,13.62215 -1.02835,0.16553 -2.07405,0.30127 -3.11332,0.43931 0.0982,-0.16989 0.14839,-0.25942 0.14839,-0.25942 0,0 -1.37857,-9.24722 -12.93474,-11.63192 0,0 -1.90687,-0.39826 -4.65831,-0.96386 1.43663,-1.00781 2.16812,-1.87621 2.16812,-1.87621 0,0 0.11482,-0.82548 0.0434,-2.15011 1.89056,0.26307 3.12256,0.43854 3.12256,0.43854 11.72723,2.05647 15.18082,-6.28923 15.18082,-6.28923 0,0 -1.08744,-7.67104 -10.63822,-10.81525 1.29538,-0.87909 1.96866,-1.61667 1.96866,-1.61667 0,0 0.008,-0.0894 0.0229,-0.2499" />
  <path
     inkscape:connector-curvature="0"
     style="fill:#000000;fill-opacity:1;fill-rule:evenodd;stroke:none"
     id="path5279-2"
     d="m 363.59126,542.87437 c 0.56539,1.54795 0.69143,2.60426 0.69143,2.60426 0,0 -3.66403,8.77491 -15.13703,8.83104 0.0106,-0.60742 -0.0154,-1.4669 -0.14978,-2.49569 9.38453,-0.11474 12.19282,-6.48057 12.19282,-6.48057 0,0 -0.15061,-0.9577 -0.73976,-2.34284 1.04921,-0.003 2.08739,-0.0423 3.13382,-0.10696" />
  <path
     inkscape:connector-curvature="0"
     style="fill:#00cc00;fill-opacity:1;stroke:#00cc00;stroke-width:0.24987258;stroke-miterlimit:4;stroke-opacity:1;stroke-dasharray:none"
     id="path5281-6"
     d="m 363.59126,542.87437 c 0.56539,1.54795 0.69143,2.60426 0.69143,2.60426 0,0 -3.66403,8.77491 -15.13703,8.83104 0.0106,-0.60742 -0.0154,-1.4669 -0.14978,-2.49569 9.38453,-0.11474 12.19282,-6.48057 12.19282,-6.48057 0,0 -0.15061,-0.9577 -0.73976,-2.34284 1.04921,-0.003 2.08739,-0.0423 3.13382,-0.10696 l 0.008,-0.009 z" />
  <path
     inkscape:connector-curvature="0"
     style="fill:#00cc00;fill-opacity:1;fill-rule:evenodd;stroke:#00cc00;stroke-width:0.24987258;stroke-opacity:1"
     id="path5283-2"
     d="m 342.77363,540.56737 c 7.53554,6.60385 6.29988,14.77395 6.29988,14.77395 0,0 -7.42083,8.13179 -20.67726,2.93924 12.676,6.25993 10.97464,17.50042 10.97464,17.50042 0,0 -7.04511,8.44478 -20.48627,3.09 7.10567,3.57257 9.73485,8.49809 10.65536,12.23861 -0.98197,-0.0775 -1.96394,-0.15743 -2.94625,-0.26939 -0.91279,-3.00707 -3.17416,-6.95714 -8.68268,-9.83492 -0.28418,-0.10693 -1.9634,-0.91613 -4.28671,-2.05593 0.16047,-0.52988 0.55894,-2.07134 0.58822,-4.16632 3.08008,1.25461 5.31793,2.16084 5.31793,2.16084 11.24464,4.33154 16.92777,-2.28274 16.92777,-2.28274 0,0 0.84332,-9.04693 -9.02004,-14.18443 0.20503,-0.13585 0.31262,-0.22547 0.31262,-0.22547 0,0 0.60622,-1.64966 0.64571,-4.16651 0.40191,0.17083 0.62633,0.25958 0.62633,0.25958 11.2259,4.16886 17.06667,-2.63382 17.06667,-2.63382 0,0 1.41775,-6.63947 -5.53745,-11.89255 0.34665,-0.22556 0.53669,-0.37047 0.53669,-0.37047 0,0 0.17831,-0.44745 0.34443,-1.25241 0.42479,0.12267 0.86669,0.24747 1.30004,0.37244" />
  <path
     inkscape:connector-curvature="0"
     style="fill:#00cc00;fill-opacity:1;fill-rule:evenodd;stroke:#00cc00;stroke-width:0.24987258;stroke-opacity:1"
     id="path5285-7"
     d="m 322.18863,542.7706 c 9.04679,8.03463 5.57923,17.48058 5.57923,17.48058 0,0 -9.35216,7.23161 -21.25728,0.002 10.90105,8.08466 7.03301,18.90924 7.03301,18.90924 0,0 -8.63756,7.18613 -20.48066,-0.41922 2.03675,1.61503 3.55923,3.30478 4.6814,4.97499 -1.41037,-0.5417 -2.81252,-1.11095 -4.21506,-1.71686 -0.86879,-1.05433 -1.9181,-2.07149 -3.18365,-3.00784 -0.37748,-0.27632 -3.86808,-2.72175 -7.70579,-5.38857 2.56012,-0.2203 4.25487,-0.96959 4.46249,-1.05955 3.64048,2.32815 6.59537,4.2272 6.59537,4.2272 10.34172,6.30291 17.29985,0.71432 17.29985,0.71432 0,0 2.83281,-8.88954 -6.06851,-15.84042 -0.25068,-0.15982 -1.93649,-1.39067 -4.21438,-3.06923 2.61519,-0.24767 4.29561,-0.94217 4.29561,-0.94217 0,0 0.23068,-0.32381 0.53926,-0.93205 1.11422,0.71213 1.8084,1.15034 1.8084,1.15034 10.01082,6.40923 17.29983,0.71434 17.29983,0.71434 0,0 3.7324,-7.94306 -5.19681,-15.11849 1.26006,-0.19133 2.19762,-0.48955 2.68522,-0.66965" />
  <path
     inkscape:connector-curvature="0"
     style="fill:#00cc00;fill-opacity:1;fill-rule:evenodd;stroke:#00cc00;stroke-width:0.24987258;stroke-opacity:1"
     id="path5287-5"
     d="m 341.46507,540.19498 c -0.17469,0.79583 -0.34444,1.25242 -0.34444,1.25242 0,0 -7.74146,6.18203 -18.47712,1.07211 0.15501,-0.23422 0.57979,-0.92528 1.00941,-1.96477 8.50853,4.21285 14.714,-0.89923 14.714,-0.89923 0,0 0.0559,-0.15143 0.13579,-0.44732 0.97625,0.34577 1.96088,0.67546 2.9452,0.97765" />
  <path
     inkscape:connector-curvature="0"
     style="fill:#00cc00;fill-opacity:1;fill-rule:evenodd;stroke:#00cc00;stroke-width:0.24987258;stroke-opacity:1"
     id="path5289-7"
     d="m 303.3388,537.75359 c 7.9537,10.94626 1.69693,19.87255 1.69693,19.87255 0,0 -10.74325,4.47796 -20.33944,-5.20093 9.03838,10.46888 2.43987,20.09518 2.43987,20.09518 0,0 -4.6417,2.23127 -10.7284,0.43007 -5.89209,-3.73399 -11.57559,-8.07139 -16.98841,-12.98021 1.62947,0.12858 2.94981,0.001 3.73186,-0.10857 2.89961,3.1163 5.22033,5.62679 5.22033,5.62679 8.52141,8.67097 16.91901,4.77008 16.91901,4.77008 0,0 4.60376,-8.06001 -2.57476,-17.13802 -0.19332,-0.16908 -1.73424,-1.99174 -3.77095,-4.41358 2.98209,0.43891 5.1204,-0.0231 5.28818,-0.0578 1.1428,1.20485 1.86598,1.97306 1.86598,1.97306 8.31134,8.52714 16.54332,4.66567 16.54332,4.66567 0,0 5.72029,-7.73526 -2.34809,-16.83607 0,0 -0.22647,-0.28592 -0.63176,-0.77762 1.4896,0.18394 2.76198,0.153 3.65937,0.0796" />
  <path
     inkscape:connector-curvature="0"
     style="fill:#00cc00;fill-opacity:1;fill-rule:evenodd;stroke:#00cc00;stroke-width:0.24987258;stroke-opacity:1"
     id="path5291-8"
     d="m 324.69627,532.30725 c 0.85431,6.1474 -2.12604,10.3202 -2.12604,10.3202 0,0 -9.62313,4.3397 -19.09106,-4.8834 0.79733,-0.0734 1.25377,-0.18221 1.25377,-0.18221 0,0 0.37089,-0.34941 0.88747,-1.01323 7.68961,7.08709 14.74742,3.89118 14.74742,3.89118 0,0 2.92492,-4.18182 1.49873,-10.06869 0.9222,0.6691 1.85059,1.31985 2.8064,1.9453" />
  <path
     inkscape:connector-curvature="0"
     style="fill:#00cc00;fill-opacity:1;fill-rule:evenodd;stroke:#00cc00;stroke-width:0.24987258;stroke-opacity:1"
     id="path5293-2"
     d="m 315.88657,525.3653 c -3.06451,-1.19279 -6.48187,-3.5559 -9.51345,-8.08839 6.60806,12.50853 -1.63177,20.27578 -1.63177,20.27578 0,0 -11.11149,2.65443 -18.82589,-9.00991 6.53671,11.99758 -1.65909,20.10622 -1.65909,20.10622 0,0 -10.94571,2.63338 -18.64954,-9.03788 7.06769,12.0947 -1.6591,20.10395 -1.6591,20.10395 0,0 -1.81667,0.48854 -4.50493,0.26427 -1.19906,-1.09009 -2.3921,-2.21459 -3.57692,-3.36661 3.68806,1.18882 6.62285,0.36721 6.62285,0.36721 0,0 6.3148,-6.65269 1.11103,-16.77205 -0.15871,-0.11639 -1.18385,-1.86945 -2.55452,-4.29997 2.22848,0.21632 3.7239,-0.0559 3.7239,-0.0559 0,0 0.32855,-0.33095 0.81995,-0.96032 1.22714,1.9404 2.05388,3.24466 2.05388,3.24466 6.39817,9.958 15.32232,7.75641 15.32232,7.75641 0,0 6.32122,-6.65039 0.74365,-16.89711 -0.0933,-0.16937 -0.66848,-1.23363 -1.50859,-2.79688 2.13123,0.28077 3.60976,0.22176 3.60976,0.22176 0,0 0.30587,-0.25982 0.77295,-0.77224 0.51734,0.82379 0.82048,1.31577 0.82048,1.31577 6.73819,9.91121 15.8806,8.02308 15.8806,8.02308 0,0 6.88377,-6.38374 0.74578,-16.89712 0,0 -0.32359,-0.61572 -0.87493,-1.63649 2.1653,0.28067 3.60155,0.0452 3.60155,0.0452 0,0 0.29557,-0.22542 0.73983,-0.68274 2.5141,3.49326 5.31658,6.68319 8.36457,9.54011" />
  <path
     inkscape:connector-curvature="0"
     style="fill:#1e1d1d;fill-opacity:1;fill-rule:evenodd;stroke:none"
     id="path5295-7-7"
     d="m 228.04726,502.65367 c -0.0254,0.01 -0.0592,0.0277 -0.0825,0.0438 -0.0454,-0.27723 -0.0888,-0.55445 -0.15143,-0.8408 0,0 0,0 0,0 0.0688,0.268 0.14824,0.53826 0.23409,0.80618" />
  <path
     inkscape:connector-curvature="0"
     style="fill:none;stroke:#000000;stroke-width:0.24987258;stroke-miterlimit:4;stroke-dasharray:none"
     id="path5297-8"
     d="m 228.04726,502.65367 c -0.0254,0.01 -0.0592,0.0277 -0.0825,0.0438 -0.0454,-0.27723 -0.0888,-0.55445 -0.15143,-0.8408 0,0 0,0 0,0 0.0688,0.268 0.14824,0.53826 0.23409,0.80618 l -5.4e-4,-0.009 z" />
  <path
     inkscape:connector-curvature="0"
     style="fill:#00cc00;fill-opacity:1;fill-rule:evenodd;stroke:#00cc00;stroke-width:0.24987258;stroke-opacity:1"
     id="path5299-0"
     d="m 289.42472,507.28778 c 4.66739,12.13557 -3.60608,19.13276 -3.60608,19.13276 0,0 -14.60081,0.53218 -18.25841,-10.49672 5.09945,12.13668 -2.79118,19.91904 -2.79118,19.91904 0,0 -11.53335,2.20632 -18.34232,-10.38189 4.39346,9.76627 0.43657,16.19713 -1.76472,18.76335 -0.69878,-0.87599 -1.37259,-1.80476 -2.06537,-2.71516 1.71678,-2.09274 5.01801,-7.52705 1.7328,-15.53139 -0.2201,-0.28593 -2.50963,-5.29259 -4.84111,-10.44353 2.0123,0.70971 3.44119,0.78609 3.44119,0.78609 0,0 0.34938,-0.17058 0.90958,-0.52964 2.31746,4.42438 4.344,8.30633 4.344,8.30633 5.88047,10.51177 14.86671,8.75241 14.86671,8.75241 0,0 6.75353,-6.01894 2.43407,-16.64268 -0.14326,-0.25861 -0.96883,-2.06485 -2.08451,-4.53503 1.73685,0.62334 2.91748,0.77151 2.91748,0.77151 0,0 0.40635,-0.21656 1.0402,-0.65607 0.80074,1.66421 1.31012,2.74469 1.31012,2.74469 6.0547,10.48611 15.5644,8.71618 15.5644,8.71618 0,0 7.12864,-5.16043 2.66853,-15.80212 1.04989,0.26538 1.70587,0.30943 1.70587,0.30943 0,0 0.30717,-0.13611 0.80206,-0.43308" />
  <path
     inkscape:connector-curvature="0"
     style="fill:#00cc00;fill-opacity:1;fill-rule:evenodd;stroke:#00cc00;stroke-width:0.24987258;stroke-opacity:1"
     id="path5301-2"
     d="m 307.522,515.8252 c -0.44436,0.44815 -0.74195,0.68276 -0.74195,0.68276 0,0 -10.29838,1.65517 -17.1988,-9.31 0.55401,-0.34301 1.29766,-0.86533 2.11143,-1.60099 5.28459,9.10145 13.56946,8.04076 13.56946,8.04076 0,0 0.18153,-0.14484 0.46156,-0.43214 0.57553,0.89465 1.1742,1.76175 1.7898,2.61964" />
  <path
     inkscape:connector-curvature="0"
     style="fill:#00cc00;fill-opacity:1;fill-rule:evenodd;stroke:#00cc00;stroke-width:0.24987258;stroke-opacity:1"
     id="path5303-0"
     d="m 296.89727,492.94884 c 0.076,11.06838 -8.27463,14.76974 -8.27463,14.76974 0,0 -10.77259,-0.73193 -14.71348,-14.00864 2.39615,13.51467 -7.58416,18.69883 -7.58416,18.69883 0,0 -11.52008,-1.38545 -15.44002,-14.49029 2.38367,13.34278 -7.95574,18.37663 -7.95574,18.37663 0,0 -11.2771,-0.54261 -15.0997,-14.50957 1.10582,5.57601 0.12734,9.67007 -1.43818,12.58297 -0.47693,-1.02787 -0.95384,-2.05574 -1.42253,-3.11114 1.01598,-2.34985 1.5902,-5.42053 0.99985,-9.34072 -0.13324,-0.11664 -0.80754,-3.32138 -1.60732,-7.32125 1.70405,0.74035 2.90411,0.91588 2.90411,0.91588 0,0 0.51315,-0.18015 1.31511,-0.6224 0.93601,3.59608 1.64589,6.33552 1.64589,6.33552 3.28904,11.60294 12.33246,12.24095 12.33246,12.24095 0,0 7.96861,-4.41775 6.089,-15.56836 0.0225,-0.29573 -0.33461,-2.46998 -0.87186,-5.38867 1.50256,0.60566 2.54282,0.76327 2.54282,0.76327 0,0 0.64668,-0.23324 1.5965,-0.78134 0.6773,2.67536 1.14596,4.53529 1.14596,4.53529 3.08549,11.27341 12.33245,12.24096 12.33245,12.24096 0,0 8.53311,-3.76373 6.0787,-15.73795 0,0 -0.26428,-1.45018 -0.67024,-3.62431 1.69532,0.72203 2.89555,0.91362 2.89555,0.91362 0,0 0.66138,-0.25162 1.64477,-0.84564 0.45033,1.73621 0.74515,2.85394 0.74515,2.85394 2.59979,11.63232 12.15799,12.24373 12.15799,12.24373 0,0 8.51254,-4.09832 6.2531,-15.74758 0,0 -0.15948,-0.79722 -0.42225,-2.10301 0.63479,0.25733 1.2029,0.44372 1.65329,0.56857 0.32491,1.75259 0.69213,3.47984 1.12698,5.16106" />
  <path
     inkscape:connector-curvature="0"
     style="fill:#000000;fill-opacity:1;fill-rule:evenodd;stroke:none"
     id="path5305-8-5"
     d="m 226.20635,453.33254 c 0.0236,-5.8e-4 0.049,3.4e-4 0.0744,-0.009 8e-4,0.0825 0.0104,0.17187 0.0114,0.25207 -0.034,-2.4e-4 -0.0765,0.01 -0.11696,0.01 0.008,-0.0802 0.0152,-0.17196 0.0228,-0.26133" />
  <path
     inkscape:connector-curvature="0"
     style="fill:none;stroke:#000000;stroke-width:0.24987258;stroke-miterlimit:4;stroke-dasharray:none"
     id="path5307-9"
     d="m 226.20635,453.33254 c 0.0236,-5.8e-4 0.049,3.4e-4 0.0744,-0.009 8e-4,0.0825 0.0104,0.17187 0.0114,0.25207 -0.034,-2.4e-4 -0.0765,0.01 -0.11696,0.01 0.008,-0.0802 0.0152,-0.17196 0.0228,-0.26133 l 0.009,0.009 z" />
  <path
     inkscape:connector-curvature="0"
     style="fill:#00cc00;fill-opacity:1;fill-rule:evenodd;stroke:#00cc00;stroke-width:0.24987258;stroke-opacity:1"
     id="path5309-2"
     d="m 295.76175,487.7878 c -2.84328,-0.79913 -10.25056,-3.91249 -12.10343,-14.94855 0.9092,13.78684 -9.9371,17.97856 -9.9371,17.97856 0,0 -11.51681,-1.88285 -13.79665,-15.46887 1.44218,13.87251 -9.59717,17.92265 -9.59717,17.92265 0,0 -11.31526,-1.74129 -13.4481,-15.51567 1.10214,13.91929 -9.62234,17.75539 -9.62234,17.75539 0,0 -6.70354,-0.95836 -10.95241,-8.10973 -2.11799,-6.90727 -3.94176,-13.56321 -5.48007,-19.9884 1.65615,1.043 3.03395,1.52294 3.48444,1.65695 0.81441,5.59284 1.59437,10.94509 1.59437,10.94509 1.93504,11.56303 11.02354,12.64102 11.02354,12.64102 0,0 8.85191,-3.40014 8.03377,-14.80575 -0.0296,-0.40106 -0.52809,-5.07558 -1.08809,-10.15796 2.06862,1.40865 3.75288,1.88773 3.75288,1.88773 0,0 0.1232,-0.0279 0.35651,-0.0995 0.67695,4.2592 1.23705,7.73252 1.23705,7.73252 2.16179,11.87415 11.15372,13.28247 11.15372,13.28247 0,0 8.45785,-3.83687 7.62467,-15.0522 -0.004,-0.35756 -0.24364,-3.32976 -0.55738,-7.05359 1.98469,1.31947 3.56032,1.78969 3.56032,1.78969 0,0 0.19106,-0.0464 0.53896,-0.15275 0.43896,2.87998 0.75008,4.93975 0.75008,4.93975 2.10927,11.53506 11.09482,12.94338 11.09482,12.94338 0,0 9.11293,-3.0685 7.59519,-15.22401 0.0514,0.0365 -0.0398,-1.54935 -0.22412,-3.90286 1.98517,1.36534 3.58633,1.83548 3.58633,1.83548 0,0 0.42229,-0.11812 1.12593,-0.39729 0.23169,1.3861 0.37277,2.25442 0.37277,2.25442 1.18961,8.68159 6.71692,11.72893 9.43652,12.70721 0.12623,0.86837 0.28412,1.71831 0.44418,2.56825" />
  <path
     inkscape:connector-curvature="0"
     style="fill:#00cc00;fill-opacity:1;fill-rule:evenodd;stroke:#00cc00;stroke-width:0.24987258;stroke-opacity:1"
     id="path5311-8"
     d="m 295.28615,459.99731 c -3.14257,8.57636 -10.91039,10.63729 -10.91039,10.63729 0,0 -10.8575,-3.13841 -11.06593,-17.27554 -0.67285,14.12117 -12.28392,16.82967 -12.28392,16.82967 0,0 -11.059,-3.27538 -11.36995,-17.04322 -0.60394,13.59152 -12.01355,16.43471 -12.01355,16.43471 0,0 -11.02313,-3.10357 -11.36994,-17.04321 -0.67498,14.12117 -11.81422,16.5671 -11.81422,16.5671 0,0 -1.60059,-0.41511 -3.64237,-1.70008 -0.24513,-1.04684 -0.48804,-2.08451 -0.73094,-3.12217 2.09581,1.76844 4.03814,2.29954 4.03814,2.29954 0,0 9.13328,-2.75454 9.87089,-13.95804 -0.10871,-0.22432 -0.0272,-3.41975 0.1222,-7.39694 0.53434,0.21399 0.86086,0.30256 0.86086,0.30256 0,0 1.36787,-0.26271 3.20305,-1.21657 0.0981,4.46704 0.17767,8.18232 0.17767,8.18232 0.64958,11.96992 9.44019,14.46981 9.44019,14.46981 0,0 8.79127,-2.69172 9.32957,-14.02765 0.0632,-0.24316 0.24276,-3.01934 0.44565,-6.59098 0.26699,0.0886 0.41641,0.13183 0.41641,0.13183 0,0 1.56696,-0.3526 3.60853,-1.51333 0.0639,4.45109 0.11972,8.13895 0.11972,8.13895 0.41449,11.67485 9.20285,14.1656 9.20285,14.1656 0,0 9.53469,-1.61874 9.56476,-13.72342 0.0418,-0.0643 0.21384,-2.73277 0.4172,-6.26087 0.1752,0.0638 0.2755,0.0887 0.2755,0.0887 0,0 1.72464,-0.3347 3.91444,-1.56689 0.11461,4.42115 0.2017,8.04016 0.2017,8.04016 0.0831,11.73764 9.16702,13.99608 9.16702,13.99608 0,0 8.9239,-2.02049 9.7325,-13.76055 0,0 0.0978,-2.6339 0.23541,-6.14347 0.13249,0.0335 0.20707,0.0614 0.20707,0.0614 0,0 1.0961,-0.20006 2.6675,-0.93776 -0.63801,3.27941 -1.27175,7.16625 -1.99114,12.21769 -0.0315,0.24306 -0.044,0.4746 -0.084,0.71765" />
  <path
     inkscape:connector-curvature="0"
     style="fill:#00cc00;fill-opacity:1;fill-rule:evenodd;stroke:#00cc00;stroke-width:0.24987258;stroke-opacity:1"
     id="path5313-2-4"
     d="m 297.36968,447.05277 c -1.5629,0.73767 -2.66528,0.94693 -2.66528,0.94693 0,0 -10.27039,-2.56008 -10.6379,-16.84807 -1.37259,13.96262 -12.83943,16.22148 -12.83943,16.22148 0,0 -10.85882,-3.26446 -10.52097,-17.06385 -1.47824,13.63283 -12.67398,16.1683 -12.67398,16.1683 0,0 -10.92298,-2.88835 -10.57375,-17.22414 -1.32411,14.12293 -12.4579,16.27546 -12.4579,16.27546 0,0 -11.34663,-3.10268 -11.44529,-17.12325 -0.43437,7.66369 -4.25424,11.94647 -7.50574,14.21984 -0.11732,-0.83172 -0.23469,-1.6726 -0.34342,-2.49747 2.59107,-1.93236 5.49708,-5.48608 6.00276,-11.83429 0,0 0.26983,-3.68183 0.59524,-8.15003 1.00475,0.62531 1.6887,0.90082 1.6887,0.90082 0,0 0.93039,-0.17215 2.31186,-0.75804 -0.12823,4.3966 -0.23903,8.02301 -0.23903,8.02301 -0.24174,11.80959 8.49331,14.69469 8.49331,14.69469 0,0 9.22818,-2.43158 10.50392,-13.87036 -0.0284,-0.29332 0.18066,-3.25756 0.47528,-7.01052 0.92708,0.52467 1.5444,0.73847 1.5444,0.73847 0,0 1.18751,-0.20949 2.85897,-0.94748 -0.0743,4.06409 -0.13184,7.28925 -0.13184,7.28925 -0.40718,11.86275 8.27727,14.58984 8.27727,14.58984 0,0 9.00994,-2.54102 10.2857,-13.97748 0.063,-0.28667 0.32282,-2.49011 0.64065,-5.45465 0.77724,0.44486 1.28798,0.64061 1.28798,0.64061 0,0 1.09423,-0.17258 2.66872,-0.82089 -0.0989,3.33985 -0.17293,5.81094 -0.17293,5.81094 0.13377,11.87046 8.71154,14.80184 8.71154,14.80184 0,0 9.4329,-1.78807 10.27719,-13.97747 0,0 0.15493,-1.86161 0.37564,-4.54857 0.74477,0.39224 1.22956,0.55138 1.22956,0.55138 0,0 1.24527,-0.18211 3.00758,-0.98225 -0.0582,3.16785 -0.10194,5.47841 -0.10194,5.47841 -0.45781,11.70472 8.33927,14.21376 8.33927,14.21376 0,0 1.46749,-0.29963 3.33504,-1.41405 -0.19678,0.92194 -0.40353,1.89895 -0.60979,2.92867" />
  <path
     inkscape:connector-curvature="0"
     style="fill:#00cc00;fill-opacity:1;fill-rule:evenodd;stroke:#00cc00;stroke-width:0.24987258;stroke-opacity:1"
     id="path5315-0"
     d="m 303.11755,426.77504 c -3.0432,-2.40079 -6.75824,-7.16295 -5.79339,-15.78615 -3.05147,14.19866 -13.93325,15.83018 -13.93325,15.83018 0,0 -10.36269,-3.44456 -9.48729,-17.53193 -2.0743,13.82012 -13.61095,15.71472 -13.61095,15.71472 0,0 -10.59288,-4.08117 -9.92983,-17.7187 -1.97656,13.60441 -13.28028,15.58776 -13.28028,15.58776 0,0 -10.63777,-3.69598 -9.60553,-17.84564 -2.24176,13.88474 -13.49059,16.02841 -13.49059,16.02841 0,0 -10.43597,-4.1366 -10.14797,-17.81894 -1e-5,0.0184 2.9e-4,0.0459 -0.008,0.0733 0.10838,-3.05338 0.29381,-6.05423 0.53744,-8.99107 1.13893,0.83812 1.96651,1.21178 1.96651,1.21178 0,0 0.29129,-0.0282 0.78825,-0.12814 -0.27795,4.32596 -0.50693,7.84496 -0.50693,7.84496 -1.08891,12.00211 7.55408,14.83475 7.55408,14.83475 0,0 9.74935,-2.65992 11.30143,-13.92751 -0.002,-0.17879 0.35063,-3.08154 0.82705,-6.75247 1.52578,1.19464 2.73556,1.68419 2.73556,1.68419 0,0 0.41687,-0.0263 1.11358,-0.15431 -0.30234,3.62695 -0.53944,6.37581 -0.53944,6.37581 -0.8259,11.7126 7.71942,14.77014 7.71942,14.77014 0,0 9.28249,-1.9229 11.00195,-13.262 0.0543,-0.30499 0.41199,-2.71496 0.87661,-5.8862 1.51805,1.26803 2.74519,1.79191 2.74519,1.79191 0,0 0.39126,-0.0352 1.06215,-0.19082 -0.27762,2.74211 -0.48303,4.65886 -0.48303,4.65886 -0.76462,11.87287 8.05789,15.1818 8.05789,15.1818 0,0 9.46197,-1.45121 10.88158,-13.57799 -0.009,-0.0343 0.19312,-1.46746 0.51118,-3.59999 1.34297,1.2135 2.37879,1.75851 2.37879,1.75851 0,0 0.8311,-0.10078 2.12294,-0.5077 -0.12222,1.73775 -0.2105,2.84737 -0.2105,2.84737 -1.69687,11.86851 7.38873,14.89708 7.38873,14.89708 0,0 9.40283,-1.61149 11.54222,-13.29096 0,0 0.089,-0.84374 0.24905,-2.22172 1.26687,1.06241 2.22744,1.53428 2.22744,1.53428 0,0 0.68241,-0.0729 1.78354,-0.39905 -0.0659,0.81387 -0.1096,1.30679 -0.1096,1.30679 -0.34678,7.28985 2.2706,11.29398 4.48008,13.34632 -0.26605,0.80754 -0.51537,1.58751 -0.75655,2.33082" />
  <path
     inkscape:connector-curvature="0"
     style="fill:#00cc00;fill-opacity:1;fill-rule:evenodd;stroke:#00cc00;stroke-width:0.24987258;stroke-opacity:1"
     id="path5317-5"
     d="m 204.60337,391.38706 c 1.03107,0.90261 1.82481,1.29471 1.82481,1.29471 0,0 9.39183,-1.03615 12.52888,-12.76644 0,0 0.55424,-2.54343 1.29088,-5.95608 0.48619,0.29208 0.7878,0.43567 0.7878,0.43567 0,0 1.42626,-0.17347 3.41433,-0.95815 -0.65509,4.08401 -1.17865,7.31729 -1.17865,7.31729 -2.22473,12.06707 6.15475,15.3405 6.15475,15.3405 0,0 9.09985,-1.2783 12.34205,-12.31898 0.50104,-2.94669 0.38438,-2.9097 1.16237,-6.43935 0.65352,0.41769 1.07919,0.62283 1.07919,0.62283 0,0 1.23713,-0.14541 3.0174,-0.85852 -0.68091,4.05659 -1.22158,7.28304 -1.22158,7.28304 -1.37128,11.86534 6.8621,15.21023 6.8621,15.21023 0,0 8.941,-1.20454 11.57563,-12.34212 0.19597,-0.38561 0.8752,-2.98439 1.68722,-6.32614 0.46031,0.26006 0.74466,0.38305 0.74466,0.38305 0,0 1.35206,-0.14571 3.25733,-0.91187 -0.79672,4.17378 -1.43391,7.53343 -1.43391,7.53343 -1.30368,12.01875 6.8997,15.74879 6.8997,15.74879 0,0 9.58829,-0.5714 12.07592,-12.93484 -0.0662,-0.0276 0.4967,-2.55245 1.31032,-5.93092 0.20776,0.1255 0.33388,0.17789 0.33388,0.17789 0,0 1.62875,-0.14619 3.84734,-1.06705 -0.63856,4.23753 -1.16653,7.65877 -1.16653,7.65877 -1.0246,12.4489 6.82988,15.58852 6.82988,15.58852 0,0 9.0107,-1.05574 11.80209,-12.26249 0,0 0.63305,-2.94019 1.45078,-6.73813 0.29756,-0.0352 0.96259,-0.14468 1.85786,-0.41759 -0.85748,3.86223 -1.74931,7.69703 -2.6492,11.36912 -4.65683,10.09553 -13.43429,11.06815 -13.43429,11.06815 0,0 -9.76076,-4.69313 -7.93649,-18.61113 -3.35512,13.86023 -15.40049,15.34363 -15.40049,15.34363 0,0 -9.73079,-5.07827 -7.99769,-18.76223 -3.17479,13.40134 -14.41936,14.53416 -14.41936,14.53416 0,0 -10.17191,-4.32526 -8.11474,-18.15449 -3.19624,13.78876 -14.8026,14.51916 -14.8026,14.51916 0,0 -10.48547,-4.18919 -8.63326,-18.48546 -2.58867,13.88567 -14.06831,14.92745 -14.06831,14.92745 0,0 -0.82535,-0.36451 -1.96652,-1.21181 0.0813,-0.96747 0.16266,-1.93496 0.26101,-2.9025" />
  <path
     inkscape:connector-curvature="0"
     style="fill:#00cc00;fill-opacity:1;fill-rule:evenodd;stroke:#00cc00;stroke-width:0.24987258;stroke-opacity:1"
     id="path5319-5"
     d="m 313.8312,387.74598 c -1.2434,0.36091 -2.04072,0.43412 -2.04072,0.43412 0,0 -9.5733,-4.27188 -7.39367,-18.39712 -3.4018,14.07582 -15.19567,15.18951 -15.19567,15.18951 0,0 -10.12704,-4.91448 -7.94546,-18.65464 -3.17971,13.74285 -14.50617,14.98137 -14.50617,14.98137 0,0 -10.18865,-4.29544 -7.86098,-18.51276 -3.56239,13.78057 -14.81286,15.16325 -14.81286,15.16325 0,0 -10.1991,-4.68276 -8.32616,-18.6284 -2.50082,13.53705 -14.66483,15.07348 -14.66483,15.07348 0,0 -10.11659,-4.52941 -7.71081,-18.60256 -0.90949,3.77297 -2.45886,6.60562 -4.23275,8.73288 1.42586,-6.07563 3.06688,-11.92721 4.8375,-17.59808 0.77043,0.60533 1.29689,0.88125 1.29689,0.88125 -0.0151,-0.0252 0.58254,-0.0547 1.57022,-0.24489 -0.79278,4.54967 -1.45935,8.34948 -1.45935,8.34948 -1.86364,11.79561 6.23387,15.57869 6.23387,15.57869 0,0 9.55653,-1.16268 12.11788,-12.79055 0,0 0.70715,-3.18107 1.61162,-7.22907 1.30289,1.24797 2.36451,1.81814 2.36451,1.81814 0,0 0.57249,-0.002 1.5201,-0.15536 -0.639,3.38716 -1.11056,5.90286 -1.11056,5.90286 -2.01164,11.8877 6.39451,15.87621 6.39451,15.87621 0,0 9.35327,-1.46697 12.42864,-12.58739 0.0327,-0.11478 0.0714,-0.25929 0.11247,-0.43807 1.35151,0.40895 2.70024,0.75363 4.0589,1.03654 -0.009,0.0365 -0.008,0.0528 -0.008,0.0528 -2.07516,12.12164 6.45395,15.25718 6.45395,15.25718 0,0 8.94122,-1.18622 11.73723,-12.76201 0.0324,-0.11719 0.23294,-0.90605 0.53538,-2.11477 0.39101,-0.056 0.77131,-0.11902 1.16236,-0.17275 0.58569,0.4454 0.96243,0.65067 0.96243,0.65067 0,0 0.82333,-0.0298 2.11621,-0.33807 -0.32267,1.69472 -0.53465,2.78634 -0.53465,2.78634 -1.85105,12.18296 6.46644,15.63307 6.46644,15.63307 0,0 9.50345,-0.54366 11.96983,-12.70076 -2.9e-4,-0.0459 0.10288,-0.53663 0.29452,-1.33481 1.15897,1.12458 2.06275,1.6585 2.06275,1.6585 0,0 0.88913,-0.0459 2.27314,-0.39121 -0.0939,0.58244 -0.15625,0.92415 -0.15625,0.92415 -2.46639,12.15709 6.3038,15.34699 6.3038,15.34699 0,0 0.63996,-0.0634 1.62625,-0.38029 -0.19057,0.90358 -0.39585,1.8187 -0.59492,2.72232" />
  <path
     inkscape:connector-curvature="0"
     style="fill:#00cc00;fill-opacity:1;fill-rule:evenodd;stroke:#00cc00;stroke-width:0.24987258;stroke-opacity:1"
     id="path5321-2-1"
     d="m 319.56612,357.75206 c -4.87662,11.25135 -15.18907,11.77197 -15.18907,11.77197 0,0 -5.63877,-3.32439 -6.89917,-11.04997 0.77787,-0.30465 1.5385,-0.62989 2.29268,-0.96199 0.85826,6.52329 5.38189,9.04617 5.38189,9.04617 0,0 9.67126,0.23292 12.87699,-11.84597 0.12492,-0.0622 1.42123,-4.08606 2.88521,-8.76362 -0.15211,2.93661 -0.63267,7.02245 -1.35491,11.80343" />
  <path
     inkscape:connector-curvature="0"
     style="fill:#1e1d1d;fill-opacity:1;fill-rule:evenodd;stroke:none"
     id="path5323-7"
     d="m 240.47857,352.85399 c -1.65132,0.4262 -2.76438,0.42919 -2.76438,0.42919 0,0 -5.67611,-3.03089 -6.98042,-10.68072 3.11187,4.07385 6.38046,7.46654 9.7447,10.24236" />
  <path
     inkscape:connector-curvature="0"
     style="fill:#00cc00;fill-opacity:1;stroke:#00cc00;stroke-width:0.24987258;stroke-miterlimit:4;stroke-opacity:1;stroke-dasharray:none"
     id="path5325-6"
     d="m 240.47857,352.85399 c -1.65132,0.4262 -2.76438,0.42919 -2.76438,0.42919 0,0 -5.67611,-3.03089 -6.98042,-10.68072 3.11187,4.07385 6.38046,7.46654 9.7447,10.24236 l 5.4e-4,0.009 z" />
  <path
     inkscape:connector-curvature="0"
     style="fill:#00cc00;fill-opacity:1;fill-rule:evenodd;stroke:#00cc00;stroke-width:0.24987258;stroke-opacity:1"
     id="path5327-7"
     d="m 228.59137,339.64455 c -5.07088,7.96271 -13.40877,8.03104 -13.33935,8.15693 0,0 -0.52646,-0.27593 -1.29904,-0.88355 0.23259,-0.75244 0.46726,-1.50489 0.70836,-2.25734 0.60349,0.51639 1.03808,0.75818 1.08045,0.73974 0.3233,-0.0191 7.03639,-0.37885 11.32071,-8.05292 0.49989,0.78484 1.01444,1.54674 1.52036,2.29717" />
  <path
     inkscape:connector-curvature="0"
     style="fill:#ffd396;fill-opacity:1;fill-rule:evenodd;stroke:none"
     id="path5335-1"
     d="m 309.90677,137.48618 c 1.82236,-2.17096 7.05412,-9.20579 9.30756,-13.89465 2.25344,-4.68884 2.97701,-12.57793 2.41948,-14.18777 -0.55744,-1.60067 2.17679,-11.161544 -6.19555,-14.363966 -8.38073,-3.190922 -50.87118,-3.926679 -58.03623,-1.418131 -0.0951,3.509481 0.11093,10.536517 -0.14276,11.710757 -0.25376,1.16507 0.74554,6.73219 1.57549,8.3413 0.83198,1.59995 1.09913,7.97358 0.91447,9.43414 -0.0766,0.60991 1.3381,11.06267 3.68336,15.09503 2.34517,4.0232 3.95059,10.35654 5.30301,14.08672 3.57974,9.90142 16.09139,7.42429 20.81804,4.77103 4.72034,-2.64635 12.01022,-10.4821 14.07794,-12.39471 1.93486,-1.79535 4.4273,-5.00873 6.25819,-7.1797" />
  <path
     inkscape:connector-curvature="0"
     style="fill:none;stroke:#1e1d1d;stroke-width:0.24987258;stroke-miterlimit:4;stroke-dasharray:none"
     id="path5337-6"
     d="m 309.90677,137.48618 c 1.82236,-2.17096 7.05412,-9.20579 9.30756,-13.89465 2.25344,-4.68884 2.97701,-12.57793 2.41948,-14.18777 -0.55744,-1.60067 2.17679,-11.161544 -6.19555,-14.363966 -8.38073,-3.190922 -50.87118,-3.926679 -58.03623,-1.418131 -0.0951,3.509481 0.11093,10.536517 -0.14276,11.710757 -0.25376,1.16507 0.74554,6.73219 1.57549,8.3413 0.83198,1.59995 1.09913,7.97358 0.91447,9.43414 -0.0766,0.60991 1.3381,11.06267 3.68336,15.09503 2.34517,4.0232 3.95059,10.35654 5.30301,14.08672 3.57974,9.90142 16.09139,7.42429 20.81804,4.77103 4.72034,-2.64635 12.01022,-10.4821 14.07794,-12.39471 1.93486,-1.79535 4.4273,-5.00873 6.25819,-7.1797 l 0.017,3.3e-4 z" />
  <path
     inkscape:connector-curvature="0"
     style="fill:#ffd396;fill-opacity:1;fill-rule:evenodd;stroke:none"
     id="path5339-0"
     d="m 259.10981,116.75357 c 1.32698,-0.90896 2.4352,-1.57436 5.60524,-2.08488 3.16153,-0.50821 5.58653,-0.82877 7.28897,3.80357 -2.12575,0.23952 -2.56368,1.29737 -3.72129,1.71994 -1.12787,0.41562 -3.70921,1.45174 -5.75845,-1.14885 -1.32242,-1.688 -3.4821,-2.24604 -3.40595,-2.2898" />
  <path
     inkscape:connector-curvature="0"
     style="fill:#ffd396;fill-opacity:1;fill-rule:evenodd;stroke:none"
     id="path5341-9"
     d="m 285.30489,117.57684 c -0.19502,0.27788 2.59955,-4.96713 7.82883,-4.35319 5.21851,0.60249 9.88512,0.93831 11.30971,1.21411 1.41597,0.26435 -2.31856,0.12077 -4.13342,2.19552 -1.81489,2.07237 -3.7561,4.07403 -8.68118,3.03983 -4.43894,-1.55353 -3.60379,-2.0761 -6.31551,-2.10546" />
  <path
     inkscape:connector-curvature="0"
     style="fill:#ffd396;fill-opacity:1;fill-rule:evenodd;stroke:none"
     id="path5343-5"
     d="m 259.72159,114.21686 c 1.67353,0.0666 3.01073,0.12717 5.60192,-0.17556 2.58267,-0.30265 5.25608,0.93476 5.57981,5.60749 -1.82352,-0.97152 -2.69321,0.115 -3.95363,0.26965 -1.25416,0.14776 -3.58054,0.33286 -4.74174,-2.61852 -0.75228,-1.91418 -2.55244,-3.09206 -2.47785,-3.08308" />
  <path
     inkscape:connector-curvature="0"
     style="fill:#ffd396;fill-opacity:1;fill-rule:evenodd;stroke:none"
     id="path5345-8-2"
     d="m 286.37928,118.55038 c -0.12889,0.29604 0.34098,-4.80975 6.8459,-5.12986 6.50712,-0.31324 9.44652,-1.50389 10.49276,-1.58694 1.04634,-0.0739 -2.02349,0.45243 -3.39416,2.87429 -1.37289,2.4127 -3.09175,4.91345 -7.44526,4.398 -4.3364,-0.50862 -3.98808,-1.38512 -6.49924,-0.55549" />
  <path
     inkscape:connector-curvature="0"
     style="fill:#ffffff;fill-opacity:1;fill-rule:evenodd;stroke:none;display:inline"
     id="path5349-1-7-0"
     d="m 310.33076,136.09586 c -1.16991,0.26218 -4.38408,3.21028 -6.50319,4.08242 -3.5345,1.46959 -9.02263,3.02114 -9.32388,5.13527 -0.37082,2.57962 -16.80562,1.7866 -17.64616,9.68516 -0.8469,7.89859 2.30991,13.17126 -4.33607,16.0635 -4.2117,1.83815 -25.57679,7.43336 -42.38185,14.19451 -10.71399,1.80069 -21.687,18.66047 -26.12471,23.48815 -4.44833,4.83002 -22.44691,26.47059 -28.13476,27.17587 -5.6878,0.71444 -18.59521,-9.72463 -37.93617,-25.00205 l 0.8485,2.07258 c -10.39754,-2.10361 -9.36109,-11.99045 -8.35635,2.1812 8.14626,9.4238 25.26072,29.75413 33.46602,39.12504 2.97702,3.39346 -3.39207,1.9013 18.11972,-3.0366 11.22848,-2.58079 18.10818,-4.34459 32.97843,-15.91026 10.17591,-18.80429 11.96249,-9.16708 17.56674,-4.14586 1.08855,3.21982 -7.33529,8.82908 -5.52968,14.81237 10.30394,10.747 29.43567,1.2842 36.76966,8.15659 -3.69055,4.3754 -10.85871,7.85491 -33.8157,6.85171 4.73629,14.8701 5.90929,44.50716 1.39899,58.39971 1.88235,23.39079 34.18806,35.08223 50.25725,29.4824 0.67075,-0.19313 10.87464,3.28344 32.8704,-7.19486 4.741,-20.38123 1.84332,-3.89914 -1.45004,-12.45308 -1.4526,-4.55278 -1.12042,-27.64777 -1.12042,-27.64777 6.85907,-24.42065 8.2386,-27.26038 13.72601,-32.13035 -4.6646,0.8295 -28.61372,-5.58414 -34.15608,-8.09319 -7.68994,-3.48123 -1.4403,-8.12862 -0.66743,-10.46121 4.9893,4.01073 13.10083,8.95801 36.01349,10.47282 12.25305,-8.02659 10.7453,-25.35378 9.06792,-37.7432 12.32918,26.50246 29.60309,31.75108 40.95685,40.18061 -1.27265,3.03819 -24.70608,40.75447 -28.35075,46.10948 -1.34152,1.95648 -4.34376,6.06709 -4.34375,6.0671 -2.02425,2.19987 -11.12449,10.53084 -15.18019,13.96639 l 13.96647,4.47085 c 2.93295,-2.1385 0.40973,-6.65203 3.78426,-9.27942 6.06905,-4.72663 16.08562,-14.45972 19.15801,-17.97723 23.20558,-26.60057 14.01919,-18.89022 20.63536,-26.23135 6.98436,-7.74554 7.42489,-10.80475 -0.20618,-23.24861 -2.9987,-6.06142 -19.56577,-34.98677 -22.7224,-40.27762 -12.99056,-21.7858 -17.27857,-25.31068 -31.77258,-35.2537 -22.80327,-15.64401 -24.57011,-7.73818 -28.56217,-19.60969 -2.3774,-7.08536 6.84085,-18.97507 7.03644,-26.47768 z" />
  <path
     inkscape:connector-curvature="0"
     style="fill:none;stroke:#7f7f7f;stroke-width:0.24987258;stroke-miterlimit:4;stroke-opacity:1;stroke-dasharray:none"
     id="path5357-5"
     d="m 309.90677,137.48618 c 1.82236,-2.17096 7.05412,-9.20579 9.30756,-13.89465 2.25344,-4.68884 2.97701,-12.57793 2.41948,-14.18777 -0.55744,-1.60067 -1.67905,-11.708141 -10.06837,-14.908195 -4.06105,-1.546632 -15.22656,-2.388603 -26.47237,-2.560019 -1.39411,-0.02133 -3.87038,-3.194803 -5.25357,-3.195507 -1.63246,-2.15e-4 -5.09564,-2.721017 -6.67226,-2.693417 -8.54425,0.149564 -13.01688,6.610997 -15.77374,7.575066 -0.0949,3.509478 0.11094,10.536512 -0.14275,11.710762 -0.25376,1.16507 0.74555,6.73218 1.5755,8.34129 0.83197,1.59995 1.09914,7.97358 0.91448,9.43415 -0.0766,0.60991 1.3381,11.06266 3.68335,15.09503 2.3473,4.02318 3.95059,10.35653 5.30302,14.08671 3.57972,9.90142 16.09137,7.42429 20.81801,4.77103 4.72035,-2.64636 12.01025,-10.48211 14.07797,-12.3947 1.93486,-1.79537 4.42729,-5.00874 6.26032,-7.17972" />
  <path
     inkscape:connector-curvature="0"
     style="fill:#f6f6f6;fill-opacity:1;fill-rule:evenodd;stroke:none;display:inline"
     id="path5357-4-2"
     d="m 311.1822,138.29772 c 1.82236,-2.17097 7.05411,-9.20578 9.30757,-13.89464 2.25344,-4.68884 2.977,-12.57793 2.41946,-14.18778 -0.55743,-1.60067 -1.67904,-11.708134 -10.06836,-14.908189 -4.06106,-1.546632 -15.22656,-2.388603 -26.47237,-2.56002 -1.39411,-0.02133 -3.87038,-3.194803 -5.25357,-3.195506 -1.63245,-2.12e-4 -5.09564,-2.721017 -6.67227,-2.693416 -8.54424,0.149565 -13.01688,6.610997 -15.77373,7.575065 -0.0949,3.509478 0.11093,10.536516 -0.14275,11.710756 -0.25376,1.16507 -1.56138,6.40819 -0.73141,8.0173 0.83197,1.59995 1.82533,8.26059 1.64064,9.72116 -0.0766,0.60991 1.13372,10.72999 3.47897,14.76236 2.3473,4.02318 2.80908,11.33278 4.1615,15.06296 3.57973,9.90143 22.47509,8.26798 27.20173,5.61472 4.72035,-2.64635 11.73844,-9.58195 13.80616,-11.49454 1.93487,-1.79537 1.24201,-7.35918 3.07502,-9.53016" />
  <path
     inkscape:connector-curvature="0"
     style="fill:#ffffff;fill-opacity:1;fill-rule:evenodd;stroke:none;display:inline"
     id="path5357-4-0-4"
     d="m 304.50429,145.73469 c 1.27937,-1.66555 0.24055,-12.78911 5.74468,-15.51288 3.52574,-1.74476 0.83514,-13.44248 0.43107,-14.68817 -0.40395,-1.2386 -1.25511,-9.04641 -7.21828,-11.56314 -2.88658,-1.21639 -10.80401,-1.92848 -18.77462,-2.12344 -0.98809,-0.0243 -2.76065,-2.487491 -3.7409,-2.495744 -1.15688,-0.0092 -3.62632,-2.128645 -4.74349,-2.116103 -6.05426,0.06789 -9.18793,5.030247 -11.13628,5.759037 -0.0478,2.70829 -3.39594,5.8133 -3.56903,6.71824 -0.17331,0.89788 0.65713,6.24415 1.2543,7.49078 0.59851,1.23959 0.85378,6.50851 0.731,7.63482 -0.0508,0.47036 0.0941,8.10056 1.77904,11.22604 1.68588,3.11843 4.15974,10.88153 5.13895,13.76826 2.59203,7.66245 14.31936,6.62029 17.65424,4.5987 3.33049,-2.01632 12.82548,-6.12779 14.28017,-7.59254 1.3612,-1.37499 0.64613,0.0549 1.93307,-1.61058" />
  <path
     inkscape:connector-curvature="0"
     style="fill:#dddddd;fill-opacity:1;fill-rule:evenodd;stroke:#7f7f7f;stroke-width:0.19989808;stroke-opacity:1"
     id="path5367-8"
     d="m 283.12565,118.45995 c 2.70667,-4.57685 3.83664,-5.66782 9.38998,-5.08135 5.55326,0.57913 5.62403,1.1639 6.40935,1.20395 0.78536,0.0419 -0.1813,1.56105 -1.75189,2.78286 -1.57056,1.22363 -3.66968,4.35433 -7.99309,3.66555 -1.20747,-0.19112 -4.29231,-3.04538 -5.6545,-2.89137" />
  <path
     inkscape:connector-curvature="0"
     style="fill:#f6f6f6;fill-opacity:1;stroke:#7f7f7f;stroke-width:0.24987258;stroke-miterlimit:4;stroke-opacity:1;stroke-dasharray:none"
     id="path5371-8"
     d="m 279.96407,140.82508 c 2.29874,0.42241 0.88137,1.24532 1.99504,0.4905 0.42261,-0.28766 2.27927,-0.81985 3.94874,-0.12762 1.91954,0.79248 1.84532,1.1006 2.84886,0.8022 -0.37472,0.79637 0.26963,0.0582 -0.0821,0.6161 -0.35181,0.54646 -0.57514,0.76253 -2.34649,0.70312 -1.76273,-0.048 -3.41184,0.38511 -4.11908,0.32513 -0.6987,-0.06 -1.41576,-0.24601 -2.18992,-1.0049 -0.77209,-0.7612 0.323,-1.65191 0.323,-1.65191 l 0.522,0.11912 z" />
  <path
     inkscape:connector-curvature="0"
     style="fill:#ffffff;fill-opacity:1;fill-rule:evenodd;stroke:none"
     id="path5375-5"
     d="m 284.12194,117.59238 c -0.15605,0.22229 2.07963,-3.9737 6.26307,-3.48255 4.1748,0.48199 5.26851,0.63104 6.40817,0.85168 1.1328,0.21147 -0.3548,1.37955 -1.80864,2.85226 -2.67155,1.57189 -2.18899,2.28893 -6.13227,1.80448 -2.30319,-0.27984 -2.56108,-2.01706 -4.72358,-2.03322" />
  <path
     inkscape:connector-curvature="0"
     style="fill:none;stroke:#7f7f7f;stroke-width:0.24987258;stroke-miterlimit:4;stroke-opacity:1;stroke-dasharray:none"
     id="path5381-5"
     d="m 257.21977,111.08113 c 5.3761,-6.66619 14.6666,-8.00336 18.22654,-1.29528 -2.14492,-1.58034 -6.10301,-5.70314 -18.22654,1.29528 z" />
  <path
     inkscape:connector-curvature="0"
     style="fill:none;stroke:#7f7f7f;stroke-width:0.24987258;stroke-miterlimit:4;stroke-opacity:1;stroke-dasharray:none"
     id="path5385-0"
     d="m 310.30301,106.39041 c 1.58579,-0.18307 -4.42778,0.3145 -8.58993,-0.2198 -15.38532,-2.01681 -17.02328,-0.92678 -20.26911,4.31027 3.51046,-3.75247 5.61602,-4.69936 20.00529,-2.48274 3.44698,0.52704 5.5282,-0.91112 8.86238,-1.59858 l -0.009,-0.009 z" />
  <path
     inkscape:connector-curvature="0"
     style="fill:#000000;fill-opacity:1;fill-rule:evenodd;stroke:#7f7f7f;stroke-width:0.19989808;stroke-opacity:1"
     id="path5389-4"
     d="m 290.20074,114.33229 c 1.31407,0.28985 2.17977,1.65543 1.92702,3.03873 -0.25105,1.38326 -1.53234,2.26872 -2.85151,1.9789 -1.31408,-0.29169 -2.17978,-1.65728 -1.92703,-3.04056 0.25106,-1.38143 1.53234,-2.2669 2.85152,-1.97707" />
  <path
     inkscape:connector-curvature="0"
     style="fill:#008800;fill-opacity:1;fill-rule:evenodd;stroke:#00cc00;stroke-width:0.52254701;stroke-miterlimit:4;stroke-opacity:1;stroke-dasharray:none"
     id="path5391-2"
     d="m 328.9766,117.33907 c -0.2038,0.45667 7.5044,25.88284 23.51906,10.25104 16.00623,-15.62261 19.47865,-9.44559 26.29889,-8.31793 6.82241,1.12765 7.68386,2.496 18.50596,-0.96218 -3.79547,2.75847 -4.23722,1.83824 -8.00368,7.35404 -3.76654,5.50663 -9.08465,5.75477 -17.87733,-0.17642 -8.78198,-5.92889 -14.4511,1.40967 -16.74838,5.77546 -2.29095,4.35888 -14.7626,19.12846 -21.67682,2.8067 -0.56322,-1.33937 -1.75522,-4.79265 -2.87604,-10.98518 -0.71069,2.84871 0.40276,-1.97229 -2.25126,8.13387 -2.66244,10.1085 4.02228,18.78439 10.61318,17.73519 -14.57167,10.57839 -22.61526,-5.66927 -14.64887,-17.37362 6.31719,-6.42806 5.3726,-14.68166 5.17098,-14.22271" />
  <path
     inkscape:connector-curvature="0"
     style="fill:#f6f6f6;fill-opacity:1;fill-rule:evenodd;stroke:#7f7f7f;stroke-width:0.24987258;stroke-opacity:1"
     id="path5393-4"
     d="m 271.47716,133.92705 c 2.38176,-2.00284 3.03851,-1.27803 4.36439,-0.87819 2.14502,0.7804 3.32084,0.47237 5.01054,-0.1488 2.52695,-0.9466 3.67337,-0.20704 3.66674,-0.0282 0,0 -2.69305,0.93784 -3.71433,1.77493 -0.17097,0.33968 -2.57266,2.87206 -5.18139,0.49762 -1.45593,-1.63493 -4.13734,-1.20825 -4.13734,-1.20825 l -0.002,-0.16961" />
  <path
     inkscape:connector-curvature="0"
     style="fill:#008800;stroke:#00cc00;stroke-width:0.523;stroke-miterlimit:4;stroke-opacity:1;stroke-dasharray:none"
     id="path5395-9"
     d="m 285.87049,94.244442 c 0.58887,7.469258 5.38649,13.943808 12.23939,16.508948 5.88792,3.50691 11.49268,8.08071 11.86242,15.9178 3.20099,14.1942 1.441,32.79601 14.96471,41.61493 -3.10836,-13.14427 -7.34136,-33.45407 -0.22429,-31.78285 3.77882,-2.76699 5.53486,-7.57991 6.04984,-12.21095 4.6276,5.36505 13.75051,12.71325 19.84577,5.71472 5.10193,-5.59079 1.60695,-14.55023 5.26473,-20.41601 5.96961,-2.31543 12.30953,5.62388 18.25231,1.07346 4.24198,-2.8078 7.74115,-6.64785 11.14317,-10.4826 -5.88231,2.31228 -12.06941,1.76495 -17.0026,-2.279572 -9.37938,-5.147758 -18.3707,5.729742 -20.78547,14.459982 -1.33885,6.66356 -9.87055,2.30648 -12.87865,-0.66209 -5.66933,-4.33688 -8.59287,-14.158425 -15.35613,-17.712419 -4.4295,-3.00543 -6.8421,-6.976088 -12.22182,-5.126406 -2.06657,5.192067 -0.11661,13.963765 5.47708,16.007495 -7.29011,-0.59383 -7.65365,-10.342897 -5.35362,-15.974061 -9.82925,-18.276565 -25.89837,-9.576953 -21.47133,-5.998511 5.60508,3.579388 9.03846,8.971685 10.73938,13.615215 -0.68842,-3.329519 -11.12249,-16.968785 -15.99117,-14.542737 -1.80997,0.550613 -2.99431,3.714187 -0.82595,6.20004 3.27901,4.92477 5.64036,1.611188 6.2722,6.075616 z m 35.31504,14.627188 c 4.37002,0.75224 4.51347,7.39659 3.60042,10.13311 -0.0766,-3.58416 -2.2531,-8.23667 -3.60042,-10.13311 z" />
  <path
     inkscape:connector-curvature="0"
     style="fill:#008800;stroke:#00cc00;stroke-width:0.52254701;stroke-miterlimit:4;stroke-opacity:1;stroke-dasharray:none"
     id="path5399-0"
     d="m 272.41636,80.732914 c -6.62903,0.574075 -19.01142,6.956677 -16.55395,14.014453 0.0551,9.792063 -5.71757,8.550163 -8.38605,17.288003 -2.93874,10.30476 9.41073,22.31843 13.9187,25.46916 -2.58901,-9.41383 -0.96831,-5.10211 -1.37246,-15.05185 -7.19294,-21.73204 5.44181,-12.72836 9.07706,-18.26762 2.689,-2.9518 5.06456,-6.128441 5.17697,-10.078146 -0.0799,-2.265972 0.052,-2.625269 1.92794,-2.618477 1.54978,0.01121 3.00696,-0.208342 3.48881,-2.636849 -0.45087,0.02754 -0.72971,-1.409711 -1.01238,-2.814344 -0.6613,-0.890559 -0.86826,-2.694358 1.77982,-4.271508 -1.06705,-0.380342 -0.78193,-2.37439 -8.04443,-1.032824 z" />
  <path
     inkscape:connector-curvature="0"
     style="fill:#f6f6f6;fill-opacity:1;fill-rule:evenodd;stroke:#7f7f7f;stroke-width:0.52254701;stroke-miterlimit:4;stroke-opacity:1;stroke-dasharray:none;display:inline"
     id="path5425-0"
     d="m 333.17682,317.43124 c -2.95957,2.50702 -5.90944,4.12928 -8.09472,3.11888 -5.79807,-2.68675 -6.83036,-2.30769 -7.64262,-2.84414 -1.43583,0.27434 -8.24929,-0.78009 -9.50634,-1.71647 -1.49835,0.60229 -7.98339,0.0246 -9.2326,-0.16866 -0.40414,2.65077 5.29854,4.96568 8.72826,4.66075 1.76423,1.60659 3.01075,1.46507 6.38533,2.18942 2.01188,1.67928 3.67941,4.30837 4.06025,4.90563 0.37876,0.59949 -8.4834,3.45695 -8.77508,4.8628 -1.05485,0.0763 -6.70939,0.90348 -8.24957,2.38375 -1.23917,-0.0493 -4.92213,0.29886 -6.70989,1.91503 -1.11608,-0.28351 -5.86776,0.62107 -7.21903,2.45841 -0.0339,-2.3e-4 -1.64116,1.78601 -1.15562,2.01618 0.69305,0.33049 5.67872,-1.19422 7.2386,-0.60016 1.12307,-0.87174 4.20318,-0.55051 7.56916,-0.63985 2.46624,-1.05415 9.76132,-3.61342 10.25997,-3.55058 -0.13816,0.22271 0.70565,1.16844 2.22648,1.89094 -0.31423,0.0719 -1.33798,-0.55797 -2.35727,-0.34205 -3.36791,0.71735 -8.42181,3.56932 -8.59897,4.12678 -2.46609,-0.55032 -8.43875,1.95821 -8.61404,2.69443 -7.27099,0.33136 -9.77707,4.65515 -9.40111,4.78707 0.37601,0.13429 9.61966,-1.88083 11.05547,-1.34605 1.11507,-0.6219 5.37069,-1.20262 7.93367,-0.95052 1.38386,-1.16814 9.63014,-3.72897 11.42779,-4.40541 -0.3124,0.2438 2.75104,1.63837 2.18442,1.38778 -0.62649,-0.27567 -2.16257,-0.52773 -3.08994,-0.0691 -3.48051,1.7468 -8.33327,4.82141 -8.40164,5.40377 -0.62716,-0.33983 -6.54699,-0.33932 -8.33409,1.33873 -3.95275,-1.86886 -10.62463,1.25963 -10.27506,2.11821 0.15294,0.37552 1.19604,0.31753 2.0263,0.34297 1.25611,0.0402 2.92086,0.0217 2.5379,0.0318 -0.3913,0.0287 5.49882,0.12953 5.92448,0.33243 0.56816,0.19561 8.06242,-0.15411 8.93921,0.24689 0.87901,-0.19949 5.40878,-3.59364 12.18868,-5.49143 -0.16556,0.18832 0.60034,0.66334 1.04029,1.00373 -1.53246,-0.76904 -6.4895,3.5159 -6.67728,5.012 -0.42996,0.19829 -4.77475,0.81727 -5.56374,2.49266 -2.11145,-0.82636 -7.64773,0.95793 -8.14168,2.15118 -0.34318,0.55561 -1.40986,1.12573 0.013,1.23877 2.87984,0.43002 5.66633,-1.22939 8.59684,-0.83616 0.53121,-0.0816 4.94833,-2.22556 6.81859,-2.07017 0.8017,-0.46746 3.47685,-3.88913 6.90118,-4.7029 1.17164,-0.90854 4.18724,-4.14112 9.3579,-8.89055 4.71788,-4.33804 9.28937,-7.12975 14.22974,-10.73187 m -49.80621,16.40253 c -2.70563,-0.14703 -2.72257,-0.079 0,0 z" />
  <path
     inkscape:connector-curvature="0"
     style="fill:none;stroke:#7f7f7f;stroke-width:0.34836462;stroke-linecap:butt;stroke-linejoin:miter;stroke-miterlimit:4;stroke-opacity:1;stroke-dasharray:none"
     id="path5429-6"
     d="m 273.92842,112.3523 c 1.08629,6.86174 3.67918,14.0138 -0.92382,20.51793" />
  <path
     inkscape:connector-curvature="0"
     style="fill:#ffffff;fill-opacity:1;fill-rule:nonzero;stroke:none"
     id="rect4776-7"
     d="m 338.77595,322.03855 -23.87365,11.66053 10.50986,7.91608 19.47446,-13.85271 z" />
  <path
     inkscape:connector-curvature="0"
     style="fill:#dddddd;fill-opacity:1;fill-rule:evenodd;stroke:#7f7f7f;stroke-width:0.19989808;stroke-opacity:1;display:inline"
     id="path5367-8-4"
     d="m 258.16388,120.66727 c 2.70667,-4.57684 3.83665,-5.66781 9.39,-5.08135 5.55324,0.57913 5.62401,1.1639 6.40934,1.20396 0.78535,0.0419 -0.18131,1.56104 -1.75188,2.78286 -1.57057,1.22363 -3.66969,4.35433 -7.9931,3.66555 -1.20747,-0.19112 -4.29232,-3.04539 -5.6545,-2.89137" />
  <path
     inkscape:connector-curvature="0"
     style="fill:#ffffff;fill-opacity:1;fill-rule:evenodd;stroke:none;display:inline"
     id="path5375-5-8"
     d="m 260.69828,119.74144 c -0.1353,0.22048 1.79356,-3.94867 5.489,-3.41482 3.68773,0.5246 4.65405,0.6848 5.66168,0.91699 1.00146,0.22295 -0.2987,1.37466 -1.56606,2.83104 -2.34048,1.54292 -1.90739,2.26428 -5.39092,1.7396 -2.03462,-0.30332 -2.28002,-2.04164 -4.18783,-2.08008" />
  <path
     inkscape:connector-curvature="0"
     style="fill:#000000;fill-opacity:1;fill-rule:evenodd;stroke:#7f7f7f;stroke-width:0.19989808;stroke-opacity:1;display:inline"
     id="path5389-4-8"
     d="m 265.62973,116.53134 c 1.31407,0.28985 2.17976,1.65543 1.92701,3.03873 -0.25104,1.38327 -1.53232,2.26872 -2.8515,1.97891 -1.31407,-0.2917 -2.17979,-1.65728 -1.92703,-3.04057 0.25106,-1.38143 1.53234,-2.2669 2.85152,-1.97707" />
  <g
     id="g3098"
     transform="matrix(-0.60505234,-0.23234948,-0.23332432,0.60807046,380.31002,88.033513)"
     style="fill:#000000;stroke:#333333;stroke-width:3.07828116;stroke-miterlimit:4;stroke-opacity:1;stroke-dasharray:none">
    <rect
       y="294.16214"
       x="291.9859"
       height="332.22034"
       width="21.752522"
       id="rect3096"
       style="fill:#000000;fill-opacity:1;fill-rule:evenodd;stroke:#333333;stroke-width:3.07828116;stroke-miterlimit:4;stroke-opacity:1;stroke-dasharray:none" />
    <g
       transform="matrix(0.78530958,0.61910328,-0.61910328,0.78530958,667.03871,149.43675)"
       id="g4865"
       style="fill:#000000;stroke:#333333;stroke-width:3.07828116;stroke-miterlimit:4;stroke-opacity:1;stroke-dasharray:none">
      <path
         inkscape:connector-curvature="0"
         id="path12998"
         d="m -237.03397,314.69682 -7.10999,-9.88477 c -16.99737,-6.46938 -27.27298,7.2658 -52.45308,10.17034 -69.97579,-0.40137 -49.35331,-43.31659 -90.11888,-97.20583 -7.43023,1.15079 -3.6744,12.12995 -4.24754,19.30561 l -34.90559,-44.58435 c 64.70163,4.11932 70.73672,59.458 91.44628,88.28234 20.71267,28.82433 80.5229,6.05887 72.52955,-12.75311 l -87.42574,-111.10259 c -4.45539,2.17134 -6.09708,12.24043 -8.75097,19.46893 l -16.32152,-63.69992 58.08888,30.88347 c -7.7859,0.66463 -17.85945,-0.45179 -20.99827,3.82954 l 86.8994,111.504 c 16.34462,12.26696 52.83558,-40.27684 29.81603,-67.29564 -23.01798,-27.01725 -75.34815,-46.20629 -63.83719,-110.009488 l 34.90559,44.571858 c -7.10372,-1.1637 -16.86256,-7.4418 -19.76091,-0.50411 42.54608,52.4976 89.16485,42.76323 72.76815,110.79569 -8.85317,23.74852 -24.6494,30.43124 -22.44441,48.48457 l 7.89279,9.27251 z"
         style="fill:#000000;fill-opacity:1;stroke:#333333;stroke-width:3.07828116;stroke-linecap:round;stroke-linejoin:round;stroke-miterlimit:4;stroke-opacity:1;stroke-dasharray:none" />
      <rect
         id="rect4373"
         ry="3.7943165"
         transform="matrix(-0.79782387,0.6028906,0.60285221,0.79785288,0,0)"
         width="24.123009"
         stroke-miterlimit="4"
         y="134.93839"
         x="349.02756"
         height="26.49407"
         style="fill:#000000;fill-opacity:1;fill-rule:nonzero;stroke:#333333;stroke-width:3.07828116;stroke-linecap:round;stroke-linejoin:round;stroke-miterlimit:4;stroke-opacity:1;stroke-dasharray:none" />
      <rect
         id="rect4332"
         ry="12.932528"
         transform="matrix(-0.79350065,0.60856941,0.60854453,0.79351972,0,0)"
         width="43.107494"
         stroke-miterlimit="4"
         y="102.29749"
         x="341.50327"
         height="28.890274"
         style="fill:#000000;fill-opacity:1;fill-rule:nonzero;stroke:#333333;stroke-width:3.07828116;stroke-linecap:round;stroke-linejoin:round;stroke-miterlimit:4;stroke-opacity:1;stroke-dasharray:none" />
      <rect
         id="rect4290"
         ry="4.1774597"
         transform="matrix(-0.79350065,0.60856941,0.60854453,0.79351972,0,0)"
         width="42.510864"
         stroke-miterlimit="4"
         y="101.93085"
         x="341.91165"
         height="8.8137264"
         style="fill:#000000;fill-opacity:1;fill-rule:nonzero;stroke:#333333;stroke-width:3.07828116;stroke-linecap:round;stroke-linejoin:round;stroke-miterlimit:4;stroke-opacity:1;stroke-dasharray:none" />
      <rect
         id="rect4371"
         ry="3.7943153"
         transform="matrix(-0.79350065,0.60856941,0.60854453,0.79351972,0,0)"
         width="31.074881"
         stroke-miterlimit="4"
         y="130.72131"
         x="346.67462"
         height="8.7822132"
         style="fill:#000000;fill-opacity:1;fill-rule:nonzero;stroke:#333333;stroke-width:3.07828116;stroke-linecap:round;stroke-linejoin:round;stroke-miterlimit:4;stroke-opacity:1;stroke-dasharray:none" />
    </g>
  </g>
  <path
     inkscape:connector-curvature="0"
     style="fill:#f6f6f6;fill-opacity:1;fill-rule:evenodd;stroke:#7f7f7f;stroke-width:0.52254701;stroke-miterlimit:4;stroke-opacity:1;stroke-dasharray:none"
     id="path5363-6"
     d="m 112.99157,204.61445 c 3.00401,0.29673 3.22594,0.15174 3.22594,0.15174 0,0 3.27264,-5.92705 4.44723,-8.77702 -3.23094,1.79886 -5.46227,0.70465 -5.46227,0.70465 0,0 4.8731,0.13816 8.04418,-6.54043 2.11706,1.15868 7.19332,-2.24962 7.19332,-2.24962 0,0 3.68646,1.84437 6.94969,1.49405 0.67179,1.54765 5.44295,3.72833 5.44295,3.72833 0,0 4.42693,-0.39698 4.42693,-0.39698 0,0 -4.94136,-4.19497 -6.96067,-6.58019 -1.34716,0.004 -7.99088,-3.15531 -8.23327,-3.33571 -5.41186,1.65343 -7.71047,0.43336 -7.82679,0.50473 -0.10566,0.0644 5.07697,-0.30938 7.71886,-1.25627 1.75839,1.05192 8.03785,2.96952 8.46383,3.20217 4.95342,5.34098 11.14156,4.84982 11.14156,4.84982 0,0 -8.68699,-7.82012 -8.68699,-7.82012 0,0 -6.82504,-2.39061 -7.75831,-3.30263 -2.19902,0.3566 -5.61086,-0.67251 -5.71652,-0.60118 0,0 6.35487,0.38626 5.97586,-0.0344 -0.41743,-0.23038 4.40387,2.06476 7.5628,2.92495 4.65572,6.17384 11.60337,7.67935 11.60337,7.67935 0,0 -7.30263,-8.33502 -8.06444,-11.15455 -2.68598,-0.8156 -8.30425,-5.42824 -8.97473,-5.83899 -2.62499,0.12404 -8.50709,-1.0429 -8.50709,-1.0429 0,0 2.57921,-3.86686 2.60204,-6.34696 1.2308,0.0609 3.6147,-4.16306 3.76936,-4.43165 5.34455,-1.77933 7.62646,-7.60517 7.62646,-7.60517 0,0 -5.77676,2.36959 -11.11295,3.32604 -1.2189,1.06912 -7.23289,6.37552 -7.23289,6.37552 0,0 -1.55008,4.3821 -5.69841,8.39531 -0.13449,0.57338 -1.14231,4.30077 -7.40585,15.01722 -6.08585,8.79058 1.55467,18.89651 1.55467,18.89651" />
  <path
     d="m 264.81644,143.99923 c -0.2038,0.45667 7.5044,25.88284 23.51906,10.25104 16.00623,-15.62261 19.47865,-9.44559 26.29889,-8.31793 6.82241,1.12765 7.68386,2.496 18.50596,-0.96218 -3.79547,2.75847 -4.23722,1.83824 -8.00368,7.35404 -3.76654,5.50663 -9.08465,5.75477 -17.87733,-0.17642 -8.78198,-5.92889 -14.4511,1.40967 -16.74838,5.77546 -2.29095,4.35888 -14.7626,19.12846 -21.67682,2.8067 -0.56322,-1.33937 -1.75522,-4.79265 -2.87604,-10.98518 -0.71069,2.84871 0.40276,-1.97229 -2.25126,8.13387 -2.66244,10.1085 4.02228,18.78439 10.61318,17.73519 -14.57167,10.57839 -22.61526,-5.66927 -14.64887,-17.37362 6.31719,-6.42806 5.3726,-14.68166 5.17098,-14.22271"
     id="path6709"
     style="fill:#008800;fill-opacity:1;fill-rule:evenodd;stroke:#00cc00;stroke-width:0.52254701;stroke-miterlimit:4;stroke-opacity:1;stroke-dasharray:none"
     inkscape:connector-curvature="0" />
  <path
     inkscape:connector-curvature="0"
     style="fill:#00a000;fill-opacity:1;fill-rule:nonzero;stroke:none"
     d="m 460.90625,254.09375 c -0.21887,0.17816 -0.18546,0.29277 -0.0625,0.40625 0.0198,-0.13743 0.0429,-0.26856 0.0625,-0.40625 z m -0.0625,0.40625 c -8.61888,59.78155 -35.625,95.375 -35.625,95.375 -2.72296,3.87296 -7.42393,13.31344 -8.25,31.40625 -0.18792,4.11587 -4.30367,6.72083 -3.46875,12.03125 0.0249,0.15835 0.0371,0.31152 0.0625,0.46875 l 5.8125,-2.84375 9.84375,12.71875 L 440.625,393 l 3.5625,4.34375 c 0.10665,-0.0774 0.20526,-0.175 0.3125,-0.25 3.14392,-2.1986 3.99185,-9.274 6.75,-9.625 38.64032,-4.92909 57.53125,26.03125 57.53125,26.03125 0,0 0.41147,0.43401 -3.625,-16.0625 5.09002,-49.60803 -27.27489,-46.92358 -40.3125,-51.75 -1.21335,-4.67031 14.8409,-28.74992 -0.59375,-61.53125 -7.3076,-9.614 -2.4375,-29.3125 -2.4375,-29.3125 0,0 -0.70761,-0.10273 -0.96875,-0.34375 z"
     id="path6923" />
  <path
     inkscape:connector-curvature="0"
     style="fill:#00cc00;fill-opacity:1;fill-rule:nonzero;stroke:none"
     id="rect4950-3"
     d="m 456.02781,350.40818 c 9.4666,-21.2569 11.17183,-34.85598 1.46205,-57.88846 -4.59057,17.63146 -3.55683,34.17024 -19.31642,53.97154 -7.73773,8.97868 -14.67332,21.07553 -10.07126,30.26833 20.03785,-4.60475 23.15039,-0.90052 24.50376,3.80726 22.01682,-7.12246 35.75054,-2.24841 48.08719,11.45679 -6.20684,-9.09215 1.55569,-20.62629 -13.92878,-30.49467 -5.96563,-3.80192 -16.74332,-6.35026 -30.73654,-11.12079 z" />
  <path
     inkscape:connector-curvature="0"
     style="fill:#00cc00;fill-opacity:1;fill-rule:evenodd;stroke:#00cc00;stroke-width:0.24987258;stroke-opacity:1"
     id="path5243-8-1"
     d="m 410.86339,394.56455 c 4.06262,-4.27199 8.61152,-5.00855 8.61152,-5.00855 0,0 9.82716,4.12678 8.12458,18.48454 3.00005,-14.43231 13.92935,-16.19921 13.92935,-16.19921 0,0 3.77278,1.35135 6.30587,5.83933 -0.74464,0.43063 -1.46314,0.91619 -2.16422,1.43838 -2.00123,-3.09351 -4.56564,-4.08825 -4.56564,-4.08825 0,0 -8.88922,2.0823 -11.43178,14.07916 -0.0488,0.20415 -0.42711,2.08696 -0.94848,4.71972 -0.39124,-0.16857 -0.62621,-0.24815 -0.62621,-0.24815 0,0 -1.44971,0.37066 -3.39958,1.54948 0.51567,-3.7811 0.91105,-6.65645 0.91105,-6.65645 1.45928,-12.19794 -6.64633,-15.33689 -6.64633,-15.33689 0,0 -4.16089,0.39634 -7.53432,4.63205 -0.19426,-1.06532 -0.37148,-2.13066 -0.5486,-3.18685" />
  <path
     inkscape:connector-curvature="0"
     style="fill:#008800;fill-opacity:1;fill-rule:evenodd;stroke:#00cc00;stroke-width:0.52254701;stroke-miterlimit:4;stroke-opacity:1;stroke-dasharray:none"
     id="path3313"
     d="m 264.81644,143.99923 c -0.2038,0.45667 7.5044,25.88284 23.51906,10.25104 16.00623,-15.62261 19.47865,-9.44559 26.29889,-8.31793 6.82241,1.12765 7.68386,2.496 18.50596,-0.96218 -3.79547,2.75847 -4.23722,1.83824 -8.00368,7.35404 -3.76654,5.50663 -9.08465,5.75477 -17.87733,-0.17642 -8.78198,-5.92889 -14.4511,1.40967 -16.74838,5.77546 -2.29095,4.35888 -14.7626,19.12846 -21.67682,2.8067 -0.56322,-1.33937 -1.75522,-4.79265 -2.87604,-10.98518 -0.71069,2.84871 0.40276,-1.97229 -2.25126,8.13387 -2.66244,10.1085 4.02228,18.78439 10.61318,17.73519 -14.57167,10.57839 -22.61526,-5.66927 -14.64887,-17.37362 6.31719,-6.42806 5.3726,-14.68166 5.17098,-14.22271" />
  <use
     height="1052.3622"
     width="744.09448"
     y="0"
     x="0"
     style="fill:url(#rg-1);stroke:#000000;stroke-width:3"
     id="shine"
     xlink:href="#shield" />
</svg>
