<?xml version="1.0" encoding="UTF-8" standalone="no"?>
<!-- Created with Inkscape (http://www.inkscape.org/) -->

<svg
   xmlns:dc="http://purl.org/dc/elements/1.1/"
   xmlns:cc="http://creativecommons.org/ns#"
   xmlns:rdf="http://www.w3.org/1999/02/22-rdf-syntax-ns#"
   xmlns:svg="http://www.w3.org/2000/svg"
   xmlns="http://www.w3.org/2000/svg"
   xmlns:xlink="http://www.w3.org/1999/xlink"
   xmlns:sodipodi="http://sodipodi.sourceforge.net/DTD/sodipodi-0.dtd"
   xmlns:inkscape="http://www.inkscape.org/namespaces/inkscape"
   width="158.48541mm"
   height="174.12294mm"
   viewBox="0 0 158.48541 174.12294"
   version="1.1"
   id="svg8"
   inkscape:version="0.92.5 (2060ec1f9f, 2020-04-08)"
   sodipodi:docname="House Myre.svg">
  <defs
     id="defs2">
    <radialGradient
       r="405"
       cy="220"
       cx="220"
       gradientUnits="userSpaceOnUse"
       id="rg">
      <stop
         id="stop7"
         offset="0"
         style="stop-color:#fff;stop-opacity:.3" />
      <stop
         id="stop9"
         offset=".2"
         style="stop-color:#fff;stop-opacity:.2" />
      <stop
         id="stop11"
         offset=".6"
         style="stop-color:#666;stop-opacity:.1" />
      <stop
         id="stop13"
         offset="1"
         style="stop-color:#000;stop-opacity:.13" />
    </radialGradient>
    <clipPath
       id="clip-shield">
      <path
         d="m 2,2 v 257 c 0,286 298,398 298,398 0,0 298,-112 298,-398 V 2 Z"
         id="shield"
         inkscape:connector-curvature="0" />
    </clipPath>
    <radialGradient
       r="405"
       cy="220"
       cx="220"
       gradientUnits="userSpaceOnUse"
       id="rg-1">
      <stop
         id="stop7-7"
         offset="0"
         style="stop-color:#fff;stop-opacity:.3" />
      <stop
         id="stop9-4"
         offset=".2"
         style="stop-color:#fff;stop-opacity:.2" />
      <stop
         id="stop11-0"
         offset=".6"
         style="stop-color:#666;stop-opacity:.1" />
      <stop
         id="stop13-9"
         offset="1"
         style="stop-color:#000;stop-opacity:.13" />
    </radialGradient>
    <radialGradient
       r="405"
       cy="220"
       cx="220"
       gradientUnits="userSpaceOnUse"
       id="radialGradient3182">
      <stop
         id="stop3184"
         offset="0"
         style="stop-color:#fff;stop-opacity:.3" />
      <stop
         id="stop3186"
         offset=".2"
         style="stop-color:#fff;stop-opacity:.2" />
      <stop
         id="stop3188"
         offset=".6"
         style="stop-color:#666;stop-opacity:.1" />
      <stop
         id="stop3190"
         offset="1"
         style="stop-color:#000;stop-opacity:.13" />
    </radialGradient>
    <radialGradient
       id="rg-6"
       gradientUnits="userSpaceOnUse"
       cx="220"
       cy="220"
       r="405">
      <stop
         style="stop-color:#fff;stop-opacity:.3"
         offset="0"
         id="stop3024" />
      <stop
         style="stop-color:#fff;stop-opacity:.2"
         offset=".2"
         id="stop3026" />
      <stop
         style="stop-color:#666;stop-opacity:.1"
         offset=".6"
         id="stop3028" />
      <stop
         style="stop-color:#000;stop-opacity:.13"
         offset="1"
         id="stop3030" />
    </radialGradient>
    <clipPath
       id="clip-shield-9">
      <path
         id="shield-7"
         d="m 2,2 v 257 c 0,286 298,398 298,398 0,0 298,-112 298,-398 V 2 Z"
         inkscape:connector-curvature="0" />
    </clipPath>
    <radialGradient
       id="rg-9"
       gradientUnits="userSpaceOnUse"
       cx="220"
       cy="220"
       r="405">
      <stop
         style="stop-color:#fff;stop-opacity:.3"
         offset="0"
         id="stop2609" />
      <stop
         style="stop-color:#fff;stop-opacity:.2"
         offset=".2"
         id="stop2611" />
      <stop
         style="stop-color:#666;stop-opacity:.1"
         offset=".6"
         id="stop2613" />
      <stop
         style="stop-color:#000;stop-opacity:.13"
         offset="1"
         id="stop2615" />
    </radialGradient>
    <circle
       id="shield-2"
       cx="300"
       cy="300"
       r="298" />
    <path
       style="fill:none;stroke:#ffffff;stroke-width:5;stroke-linecap:round"
       inkscape:connector-curvature="0"
       id="tail2"
       d="m 110,300 a 400,400 0 0 1 390,0" />
    <path
       style="fill:none;stroke:#ffffff;stroke-width:5;stroke-linecap:round"
       inkscape:connector-curvature="0"
       id="tail3"
       d="m 120,300 a 400,400 0 0 1 380,0" />
    <path
       style="fill:none;stroke:#ffffff;stroke-width:5;stroke-linecap:round"
       inkscape:connector-curvature="0"
       id="tail4"
       d="m 130,300 a 400,400 0 0 1 370,0" />
  </defs>
  <sodipodi:namedview
     id="base"
     pagecolor="#ffffff"
     bordercolor="#666666"
     borderopacity="1.0"
     inkscape:pageopacity="0.0"
     inkscape:pageshadow="2"
     inkscape:zoom="0.7"
     inkscape:cx="212.44005"
     inkscape:cy="278.4046"
     inkscape:document-units="mm"
     inkscape:current-layer="layer1"
     showgrid="false"
     inkscape:snap-global="true"
     inkscape:window-width="1920"
     inkscape:window-height="1001"
     inkscape:window-x="-9"
     inkscape:window-y="-9"
     inkscape:window-maximized="1" />
  <metadata
     id="metadata5">
    <rdf:RDF>
      <cc:Work
         rdf:about="">
        <dc:format>image/svg+xml</dc:format>
        <dc:type
           rdf:resource="http://purl.org/dc/dcmitype/StillImage" />
        <dc:title></dc:title>
      </cc:Work>
    </rdf:RDF>
  </metadata>
  <g
     inkscape:label="Layer 1"
     inkscape:groupmode="layer"
     id="layer1"
     transform="translate(82.18267,-93.409014)">
    <g
       id="g1698">
      <use
         transform="matrix(0.26458333,0,0,0.26458333,-82.314962,93.276726)"
         id="use4261"
         xlink:href="#shield"
         style="fill:#ececec"
         x="0"
         y="0"
         width="744.09448"
         height="1052.3622" />
      <path
         id="path4283"
         d="m -81.785795,93.805893 v 67.997917 c 0,75.67083 78.845832,105.30416 78.845832,105.30416 0,0 78.845832,-29.63333 78.845832,-105.30416 V 93.805893 Z m 25.929166,25.929167 H 49.976703 v 42.06875 c 0,43.76364 -35.690333,67.73816 -52.916666,76.76999 -17.226333,-9.03183 -52.916666,-33.00635 -52.916666,-76.76999 z"
         style="fill:#9b0103;fill-opacity:1;stroke-width:0.26458332"
         inkscape:connector-curvature="0" />
      <path
         id="path4324"
         d="m -67.233921,108.16708 v 51.00717 c 0,53.0596 43.274898,82.12413 64.1603233,93.07444 C 17.811829,241.29838 61.086726,212.23385 61.086726,159.17425 v -51.00717 z m 12.004084,12.19152 H 49.082642 v 41.46421 c 0,43.13475 -35.177453,66.76526 -52.1562397,75.6673 -16.9787853,-8.90204 -52.1562393,-32.53255 -52.1562393,-75.6673 z"
         style="fill:#ececec;stroke-width:0.2607812"
         inkscape:connector-curvature="0" />
      <path
         inkscape:connector-curvature="0"
         id="path841"
         d="m -53.639428,152.36481 c -3.45308,-0.92859 -6.42046,-4.14237 -7.310295,-7.91733 -1.087052,-4.61161 0.353234,-8.62821 4.93038,-13.74963 0.757729,-0.84783 1.522991,-1.84211 1.700583,-2.2095 0.367363,-0.75999 0.502827,-0.7883 1.42279,-0.2974 l 0.662196,0.35335 -0.58933,1.03189 c -0.324138,0.56754 -1.243645,1.75225 -2.043355,2.63269 -1.753614,1.93065 -3.149348,3.98743 -3.887527,5.72871 -0.486561,1.14775 -0.546501,1.55052 -0.54372,3.6536 0.0036,2.69522 0.338035,3.83916 1.687149,5.77024 1.427634,2.04347 4.026009,3.47883 6.297622,3.47883 3.67849,0 6.203378,-3.08824 5.793743,-7.08646 -0.262683,-2.56393 -1.073058,-4.60193 -3.873618,-9.74171 -1.795507,-3.29523 -2.700856,-5.15555 -2.57181,-5.2846 0.03433,-0.0343 0.574003,0.16911 1.199331,0.45203 l 1.136961,0.5144 1.973779,3.63637 c 3.195046,5.88639 3.951891,8.04675 3.938149,11.24116 -0.0099,2.28629 -0.41832,3.69099 -1.512594,5.2016 -1.700297,2.34719 -5.251007,3.44138 -8.410434,2.59176 z m 1.684013,-23.99873 c -1.718497,-0.80884 -3.233197,-1.57946 -3.365996,-1.71249 -0.343079,-0.34367 -0.0642,-1.24642 0.433892,-1.40451 0.283224,-0.0899 1.451898,0.34647 3.647769,1.36202 1.777064,0.82185 3.346638,1.58022 3.487942,1.68525 0.326484,0.24265 0.332403,1.0106 0.01025,1.33272 -0.423229,0.42324 -0.995966,0.25158 -4.213884,-1.26299 z m 0.08503,-2.34316 c -2.764824,-1.26322 -3.471751,-1.66943 -3.567212,-2.04977 -0.14239,-0.56733 0.234317,-1.08562 0.789056,-1.08562 0.406887,0 5.820458,2.42449 6.699201,3.00026 0.569832,0.37337 0.541719,1.04061 -0.06059,1.43833 -0.36604,0.2417 -0.799026,0.0955 -3.860445,-1.3032 z m -0.0435,-2.34452 c -1.69566,-0.79241 -3.210624,-1.56416 -3.366586,-1.71501 -0.377245,-0.36489 -0.141878,-1.27186 0.372416,-1.43509 0.257957,-0.0819 1.602443,0.43492 3.853299,1.48113 2.856889,1.3279 3.46877,1.68833 3.524266,2.07595 0.08557,0.59761 -0.301019,1.06721 -0.863082,1.0484 -0.240505,-0.008 -1.824646,-0.66297 -3.520313,-1.45538 z m -0.05562,-2.37996 c -2.692757,-1.25527 -3.367844,-1.65322 -3.465658,-2.04294 -0.141024,-0.56189 0.224972,-1.09527 0.751554,-1.09527 0.384714,0 6.466734,2.73968 6.923413,3.1187 0.528699,0.43878 0.06067,1.63606 -0.622881,1.59353 -0.133233,-0.008 -1.747125,-0.7166 -3.586428,-1.57402 z m 1.597143,-3.14869 v -1.65477 l 0.770083,-0.32176 c 1.147206,-0.47933 2.872106,-0.25838 4.545463,0.58225 1.116094,0.56068 1.375919,0.78571 1.428028,1.23678 0.04568,0.39553 -0.06199,0.61866 -0.380861,0.78933 -0.368029,0.19696 -0.660247,0.14113 -1.697423,-0.32433 -2.345326,-1.05252 -3.816872,-0.79268 -4.152002,0.73316 -0.252267,1.14854 -0.513288,0.61933 -0.513288,-1.04066 z m -1.490135,0.81863 -0.770749,-0.4069 v -3.48918 -3.48918 h 0.924902 0.92491 v 3.90516 c 0,2.14784 -0.06937,3.90107 -0.154153,3.89607 -0.08478,-0.005 -0.500989,-0.19218 -0.92491,-0.41597 z"
         style="fill:#000000;stroke-width:0.20553476" />
      <path
         style="fill:#000000;stroke-width:0.20553476"
         d="m -21.871959,152.36481 c -3.45308,-0.92859 -6.42046,-4.14237 -7.310295,-7.91733 -1.087052,-4.61161 0.353234,-8.62821 4.93038,-13.74963 0.757729,-0.84783 1.522991,-1.84211 1.700583,-2.2095 0.367363,-0.75999 0.502827,-0.7883 1.42279,-0.2974 l 0.662196,0.35335 -0.58933,1.03189 c -0.324138,0.56754 -1.243645,1.75225 -2.043355,2.63269 -1.753614,1.93065 -3.149348,3.98743 -3.887527,5.72871 -0.486561,1.14775 -0.546501,1.55052 -0.54372,3.6536 0.0036,2.69522 0.338035,3.83916 1.687149,5.77024 1.427634,2.04347 4.026009,3.47883 6.297622,3.47883 3.67849,0 6.203378,-3.08824 5.793743,-7.08646 -0.262683,-2.56393 -1.073058,-4.60193 -3.873618,-9.74171 -1.795507,-3.29523 -2.700856,-5.15555 -2.57181,-5.2846 0.03433,-0.0343 0.574003,0.16911 1.199331,0.45203 l 1.136961,0.5144 1.973779,3.63637 c 3.195046,5.88639 3.951891,8.04675 3.938149,11.24116 -0.0099,2.28629 -0.41832,3.69099 -1.512594,5.2016 -1.700297,2.34719 -5.251007,3.44138 -8.410434,2.59176 z m 1.684013,-23.99873 c -1.718497,-0.80884 -3.233197,-1.57946 -3.365996,-1.71249 -0.343079,-0.34367 -0.0642,-1.24642 0.433892,-1.40451 0.283224,-0.0899 1.451898,0.34647 3.647769,1.36202 1.777064,0.82185 3.346638,1.58022 3.487942,1.68525 0.326484,0.24265 0.332403,1.0106 0.01025,1.33272 -0.423229,0.42324 -0.995966,0.25158 -4.213884,-1.26299 z m 0.08503,-2.34316 c -2.764824,-1.26322 -3.471751,-1.66943 -3.567212,-2.04977 -0.14239,-0.56733 0.234317,-1.08562 0.789056,-1.08562 0.406887,0 5.820458,2.42449 6.699201,3.00026 0.569832,0.37337 0.541719,1.04061 -0.06059,1.43833 -0.36604,0.2417 -0.799026,0.0955 -3.860445,-1.3032 z m -0.0435,-2.34452 c -1.69566,-0.79241 -3.210624,-1.56416 -3.366586,-1.71501 -0.377245,-0.36489 -0.141878,-1.27186 0.372416,-1.43509 0.257957,-0.0819 1.602443,0.43492 3.853299,1.48113 2.856889,1.3279 3.46877,1.68833 3.524266,2.07595 0.08557,0.59761 -0.301019,1.06721 -0.863082,1.0484 -0.240505,-0.008 -1.824646,-0.66297 -3.520313,-1.45538 z m -0.05562,-2.37996 c -2.692757,-1.25527 -3.367844,-1.65322 -3.465658,-2.04294 -0.141024,-0.56189 0.224972,-1.09527 0.751554,-1.09527 0.384714,0 6.466734,2.73968 6.923413,3.1187 0.528699,0.43878 0.06067,1.63606 -0.622881,1.59353 -0.133233,-0.008 -1.747125,-0.7166 -3.586428,-1.57402 z m 1.597143,-3.14869 v -1.65477 l 0.770083,-0.32176 c 1.147206,-0.47933 2.872106,-0.25838 4.545463,0.58225 1.116094,0.56068 1.375919,0.78571 1.428028,1.23678 0.04568,0.39553 -0.06199,0.61866 -0.380861,0.78933 -0.368029,0.19696 -0.660247,0.14113 -1.697423,-0.32433 -2.345326,-1.05252 -3.816872,-0.79268 -4.152002,0.73316 -0.252267,1.14854 -0.513288,0.61933 -0.513288,-1.04066 z m -1.490135,0.81863 -0.770749,-0.4069 v -3.48918 -3.48918 h 0.924902 0.92491 v 3.90516 c 0,2.14784 -0.06937,3.90107 -0.154153,3.89607 -0.08478,-0.005 -0.500989,-0.19218 -0.92491,-0.41597 z"
         id="path1655"
         inkscape:connector-curvature="0" />
      <path
         inkscape:connector-curvature="0"
         id="path1657"
         d="m 14.027128,152.36481 c -3.453081,-0.92859 -6.4204614,-4.14237 -7.3102964,-7.91733 -1.087052,-4.61161 0.353234,-8.62821 4.9303804,-13.74963 0.757729,-0.84783 1.522992,-1.84211 1.700584,-2.2095 0.367363,-0.75999 0.502827,-0.7883 1.422791,-0.2974 l 0.662196,0.35335 -0.58933,1.03189 c -0.324139,0.56754 -1.243646,1.75225 -2.043356,2.63269 -1.753615,1.93065 -3.1493494,3.98743 -3.8875284,5.72871 -0.486561,1.14775 -0.546501,1.55052 -0.54372,3.6536 0.0036,2.69522 0.338035,3.83916 1.6871494,5.77024 1.427634,2.04347 4.02601,3.47883 6.297624,3.47883 3.67849,0 6.203378,-3.08824 5.793743,-7.08646 -0.262683,-2.56393 -1.073058,-4.60193 -3.873618,-9.74171 -1.795507,-3.29523 -2.700856,-5.15555 -2.57181,-5.2846 0.03433,-0.0343 0.574003,0.16911 1.199331,0.45203 l 1.136961,0.5144 1.973779,3.63637 c 3.195046,5.88639 3.951891,8.04675 3.938149,11.24116 -0.0099,2.28629 -0.41832,3.69099 -1.512594,5.2016 -1.700297,2.34719 -5.251007,3.44138 -8.410435,2.59176 z m 1.684014,-23.99873 c -1.718498,-0.80884 -3.233199,-1.57946 -3.365998,-1.71249 -0.343079,-0.34367 -0.0642,-1.24642 0.433893,-1.40451 0.283224,-0.0899 1.451898,0.34647 3.64777,1.36202 1.777064,0.82185 3.346638,1.58022 3.487942,1.68525 0.326484,0.24265 0.332403,1.0106 0.01025,1.33272 -0.423229,0.42324 -0.995966,0.25158 -4.213884,-1.26299 z m 0.08503,-2.34316 c -2.764825,-1.26322 -3.471753,-1.66943 -3.567214,-2.04977 -0.14239,-0.56733 0.234317,-1.08562 0.789057,-1.08562 0.406887,0 5.820459,2.42449 6.699202,3.00026 0.569832,0.37337 0.541719,1.04061 -0.06059,1.43833 -0.36604,0.2417 -0.799026,0.0955 -3.860445,-1.3032 z m -0.0435,-2.34452 c -1.695661,-0.79241 -3.210626,-1.56416 -3.366588,-1.71501 -0.377245,-0.36489 -0.141878,-1.27186 0.372417,-1.43509 0.257957,-0.0819 1.602443,0.43492 3.8533,1.48113 2.856889,1.3279 3.46877,1.68833 3.524266,2.07595 0.08557,0.59761 -0.301019,1.06721 -0.863082,1.0484 -0.240505,-0.008 -1.824646,-0.66297 -3.520313,-1.45538 z m -0.05562,-2.37996 c -2.692758,-1.25527 -3.367846,-1.65322 -3.46566,-2.04294 -0.141024,-0.56189 0.224972,-1.09527 0.751555,-1.09527 0.384714,0 6.466735,2.73968 6.923414,3.1187 0.528699,0.43878 0.06067,1.63606 -0.622881,1.59353 -0.133233,-0.008 -1.747125,-0.7166 -3.586428,-1.57402 z m 1.597143,-3.14869 v -1.65477 l 0.770083,-0.32176 c 1.147206,-0.47933 2.872106,-0.25838 4.545463,0.58225 1.116094,0.56068 1.375919,0.78571 1.428028,1.23678 0.04568,0.39553 -0.06199,0.61866 -0.380861,0.78933 -0.368029,0.19696 -0.660247,0.14113 -1.697423,-0.32433 -2.345326,-1.05252 -3.816872,-0.79268 -4.152002,0.73316 -0.252267,1.14854 -0.513288,0.61933 -0.513288,-1.04066 z m -1.490135,0.81863 -0.770749,-0.4069 v -3.48918 -3.48918 h 0.924902 0.92491 v 3.90516 c 0,2.14784 -0.06937,3.90107 -0.154153,3.89607 -0.08478,-0.005 -0.500989,-0.19218 -0.92491,-0.41597 z"
         style="fill:#000000;stroke-width:0.20553476" />
      <path
         style="fill:#000000;stroke-width:0.20553476"
         d="m 46.222678,152.36481 c -3.45308,-0.92859 -6.42046,-4.14237 -7.310295,-7.91733 -1.087052,-4.61161 0.353234,-8.62821 4.93038,-13.74963 0.757729,-0.84783 1.522991,-1.84211 1.700583,-2.2095 0.367363,-0.75999 0.502827,-0.7883 1.42279,-0.2974 l 0.662196,0.35335 -0.58933,1.03189 c -0.324138,0.56754 -1.243645,1.75225 -2.043355,2.63269 -1.753614,1.93065 -3.149348,3.98743 -3.887527,5.72871 -0.486561,1.14775 -0.546501,1.55052 -0.54372,3.6536 0.0036,2.69522 0.338035,3.83916 1.687149,5.77024 1.427634,2.04347 4.026009,3.47883 6.297622,3.47883 3.67849,0 6.203378,-3.08824 5.793743,-7.08646 -0.262683,-2.56393 -1.073058,-4.60193 -3.873618,-9.74171 -1.795507,-3.29523 -2.700856,-5.15555 -2.57181,-5.2846 0.03433,-0.0343 0.574003,0.16911 1.199331,0.45203 l 1.136961,0.5144 1.973779,3.63637 c 3.195046,5.88639 3.951891,8.04675 3.938149,11.24116 -0.0099,2.28629 -0.41832,3.69099 -1.512594,5.2016 -1.700297,2.34719 -5.251007,3.44138 -8.410434,2.59176 z m 1.684013,-23.99873 c -1.718497,-0.80884 -3.233197,-1.57946 -3.365996,-1.71249 -0.343079,-0.34367 -0.0642,-1.24642 0.433892,-1.40451 0.283224,-0.0899 1.451898,0.34647 3.647769,1.36202 1.777064,0.82185 3.346638,1.58022 3.487942,1.68525 0.326484,0.24265 0.332403,1.0106 0.01025,1.33272 -0.423229,0.42324 -0.995966,0.25158 -4.213884,-1.26299 z m 0.08503,-2.34316 c -2.764824,-1.26322 -3.471751,-1.66943 -3.567212,-2.04977 -0.14239,-0.56733 0.234317,-1.08562 0.789056,-1.08562 0.406887,0 5.820458,2.42449 6.699201,3.00026 0.569832,0.37337 0.541719,1.04061 -0.06059,1.43833 -0.36604,0.2417 -0.799026,0.0955 -3.860445,-1.3032 z m -0.0435,-2.34452 c -1.69566,-0.79241 -3.210624,-1.56416 -3.366586,-1.71501 -0.377245,-0.36489 -0.141878,-1.27186 0.372416,-1.43509 0.257957,-0.0819 1.602443,0.43492 3.853299,1.48113 2.856889,1.3279 3.46877,1.68833 3.524266,2.07595 0.08557,0.59761 -0.301019,1.06721 -0.863082,1.0484 -0.240505,-0.008 -1.824646,-0.66297 -3.520313,-1.45538 z m -0.05562,-2.37996 c -2.692757,-1.25527 -3.367844,-1.65322 -3.465658,-2.04294 -0.141024,-0.56189 0.224972,-1.09527 0.751554,-1.09527 0.384714,0 6.466734,2.73968 6.923413,3.1187 0.528699,0.43878 0.06067,1.63606 -0.622881,1.59353 -0.133233,-0.008 -1.747125,-0.7166 -3.586428,-1.57402 z m 1.597143,-3.14869 v -1.65477 l 0.770083,-0.32176 c 1.147206,-0.47933 2.872106,-0.25838 4.545463,0.58225 1.116094,0.56068 1.375919,0.78571 1.428028,1.23678 0.04568,0.39553 -0.06199,0.61866 -0.380861,0.78933 -0.368029,0.19696 -0.660247,0.14113 -1.697423,-0.32433 -2.345326,-1.05252 -3.816872,-0.79268 -4.152002,0.73316 -0.252267,1.14854 -0.513288,0.61933 -0.513288,-1.04066 z m -1.490135,0.81863 -0.770749,-0.4069 v -3.48918 -3.48918 h 0.924902 0.92491 v 3.90516 c 0,2.14784 -0.06937,3.90107 -0.154153,3.89607 -0.08478,-0.005 -0.500989,-0.19218 -0.92491,-0.41597 z"
         id="path1659"
         inkscape:connector-curvature="0" />
      <path
         inkscape:connector-curvature="0"
         id="path1661"
         d="m 30.459148,184.16988 c -3.45308,-0.92859 -6.42046,-4.14237 -7.310295,-7.91733 -1.087052,-4.61161 0.353234,-8.62821 4.93038,-13.74963 0.757729,-0.84783 1.522991,-1.84211 1.700583,-2.2095 0.367363,-0.75999 0.502827,-0.7883 1.42279,-0.2974 l 0.662196,0.35335 -0.58933,1.03189 c -0.324138,0.56754 -1.243645,1.75225 -2.043355,2.63269 -1.753614,1.93065 -3.149348,3.98743 -3.887527,5.72871 -0.486561,1.14775 -0.546501,1.55052 -0.54372,3.6536 0.0036,2.69522 0.338035,3.83916 1.687149,5.77024 1.427634,2.04347 4.026009,3.47883 6.297622,3.47883 3.67849,0 6.203378,-3.08824 5.793743,-7.08646 -0.262683,-2.56393 -1.073058,-4.60193 -3.873618,-9.74171 -1.795507,-3.29523 -2.700856,-5.15555 -2.57181,-5.2846 0.03433,-0.0343 0.574003,0.16911 1.199331,0.45203 l 1.136961,0.5144 1.973779,3.63637 c 3.195046,5.88639 3.951891,8.04675 3.938149,11.24116 -0.0099,2.28629 -0.41832,3.69099 -1.512594,5.2016 -1.700297,2.34719 -5.251007,3.44138 -8.410434,2.59176 z m 1.684013,-23.99873 c -1.718497,-0.80884 -3.233197,-1.57946 -3.365996,-1.71249 -0.343079,-0.34367 -0.0642,-1.24642 0.433892,-1.40451 0.283224,-0.0899 1.451898,0.34647 3.647769,1.36202 1.777064,0.82185 3.346638,1.58022 3.487942,1.68525 0.326484,0.24265 0.332403,1.0106 0.01025,1.33272 -0.423229,0.42324 -0.995966,0.25158 -4.213884,-1.26299 z m 0.08503,-2.34316 c -2.764824,-1.26322 -3.471751,-1.66943 -3.567212,-2.04977 -0.14239,-0.56733 0.234317,-1.08562 0.789056,-1.08562 0.406887,0 5.820458,2.42449 6.699201,3.00026 0.569832,0.37337 0.541719,1.04061 -0.06059,1.43833 -0.36604,0.2417 -0.799026,0.0955 -3.860445,-1.3032 z m -0.0435,-2.34452 c -1.69566,-0.79241 -3.210624,-1.56416 -3.366586,-1.71501 -0.377245,-0.36489 -0.141878,-1.27186 0.372416,-1.43509 0.257957,-0.0819 1.602443,0.43492 3.853299,1.48113 2.856889,1.3279 3.46877,1.68833 3.524266,2.07595 0.08557,0.59761 -0.301019,1.06721 -0.863082,1.0484 -0.240505,-0.008 -1.824646,-0.66297 -3.520313,-1.45538 z m -0.05562,-2.37996 c -2.692757,-1.25527 -3.367844,-1.65322 -3.465658,-2.04294 -0.141024,-0.56189 0.224972,-1.09527 0.751554,-1.09527 0.384714,0 6.466734,2.73968 6.923413,3.1187 0.528699,0.43878 0.06067,1.63606 -0.622881,1.59353 -0.133233,-0.008 -1.747125,-0.7166 -3.586428,-1.57402 z m 1.597143,-3.14869 v -1.65477 l 0.770083,-0.32176 c 1.147206,-0.47933 2.872106,-0.25838 4.545463,0.58225 1.116094,0.56068 1.375919,0.78571 1.428028,1.23678 0.04568,0.39553 -0.06199,0.61866 -0.380861,0.78933 -0.368029,0.19696 -0.660247,0.14113 -1.697423,-0.32433 -2.345326,-1.05252 -3.816872,-0.79268 -4.152002,0.73316 -0.252267,1.14854 -0.513288,0.61933 -0.513288,-1.04066 z m -1.490135,0.81863 -0.770749,-0.4069 v -3.48918 -3.48918 h 0.924902 0.92491 v 3.90516 c 0,2.14784 -0.06937,3.90107 -0.154153,3.89607 -0.08478,-0.005 -0.500989,-0.19218 -0.92491,-0.41597 z"
         style="fill:#000000;stroke-width:0.20553476" />
      <path
         style="fill:#000000;stroke-width:0.20553476"
         d="m -4.911089,184.16988 c -3.4530802,-0.92859 -6.420459,-4.14237 -7.310294,-7.91733 -1.087052,-4.61161 0.353234,-8.62821 4.930379,-13.74963 0.757729,-0.84783 1.522991,-1.84211 1.700583,-2.2095 0.367363,-0.75999 0.502827,-0.7883 1.42279,-0.2974 l 0.662196,0.35335 -0.58933,1.03189 c -0.324138,0.56754 -1.243645,1.75225 -2.043355,2.63269 -1.7536142,1.93065 -3.1493476,3.98743 -3.887526,5.72871 -0.486561,1.14775 -0.546501,1.55052 -0.54372,3.6536 0.0036,2.69522 0.338035,3.83916 1.6871481,5.77024 1.4276344,2.04347 4.0260089,3.47883 6.2976219,3.47883 3.6784899,0 6.203378,-3.08824 5.793743,-7.08646 -0.262683,-2.56393 -1.073058,-4.60193 -3.87361803,-9.74171 -1.79550697,-3.29523 -2.70085597,-5.15555 -2.57180997,-5.2846 0.03433,-0.0343 0.574003,0.16911 1.199331,0.45203 l 1.13696097,0.5144 1.97377893,3.63637 c 3.1950461,5.88639 3.9518911,8.04675 3.9381491,11.24116 -0.0099,2.28629 -0.41832,3.69099 -1.512594,5.2016 -1.7002971,2.34719 -5.251007,3.44138 -8.410434,2.59176 z m 1.684013,-23.99873 c -1.718497,-0.80884 -3.233197,-1.57946 -3.365996,-1.71249 -0.343079,-0.34367 -0.0642,-1.24642 0.433892,-1.40451 0.283224,-0.0899 1.451898,0.34647 3.647769,1.36202 1.77706397,0.82185 3.34663783,1.58022 3.48794183,1.68525 0.32648397,0.24265 0.33240297,1.0106 0.01025,1.33272 -0.4232289,0.42324 -0.99596589,0.25158 -4.21388383,-1.26299 z m 0.08503,-2.34316 c -2.764824,-1.26322 -3.471751,-1.66943 -3.567212,-2.04977 -0.14239,-0.56733 0.234317,-1.08562 0.789056,-1.08562 0.406887,0 5.82045794,2.42449 6.69920083,3.00026 0.56983197,0.37337 0.54171897,1.04061 -0.06059,1.43833 -0.36603992,0.2417 -0.79902589,0.0955 -3.86044483,-1.3032 z m -0.0435,-2.34452 c -1.69566,-0.79241 -3.210624,-1.56416 -3.366586,-1.71501 -0.377245,-0.36489 -0.141878,-1.27186 0.372416,-1.43509 0.257957,-0.0819 1.602443,0.43492 3.853299,1.48113 2.85688893,1.3279 3.4687698,1.68833 3.5242658,2.07595 0.08557,0.59761 -0.30101897,1.06721 -0.86308189,1.0484 -0.240505,-0.008 -1.82464591,-0.66297 -3.52031291,-1.45538 z m -0.05562,-2.37996 c -2.692757,-1.25527 -3.367844,-1.65322 -3.465658,-2.04294 -0.141024,-0.56189 0.224972,-1.09527 0.751554,-1.09527 0.384714,0 6.46673393,2.73968 6.92341283,3.1187 0.52869897,0.43878 0.06067,1.63606 -0.62288092,1.59353 -0.133233,-0.008 -1.74712491,-0.7166 -3.58642791,-1.57402 z m 1.597143,-3.14869 v -1.65477 l 0.77008297,-0.32176 c 1.14720594,-0.47933 2.87210593,-0.25838 4.54546303,0.58225 1.116094,0.56068 1.375919,0.78571 1.428028,1.23678 0.04568,0.39553 -0.06199,0.61866 -0.380861,0.78933 -0.368029,0.19696 -0.660247,0.14113 -1.697423,-0.32433 -2.34532617,-1.05252 -3.81687203,-0.79268 -4.152002,0.73316 -0.252267,1.14854 -0.513288,0.61933 -0.513288,-1.04066 z m -1.490135,0.81863 -0.770749,-0.4069 v -3.48918 -3.48918 h 0.924902 0.92491 v 3.90516 c 0,2.14784 -0.06937,3.90107 -0.154153,3.89607 -0.08478,-0.005 -0.500989,-0.19218 -0.92491,-0.41597 z"
         id="path1663"
         inkscape:connector-curvature="0" />
      <path
         inkscape:connector-curvature="0"
         id="path1665"
         d="m -37.624745,184.16988 c -3.45308,-0.92859 -6.42046,-4.14237 -7.310295,-7.91733 -1.087052,-4.61161 0.353234,-8.62821 4.93038,-13.74963 0.757729,-0.84783 1.522991,-1.84211 1.700583,-2.2095 0.367363,-0.75999 0.502827,-0.7883 1.42279,-0.2974 l 0.662196,0.35335 -0.58933,1.03189 c -0.324138,0.56754 -1.243645,1.75225 -2.043355,2.63269 -1.753614,1.93065 -3.149348,3.98743 -3.887527,5.72871 -0.486561,1.14775 -0.546501,1.55052 -0.54372,3.6536 0.0036,2.69522 0.338035,3.83916 1.687149,5.77024 1.427634,2.04347 4.026009,3.47883 6.297622,3.47883 3.67849,0 6.203378,-3.08824 5.793743,-7.08646 -0.262683,-2.56393 -1.073058,-4.60193 -3.873618,-9.74171 -1.795507,-3.29523 -2.700856,-5.15555 -2.57181,-5.2846 0.03433,-0.0343 0.574003,0.16911 1.199331,0.45203 l 1.136961,0.5144 1.973779,3.63637 c 3.195046,5.88639 3.951891,8.04675 3.938149,11.24116 -0.0099,2.28629 -0.41832,3.69099 -1.512594,5.2016 -1.700297,2.34719 -5.251007,3.44138 -8.410434,2.59176 z m 1.684013,-23.99873 c -1.718497,-0.80884 -3.233197,-1.57946 -3.365996,-1.71249 -0.343079,-0.34367 -0.0642,-1.24642 0.433892,-1.40451 0.283224,-0.0899 1.451898,0.34647 3.647769,1.36202 1.777064,0.82185 3.346638,1.58022 3.487942,1.68525 0.326484,0.24265 0.332403,1.0106 0.01025,1.33272 -0.423229,0.42324 -0.995966,0.25158 -4.213884,-1.26299 z m 0.08503,-2.34316 c -2.764824,-1.26322 -3.471751,-1.66943 -3.567212,-2.04977 -0.14239,-0.56733 0.234317,-1.08562 0.789056,-1.08562 0.406887,0 5.820458,2.42449 6.699201,3.00026 0.569832,0.37337 0.541719,1.04061 -0.06059,1.43833 -0.36604,0.2417 -0.799026,0.0955 -3.860445,-1.3032 z m -0.0435,-2.34452 c -1.69566,-0.79241 -3.210624,-1.56416 -3.366586,-1.71501 -0.377245,-0.36489 -0.141878,-1.27186 0.372416,-1.43509 0.257957,-0.0819 1.602443,0.43492 3.853299,1.48113 2.856889,1.3279 3.46877,1.68833 3.524266,2.07595 0.08557,0.59761 -0.301019,1.06721 -0.863082,1.0484 -0.240505,-0.008 -1.824646,-0.66297 -3.520313,-1.45538 z m -0.05562,-2.37996 c -2.692757,-1.25527 -3.367844,-1.65322 -3.465658,-2.04294 -0.141024,-0.56189 0.224972,-1.09527 0.751554,-1.09527 0.384714,0 6.466734,2.73968 6.923413,3.1187 0.528699,0.43878 0.06067,1.63606 -0.622881,1.59353 -0.133233,-0.008 -1.747125,-0.7166 -3.586428,-1.57402 z m 1.597143,-3.14869 v -1.65477 l 0.770083,-0.32176 c 1.147206,-0.47933 2.872106,-0.25838 4.545463,0.58225 1.116094,0.56068 1.375919,0.78571 1.428028,1.23678 0.04568,0.39553 -0.06199,0.61866 -0.380861,0.78933 -0.368029,0.19696 -0.660247,0.14113 -1.697423,-0.32433 -2.345326,-1.05252 -3.816872,-0.79268 -4.152002,0.73316 -0.252267,1.14854 -0.513288,0.61933 -0.513288,-1.04066 z m -1.490135,0.81863 -0.770749,-0.4069 v -3.48918 -3.48918 h 0.924902 0.92491 v 3.90516 c 0,2.14784 -0.06937,3.90107 -0.154153,3.89607 -0.08478,-0.005 -0.500989,-0.19218 -0.92491,-0.41597 z"
         style="fill:#000000;stroke-width:0.20553476" />
      <path
         style="fill:#000000;stroke-width:0.20553476"
         d="m -21.871959,217.04404 c -3.45308,-0.92859 -6.42046,-4.14237 -7.310295,-7.91733 -1.087052,-4.61161 0.353234,-8.62821 4.93038,-13.74963 0.757729,-0.84783 1.522991,-1.84211 1.700583,-2.2095 0.367363,-0.75999 0.502827,-0.7883 1.42279,-0.2974 l 0.662196,0.35335 -0.58933,1.03189 c -0.324138,0.56754 -1.243645,1.75225 -2.043355,2.63269 -1.753614,1.93065 -3.149348,3.98743 -3.887527,5.72871 -0.486561,1.14775 -0.546501,1.55052 -0.54372,3.6536 0.0036,2.69522 0.338035,3.83916 1.687149,5.77024 1.427634,2.04347 4.026009,3.47883 6.297622,3.47883 3.67849,0 6.203378,-3.08824 5.793743,-7.08646 -0.262683,-2.56393 -1.073058,-4.60193 -3.873618,-9.74171 -1.795507,-3.29523 -2.700856,-5.15555 -2.57181,-5.2846 0.03433,-0.0343 0.574003,0.16911 1.199331,0.45203 l 1.136961,0.5144 1.973779,3.63637 c 3.195046,5.88639 3.951891,8.04675 3.938149,11.24116 -0.0099,2.28629 -0.41832,3.69099 -1.512594,5.2016 -1.700297,2.34719 -5.251007,3.44138 -8.410434,2.59176 z m 1.684013,-23.99873 c -1.718497,-0.80884 -3.233197,-1.57946 -3.365996,-1.71249 -0.343079,-0.34367 -0.0642,-1.24642 0.433892,-1.40451 0.283224,-0.0899 1.451898,0.34647 3.647769,1.36202 1.777064,0.82185 3.346638,1.58022 3.487942,1.68525 0.326484,0.24265 0.332403,1.0106 0.01025,1.33272 -0.423229,0.42324 -0.995966,0.25158 -4.213884,-1.26299 z m 0.08503,-2.34316 c -2.764824,-1.26322 -3.471751,-1.66943 -3.567212,-2.04977 -0.14239,-0.56733 0.234317,-1.08562 0.789056,-1.08562 0.406887,0 5.820458,2.42449 6.699201,3.00026 0.569832,0.37337 0.541719,1.04061 -0.06059,1.43833 -0.36604,0.2417 -0.799026,0.0955 -3.860445,-1.3032 z m -0.0435,-2.34452 c -1.69566,-0.79241 -3.210624,-1.56416 -3.366586,-1.71501 -0.377245,-0.36489 -0.141878,-1.27186 0.372416,-1.43509 0.257957,-0.0819 1.602443,0.43492 3.853299,1.48113 2.856889,1.3279 3.46877,1.68833 3.524266,2.07595 0.08557,0.59761 -0.301019,1.06721 -0.863082,1.0484 -0.240505,-0.008 -1.824646,-0.66297 -3.520313,-1.45538 z m -0.05562,-2.37996 c -2.692757,-1.25527 -3.367844,-1.65322 -3.465658,-2.04294 -0.141024,-0.56189 0.224972,-1.09527 0.751554,-1.09527 0.384714,0 6.466734,2.73968 6.923413,3.1187 0.528699,0.43878 0.06067,1.63606 -0.622881,1.59353 -0.133233,-0.008 -1.747125,-0.7166 -3.586428,-1.57402 z m 1.597143,-3.14869 v -1.65477 l 0.770083,-0.32176 c 1.147206,-0.47933 2.872106,-0.25838 4.545463,0.58225 1.116094,0.56068 1.375919,0.78571 1.428028,1.23678 0.04568,0.39553 -0.06199,0.61866 -0.380861,0.78933 -0.368029,0.19696 -0.660247,0.14113 -1.697423,-0.32433 -2.345326,-1.05252 -3.816872,-0.79268 -4.152002,0.73316 -0.252267,1.14854 -0.513288,0.61933 -0.513288,-1.04066 z m -1.490135,0.81863 -0.770749,-0.4069 v -3.48918 -3.48918 h 0.924902 0.92491 v 3.90516 c 0,2.14784 -0.06937,3.90107 -0.154153,3.89607 -0.08478,-0.005 -0.500989,-0.19218 -0.92491,-0.41597 z"
         id="path1667"
         inkscape:connector-curvature="0" />
      <path
         inkscape:connector-curvature="0"
         id="path1669"
         d="m 14.027443,217.04404 c -3.453082,-0.92859 -6.420462,-4.14237 -7.310297,-7.91733 -1.0870521,-4.61161 0.353234,-8.62821 4.930381,-13.74963 0.757729,-0.84783 1.522991,-1.84211 1.700584,-2.2095 0.367363,-0.75999 0.502827,-0.7883 1.422791,-0.2974 l 0.662196,0.35335 -0.58933,1.03189 c -0.324139,0.56754 -1.243646,1.75225 -2.043357,2.63269 -1.753615,1.93065 -3.149349,3.98743 -3.887528,5.72871 -0.486561,1.14775 -0.546501,1.55052 -0.54372,3.6536 0.0036,2.69522 0.338035,3.83916 1.687149,5.77024 1.427635,2.04347 4.026011,3.47883 6.297625,3.47883 3.67849,0 6.203378,-3.08824 5.793743,-7.08646 -0.262683,-2.56393 -1.073058,-4.60193 -3.873618,-9.74171 -1.795507,-3.29523 -2.700856,-5.15555 -2.57181,-5.2846 0.03433,-0.0343 0.574003,0.16911 1.199331,0.45203 l 1.136961,0.5144 1.973779,3.63637 c 3.195046,5.88639 3.951891,8.04675 3.938149,11.24116 -0.0099,2.28629 -0.41832,3.69099 -1.512594,5.2016 -1.700297,2.34719 -5.251007,3.44138 -8.410435,2.59176 z m 1.684014,-23.99873 c -1.718498,-0.80884 -3.233199,-1.57946 -3.365998,-1.71249 -0.343079,-0.34367 -0.0642,-1.24642 0.433892,-1.40451 0.283224,-0.0899 1.451899,0.34647 3.647771,1.36202 1.777064,0.82185 3.346638,1.58022 3.487942,1.68525 0.326484,0.24265 0.332403,1.0106 0.01025,1.33272 -0.423229,0.42324 -0.995966,0.25158 -4.213884,-1.26299 z m 0.08503,-2.34316 c -2.764826,-1.26322 -3.471753,-1.66943 -3.567214,-2.04977 -0.14239,-0.56733 0.234317,-1.08562 0.789056,-1.08562 0.406888,0 5.82046,2.42449 6.699203,3.00026 0.569832,0.37337 0.541719,1.04061 -0.06059,1.43833 -0.36604,0.2417 -0.799026,0.0955 -3.860445,-1.3032 z m -0.0435,-2.34452 c -1.695661,-0.79241 -3.210626,-1.56416 -3.366588,-1.71501 -0.377245,-0.36489 -0.141878,-1.27186 0.372416,-1.43509 0.257957,-0.0819 1.602444,0.43492 3.853301,1.48113 2.856889,1.3279 3.46877,1.68833 3.524266,2.07595 0.08557,0.59761 -0.301019,1.06721 -0.863082,1.0484 -0.240505,-0.008 -1.824646,-0.66297 -3.520313,-1.45538 z m -0.05562,-2.37996 c -2.692759,-1.25527 -3.367846,-1.65322 -3.46566,-2.04294 -0.141024,-0.56189 0.224972,-1.09527 0.751554,-1.09527 0.384715,0 6.466736,2.73968 6.923415,3.1187 0.528699,0.43878 0.06067,1.63606 -0.622881,1.59353 -0.133233,-0.008 -1.747125,-0.7166 -3.586428,-1.57402 z m 1.597143,-3.14869 v -1.65477 l 0.770083,-0.32176 c 1.147206,-0.47933 2.872106,-0.25838 4.545463,0.58225 1.116094,0.56068 1.375919,0.78571 1.428028,1.23678 0.04568,0.39553 -0.06199,0.61866 -0.380861,0.78933 -0.368029,0.19696 -0.660247,0.14113 -1.697423,-0.32433 -2.345326,-1.05252 -3.816872,-0.79268 -4.152002,0.73316 -0.252267,1.14854 -0.513288,0.61933 -0.513288,-1.04066 z m -1.490135,0.81863 -0.770749,-0.4069 v -3.48918 -3.48918 h 0.924902 0.92491 v 3.90516 c 0,2.14784 -0.06937,3.90107 -0.154153,3.89607 -0.08478,-0.005 -0.500989,-0.19218 -0.92491,-0.41597 z"
         style="fill:#000000;stroke-width:0.20553476" />
      <path
         style="fill:#000000;stroke-width:0.20553476"
         d="m -4.911089,244.82397 c -3.4530802,-0.92859 -6.420459,-4.14237 -7.310294,-7.91733 -1.087052,-4.61161 0.353234,-8.62821 4.9303792,-13.74963 0.7577287,-0.84783 1.5229908,-1.84211 1.7005828,-2.2095 0.367363,-0.75999 0.502827,-0.7883 1.4227902,-0.2974 l 0.662196,0.35335 -0.58933,1.03189 c -0.3241382,0.56754 -1.2436452,1.75225 -2.0433552,2.63269 -1.7536142,1.93065 -3.1493476,3.98743 -3.887526,5.72871 -0.486561,1.14775 -0.546501,1.55052 -0.54372,3.6536 0.0036,2.69522 0.338035,3.83916 1.6871481,5.77024 1.4276344,2.04347 4.0260089,3.47883 6.2976221,3.47883 3.6784899,0 6.203378,-3.08824 5.793743,-7.08646 -0.262683,-2.56393 -1.073058,-4.60193 -3.87361803,-9.74171 -1.79550697,-3.29523 -2.70085597,-5.15555 -2.57180997,-5.2846 0.03433,-0.0343 0.574003,0.16911 1.199331,0.45203 l 1.13696097,0.5144 1.97377893,3.63637 c 3.1950461,5.88639 3.9518911,8.04675 3.9381491,11.24116 -0.0099,2.28629 -0.41832,3.69099 -1.512594,5.2016 -1.7002971,2.34719 -5.251007,3.44138 -8.4104342,2.59176 z m 1.6840132,-23.99873 c -1.7184972,-0.80884 -3.2331973,-1.57946 -3.3659963,-1.71249 -0.3430787,-0.34367 -0.0642,-1.24642 0.4338921,-1.40451 0.283224,-0.0899 1.451898,0.34647 3.6477692,1.36202 1.77706397,0.82185 3.34663788,1.58022 3.48794188,1.68525 0.32648402,0.24265 0.33240302,1.0106 0.01025,1.33272 -0.42322897,0.42324 -0.99596594,0.25158 -4.21388388,-1.26299 z m 0.08503,-2.34316 c -2.7648242,-1.26322 -3.4717513,-1.66943 -3.5672123,-2.04977 -0.1423897,-0.56733 0.234317,-1.08562 0.7890561,-1.08562 0.406887,0 5.82045814,2.42449 6.69920108,3.00026 0.56983202,0.37337 0.54171902,1.04061 -0.06059,1.43833 -0.36603997,0.2417 -0.79902594,0.0955 -3.86044488,-1.3032 z m -0.0435,-2.34452 c -1.6956602,-0.79241 -3.2106243,-1.56416 -3.3665863,-1.71501 -0.3772447,-0.36489 -0.141878,-1.27186 0.3724161,-1.43509 0.257957,-0.0819 1.602443,0.43492 3.8532992,1.48113 2.85688891,1.3279 3.4687699,1.68833 3.5242659,2.07595 0.08557,0.59761 -0.30101902,1.06721 -0.86308199,1.0484 -0.240505,-0.008 -1.82464591,-0.66297 -3.52031291,-1.45538 z m -0.05562,-2.37996 c -2.6927572,-1.25527 -3.3678443,-1.65322 -3.4656583,-2.04294 -0.1410237,-0.56189 0.224972,-1.09527 0.7515541,-1.09527 0.384714,0 6.46673411,2.73968 6.92341308,3.1187 0.52869902,0.43878 0.06067,1.63606 -0.62288097,1.59353 -0.133233,-0.008 -1.74712491,-0.7166 -3.58642791,-1.57402 z m 1.597143,-3.14869 v -1.65477 l 0.77008297,-0.32176 c 1.14720594,-0.47933 2.87210593,-0.25838 4.54546303,0.58225 1.116094,0.56068 1.375919,0.78571 1.428028,1.23678 0.04568,0.39553 -0.06199,0.61866 -0.380861,0.78933 -0.368029,0.19696 -0.660247,0.14113 -1.697423,-0.32433 -2.34532612,-1.05252 -3.81687203,-0.79268 -4.152002,0.73316 -0.252267,1.14854 -0.513288,0.61933 -0.513288,-1.04066 z m -1.490135,0.81863 -0.770749,-0.4069 v -3.48918 -3.48918 h 0.924902 0.92491 v 3.90516 c 0,2.14784 -0.06937,3.90107 -0.154153,3.89607 -0.08478,-0.005 -0.500989,-0.19218 -0.92491,-0.41597 z"
         id="path1671"
         inkscape:connector-curvature="0" />
      <use
         transform="matrix(0.26458333,0,0,0.26458333,-82.314962,93.276722)"
         xlink:href="#shield"
         id="shine"
         style="fill:url(#rg-1);stroke:#000000;stroke-width:3"
         x="0"
         y="0"
         width="744.09448"
         height="1052.3622" />
    </g>
  </g>
</svg>
