<?xml version="1.0" encoding="UTF-8"?>
<svg xmlns="http://www.w3.org/2000/svg" xmlns:xlink="http://www.w3.org/1999/xlink" width="600" height="660">
<defs>
  <radialGradient id="rg" gradientUnits="userSpaceOnUse" cx="220" cy="220" r="405">
    <stop style="stop-color:#fff;stop-opacity:.3" offset="0"/>
    <stop style="stop-color:#fff;stop-opacity:.2" offset=".2"/>
    <stop style="stop-color:#666;stop-opacity:.1" offset=".6"/>
    <stop style="stop-color:#000;stop-opacity:.13" offset="1"/>
  </radialGradient>
  <path id="shield" d="m2,2v257c0,286 298,398 298,398c0,0 298-112 298-398V2z"/>
</defs>
<use id="background" xlink:href="#shield" fill="#faa"/>
<path fill="#ff0" d="m 300,75 c -13.62764,18.187994 -14.75884,37.35875 -11.35352,57.25586 3.37716,19.73229 1.86645,38.8898 -10.26367,55.75195 -6.02002,-22.34209 -17.30306,-37.32818 -32.10547,-47.33203 -17.67053,-11.94222 -27.06415,-27.58357 -32.36718,-48.533202 -5.63006,22.018582 0.63018,40.139372 11.39062,57.218752 6.27266,9.95622 10.8911,20.38344 12.6875,31.39062 L 225.81445,419.9707 c -2.42251,10.60279 -2.42308,20.79733 -0.51367,30.66797 4.0505,20.9394 -0.32676,38.65532 -11.39062,57.21875 19.55055,-11.58837 27.899,-28.84755 32.36718,-48.5332 4.43327,-19.53206 13.18821,-36.65901 30.86524,-47.5957 -2.9915,22.95001 1.65548,41.14416 11.5039,56.05273 C 300.40181,485.57665 303.1177,503.61578 300,525 c 13.62765,-18.18792 14.75894,-37.3216 11.35352,-57.21875 -3.37714,-19.73237 -1.83139,-38.92482 10.30078,-55.78906 6.02097,22.32989 17.27156,37.36889 32.06836,47.36914 17.67052,11.9423 27.06417,27.54654 32.36718,48.49609 5.63009,-22.01847 -0.63016,-40.10223 -11.39062,-57.18164 -10.6719,-16.93874 -16.59827,-35.26371 -11.8418,-55.48828 14.10915,18.33209 30.24351,27.88976 47.74414,31.4668 20.89548,4.27082 35.5797,15.11792 48.4961,32.44336 -3.22465,-22.49707 -15.96599,-36.83469 -32.44336,-48.4961 -16.34175,-11.56544 -28.79874,-26.22353 -32.14258,-46.72851 20.0466,11.53229 38.59264,14.21803 56.12695,10.82617 20.93937,-4.05056 38.65538,0.32681 57.21875,11.39062 -11.58846,-19.55061 -28.84744,-27.89903 -48.5332,-32.36718 -19.51602,-4.42962 -36.58273,-13.21471 -47.51953,-30.86524 22.91491,2.97174 41.08401,-1.66616 55.97656,-11.5039 C 485.57661,299.59818 503.61575,296.88229 525,300 c -18.18798,-13.62768 -37.32163,-14.75893 -57.21875,-11.35352 -19.73227,3.37716 -38.92488,1.83139 -55.78906,-10.30078 22.32977,-6.02102 37.36906,-17.27155 47.36914,-32.06836 11.94223,-17.67051 27.54651,-27.06417 48.49609,-32.36718 -22.01853,-5.63007 -40.10229,0.63016 -57.18164,11.39062 -16.93885,10.67188 -35.2637,16.59829 -55.48828,11.8418 18.33205,-14.10913 27.88978,-30.24354 31.4668,-47.74414 4.27096,-20.89551 15.11785,-35.57969 32.44336,-48.4961 -22.49706,3.22464 -36.83468,15.96599 -48.4961,32.44336 -11.56551,16.34174 -26.22356,28.7987 -46.72851,32.14258 11.53224,-20.04663 14.21803,-38.59264 10.82617,-56.12695 -4.05052,-20.9394 0.32683,-38.65535 11.39062,-57.218752 -19.55052,11.588442 -27.89902,28.847452 -32.36718,48.533202 -4.42738,19.50608 -13.1957,36.58202 -30.82813,47.51953 C 325.86492,165.2817 321.1913,147.1484 311.35352,132.25586 299.59819,114.46048 296.88225,96.384305 300,75 Z"/>
<circle cx="225" cy="300" r="120" stroke-width="3"/>
<use id="shine" xlink:href="#shield" fill="url(#rg)" stroke="#000" stroke-width="3"/>
</svg>