<?xml version="1.0" encoding="UTF-8"?>
<svg xmlns="http://www.w3.org/2000/svg" xmlns:xlink="http://www.w3.org/1999/xlink" width="600" height="660">
<defs>
  <radialGradient id="rg" gradientUnits="userSpaceOnUse" cx="220" cy="220" r="405">
    <stop style="stop-color:#fff;stop-opacity:.3" offset="0"/>
    <stop style="stop-color:#fff;stop-opacity:.2" offset=".2"/>
    <stop style="stop-color:#666;stop-opacity:.1" offset=".6"/>
    <stop style="stop-color:#000;stop-opacity:.13" offset="1"/>
  </radialGradient>
  <path id="shield" d="m2,2v257c0,286 298,398 298,398c0,0 298-112 298-398V2z"/>
</defs>
<use id="background" xlink:href="#shield" style="fill:#000000;"/>
<path style="fill:#cd7f32;" d="m 120.7,79.293 a 41.407,41.407 0 0 0 -41.407,41.407 41.407,41.407 0 0 0 20.707,35.8 v 0.1 a 41.407,41.407 0 0 0 -20.707,35.82 41.407,41.407 0 0 0 20.707,35.8 v 0.1 a 41.407,41.407 0 0 0 -20.707,35.82 41.407,41.407 0 0 0 20.757,35.83 41.407,41.407 0 0 0 -11.507,28.62 41.407,41.407 0 0 0 30.847,40.02 41.407,41.407 0 0 0 -5.66,20.79 41.407,41.407 0 0 0 39.41,41.34 41.407,41.407 0 0 0 -2.93,15.26 41.407,41.407 0 0 0 41.41,41.41 41.407,41.407 0 0 0 9.12,-1.06 41.407,41.407 0 0 0 -0.28,3.86 41.407,41.407 0 0 0 40.71,42.09 41.407,41.407 0 0 0 17.54,-3.63 41.407,41.407 0 0 0 41.29,38.36 41.407,41.407 0 0 0 41.25,-38.37 41.407,41.407 0 0 0 17.58,3.64 41.407,41.407 0 0 0 40.71,-42.09 41.407,41.407 0 0 0 -0.28,-3.86 41.407,41.407 0 0 0 9.12,1.06 41.407,41.407 0 0 0 41.41,-41.41 41.407,41.407 0 0 0 -2.93,-15.26 41.407,41.407 0 0 0 39.41,-41.34 41.407,41.407 0 0 0 -5.66,-20.79 41.407,41.407 0 0 0 30.85,-40.02 41.407,41.407 0 0 0 -11.51,-28.62 41.407,41.407 0 0 0 20.76,-35.83 41.407,41.407 0 0 0 -20.71,-35.82 v -0.1 a 41.407,41.407 0 0 0 20.71,-35.8 41.407,41.407 0 0 0 -20.71,-35.82 v -0.1 a 41.407,41.407 0 0 0 20.71,-35.8 41.407,41.407 0 0 0 -41.41,-41.407 41.407,41.407 0 0 0 -35.82,20.707 h -0.1 a 41.407,41.407 0 0 0 -35.8,-20.707 41.407,41.407 0 0 0 -35.82,20.707 h -0.1 a 41.407,41.407 0 0 0 -35.8,-20.707 41.407,41.407 0 0 0 -35.82,20.707 h -0.1 a 41.407,41.407 0 0 0 -35.8,-20.707 41.407,41.407 0 0 0 -35.82,20.707 h -0.1 a 41.407,41.407 0 0 0 -35.8,-20.707 41.407,41.407 0 0 0 -35.82,20.707 h -0.1 a 41.407,41.407 0 0 0 -35.82,-20.707 z"/>
<g id="horse">
    <path id="tongue" style="fill:#cc0000;" d="m 140.55,315.16 c 9.94,16.15 27.53,6.78 40.94,1.14 11.8,-4.91 41.03,-3.06 41.03,-3.06 l -6.01,-13.15 c 0,0 -23.01,-5.61 -37.08,2.97 -12.77,7.86 -23.09,17.53 -38.88,12.1 z"/>
    <path id="mane" style="fill:#cc0000;" d="m 406.82,403.62 c 2.8,3.74 8.53,17.55 9.14,21.04 0.73,3.55 3.56,5.49 5.66,6.43 5.72,2.54 14.13,-3.03 14.13,-3.03 0,0 -1.93,5.63 -5.96,9.41 -3.97,3.75 -9.07,5.82 -13.41,6.56 -10.09,1.67 -17.7,-3.79 -26.33,-8.65 -16.46,-8.89 -40.16,-33.02 -40.16,-33.02 l 19.82,-38.8 c -39.08,-38.59 52.15,-130.74 -34.26,-170.26 l -25.12,14.94 c -9.21,5.76 -20.74,-10.8 -31.39,-10.92 -10.77,0.25 -19.49,8.99 -29.1,9.67 -10.74,0.86 -23.22,4.66 -32.45,0.2 -4.4,-2.19 -10.55,-7.75 -10.55,-7.75 0,0 7.47,-1.16 11.77,-1.86 4.3,-0.48 10.03,-7 10.56,-10.78 1.64,-5.8 3.07,-11.78 5.82,-15.94 2.57,-6.01 9.46,-12.36 14.52,-14.52 9.25,-3.94 21.67,0 35.2,5.67 6.86,3.74 17.46,22.3 17.46,22.3 2.49,-56.35 25.22,-44.69 17.51,-66.31 11.7,9.55 24.53,27.82 22.98,42.73 0,0 11.44,-13.1 22.04,-15.25 8.35,-1.68 21.33,-0.97 27.4,4.18 5.85,4.61 8.82,11.08 15.75,15.11 3.43,2 6.84,3.55 12.24,4.36 -4.78,4.71 -8.97,6.49 -13.23,7.35 -7.22,1.55 -14.02,0.22 -20.13,3.18 -3.08,1.49 -4.73,5.46 -7.49,9.56 0,0 29.08,0.37 40.94,9.67 4.78,3.81 9.56,9.16 13.56,16.3 3.89,5.81 7,13.44 10.63,17.02 2.39,2.58 9.21,5.97 9.21,5.97 0,0 -8.19,3.2 -14.77,1.97 -4.48,-0.84 -13.65,-6.46 -18.05,-6.92 -6.51,-0.58 -15.71,3.84 -15.71,3.84 0,0 21.22,6.56 28.8,16.5 2.58,4.65 3.51,13.08 7.28,17.79 2.54,4.06 9.81,9.69 9.81,9.69 0,0 -5.07,3.8 -11.68,2.64 -4.47,-1.01 -10.31,-5.88 -14.83,-7.08 -3.31,-0.94 -12.88,0.13 -12.88,0.13 10.59,8.1 16.87,15.18 19.77,22.44 4.21,9.01 1.62,14.59 3.26,29.37 0.63,5.62 13.28,14.34 13.28,14.34 0,0 -13.68,6.49 -25.66,-3.88 -7.43,-6.43 -8.78,-12.45 -18.88,-11.66 2.86,5.37 9.25,8.65 8.29,19.83 -0.72,8.77 -8.31,9.39 -2.82,22.04 4.27,9.82 16.87,7.18 16.87,7.18 0,0 -4.98,7.65 -18.68,7.11 -5,-0.17 -19.74,-10.26 -19.74,-10.26 5.07,23.78 6.32,12.63 19.58,30.37 z"/>
    <path id="head" style="fill:#000000;" d="m 208.44,462.57 c -3.4,-51.87 15.46,-64.71 61.89,-122.64 11.44,-14.28 22.81,-32.99 13.92,-41.71 -13.09,2.34 -23.66,-4.76 -44.37,3.62 -8.52,3.46 -16.62,16.26 -23.55,20.43 -10.14,6.25 -21.82,8.69 -31.83,5.82 -2.17,-0.71 -4.78,-5.35 -4.78,-5.35 0,0 9.44,-2.2 14.51,-4.65 5.18,-2.83 9.88,-8.29 11.38,-13.59 0.84,-2.74 0.49,-5.9 0.22,-8.35 -4.22,-8.82 -29.25,-1.69 -48.91,5.75 -2.01,0.78 -5.41,-0.9 -7.77,-1.58 0,0 -2.84,-6.72 -1.23,-11.08 0.76,-3.48 4.58,-8.25 4.58,-8.25 0,0 0.31,-5.72 1.09,-9.04 0.69,-4.07 2.26,-8.78 5.29,-10.46 7.19,-3.64 12.23,-6.26 19.71,-7.28 13.66,-11.94 19.6,-16.59 30.86,-22.77 5.11,-12.3 16.6,-24.95 27.26,-35.06 9.74,-9.54 27.98,-19.83 41.94,-20.53 -8.8,-21.18 -4.96,-34.32 -4.42,-50.16 15.34,13.46 23.67,30.47 31.27,49.1 33.18,-1.85 52.89,11.48 68.68,27.18 31.77,32.87 37.88,87.91 8.15,150.32 -18.46,38.85 -18.56,51.54 8.48,83.99 -52.95,33.66 -124.77,39.54 -182.37,26.29 z"/>
    <path id="ear" style="fill:#cd7f32;" d="m 276.9,137.94 c 0,0 2.69,5.42 2.92,7.52 2.65,5 5.51,10.04 7.04,15.26 1.47,3.27 2.14,9.34 2.26,10.37 -1.95,1 -4.3,0.48 -7.61,-0.1 2.43,1.23 3.45,1.87 4.62,2.07 2.11,0.1 3.22,0.1 5.27,-0.26 l 1.14,-0.13 -0.1,-0.87 c 0,0 -1.99,-7.62 -3.35,-11.33 -1.74,-5.29 -4.45,-11.14 -7.25,-15.76 z"/>
    <path id="nose" style="fill:#cd7f32;" d="m 159.69,277.21 c 0,0 -0.69,-6.18 0.27,-7.8 0.96,-1.63 2.25,-1.96 3.92,-2.33 1.67,-0.38 4.31,-0.48 6.5,0.41 2.19,0.9 10.44,6.8 10.44,6.8 0,0 -12.92,3.33 -16.69,3.56 -3.77,0.23 -4.44,-0.64 -4.44,-0.64 z"/>
    <path id="nostril" style="fill:#000000;" d="m 161.79,275.65 c -1.12,-10.11 7.86,-6.18 12.51,-1.96 -3.98,1.77 -8.26,2.62 -12.51,1.96 z"/>
    <path id="sclera" style="fill:#ffffff;" d="m 223.33,229.77 c 1.13,4.99 9.86,11.8 18.4,10.09 8.52,-1.89 13.67,-11.94 12.73,-16.96 -1.33,-5.15 -8.06,-2.51 -16.58,-0.62 -8.5,2.08 -15.69,2.31 -14.55,7.49 z"/>
    <path id="iris" style="fill:#cc0000;" d="m 232.08,231.64 a 7.1374,6.8492 83.644 0 0 7.55,6.37 7.1374,6.8492 83.644 0 0 5.96,-7.87 7.1374,6.8492 83.644 0 0 -7.54,-6.36 7.1374,6.8492 83.644 0 0 -5.97,7.86 z"/>
    <path id="pupil" style="fill:#000000;" d="m 238.65,227.5 c 1.69,-0.18 3.52,0.94 3.75,3 0.23,2.06 -1.31,3.56 -3,3.74 -2.07,0.23 -3.9,-0.89 -4.13,-2.95 -0.23,-2.06 1.32,-3.56 3.38,-3.79 z"/>
    <path id="reflection" style="fill:#ffffff;" d="m 236.48,226.8 c 1.13,-0.13 2.38,0.87 2.52,2.18 0.17,1.5 -0.85,2.56 -1.98,2.68 -1.5,0.17 -2.73,-0.64 -2.89,-2.14 -0.15,-1.31 0.85,-2.56 2.35,-2.72 z"/>
</g>
<use id="shine" xlink:href="#shield" style="fill:url(#rg);stroke:#000000;stroke-width:3;"/>
</svg>
