<?xml version="1.0" encoding="UTF-8"?>
<svg xmlns="http://www.w3.org/2000/svg" xmlns:xlink="http://www.w3.org/1999/xlink" width="600" height="660">
<defs>
  <radialGradient id="rg" gradientUnits="userSpaceOnUse" cx="220" cy="220" r="405">
    <stop style="stop-color:#ffffff;stop-opacity:.3" offset="0"/>
    <stop style="stop-color:#ffffff;stop-opacity:.2" offset=".2"/>
    <stop style="stop-color:#666666;stop-opacity:.1" offset=".6"/>
    <stop style="stop-color:#000000;stop-opacity:.13" offset="1"/>
  </radialGradient>
  <pattern id="stars" patternUnits="userSpaceOnUse" x="30" y="30" width="120" height="120">
    <g id="star" style="fill:#ffffff;">
      <path d="m0,-30 l3,27 l27,3 l-27,3 l-3,27 l-3,-27 l-27,-3 l27,-3z"/>
      <path d="m -16,-16 l 16,13 l 16,-13 l -13,16 l 13,16 l -16,-13 l -16,13 l 13,-16 z"/>
    </g>
    <use xlink:href="#star" transform="translate(120,0)"/>
    <use xlink:href="#star" transform="translate(60,60)"/>
    <use xlink:href="#star" transform="translate(0,120)"/>
    <use xlink:href="#star" transform="translate(120,120)"/>
  </pattern>
  <path id="shield" d="m2,2v257c0,286 298,398 298,398c0,0 298-112 298-398V2z"/>
</defs>
<use id="field" xlink:href="#shield" style="fill:#330088;"/>
<use xlink:href="#shield" style="fill:url(#stars);"/>
<path style="fill:#ffff00;" d="m 300,2 0,655 c 0,0 298,-112 298,-398 L 598,2 300,2 z"/>
<path style="fill:#ff6600;" d="m 450,156.37502 c -8.24472,11.00374 -8.92902,22.60191 -6.8688,34.63965 2.04319,11.93805 1.12953,23.5283 -6.2092,33.72991 -3.64211,-13.51698 -10.46824,-22.58283 -19.42369,-28.63516 -10.69068,-7.22505 -16.37457,-16.68844 -19.5829,-29.36297 -3.4062,13.32123 0.3815,24.2839 6.89155,34.61692 6.45273,10.24205 10.05502,21.29939 7.18721,33.52518 -8.53682,-11.09013 -18.32023,-16.85016 -28.90808,-19.01428 -12.64178,-2.58394 -21.52578,-9.14643 -29.34022,-19.62837 1.95092,13.61072 9.65961,22.28502 19.62838,29.3402 9.88677,6.99712 17.44491,15.84423 19.46918,28.2485 -12.13445,-6.98342 -23.36738,-8.58055 -33.98009,-6.52763 -12.66831,2.45055 -23.38601,-0.19793 -34.61691,-6.89154 7.01102,11.82809 17.45311,16.87965 29.36299,19.58289 11.80719,2.67992 22.15418,7.97344 28.77159,18.65037 -13.87334,-1.80306 -24.85149,1.02746 -33.86634,6.98257 -10.76623,7.11196 -21.70215,8.755 -34.63966,6.86876 11.00372,8.24474 22.60191,8.92904 34.63966,6.86881 11.93803,-2.04317 23.52829,-1.12954 33.72988,6.20919 -13.51696,3.64212 -22.58281,10.46823 -28.63513,19.42368 -7.22508,10.69069 -16.68846,16.37457 -29.36299,19.58292 13.32124,3.4062 24.28389,-0.38152 34.61691,-6.89156 10.24203,-6.45273 21.29939,-10.05503 33.52518,-7.1872 -11.09011,8.53681 -16.85017,18.32022 -19.01427,28.90808 -2.58392,12.64176 -9.14641,21.52582 -19.62838,29.34014 13.61072,-1.9508 22.28505,-9.65946 29.34022,-19.62831 6.99713,-9.88678 15.84422,-17.44492 28.24849,-19.46915 -6.98343,12.13443 -8.58056,23.36743 -6.52761,33.98004 2.45054,12.66833 -0.19793,23.386 -6.89156,34.61687 11.82809,-7.01095 16.87965,-17.45306 19.5829,-29.36288 2.68212,-11.8169 7.97853,-22.17769 18.67314,-28.79438 -1.80985,13.88476 1.00146,24.89214 6.95975,33.91182 7.11198,10.76622 8.755,21.67944 6.8688,34.61689 8.24472,-11.0037 8.92906,-22.57911 6.8688,-34.61689 -2.04319,-11.93808 -1.108,-23.54976 6.23196,-33.75262 3.64269,13.50958 10.44886,22.60777 19.40093,28.65791 10.69067,7.22509 16.37458,16.66569 19.58289,29.34015 3.40622,-13.32117 -0.38143,-24.26111 -6.89153,-34.59415 -6.4565,-10.24793 -10.04213,-21.33478 -7.16447,-33.57064 8.53605,11.0909 18.29746,16.87293 28.88535,19.03703 12.64177,2.58386 21.52579,9.14643 29.34022,19.62832 -1.95093,-13.61073 -9.65958,-22.285 -19.62839,-29.34014 -9.88676,-6.9971 -17.4234,-15.86575 -19.44643,-28.27127 12.12819,6.97705 23.34906,8.60247 33.95732,6.55038 12.66831,-2.45057 23.38608,0.19795 34.61692,6.89156 -7.01102,-11.82812 -17.45308,-16.87968 -29.36298,-19.58291 -11.80719,-2.67992 -22.13209,-7.99457 -28.74885,-18.67313 13.86352,1.79789 24.85636,-1.00791 33.86636,-6.95975 10.76619,-7.11198 21.67944,-8.75501 34.6169,-6.8688 -11.00372,-8.24474 -22.57915,-8.92906 -34.6169,-6.86877 -11.93804,2.04317 -23.54982,1.10797 -33.75265,-6.23198 13.5095,-3.64273 22.60786,-10.44889 28.65789,-19.40096 7.22506,-10.69066 16.66574,-16.37456 29.34023,-19.58289 -13.32122,-3.40618 -24.26115,0.38147 -34.59415,6.89154 -10.24801,6.45649 -21.33482,10.04215 -33.57069,7.16446 11.09088,-8.53601 16.87293,-18.29746 19.03703,-28.88532 2.58392,-12.64179 9.14644,-21.52579 19.62839,-29.34021 -13.61073,1.9509 -22.28506,9.65957 -29.34022,19.62839 -6.99714,9.88674 -15.86577,17.42338 -28.27126,19.44642 6.977,-12.12821 8.60246,-23.34909 6.55038,-33.95734 -2.45056,-12.66833 0.19794,-23.38605 6.89153,-34.61691 -11.82807,7.011 -16.87965,17.45308 -19.58289,29.36296 -2.67857,11.80117 -7.98275,22.13168 -18.65036,28.74889 1.79708,-13.86274 -1.03069,-24.83364 -6.98253,-33.84364 -7.11199,-10.7662 -8.75505,-21.70214 -6.8688,-34.63965 z"/>
<use id="shine" xlink:href="#shield" style="fill:url(#rg);stroke:#000000;stroke-width:3;"/>
</svg>
