<?xml version="1.0" encoding="UTF-8" standalone="no"?>
<svg
   xmlns:dc="http://purl.org/dc/elements/1.1/"
   xmlns:cc="http://creativecommons.org/ns#"
   xmlns:rdf="http://www.w3.org/1999/02/22-rdf-syntax-ns#"
   xmlns:svg="http://www.w3.org/2000/svg"
   xmlns="http://www.w3.org/2000/svg"
   xmlns:xlink="http://www.w3.org/1999/xlink"
   xmlns:sodipodi="http://sodipodi.sourceforge.net/DTD/sodipodi-0.dtd"
   xmlns:inkscape="http://www.inkscape.org/namespaces/inkscape"
   width="600"
   height="660"
   id="svg2"
   version="1.1"
   inkscape:version="0.48.2 r9819"
   sodipodi:docname="House_Charlton.svg">
  <metadata
     id="metadata24">
    <rdf:RDF>
      <cc:Work
         rdf:about="">
        <dc:format>image/svg+xml</dc:format>
        <dc:type
           rdf:resource="http://purl.org/dc/dcmitype/StillImage" />
        <dc:title></dc:title>
      </cc:Work>
    </rdf:RDF>
  </metadata>
  <sodipodi:namedview
     pagecolor="#ffffff"
     bordercolor="#666666"
     borderopacity="1"
     objecttolerance="10"
     gridtolerance="10"
     guidetolerance="10"
     inkscape:pageopacity="0"
     inkscape:pageshadow="2"
     inkscape:window-width="1366"
     inkscape:window-height="715"
     id="namedview22"
     showgrid="false"
     inkscape:zoom="0.5056885"
     inkscape:cx="-246.7222"
     inkscape:cy="357.56728"
     inkscape:window-x="-8"
     inkscape:window-y="-8"
     inkscape:window-maximized="1"
     inkscape:current-layer="layer2" />
  <defs
     id="defs4">
    <radialGradient
       id="rg"
       gradientUnits="userSpaceOnUse"
       cx="220"
       cy="220"
       r="405">
      <stop
         style="stop-color:#fff;stop-opacity:.3"
         offset="0"
         id="stop7" />
      <stop
         style="stop-color:#fff;stop-opacity:.2"
         offset=".2"
         id="stop9" />
      <stop
         style="stop-color:#666;stop-opacity:.1"
         offset=".6"
         id="stop11" />
      <stop
         style="stop-color:#000;stop-opacity:.13"
         offset="1"
         id="stop13" />
    </radialGradient>
    <path
       id="shield"
       d="m2,2v257c0,286 298,398 298,398c0,0 298-112 298-398V2z" />
    <radialGradient
       inkscape:collect="always"
       xlink:href="#rg-7"
       id="radialGradient3055-1"
       gradientUnits="userSpaceOnUse"
       cx="220"
       cy="220"
       r="405" />
    <radialGradient
       id="rg-7"
       gradientUnits="userSpaceOnUse"
       cx="220"
       cy="220"
       r="405">
      <stop
         style="stop-color:#fff;stop-opacity:.3"
         offset="0"
         id="stop7-4" />
      <stop
         style="stop-color:#fff;stop-opacity:.2"
         offset=".2"
         id="stop9-0" />
      <stop
         style="stop-color:#666;stop-opacity:.1"
         offset=".6"
         id="stop11-9" />
      <stop
         style="stop-color:#000;stop-opacity:.13"
         offset="1"
         id="stop13-4" />
    </radialGradient>
    <radialGradient
       r="405"
       cy="220"
       cx="220"
       gradientUnits="userSpaceOnUse"
       id="radialGradient3074"
       xlink:href="#rg-7"
       inkscape:collect="always" />
  </defs>
  <g
     inkscape:groupmode="layer"
     id="layer2"
     inkscape:label="Elements"
     style="display:inline">
    <use
       height="1052.3622"
       width="744.09448"
       y="0"
       x="0"
       id="background"
       xlink:href="#shield"
       style="fill:#000000" />
    <g
       style="display:inline"
       id="g3066"
       transform="matrix(0.855,0,0,0.855,43.176823,46.400366)">
      <g
         id="g3036">
        <path
           style="fill:#cc0000"
           d="m 296.58451,608.05979 c -2.92731,-3.06078 -6.02707,-6.11279 -6.88831,-6.78227 -2.01212,-1.56408 -1.56868,-17.17346 0.60715,-21.37207 4.01786,-7.75312 4.92675,-11.22737 4.92675,-18.83255 0,-7.49203 -0.24909,-8.34299 -4.24003,-14.48492 -2.38461,-3.66982 -4.24004,-7.8246 -4.24004,-9.49452 0,-4.91254 -5.58357,-3.78205 -6.88255,1.39349 -0.55666,2.21791 0.12031,3.68843 3.49081,7.58273 4.34158,5.01631 6.15063,10.52301 4.72396,14.37965 -1.11243,3.00718 -12.85139,12.83941 -16.17234,13.5455 -1.45751,0.30988 -4.31953,1.2377 -6.36005,2.0618 -6.62138,2.67418 -13.03424,3.47897 -24.5992,3.08711 l -11.34909,-0.38453 -2.73451,3.24977 c -1.50398,1.78737 -3.44494,4.6236 -4.31325,6.30272 -0.8683,1.67913 -2.02118,3.05296 -2.56193,3.05296 -0.54074,0 -1.98185,-2.25764 -3.20243,-5.01699 -2.15173,-4.86434 -2.16277,-5.14223 -0.36294,-9.13355 1.96159,-4.35002 7.18922,-8.33057 12.55306,-9.55847 16.14759,-3.69651 23.26001,-8.21408 31.69539,-20.13182 4.89615,-6.91741 5.83019,-9.85695 6.61553,-20.81969 0.41384,-5.77699 0.93428,-7.25637 3.22164,-9.15764 3.03609,-2.52362 2.52915,-4.62247 -1.11648,-4.62247 -2.46387,0 -8.08582,4.99243 -8.08582,7.18043 0,4.98302 -17.04907,23.55982 -21.62229,23.55982 -0.97487,0 -3.04248,0.83214 -4.59471,1.84919 -1.89517,1.24176 -5.1037,1.88629 -9.76778,1.96212 -3.82006,0.0621 -7.42256,0.24403 -8.00557,0.40427 -0.583,0.16023 -5.11454,0.224 -10.07008,0.1417 -11.71937,-0.19464 -13.76291,0.96874 -17.94839,10.21783 -2.43783,5.38714 -6.4318,0.34542 -6.4318,-8.11907 0,-6.22301 2.98814,-8.64905 17.49014,-14.20008 16.07001,-6.15123 16.73416,-6.53511 22.35972,-12.9241 10.11174,-11.48397 10.81198,-12.96974 11.59116,-24.59433 0.51461,-7.67737 1.2238,-11.13741 2.71786,-13.26008 2.5801,-3.66562 2.54238,-4.01795 -0.43014,-4.01795 -3.51913,0 -7.88003,5.07162 -9.73663,11.32349 -1.30289,4.38729 -2.89041,6.54785 -8.52976,11.60865 -3.81092,3.41996 -8.22117,6.7331 -9.80055,7.36256 -1.5794,0.62946 -4.64507,1.94122 -6.8126,2.91503 -2.16755,0.97379 -5.59477,1.77055 -7.61606,1.77055 -2.02129,0 -4.77939,0.4072 -6.12909,0.9049 -1.34972,0.49769 -5.31605,0.56156 -8.81408,0.14193 -8.89253,-1.06677 -17.52321,-0.10992 -18.27589,2.02618 -0.89775,2.54784 -6.89397,11.76711 -7.65333,11.76711 -0.36408,0 -1.52076,-2.52652 -2.5704,-5.6145 -2.54229,-7.47932 -1.06868,-14.1354 3.36241,-15.18737 1.58237,-0.37567 3.59254,-1.27822 4.46705,-2.00569 1.8613,-1.54831 17.04102,-6.87268 19.59395,-6.87268 2.67545,0 12.98516,-9.41673 16.21259,-14.80832 3.85157,-6.43427 5.49075,-10.317 5.52829,-13.09499 0.13007,-9.62276 1.76868,-17.69059 4.09626,-20.16819 2.44424,-2.60177 2.34647,-4.92892 -0.20707,-4.92892 -2.41036,0 -7.82585,5.95564 -9.1991,10.11663 -0.75196,2.27844 -2.12937,5.34969 -3.06093,6.825 -2.04606,3.24034 -13.16548,13.79862 -14.53196,13.79862 -0.53531,0 -2.73754,0.94558 -4.89384,2.10128 -2.1563,1.15571 -5.96527,2.38694 -8.46437,2.73607 -2.4991,0.34913 -5.81847,1.11556 -7.37636,1.70318 -3.53186,1.33217 -14.30528,-0.22614 -27.0032,-3.90585 -12.73002,-3.68902 -13.64812,-3.56451 -19.65291,2.66536 -2.80971,2.91502 -5.34554,5.30004 -5.63518,5.30004 -0.28964,0 -0.52661,-2.67391 -0.52661,-5.94203 0,-4.72863 0.52045,-6.56055 2.54863,-8.97091 1.40174,-1.66588 2.73371,-3.58409 2.9599,-4.26269 0.57436,-1.72307 9.10379,-2.94684 21.0583,-3.02136 8.56006,-0.0533 10.9911,-0.47536 15.62992,-2.71321 3.02128,-1.45751 5.89103,-2.65002 6.37722,-2.65002 1.30988,0 15.02653,-14.09074 15.02653,-15.43633 0,-0.63484 1.19251,-2.27455 2.65002,-3.64382 1.45752,-1.36927 2.65002,-3.62261 2.65002,-5.00745 0,-3.54862 2.59577,-8.14601 5.77587,-10.22969 3.44204,-2.25532 3.45573,-3.84301 0.0331,-3.84301 -3.41693,0 -10.85666,4.67245 -12.29836,7.72387 -1.27571,2.7001 -10.6784,9.0135 -18.42083,12.36861 -7.00157,3.03406 -21.65614,4.1941 -25.12623,1.98897 -1.3387,-0.85069 -5.29601,-2.16537 -8.79403,-2.92151 -3.49803,-0.75614 -8.15848,-2.03742 -10.35654,-2.84731 -6.532696,-2.40699 -8.189097,-1.90049 -14.250473,4.35753 -3.105765,3.20653 -6.07957,5.83005 -6.608457,5.83005 -1.405419,0 -0.06036,-11.78292 1.65955,-14.53783 0.806173,-1.29125 1.465736,-3.02897 1.465736,-3.86162 0,-2.15553 1.887671,-2.6423 12.969471,-3.34431 18.704563,-1.18492 20.452923,-1.48004 27.310853,-4.61002 3.78953,-1.72956 8.55956,-4.89577 10.60008,-7.03602 2.04052,-2.14025 4.95802,-4.54545 6.48334,-5.34489 1.71135,-0.89693 3.01923,-2.68315 3.41556,-4.66474 0.35322,-1.76617 1.6095,-4.03942 2.79173,-5.05167 1.18222,-1.01224 2.14949,-2.6302 2.14949,-3.59544 0,-3.62246 3.29546,-9.5303 5.85999,-10.50534 3.00101,-1.14098 3.29788,-2.34653 1.0394,-4.2209 -2.64295,-2.19346 -9.30837,1.74618 -13.4375,7.94231 -2.95011,4.4269 -4.92899,5.97828 -12.01204,9.41701 -11.15944,5.41776 -23.34404,7.24408 -30.38646,4.55455 -2.565581,-0.9798 -5.741009,-1.78146 -7.056504,-1.78146 -1.315495,0 -4.300073,-0.97352 -6.632394,-2.16338 -2.332323,-1.18987 -6.516964,-2.26313 -9.299202,-2.38502 -4.562461,-0.1999 -5.595496,0.22786 -10.532464,4.36131 -3.010616,2.52061 -5.96203,4.28123 -6.558696,3.91247 -3.391407,-2.09601 2.050604,-16.34298 7.262974,-19.01419 1.645156,-0.8431 8.630807,-1.72878 17.09238,-2.16707 16.612976,-0.8605 20.336496,-2.15762 30.022676,-10.45855 6.13675,-5.25915 13.43767,-15.17943 13.43767,-18.25875 0,-2.99285 4.12848,-9.73084 6.31213,-10.30187 2.40801,-0.62971 2.94249,-3.71474 0.78688,-4.54193 -3.45346,-1.32521 -13.65623,6.41353 -18.63832,14.13707 -0.99145,1.53701 -19.112087,8.42472 -24.391216,9.27118 -3.128744,0.50167 -6.438131,0.20663 -10.07008,-0.89776 -10.958748,-3.3323 -26.554257,-7.07387 -29.48508,-7.07387 -1.195632,0 -4.320395,2.14651 -6.943916,4.77004 -2.623521,2.62352 -5.184277,4.77003 -5.690571,4.77003 -0.506294,0 -0.920534,-2.31642 -0.920534,-5.14761 0,-4.24871 0.646478,-5.99427 3.702128,-9.99613 2.03617,-2.6667 4.54044,-5.08181 5.565044,-5.36692 1.024605,-0.28511 7.825464,-0.84121 15.113021,-1.2358 7.287558,-0.39458 13.727109,-1.10195 14.310114,-1.57193 0.583004,-0.46999 2.968023,-1.37446 5.300042,-2.00995 2.931209,-0.79875 6.73191,-3.53019 12.312655,-8.8487 8.115163,-7.73382 10.883383,-11.85811 14.274613,-21.26727 1.25314,-3.47689 2.79257,-5.58861 4.84948,-6.65227 5.63856,-2.91582 3.16059,-5.44829 -3.40599,-3.48089 -3.13839,0.94029 -5.17707,2.51335 -7.34962,5.67105 -3.71448,5.3988 -8.795169,8.96654 -19.091126,13.40609 -6.776608,2.92202 -9.123517,3.41003 -15.900126,3.30621 -10.936339,-0.16754 -19.548964,-3.04747 -25.469424,-8.51657 -2.607448,-2.40866 -7.082463,-6.54623 -9.944476,-9.19461 -5.744916,-5.31607 -8.949991,-5.95279 -18.21774,-3.61915 -2.612517,0.65784 -5.027895,0.91821 -5.367507,0.5786 -1.034579,-1.03458 4.941301,-9.54725 8.797824,-12.53254 l 3.627245,-2.80782 6.388782,1.93437 c 3.513829,1.0639 6.957191,2.34905 7.651915,2.85589 3.686566,2.68955 13.752652,5.46564 21.367128,5.89275 6.969773,0.39095 9.695862,0.0362 15.615216,-2.03187 3.944223,-1.37803 7.821849,-2.50551 8.616947,-2.50551 0.795097,0 2.297976,-0.94182 3.33973,-2.09295 1.041754,-1.15113 2.904449,-2.40685 4.13932,-2.79048 1.234872,-0.38363 3.927694,-2.50656 5.984051,-4.71762 2.056356,-2.21105 5.156881,-4.33421 6.890051,-4.71811 5.96607,-1.32153 6.16502,-1.45541 4.73083,-3.18351 -2.22584,-2.68198 -10.628248,-2.00296 -16.55121,1.33755 -4.704234,2.65314 -6.120813,2.91106 -15.768635,2.87095 -17.172293,-0.0714 -20.467269,-1.57483 -35.422811,-16.16281 -8.475205,-8.26691 -9.159999,-8.70332 -13.657128,-8.70332 -2.603989,0 -6.581708,0.55343 -8.839374,1.22984 -2.257666,0.67642 -4.416924,0.91777 -4.79835,0.53635 -1.203072,-1.20308 3.230771,-8.38335 6.265513,-10.14654 1.599577,-0.92935 2.911337,-2.0307 2.915023,-2.44744 0.0037,-0.41675 0.896416,-1.23387 1.983844,-1.81584 1.445468,-0.77359 3.51206,-0.47723 7.685061,1.10211 3.139356,1.18814 6.914009,2.53793 8.388121,2.99952 1.47411,0.46159 4.674883,1.85687 7.112828,3.10062 5.357741,2.73331 19.78019,3.14347 27.005218,0.76798 2.498144,-0.82134 6.086872,-1.81205 7.974951,-2.20156 1.888079,-0.38951 3.716941,-1.16784 4.064136,-1.72961 0.347195,-0.56178 2.543664,-2.22865 4.881042,-3.70417 2.337377,-1.47552 5.672745,-4.30345 7.411927,-6.28426 1.949594,-2.22046 4.553744,-3.86256 6.791204,-4.28231 2.06307,-0.38703 3.62906,-1.31602 3.62906,-2.15285 0,-1.09087 -1.6307,-1.47205 -6.29749,-1.47205 -3.463624,0 -6.549497,0.40774 -6.857499,0.90611 -0.308003,0.49836 -3.466861,1.96599 -7.019687,3.26142 -5.139956,1.87413 -8.016058,2.25922 -14.077671,1.88493 -14.916009,-0.92102 -17.362862,-2.1008 -30.690609,-14.79789 -10.69361,-10.18758 -11.652137,-10.70039 -18.790854,-10.05308 -3.313182,0.30043 -7.033442,1.17667 -8.267245,1.94719 -6.136459,3.83228 -2.468462,-5.13639 4.88551,-11.94563 3.187811,-2.95169 5.116426,-4.01216 6.360051,-3.49719 0.981677,0.4065 3.454381,1.14111 5.494897,1.63246 3.351705,0.80706 12.492344,4.72049 17.210753,7.36852 1.012347,0.56814 6.058829,1.03298 11.214403,1.03298 7.471706,0 10.96984,-0.57223 17.23952,-2.82007 8.81351,-3.15988 11.795176,-5.0161 19.727389,-12.2812 3.650212,-3.34322 6.440882,-5.03888 8.292782,-5.03888 2.08596,0 2.7021,-0.46871 2.43855,-1.85502 -0.55243,-2.90587 -10.56639,-3.16774 -14.483192,-0.37873 -5.818987,4.14349 -10.566506,5.05704 -21.645523,4.16519 -14.473177,-1.16507 -16.239124,-2.20043 -35.546612,-20.84078 -5.13764,-4.9601 -4.968919,-4.93345 -17.433173,-2.75396 -2.706816,0.47331 -3.975032,0.30309 -3.975032,-0.53355 0,-2.59943 3.137009,-7.09486 7.26628,-10.41282 4.136822,-3.32402 4.500664,-3.41565 9.29533,-2.34114 2.744492,0.61505 6.222675,1.78214 7.729296,2.59353 14.669104,7.90003 24.105733,8.89027 38.651104,4.05588 4.734707,-1.57365 9.956916,-3.95867 11.60491,-5.30004 1.647994,-1.34137 3.49843,-2.43885 4.112081,-2.43885 0.61365,0 3.114658,-2.14652 5.557791,-4.77004 3.5068,-3.76571 5.16818,-4.77004 7.89074,-4.77004 2.71197,0 3.37342,-0.39626 3.09641,-1.85501 -0.26498,-1.39538 -1.5888,-1.93472 -5.3428,-2.17666 -3.97728,-0.25636 -6.61085,0.45768 -12.970919,3.51674 l -7.980373,3.83841 -10.311993,-1.23123 c -11.281337,-1.34698 -16.334577,-3.38778 -21.702899,-8.76496 -1.927581,-1.93075 -5.775481,-5.33536 -8.550891,-7.56579 -3.429598,-2.75614 -6.039954,-6.13754 -8.148205,-10.55498 -3.714805,-7.78367 -3.53629,-11.46743 1.212805,-25.02691 5.165157,-14.747409 6.576487,-21.855232 5.064412,-25.505701 -0.709543,-1.71299 -1.677067,-3.114525 -2.150055,-3.114525 -0.472986,0 -1.171438,-0.981333 -1.552115,-2.180739 -0.380677,-1.199406 -1.882605,-2.633352 -3.337617,-3.186547 -3.789013,-1.44058 -2.489241,-3.592209 2.379266,-3.938604 2.824383,-0.200956 5.686244,0.52885 8.924416,2.275827 6.528038,3.521841 9.592137,11.058663 9.004799,22.149276 -0.596366,11.261055 2.270849,20.589376 8.436214,27.446743 5.424957,6.03386 12.485904,11.49447 14.863139,11.49447 3.26417,0 2.981412,-4.80959 -0.579785,-9.86189 -3.15891,-4.48159 -3.455069,-5.63467 -3.918371,-15.256055 -0.769033,-15.970484 2.110209,-22.635707 15.678754,-36.29512 10.937188,-11.010436 12.171218,-14.117104 9.349108,-23.53646 -0.67642,-2.257666 -0.9712,-4.363488 -0.65509,-4.679605 1.53496,-1.534957 6.55956,1.343284 10.44369,5.982466 l 4.32506,5.165798 -3.42124,9.825201 c -1.88169,5.40386 -4.184,10.996297 -5.11627,12.427638 -2.17333,3.336802 -3.4551,18.389096 -1.98986,23.367769 3.8804,13.185054 6.64187,18.417468 12.89849,24.439998 2.8636,2.75646 4.32762,5.21801 4.78802,8.0504 0.42279,2.60104 1.23299,4.07989 2.23519,4.07989 2.25828,0 2.76096,-11.24021 0.64997,-14.53357 -4.51323,-7.0411 -5.20452,-20.932684 -1.60202,-32.19287 2.01558,-6.300062 4.72165,-9.843981 19.74923,-25.864071 3.79502,-4.04567 4.43772,-8.592537 2.30184,-16.284589 -0.62226,-2.240936 -0.89006,-4.315744 -0.59512,-4.610682 1.51207,-1.51207 8.5078,2.378645 11.36235,6.319234 3.52423,4.865053 3.51245,8.544988 -0.0517,16.145987 -8.16097,17.404382 -7.76984,15.965181 -7.16318,26.357949 0.79385,13.599677 5.57586,24.439612 14.81596,33.585042 3.53107,3.4949 5.03504,5.83767 5.03504,7.84323 0,2.15113 0.45967,2.77249 1.85501,2.50752 2.82096,-0.53568 3.14328,-9.52431 0.47824,-13.33702 -3.48115,-4.98028 -5.76504,-14.184361 -5.22131,-21.041821 0.98586,-12.432971 4.15067,-18.515028 15.6547,-30.084854 10.91516,-10.977573 12.14147,-14.064331 9.32374,-23.46904 -0.67641,-2.257666 -0.94687,-4.387815 -0.60102,-4.733662 0.34585,-0.345849 2.31892,-0.07103 4.38463,0.610714 4.9553,1.635401 10.4554,9.466353 9.5572,13.607424 -0.74301,3.425602 -5.09664,14.075962 -7.9421,19.428931 -3.24651,6.107423 -2.87434,20.004977 0.78356,29.259756 1.55782,3.941414 3.90987,8.475395 5.22679,10.075512 1.31691,1.60012 2.67376,3.78951 3.01521,4.86532 0.34145,1.07581 1.72465,2.54677 3.07379,3.26881 2.93055,1.56839 5.99196,6.43503 5.99196,9.52528 0,1.51479 0.6744,2.22147 2.12002,2.22147 1.86744,0 2.12001,-0.70668 2.12001,-5.93142 0,-4.17714 -0.60999,-6.78807 -2.06245,-8.82788 -5.42607,-7.62019 -6.90972,-20.812968 -3.40821,-30.306024 1.98137,-5.37173 6.40924,-12.573749 9.04294,-14.708515 0.79839,-0.647156 4.6143,-4.672503 8.47975,-8.945215 7.8428,-8.669069 8.33983,-10.513891 5.20822,-19.33115 -1.00096,-2.818242 -1.52419,-5.419809 -1.16274,-5.781259 1.27876,-1.278751 8.86038,3.565913 12.31747,7.870863 l 3.50478,4.364341 -2.82887,8.20287 c -1.55588,4.511578 -3.96779,10.45278 -5.3598,13.202671 -3.72476,7.358217 -3.60367,20.335274 0.28211,30.234326 1.54717,3.941414 3.39767,7.881714 4.11221,8.756221 0.71455,0.874511 2.09515,3.160951 3.068,5.080991 0.97286,1.92005 2.85956,3.98795 4.19267,4.59537 2.87891,1.31172 5.95425,6.15647 5.95425,9.38007 0,1.61707 0.55034,2.1948 1.85502,1.94732 1.3629,-0.25853 1.94305,-1.57651 2.18685,-4.96812 0.25803,-3.5897 -0.50806,-6.31606 -3.44503,-12.26003 -3.23199,-6.541024 -3.77686,-8.704994 -3.77686,-14.999723 0,-13.201404 4.13222,-21.075576 19.09916,-36.394478 6.60078,-6.756009 6.85512,-7.870376 4.67572,-20.48694 -0.43083,-2.494124 -0.27423,-3.975031 0.42033,-3.975031 2.97327,0 6.48101,2.353539 10.11203,6.784739 l 4.00042,4.881973 -3.39403,9.801767 c -1.86672,5.390973 -4.00177,11.003563 -4.74458,12.472422 -0.74279,1.46886 -1.47027,6.954403 -1.61661,12.190096 -0.2132,7.627136 0.18852,10.725775 2.02086,15.58801 1.25783,3.337712 2.28696,7.835382 2.28696,9.994822 0,2.159443 0.44854,5.391133 0.99677,7.181533 0.54821,1.79041 1.67886,5.64031 2.51254,8.55533 1.41668,4.95355 1.73966,5.30004 4.94027,5.30004 3.07751,0 3.57715,-0.45163 4.93124,-4.45746 0.82873,-2.4516 1.9238,-8.17564 2.4335,-12.7201 0.50968,-4.544449 1.76785,-10.886159 2.79592,-14.092685 1.02806,-3.206525 2.07086,-9.627705 2.31732,-14.269288 0.39641,-7.46548 0.11534,-9.177806 -2.43593,-14.840118 -4.01553,-8.912115 -4.44538,-9.978626 -6.32791,-15.700914 l -1.66466,-5.060004 3.75383,-4.581062 c 3.44623,-4.205662 11.52159,-9.168174 12.81477,-7.874995 0.30021,0.30021 -0.42016,2.799413 -1.60082,5.553784 -3.32514,7.757238 -2.87499,10.9329 2.35838,16.637351 10.97565,11.963646 13.08733,14.468337 16.38057,19.429337 1.92202,2.895363 3.53251,5.995887 3.57888,6.890054 0.0463,0.894167 0.4259,5.680291 0.84342,10.63583 0.63338,7.517429 0.42827,9.888096 -1.23815,14.31011 -1.09851,2.91503 -2.45707,5.85605 -3.01901,6.53562 -1.46655,1.77351 -0.67932,13.33851 0.94443,13.87413 0.83605,0.2758 1.32501,-0.59684 1.32501,-2.36473 0,-1.86456 1.68556,-4.64214 5.03888,-8.30339 7.18665,-7.84656 9.43899,-11.364877 11.4127,-17.827484 0.95649,-3.131838 2.1777,-6.789955 2.71382,-8.129147 1.8015,-4.50005 1.17122,-18.430116 -0.99457,-21.981621 -1.07878,-1.768992 -3.48902,-7.593184 -5.35611,-12.942648 -3.83959,-11.001021 -3.76241,-11.448582 3.03286,-17.587696 4.01907,-3.630999 7.76168,-4.928559 8.90055,-3.085825 0.27118,0.43878 -0.17049,2.704548 -0.98149,5.03504 -2.5925,7.449791 -2.00694,10.524112 2.99857,15.743234 18.6202,19.414847 20.25503,22.620618 20.34989,39.904432 0.0463,8.44413 -0.33919,10.870865 -2.38776,15.029625 -2.8926,5.87218 -3.02474,16.24062 -0.20699,16.24062 0.97885,0 1.72846,-1.21919 1.9502,-3.17186 0.21454,-1.88918 2.14352,-5.12921 4.77004,-8.01206 4.7725,-5.23824 7.42531,-9.462629 10.61668,-16.9063 2.83208,-6.605621 3.7918,-27.152444 1.4409,-30.848144 -2.28223,-3.587732 -6.85272,-15.596886 -7.67266,-20.160298 -0.6217,-3.460033 -0.27892,-4.257068 3.48011,-8.092035 7.21382,-7.359543 11.83535,-7.223887 9.19866,0.270011 -2.87437,8.169439 -1.87879,10.426817 10.18119,23.084695 9.57894,10.053837 11.36614,12.548966 12.78423,17.848187 3.12253,11.668518 2.11726,25.573933 -2.29698,31.773164 -1.73088,2.4308 -1.93108,3.80388 -1.24731,8.55509 0.56635,3.93538 1.29443,5.65955 2.3899,5.65955 1.07776,0 1.58626,-1.13673 1.60975,-3.59851 0.0276,-2.89283 0.91106,-4.35362 4.50503,-7.44897 2.45889,-2.11775 4.4707,-4.39709 4.4707,-5.06522 0,-0.66813 1.16154,-2.59518 2.58119,-4.282345 1.41966,-1.687163 2.89132,-4.466532 3.27037,-6.176378 0.37905,-1.709845 1.36403,-4.907226 2.18885,-7.105291 2.30032,-6.130113 1.97445,-20.27354 -0.57622,-25.009424 -2.61816,-4.861194 -6.95361,-15.621504 -7.90547,-19.620802 -0.55796,-2.344399 -0.0743,-3.985426 2.09928,-7.121822 2.83625,-4.092716 8.79922,-8.381978 11.6527,-8.381978 1.94051,0 1.92827,1.112929 -0.0541,4.913873 -0.87091,1.669904 -1.58642,5.258589 -1.59001,7.974856 -0.006,4.537355 0.48875,5.479711 6.08852,11.596958 3.35227,3.662062 7.57892,8.117715 9.39254,9.901451 6.24018,6.137357 8.60975,11.123402 9.95427,20.945828 1.48941,10.880883 0.75002,16.881646 -2.74649,22.289924 -2.63781,4.08005 -3.03179,6.64988 -1.89271,12.34532 0.81019,4.05091 3.57753,4.46691 3.57753,0.5378 0,-1.79927 1.4154,-4.19012 4.02616,-6.80089 5.75064,-5.75063 10.63113,-14.073111 12.65151,-21.574052 2.43394,-9.036273 1.97901,-23.830745 -0.88189,-28.679619 -1.15807,-1.962765 -2.52662,-4.925997 -3.04122,-6.584962 -0.51461,-1.658964 -1.90777,-5.584862 -3.09591,-8.724218 -1.51186,-3.994703 -1.86004,-6.26886 -1.16005,-7.576804 1.6581,-3.098204 10.74056,-10.565465 12.85081,-10.565465 2.38317,0 2.41822,0.585304 0.38076,6.36005 -2.85791,8.100185 -1.99205,10.626172 6.89006,20.100399 2.04051,2.176547 4.52815,4.864662 5.52807,5.97359 0.99993,1.108929 2.73881,2.881906 3.86418,3.939952 2.27271,2.136739 5.67535,8.786528 7.46132,14.58167 2.76335,8.96652 0.71292,25.895439 -3.73124,30.806169 -2.20099,2.43207 -1.04485,8.33888 1.63217,8.33888 1.02628,0 5.45043,-3.48132 9.83146,-7.73626 7.19223,-6.98524 8.181,-8.45161 10.18534,-15.105118 1.65351,-5.488839 2.11822,-9.397161 1.82149,-15.318921 -0.30262,-6.039163 0.11068,-9.37084 1.71949,-13.861033 1.9392,-5.412328 2.60533,-6.150051 7.89648,-8.74507 5.84489,-2.866604 8.42832,-3.359805 11.475,-2.190685 2.32349,0.891609 2.10073,3.319177 -0.37674,4.105495 -2.32857,0.739062 -8.55318,9.584989 -8.53405,12.127957 0.0214,2.847677 2.75998,11.829307 6.75963,22.169372 2.10532,5.442803 3.82787,11.535073 3.82787,13.538383 0,5.93847 -5.36493,16.3259 -10.68468,20.68736 -2.57699,2.11278 -6.82683,5.80507 -9.44408,8.20508 -5.82571,5.34213 -15.17819,8.62365 -24.5778,8.62365 -6.58427,0 -14.70681,-2.24384 -17.9174,-4.94967 -2.46409,-2.07669 -14.75666,-1.92705 -14.75666,0.17963 0,0.94106 0.97344,1.59164 2.38502,1.59398 2.92915,0.005 9.11953,3.65733 9.97442,5.88513 1.04717,2.72888 11.68667,8.86335 20.18228,11.6366 11.02643,3.59938 21.22648,3.58677 28.73519,-0.0355 3.02127,-1.45751 5.93391,-2.65002 6.47253,-2.65002 0.53862,0 2.32972,-0.66257 3.98023,-1.47238 6.48606,-3.18232 10.18215,-3.88138 12.48322,-2.36101 5.25412,3.47154 12.57644,13.39825 11.02641,14.94826 -0.32918,0.32918 -2.85207,-0.3675 -5.60644,-1.54816 -7.74958,-3.32185 -10.93381,-2.86735 -16.56448,2.36431 -14.30216,13.28864 -18.4772,16.90846 -21.01673,18.22169 -1.53807,0.79537 -7.3201,1.97899 -12.84895,2.63028 -9.15501,1.07845 -10.56136,0.99655 -15.75263,-0.9173 -3.1351,-1.1558 -6.54123,-2.86259 -7.56918,-3.79289 -2.68359,-2.42861 -13.06574,-1.80676 -13.56366,0.81243 -0.26308,1.38384 0.35173,1.85501 2.4205,1.85501 1.82454,0 4.51757,1.63169 7.87272,4.77004 2.80475,2.62352 5.48206,4.77004 5.94957,4.77004 0.46752,0 2.40071,1.18275 4.29597,2.62835 5.29589,4.03936 18.59155,7.97173 26.9531,7.97173 5.75133,0 8.55672,-0.64797 14.4398,-3.33524 4.01593,-1.83439 10.15352,-4.2087 13.63909,-5.27625 l 6.33741,-1.94101 4.00229,2.7736 c 3.97806,2.75679 8.23309,8.41216 8.23309,10.94261 0,0.90628 -0.9189,1.1035 -2.91502,0.62567 -12.70453,-3.04118 -14.28971,-2.4415 -26.85924,10.16099 -10.09149,10.11796 -14.1315,12.21935 -26.09837,13.57497 -8.47749,0.96035 -9.95756,0.85032 -15.18548,-1.12887 -3.18588,-1.20611 -6.5751,-2.89543 -7.53163,-3.75403 -2.57009,-2.30699 -12.95453,-1.57824 -13.43379,0.94275 -0.24951,1.31251 0.33099,1.85501 1.98497,1.85501 3.08161,0 8.82192,3.61098 10.98269,6.90872 0.94827,1.44724 2.39204,2.63136 3.20838,2.63136 0.81633,0 2.8326,1.11837 4.48059,2.48528 2.75401,2.28427 6.03506,3.67549 16.32172,6.92065 2.08191,0.65678 6.85195,1.19433 10.60009,1.19457 5.48648,3.2e-4 8.15776,-0.65194 13.70485,-3.3464 7.8549,-3.81547 11.72713,-5.44506 16.83135,-7.08333 3.32701,-1.06786 3.915,-0.87597 8.28242,2.70278 9.01374,7.38609 9.5068,13.31442 0.85643,10.29731 -7.33621,-2.55875 -8.95281,-2.04476 -16.93853,5.3855 -4.06915,3.78611 -7.73378,6.88384 -8.14363,6.88384 -0.40985,0 -1.02245,0.87362 -1.36135,1.94137 -0.82441,2.5975 -7.65808,6.96043 -14.41991,9.20636 -8.27873,2.74974 -21.06777,1.8417 -28.11995,-1.99658 -4.34254,-2.36351 -6.44524,-2.8535 -11.10704,-2.58827 -4.47642,0.25469 -5.82855,0.73815 -6.10307,2.18219 -0.27475,1.44527 0.37697,1.85501 2.95051,1.85501 2.45269,0 4.61615,1.22815 8.40272,4.77004 2.80475,2.62352 5.48207,4.77004 5.94957,4.77004 0.46752,0 2.32606,1.10354 4.13011,2.45233 5.70417,4.26468 16.18191,7.08774 26.30601,7.08774 8.41174,0 9.77104,-0.31912 18.06048,-4.24003 4.93025,-2.33202 9.77845,-4.24003 10.77375,-4.24003 0.9953,0 2.74347,-0.49978 3.88483,-1.11061 1.71319,-0.91687 2.91467,-0.42272 6.88772,2.8329 2.64688,2.16892 5.51441,5.30079 6.37226,6.9597 1.39748,2.70243 1.3822,3.08431 -0.14693,3.67109 -0.93866,0.3602 -3.51495,0.11312 -5.72509,-0.54904 -7.51583,-2.2518 -8.65063,-1.77413 -19.24798,8.10207 -5.49206,5.11831 -11.41186,9.8218 -13.15514,10.45221 -8.7448,3.16228 -12.17931,3.87372 -18.70064,3.87372 -5.95076,0 -8.39299,-0.61486 -15.10693,-3.80329 -9.4329,-4.47967 -14.75074,-8.44486 -17.74737,-13.23314 -2.21667,-3.54198 -8.68776,-7.08995 -11.1841,-6.13202 -2.19667,0.84295 -1.60424,3.33454 1.08412,4.55944 1.46336,0.66675 3.20818,3.06878 4.29355,5.91076 3.51461,9.20288 8.15078,16.42772 13.13524,20.46943 2.75893,2.23713 6.20875,5.19611 7.66626,6.57552 4.47429,4.23453 12.77897,6.31457 25.62444,6.41802 12.07141,0.0972 17.2667,1.55356 18.60088,5.21414 0.36074,0.98977 1.52871,2.93718 2.59548,4.32756 2.43161,3.16925 2.72565,11.78214 0.40224,11.78214 -0.84553,0 -1.91879,-0.67532 -2.38502,-1.50069 -0.46622,-0.82539 -2.74931,-3.00948 -5.07352,-4.85355 -4.53322,-3.59668 -4.3271,-3.58789 -15.91431,-0.67843 -10.43808,2.62092 -13.53328,3.53418 -18.71065,5.5207 -4.81107,1.84596 -5.0936,1.83787 -11.66009,-0.33373 -16.59648,-5.48858 -18.1951,-6.34959 -24.7497,-13.33018 -6.18805,-6.59022 -11.96491,-10.12372 -14.24613,-8.71385 -1.88795,1.16681 -1.25265,3.9144 1.04395,4.51497 2.17792,0.56955 6.31213,7.30625 6.31213,10.28565 0,5.0505 14.75344,20.91761 22.80242,24.52365 2.32529,1.04177 7.80532,2.2736 12.17785,2.73743 4.37254,0.46383 11.78127,1.24245 16.46385,1.73026 4.68259,0.48782 9.06408,1.22704 9.73666,1.64272 2.0221,1.24973 6.77863,12.64986 6.44269,15.44142 -0.4809,3.99611 -2.27438,3.77832 -7.72358,-0.93792 -4.98724,-4.31643 -5.01906,-4.3264 -11.51531,-3.60814 -3.58284,0.39614 -7.45515,1.36819 -8.60513,2.16012 -1.14997,0.79192 -3.26514,1.43986 -4.70036,1.43986 -1.43523,0 -4.68115,1.00286 -7.21316,2.22859 -4.74746,2.29821 -6.44086,2.30274 -17.79585,0.0477 -6.92574,-1.37543 -18.47879,-6.71339 -21.34119,-9.86045 -1.24356,-1.36723 -3.0351,-4.01782 -3.9812,-5.8902 -1.8136,-3.58921 -8.36628,-6.53158 -11.69833,-5.25296 -2.35412,0.90336 -2.07441,2.91985 0.49835,3.59263 2.29132,0.59921 6.31213,7.36211 6.31213,10.61689 0,1.05967 0.96726,2.75488 2.14948,3.76712 1.18223,1.01225 2.43436,3.26477 2.78252,5.00562 0.34817,1.74084 1.04537,3.16516 1.54932,3.16516 0.50396,0 3.47573,2.31783 6.60393,5.15075 8.43806,7.64154 17.3363,11.44569 27.19506,11.62637 9.8479,0.18047 20.55853,1.22961 21.89793,2.14497 2.52716,1.72708 5.66229,10.04943 5.66229,15.03082 0,2.89707 -0.29762,5.2674 -0.66137,5.2674 -0.36375,0 -2.4939,-2.08187 -4.73366,-4.62638 -5.62973,-6.3957 -9.3998,-7.84442 -14.51756,-5.57864 -5.41865,2.399 -18.4938,5.87835 -26.43984,7.03575 -7.15318,1.04193 -9.735,0.49168 -22.54811,-4.8055 -6.95578,-2.87566 -13.78011,-8.2236 -13.78011,-10.7989 0,-2.11054 -6.43348,-5.59808 -10.33508,-5.60256 -1.89477,-0.002 -3.44503,0.25364 -3.44503,0.5685 0,0.31486 1.90801,2.38751 4.24003,4.60591 3.35924,3.19557 4.24004,4.79853 4.24004,7.71645 0,2.60742 0.77391,4.3559 2.65002,5.98716 1.45751,1.26729 2.65002,2.82358 2.65002,3.45841 0,0.63484 2.98127,4.13289 6.62505,7.77345 9.67343,9.66486 14.58307,11.44883 32.0368,11.64091 7.59471,0.0835 14.60805,0.62078 15.5852,1.19378 5.07594,2.97652 9.85703,15.73148 7.32807,19.54975 -0.82812,1.25034 -1.8698,0.58823 -5.42001,-3.44502 -4.00833,-4.55378 -4.81262,-4.99292 -9.14451,-4.99292 -2.6123,0 -5.704,0.51077 -6.87046,1.13503 -1.16645,0.62427 -4.59338,1.59901 -7.61537,2.1661 -3.02201,0.56708 -7.64107,1.53126 -10.2646,2.14262 -6.07447,1.41552 -9.5907,1.40483 -17.49013,-0.0532 -14.64185,-2.7025 -25.85427,-11.20328 -31.80562,-24.11369 -3.35211,-7.2718 -5.86278,-9.89709 -9.46503,-9.89709 -2.19085,0 -2.10621,1.98969 0.19272,4.52999 1.15214,1.27309 2.12344,4.71078 2.56934,9.09354 1.19738,11.76907 2.81038,18.37005 5.0789,20.78479 1.1877,1.26423 2.15944,2.80943 2.15944,3.43377 0,1.92581 13.73338,14.09832 15.90616,14.09832 4.76065,0 25.47816,8.09857 26.99468,10.55235 1.43999,2.32996 0.71219,10.44893 -1.28577,14.34336 l -2.10593,4.10487 -3.32444,-4.58925 c -1.82844,-2.52407 -3.32444,-5.2164 -3.32444,-5.98291 0,-2.75715 -4.2231,-3.74954 -13.58714,-3.19288 -5.06167,0.30089 -9.91855,0.57578 -10.79305,0.61085 -6.3555,0.2549 -16.10373,-2.04953 -21.98141,-5.19628 -8.19025,-4.38483 -17.68535,-14.08889 -19.21847,-19.64141 -1.38748,-5.02502 -6.07987,-10.08884 -9.34884,-10.08884 -2.97167,0 -3.00968,0.35136 -0.43463,4.01796 1.47764,2.10397 2.19652,5.56527 2.688,12.94218 0.43795,6.57342 1.17177,10.4509 2.11333,11.16679 0.79335,0.60319 2.19284,2.8927 3.11002,5.0878 0.91717,2.19509 4.42477,6.71011 7.79467,10.03337 5.40489,5.33009 7.25159,6.40453 15.66717,9.11546 19.46231,6.26945 22.31727,8.31146 21.88411,15.65264 -0.27016,4.57862 -2.70777,10.42443 -4.34683,10.42443 -0.52713,0 -2.05164,-2.18895 -3.38779,-4.86434 -3.43737,-6.88267 -6.56599,-8.23163 -16.95793,-7.31174 -5.87856,0.52037 -8.81498,0.36614 -9.88151,-0.519 -1.17354,-0.97396 -2.33918,-0.96225 -5.14294,0.0516 -3.15315,1.1402 -4.59193,0.99414 -11.04387,-1.12105 -5.96457,-1.95542 -8.90799,-3.77814 -15.01917,-9.30066 -7.04945,-6.37045 -11.75451,-12.96646 -11.75451,-16.47863 0,-2.12243 -3.50759,-4.97656 -6.11595,-4.97656 -3.50918,0 -3.9547,2.13879 -0.96289,4.62247 2.34244,1.94459 2.80064,3.32449 3.21688,9.68765 0.26696,4.08103 0.82441,9.08957 1.23878,11.13008 0.84447,4.15855 7.47294,13.57884 12.91942,18.36092 3.43192,3.01325 18.76314,9.1993 22.79915,9.1993 1.05986,0 3.72857,1.13728 5.93046,2.52726 5.5016,3.47302 7.01803,8.43198 4.55923,14.90946 -2.44294,6.43569 -2.94785,6.70292 -5.12668,2.71343 -1.03846,-1.90146 -2.98141,-4.80151 -4.31768,-6.44459 l -2.42957,-2.9874 -10.82054,0.46494 c -16.97735,0.7295 -19.95436,0.54097 -26.44313,-1.67459 -6.93091,-2.36654 -19.04587,-11.53717 -19.95843,-15.10791 -1.02634,-4.01591 0.75537,-9.09827 4.73306,-13.50108 2.09976,-2.3242 3.81775,-5.2098 3.81775,-6.41246 0,-3.3809 -1.97726,-6.28731 -4.27732,-6.28731 -1.56443,0 -2.08371,0.72542 -2.08669,2.91502 -0.004,3.0589 -3.53821,9.80508 -5.13648,9.80508 -1.74165,0 -4.39977,9.05861 -4.36502,14.87556 0.0311,5.19733 1.37346,10.29752 5.10069,19.37872 0.67361,1.64121 1.22475,6.56277 1.22475,10.93677 l 0,7.95275 -6.34721,6.28836 c -3.49097,3.4586 -6.52022,6.28836 -6.73167,6.28836 -0.21145,0 -2.77955,-2.50427 -5.70687,-5.56504 z"
           id="path3005"
           inkscape:connector-curvature="0" />
        <g
           id="g14726"
           transform="matrix(2.9484276,-0.553577,-0.01286157,2.8960221,632.92365,-295.18889)"
           style="fill:#dddddd;stroke:#000000;stroke-width:1.61137974;stroke-opacity:1;display:inline">
          <path
             d="m -161.37932,128.65106 0,30.71102"
             style="fill:#dddddd;stroke:#000000;stroke-width:1.61137974px;stroke-linecap:butt;stroke-opacity:1"
             id="path1908"
             inkscape:connector-curvature="0" />
          <rect
             style="fill:#dddddd;stroke:#000000;stroke-width:1.61137974;stroke-opacity:1"
             width="4.564496"
             height="10.840678"
             rx="1.7859999"
             ry="1.7859999"
             x="-206.8726"
             y="-9.0203781"
             transform="matrix(0.766044,-0.642788,0.642788,0.766044,0,0)"
             id="rect1901" />
          <rect
             width="9.6827583"
             height="124.26207"
             rx="1.7859999"
             ry="2.9865799"
             x="-209.44972"
             y="-0.41970891"
             transform="matrix(0.766044,-0.642788,0.642788,0.766044,0,0)"
             style="fill:#dddddd;stroke:#000000;stroke-width:1.61137974;stroke-opacity:1"
             id="rect1896" />
          <path
             inkscape:transform-center-y="58.03825"
             inkscape:transform-center-x="-8.7883281"
             style="fill:#dddddd;stroke:#000000;stroke-width:1.61137974;stroke-opacity:1"
             d="m -163.4207,154.139 2.72675,-1.91934 c 1.27384,-0.89665 5.73932,-0.23834 6.84715,1.33552 l 21.14928,33.55307 c 1.60501,2.2802 4.08342,10.68632 4.08342,10.68632 l -2.72675,1.91934 c 0,0 -7.07711,-5.16913 -8.68213,-7.44933 l -24.45057,-31.22931 c -0.90724,-1.53901 -0.22099,-5.99962 1.05285,-6.89627 z"
             id="rect1898"
             inkscape:connector-curvature="0" />
        </g>
      </g>
    </g>
  </g>
  <g
     inkscape:groupmode="layer"
     id="layer1"
     inkscape:label="Cover"
     style="display:inline"
     sodipodi:insensitive="true">
    <path
       d="m 2,2 v 257 c 0,286 298,398 298,398 0,0 298,-112 298,-398 V 2 z"
       id="shine"
       inkscape:connector-curvature="0"
       style="fill:url(#radialGradient3074);stroke:#000000;stroke-width:3" />
  </g>
</svg>
